<svg width="978" height="489" viewBox="0 0 978 489" fill="none" xmlns="http://www.w3.org/2000/svg">
<g clip-path="url(#clip0_1402_397)">
<path d="M743.5 0C743.5 67.4976 716.687 132.231 668.959 179.959C621.231 227.687 556.498 254.5 489 254.5C421.502 254.5 356.769 227.687 309.041 179.959C261.313 132.231 234.5 67.4976 234.5 3.84284e-05" stroke="url(#paint0_linear_1402_397)" stroke-dasharray="4 4"/>
<path d="M867.5 0C867.5 100.384 827.622 196.657 756.64 267.64C685.657 338.622 589.384 378.5 489 378.5C388.616 378.5 292.343 338.622 221.36 267.64C150.378 196.657 110.5 100.384 110.5 5.71519e-05" stroke="url(#paint1_linear_1402_397)" stroke-dasharray="4 4"/>
<path d="M977.5 0C977.5 129.558 926.033 253.81 834.422 345.422C742.81 437.033 618.558 488.5 489 488.5C359.442 488.5 235.19 437.033 143.578 345.422C51.9668 253.81 0.50002 129.558 0.5 7.37614e-05" stroke="url(#paint2_linear_1402_397)" stroke-dasharray="4 4"/>
<g filter="url(#filter0_d_1402_397)">
<circle cx="489" cy="232" r="93" fill="#F9FAFB"/>
</g>
<path d="M451.464 213H458.623V250.96H451.464V213Z" fill="#17313B"/>
<path d="M483.523 238.93C483.523 244.812 477.921 245.346 476.053 245.346C471.696 245.346 471.073 241.871 471.073 240V225.297H463.914V239.732C463.914 243.208 465.159 246.415 467.649 248.287C469.828 250.158 472.629 250.96 476.053 250.96C478.543 250.96 481.656 250.425 483.523 248.821V250.96H490.682V225.297H483.523V238.93Z" fill="#17313B"/>
<path d="M504.69 215.941H497.531V225.297H492.239V231.178H497.531V250.96H504.69V231.178H509.981V225.297H504.69V215.941Z" fill="#17313B"/>
<path d="M532.391 243.208C530.835 244.277 528.656 245.079 526.477 245.079C521.497 245.079 518.073 241.871 518.073 237.594C518.073 233.317 521.497 230.376 526.477 230.376C528.656 230.376 530.835 230.911 532.391 232.247L533.325 233.049L538.305 229.039L537.06 228.237C534.259 226.099 530.524 224.762 526.477 224.762C517.762 224.762 511.226 230.376 511.226 237.861C511.226 245.346 517.762 250.96 526.477 250.96C530.524 250.96 534.259 249.623 537.06 247.485L538.305 246.683L533.325 242.406L532.391 243.208Z" fill="#17313B"/>
<path d="M563.518 227.435C561.339 225.564 559.16 224.762 555.736 224.762C553.246 224.762 550.756 225.297 548.888 226.901V213H541.729V250.96H548.888V236.792C548.888 230.911 553.557 230.376 555.425 230.376C559.783 230.376 559.471 233.851 559.471 235.723V250.693H566.63V235.99C566.63 232.515 565.697 229.307 563.518 227.435Z" fill="#17313B"/>
<path d="M526.166 242.138C528.916 242.138 531.146 240.223 531.146 237.861C531.146 235.499 528.916 233.584 526.166 233.584C523.415 233.584 521.186 235.499 521.186 237.861C521.186 240.223 523.415 242.138 526.166 242.138Z" fill="#EF4335"/>
<path d="M441.503 241.604C439.013 243.742 435.278 245.079 431.232 245.079C423.45 245.079 417.848 239.732 417.848 232.515C417.848 225.297 423.45 219.95 431.543 219.95C435.278 219.95 439.013 221.287 441.815 223.693L442.749 224.495L447.417 220.485L446.484 219.683C442.437 216.208 437.146 214.337 431.543 214.337C419.715 214.069 411 222.089 411 232.515C411 242.94 419.715 250.96 431.232 250.96C436.835 250.96 442.437 249.089 446.172 245.613L447.106 244.812L442.437 240.802L441.503 241.604Z" fill="#17313B"/>
<g filter="url(#filter1_d_1402_397)">
<circle cx="853" cy="118" r="63" fill="#F9FAFB"/>
</g>
<path d="M826.615 104.003L817 102.745L823.266 118.56L826.615 104.003ZM821.805 102.316L826.24 103.061L820.744 98L821.805 102.316ZM827.357 103.061L829.721 98L831.314 103.377L827.357 103.061ZM827.091 104.063L823.611 119.186L826.772 127.371L830.328 119.562L831.311 104.563L827.091 104.063ZM823.798 121.558L822.124 138L826.478 128.247L823.798 121.558ZM830.225 98.2504L831.924 103.377L839.812 98.2504H830.225Z" fill="#29B2FE"/>
<path d="M837.615 107.562C837.617 108.834 837.584 110.099 837.514 111.357C836.957 111.404 836.259 110.929 836.279 113.183C837.136 113.137 837.365 113.183 837.365 113.183C837.365 113.183 837.326 117.17 836.049 117.018C835.59 123.114 835.153 128.458 835.153 128.458H833.109L834.224 111.41C834.224 111.41 834.481 107.944 835.817 107.575L837.615 107.562ZM836.719 128.471L837.794 112.913H839.667L839.813 114.086C839.813 114.086 840.283 112.537 841.697 112.913C841.358 116.708 841.299 117.275 841.299 117.275C841.299 117.275 839.745 116.899 839.625 118.072C839.505 119.245 838.889 128.478 838.889 128.478L836.719 128.471ZM853.309 115.72C852.892 113.941 852.133 112.313 850.341 112.847C848.549 113.381 847.264 117.532 847.353 123.166C847.535 127.852 848.949 128.682 849.445 128.84C852.81 129.776 852.852 125.651 852.872 124.102C852.175 124.102 851.847 124.135 851.556 124.148C851.472 124.794 850.108 124.478 850.108 124.478C850.108 124.478 849.59 124.385 849.551 122.231H853.317C853.314 122.231 853.729 117.506 853.309 115.72ZM851.377 119.516C850.999 119.608 849.725 119.516 849.725 119.516C850.223 114.876 851.595 116.893 851.377 119.516ZM879.758 115.72C879.341 113.941 878.582 112.313 876.79 112.847C874.998 113.381 873.713 117.532 873.802 123.166C873.984 127.852 875.398 128.682 875.894 128.84C879.259 129.776 879.301 125.651 879.321 124.102C878.624 124.102 878.296 124.135 878.005 124.148C877.921 124.794 876.557 124.478 876.557 124.478C876.557 124.478 876.039 124.385 876 122.231H879.761C879.758 122.231 880.167 117.506 879.758 115.72ZM877.826 119.516C877.448 119.608 876.174 119.516 876.174 119.516C876.664 114.876 878.039 116.893 877.817 119.516H877.826Z" fill="black"/>
<path d="M847.162 115.72C846.745 113.941 845.986 112.313 844.194 112.847C842.402 113.381 841.117 117.532 841.207 123.166C841.389 127.852 842.803 128.682 843.298 128.84C846.664 129.776 846.706 125.651 846.725 124.102C846.028 124.102 845.701 124.135 845.409 124.148C845.325 124.794 843.962 124.478 843.962 124.478C843.962 124.478 843.444 124.386 843.405 122.231H847.165C847.162 122.231 847.582 117.506 847.162 115.72ZM845.227 119.516C844.849 119.608 843.575 119.516 843.575 119.516C844.082 114.877 845.449 116.893 845.227 119.516ZM854.722 107.938L853.347 128.465H855.54L857.013 107.938H854.722ZM862.072 128.471L863.187 112.853H865.138V114.046C865.138 114.046 865.816 112.313 867.608 112.853C869.4 113.387 868.504 120.88 868.504 120.88L868.025 128.484H865.875C865.875 128.484 866.373 120.814 866.471 118.778C866.37 116.478 865.217 116.577 864.937 118.218C864.797 120.234 864.161 128.484 864.161 128.484L862.072 128.471ZM871.772 117.315H873.743L873.925 114.27C873.925 114.27 874.163 112.867 873.328 112.84C872.494 112.814 871.237 112.84 871.237 112.84C871.237 112.84 868.787 113.657 868.927 124.959C869.056 126.975 869.708 128.59 870.556 128.985C870.738 129.078 872.004 128.985 872.004 128.985C872.004 128.985 873.418 128.557 873.219 124.392C871.746 124.484 871.128 124.629 871.046 123.641C870.962 122.659 871.214 117.69 871.772 117.315ZM880.256 118.059L882.832 112.834L881.849 128.471H879.673L880.256 118.059Z" fill="black"/>
<path d="M883.363 112.834L882.99 118.435L887 112.748L883.363 112.834Z" fill="#29B2FE"/>
<path d="M860.798 112.847C859.146 112.814 858.765 112.88 858.149 112.847C857.53 112.814 857.113 114.975 857.152 117.268H859.686C859.686 117.268 859.944 117.176 859.966 117.697C859.977 118.198 859.977 118.698 859.966 119.199H858.129C858.129 119.199 855.539 119.759 856.357 127.12C856.516 128.247 857.312 129.031 857.751 128.992C858.191 128.952 859.286 128.01 859.465 127.634L859.484 128.524L861.436 128.478C861.436 128.478 862.094 118.87 862.173 118.072C862.251 117.275 862.391 114.198 860.798 112.847ZM859.09 125.064C858.32 125.064 858.213 123.311 858.826 122.375C859.437 121.749 859.809 122.125 859.809 122.125C859.809 122.125 859.837 125.13 859.09 125.064Z" fill="black"/>
<g filter="url(#filter2_d_1402_397)">
<circle cx="126" cy="118" r="63" fill="#F9FAFB"/>
</g>
<path d="M93.3812 117.605H97.3806V122.542C96.1327 122.894 94.5571 123.087 92.9192 123.087C86.2812 123.087 82.3798 118.092 82.3798 113.214C82.3798 108.429 85.9087 105.073 90.8319 105.073C93.9473 105.073 95.76 106 97.3817 107.292V108.903L100.423 106.23C98.4992 105.087 95.7141 104 91.7333 104C82.9944 104 79 109.494 79 114.009C79 120.436 84.3268 124.307 91.0208 124.307C94.2665 124.307 97.1484 123.872 100.477 123.058V117.958C100.477 117.697 100.608 117.518 100.803 117.361L101.853 116.438H94.7197L93.3812 117.605Z" fill="url(#paint3_linear_1402_397)"/>
<path d="M111.297 110.897C106.267 110.897 103.15 114.127 103.15 117.555C103.15 120.515 105.661 124.028 110.748 124.028C115.642 124.028 118.644 120.792 118.644 117.303C118.644 114.054 115.71 110.898 111.297 110.898V110.897ZM110.462 111.839C114.009 111.839 115.588 115.899 115.588 118.795C115.588 123.102 111.912 123.187 111.472 123.187C109.789 123.187 108.614 122.293 107.733 121.121C106.959 120.041 106.201 118.034 106.201 116.074C106.201 114.12 106.929 113.167 108.074 112.465C109.01 111.939 109.886 111.839 110.461 111.839H110.462Z" fill="url(#paint4_linear_1402_397)"/>
<path d="M144.178 110.896C139.785 110.896 137.408 113.34 137.408 116.069C137.408 118.147 139.102 120.49 142.596 120.49H143.48C143.48 120.49 143.239 121.004 143.238 121.501C143.238 122.233 143.537 122.644 144.173 123.277C138.16 123.599 135.744 125.73 135.744 128.02C135.744 130.026 137.93 132 142.522 132C147.96 132 150.776 129.347 150.776 126.744C150.776 124.909 149.735 123.903 147.1 122.168C146.326 121.638 146.175 121.301 146.175 120.905C146.175 120.338 146.562 119.962 146.703 119.821C146.953 119.589 147.385 119.325 147.546 119.199C148.432 118.54 149.682 117.564 149.682 115.618C149.682 114.282 149.05 113.133 147.61 112.057H149.368L150.689 110.896H144.178V110.896ZM142.966 111.765C143.763 111.765 144.429 112.012 145.131 112.526C145.911 113.144 147.157 114.803 147.157 116.857C147.157 119.073 145.197 119.68 144.137 119.68C143.618 119.68 142.996 119.552 142.469 119.236C141.3 118.569 140.139 116.795 140.139 114.683C140.139 112.778 141.43 111.765 142.966 111.765ZM144.706 124.119C145.041 124.119 145.282 124.143 145.282 124.143C145.282 124.143 146.073 124.639 146.625 125.01C147.912 125.904 148.714 126.587 148.714 127.803C148.714 129.476 146.948 130.788 144.088 130.788C140.949 130.788 138.55 129.503 138.55 127.406C138.55 125.669 140.194 124.174 144.706 124.119Z" fill="url(#paint5_linear_1402_397)"/>
<path d="M151.64 123.645H157.671L158.59 122.838L156.86 122.648C156.394 122.598 156.117 122.244 156.117 121.901V105.893C156.117 105.578 156.284 105.416 156.405 105.314L157.493 104.358H152.35L151.012 105.534H153.011V122.116C153.011 122.352 152.926 122.512 152.745 122.677L151.64 123.645Z" fill="url(#paint6_linear_1402_397)"/>
<path d="M165.843 110.897C162.476 110.897 158.898 113.153 158.898 117.202C158.898 120.546 161.465 124.028 166.26 124.028C167.456 124.028 168.441 123.893 169.363 123.521C170.353 123.12 171.305 122.47 172 121.653C170.688 122.234 169.618 122.616 168.196 122.616C165.494 122.616 162.889 120.903 161.978 117.754L171.522 114.364C170.971 112.637 169.417 110.897 165.844 110.897H165.843ZM165.22 111.824C167.026 111.824 168.333 113.13 168.333 114.152C168.333 114.483 168.097 114.657 167.63 114.819L161.763 116.904C161.763 116.904 161.604 116.255 161.604 115.553C161.604 112.61 164.025 111.824 165.22 111.824Z" fill="url(#paint7_linear_1402_397)"/>
<path d="M128.365 110.897C123.335 110.897 120.219 114.127 120.219 117.555C120.219 120.515 122.73 124.028 127.817 124.028C132.71 124.028 135.712 120.792 135.712 117.303C135.712 114.054 132.778 110.898 128.365 110.898V110.897ZM127.531 111.839C131.077 111.839 132.656 115.899 132.656 118.795C132.656 123.102 128.98 123.187 128.54 123.187C126.858 123.187 125.682 122.293 124.802 121.121C124.027 120.041 123.27 118.034 123.27 116.074C123.27 114.12 123.997 113.167 125.142 112.465C126.078 111.939 126.955 111.839 127.53 111.839H127.531Z" fill="url(#paint8_linear_1402_397)"/>
<path d="M189 459C233.183 459 269 423.183 269 379C269 334.817 233.183 299 189 299C144.817 299 109 334.817 109 379C109 423.183 144.817 459 189 459Z" fill="#00B22D"/>
<path d="M252.39 366.212C252.39 363.572 250.31 361.412 247.67 361.412C245.11 361.412 242.99 363.532 242.99 366.212C242.99 368.852 245.07 371.012 247.67 371.012C250.31 371.052 252.39 368.892 252.39 366.212ZM247.67 369.692C245.87 369.692 244.47 368.172 244.47 366.212C244.47 364.292 245.87 362.772 247.67 362.772C249.51 362.772 250.95 364.292 250.95 366.212C250.95 368.172 249.51 369.692 247.67 369.692Z" fill="white"/>
<path d="M248.952 366.611C249.192 366.531 249.712 366.171 249.712 365.411C249.712 364.491 249.112 363.931 248.112 363.931H245.992V368.451H247.392V366.931H247.752L248.392 368.451H249.912L249.072 366.891C248.992 366.651 248.952 366.611 248.952 366.611ZM247.752 365.971H247.392V364.891H247.752C248.072 364.891 248.232 365.051 248.232 365.411C248.272 365.771 248.072 365.971 247.752 365.971Z" fill="white"/>
<path d="M148.471 369.932C150.459 369.932 152.071 368.32 152.071 366.332C152.071 364.344 150.459 362.732 148.471 362.732C146.483 362.732 144.871 364.344 144.871 366.332C144.871 368.32 146.483 369.932 148.471 369.932Z" fill="white"/>
<path d="M152.231 372.292H135.751V371.212C135.751 369.092 137.871 369.052 138.951 369.052C140.191 369.052 140.751 369.172 140.751 369.172V363.332C140.751 363.332 139.631 363.172 138.111 363.172C134.671 363.172 128.311 364.132 128.311 371.412V372.332H125.311V377.732H128.311V389.132H125.511V394.532H139.031V389.132H135.751V377.732H144.751V389.132H141.951V394.532H155.031V389.132H152.231V372.292ZM180.231 372.292H168.431V377.692H170.431L167.871 385.692C167.391 387.012 167.271 388.612 167.271 388.612H167.111C167.111 388.612 166.991 387.012 166.511 385.692L163.951 377.692H165.951V372.292H154.151V377.692H156.631L162.791 394.492H171.591L177.751 377.692H180.231V372.292ZM202.071 382.492C202.071 376.332 198.351 371.772 191.751 371.772C184.591 371.772 180.191 376.852 180.191 383.372C180.191 389.292 184.471 395.012 192.391 395.012C198.391 395.012 201.951 391.892 201.951 391.892L199.231 386.732C199.231 386.732 196.271 388.852 192.991 388.852C190.631 388.852 188.391 387.612 187.831 384.772H201.911C201.871 384.732 202.071 383.212 202.071 382.492ZM187.991 380.652C188.391 378.932 189.431 377.372 191.551 377.372C193.191 377.372 194.351 378.892 194.351 380.652H187.991ZM233.631 377.412H233.551C233.551 377.412 233.631 376.972 233.631 376.292V375.132C233.631 373.092 232.511 372.292 230.471 372.292H223.471V377.692H225.551C226.151 377.692 226.511 378.052 226.511 378.652V389.132H223.511V394.532H236.991V389.132H233.991V385.892C233.991 381.852 235.991 379.212 240.111 379.212C241.031 379.212 241.631 379.332 241.631 379.332V372.012C241.631 372.012 241.191 371.932 240.751 371.932C237.391 371.892 234.591 374.372 233.631 377.412ZM213.911 377.412H213.831C213.831 377.412 213.911 376.972 213.911 376.292V375.132C213.911 373.092 212.791 372.292 210.751 372.292H203.751V377.692H205.831C206.431 377.692 206.791 378.052 206.791 378.652V389.132H203.791V394.532H217.271V389.132H214.271V385.892C214.271 381.852 216.271 379.212 220.391 379.212C221.311 379.212 221.911 379.332 221.911 379.332V372.012C221.911 372.012 221.471 371.932 221.031 371.932C217.631 371.892 214.831 374.372 213.911 377.412Z" fill="white"/>
<path d="M789 459C833.183 459 869 423.183 869 379C869 334.817 833.183 299 789 299C744.817 299 709 334.817 709 379C709 423.183 744.817 459 789 459Z" fill="#F9FAFB"/>
<path d="M759.747 382.344C757.68 382.344 755.744 381.565 753.985 380.296L754.413 378.505L754.432 378.439C754.813 376.532 756.023 373.331 759.747 373.331C762.539 373.331 764.81 375.354 764.81 377.841C764.801 380.321 762.53 382.344 759.747 382.344ZM759.747 368.762C754.99 368.762 751.304 371.515 749.806 376.042C747.516 372.982 745.785 369.309 744.77 366.216H739.651V378.082C739.651 380.42 737.51 382.327 734.885 382.327C732.26 382.327 730.12 380.42 730.12 378.082V366.216H725V378.082C724.981 382.941 729.421 386.93 734.876 386.93C740.33 386.93 744.77 382.941 744.77 378.082V376.092C745.766 377.941 746.985 379.807 748.465 381.465L745.328 394.6H750.569L752.84 385.072C754.832 386.208 757.122 386.922 759.746 386.922C765.359 386.922 769.929 382.825 769.929 377.825C769.929 372.833 765.359 368.762 759.747 368.762Z" fill="#6FDA44"/>
<path d="M785.557 369.276L788.861 381.142L792.501 369.276H796.838L791.244 386.424H786.907L783.472 374.483L780.047 386.416H775.71L770.115 369.268H774.453L778.092 381.134L781.396 369.268H785.557V369.276L785.557 369.276ZM807.217 368.762C801.585 368.762 797.025 372.833 797.025 377.841C797.025 382.858 801.595 386.922 807.217 386.922C812.848 386.922 817.418 382.858 817.418 377.841C817.418 372.825 812.848 368.762 807.217 368.762ZM807.217 383.19C803.903 383.19 801.222 380.802 801.222 377.85C801.222 374.898 803.912 372.51 807.217 372.51C810.53 372.51 813.211 374.898 813.211 377.85C813.211 380.794 810.53 383.19 807.217 383.19ZM829.807 373.115C826.893 373.115 824.539 375.221 824.539 377.808V386.416H820.173V369.276H824.539V371.913C824.539 371.913 826.4 369.267 830.226 369.267H831.566V373.115H829.807ZM844.457 377.178C847.557 375.619 849.66 372.659 849.66 369.267H845.295C845.295 372.128 842.689 374.45 839.478 374.45H838.891V361H834.526V386.415H838.891V378.339H839.413C839.841 378.339 840.399 378.588 840.651 378.895L846.849 386.416H852.08L844.457 377.178Z" fill="black"/>
</g>
<defs>
<filter id="filter0_d_1402_397" x="392" y="139" width="194" height="194" filterUnits="userSpaceOnUse" color-interpolation-filters="sRGB">
<feFlood flood-opacity="0" result="BackgroundImageFix"/>
<feColorMatrix in="SourceAlpha" type="matrix" values="0 0 0 0 0 0 0 0 0 0 0 0 0 0 0 0 0 0 127 0" result="hardAlpha"/>
<feOffset dy="4"/>
<feGaussianBlur stdDeviation="2"/>
<feComposite in2="hardAlpha" operator="out"/>
<feColorMatrix type="matrix" values="0 0 0 0 0.211765 0 0 0 0 0.337255 0 0 0 0 0.466667 0 0 0 0.2 0"/>
<feBlend mode="normal" in2="BackgroundImageFix" result="effect1_dropShadow_1402_397"/>
<feBlend mode="normal" in="SourceGraphic" in2="effect1_dropShadow_1402_397" result="shape"/>
</filter>
<filter id="filter1_d_1402_397" x="786" y="55" width="134" height="134" filterUnits="userSpaceOnUse" color-interpolation-filters="sRGB">
<feFlood flood-opacity="0" result="BackgroundImageFix"/>
<feColorMatrix in="SourceAlpha" type="matrix" values="0 0 0 0 0 0 0 0 0 0 0 0 0 0 0 0 0 0 127 0" result="hardAlpha"/>
<feOffset dy="4"/>
<feGaussianBlur stdDeviation="2"/>
<feComposite in2="hardAlpha" operator="out"/>
<feColorMatrix type="matrix" values="0 0 0 0 0.211765 0 0 0 0 0.337255 0 0 0 0 0.466667 0 0 0 0.2 0"/>
<feBlend mode="normal" in2="BackgroundImageFix" result="effect1_dropShadow_1402_397"/>
<feBlend mode="normal" in="SourceGraphic" in2="effect1_dropShadow_1402_397" result="shape"/>
</filter>
<filter id="filter2_d_1402_397" x="59" y="55" width="134" height="134" filterUnits="userSpaceOnUse" color-interpolation-filters="sRGB">
<feFlood flood-opacity="0" result="BackgroundImageFix"/>
<feColorMatrix in="SourceAlpha" type="matrix" values="0 0 0 0 0 0 0 0 0 0 0 0 0 0 0 0 0 0 127 0" result="hardAlpha"/>
<feOffset dy="4"/>
<feGaussianBlur stdDeviation="2"/>
<feComposite in2="hardAlpha" operator="out"/>
<feColorMatrix type="matrix" values="0 0 0 0 0.211765 0 0 0 0 0.337255 0 0 0 0 0.466667 0 0 0 0.2 0"/>
<feBlend mode="normal" in2="BackgroundImageFix" result="effect1_dropShadow_1402_397"/>
<feBlend mode="normal" in="SourceGraphic" in2="effect1_dropShadow_1402_397" result="shape"/>
</filter>
<linearGradient id="paint0_linear_1402_397" x1="453.5" y1="229.5" x2="451.5" y2="2.06601e-05" gradientUnits="userSpaceOnUse">
<stop stop-color="#BCCAD9"/>
<stop offset="1" stop-color="#BCCAD9" stop-opacity="0"/>
</linearGradient>
<linearGradient id="paint1_linear_1402_397" x1="436.237" y1="341.1" x2="433.265" y2="3.07066e-05" gradientUnits="userSpaceOnUse">
<stop stop-color="#BCCAD9"/>
<stop offset="1" stop-color="#BCCAD9" stop-opacity="0"/>
</linearGradient>
<linearGradient id="paint2_linear_1402_397" x1="420.924" y1="440.1" x2="417.088" y2="3.96188e-05" gradientUnits="userSpaceOnUse">
<stop stop-color="#BCCAD9"/>
<stop offset="1" stop-color="#BCCAD9" stop-opacity="0"/>
</linearGradient>
<linearGradient id="paint3_linear_1402_397" x1="90.3697" y1="103.943" x2="90.3697" y2="124.306" gradientUnits="userSpaceOnUse">
<stop stop-color="#196EEF"/>
<stop offset="0.5" stop-color="#186DEE"/>
<stop offset="1" stop-color="#1065E7"/>
</linearGradient>
<linearGradient id="paint4_linear_1402_397" x1="110.841" y1="110.866" x2="110.841" y2="124.034" gradientUnits="userSpaceOnUse">
<stop stop-color="#DE5744"/>
<stop offset="0.5" stop-color="#DB4632"/>
<stop offset="1" stop-color="#D13D29"/>
</linearGradient>
<linearGradient id="paint5_linear_1402_397" x1="143.205" y1="110.866" x2="143.205" y2="132.008" gradientUnits="userSpaceOnUse">
<stop stop-color="#1A6FEF"/>
<stop offset="0.25" stop-color="#1E72EF"/>
<stop offset="0.5" stop-color="#166BEC"/>
<stop offset="0.75" stop-color="#1267E9"/>
<stop offset="1" stop-color="#1063E5" stop-opacity="0.87"/>
</linearGradient>
<linearGradient id="paint6_linear_1402_397" x1="154.746" y1="104.313" x2="154.746" y2="123.664" gradientUnits="userSpaceOnUse">
<stop stop-color="#0AA561"/>
<stop offset="0.5" stop-color="#009B58"/>
<stop offset="1" stop-color="#00914B"/>
</linearGradient>
<linearGradient id="paint7_linear_1402_397" x1="165.395" y1="110.866" x2="165.395" y2="123.997" gradientUnits="userSpaceOnUse">
<stop stop-color="#DE5644"/>
<stop offset="0.5" stop-color="#DA4531"/>
<stop offset="1" stop-color="#CE3A28"/>
</linearGradient>
<linearGradient id="paint8_linear_1402_397" x1="127.91" y1="110.895" x2="127.91" y2="124.008" gradientUnits="userSpaceOnUse">
<stop stop-color="#FFC01A"/>
<stop offset="0.5" stop-color="#FFBA03"/>
<stop offset="1" stop-color="#FFB300"/>
</linearGradient>
<clipPath id="clip0_1402_397">
<rect width="978" height="489" fill="white"/>
</clipPath>
</defs>
</svg>
