<svg width="52" height="52" viewBox="0 0 52 52" fill="none" xmlns="http://www.w3.org/2000/svg">
<g clip-path="url(#clip0_522_3735)">
<path d="M16.3115 25.279C16.3318 25.279 16.342 25.279 16.3623 25.279C16.3826 25.279 16.3927 25.279 16.4131 25.279C25.3709 25.1876 24.0709 13.2337 24.0709 13.2337C23.6951 5.25084 17.0224 5.31178 16.3623 5.34225C15.7021 5.32193 9.0193 5.25084 8.65368 13.2337C8.65368 13.2337 7.35368 25.1876 16.3115 25.279Z" fill="#045BB2"/>
<path d="M22.1508 27.5134L19.043 37.3345L17.225 32.1955C20.4141 27.7572 17.0016 27.5337 16.3922 27.5236C16.382 27.5236 16.382 27.5236 16.3719 27.5236C16.3617 27.5236 16.3617 27.5236 16.3516 27.5236C15.7422 27.5337 12.3297 27.747 15.5188 32.1955L13.7109 37.3345L10.6031 27.5134C10.6031 27.5134 6.70312 29.4025 3.20938 31.6064C0.578906 33.2619 0.08125 35.0392 0.0101563 37.6189L0 46.3228H16.3922H21.5617C21.5008 46.1095 21.4703 45.8861 21.4703 45.6525V37.5986C21.4703 36.2478 22.5672 35.1509 23.918 35.1509H26.9445C27.168 35.1509 27.3813 35.1814 27.5945 35.2322V33.9626C27.5945 32.7845 28.4273 31.8095 29.5242 31.5759C26.0406 29.3923 22.1508 27.5134 22.1508 27.5134Z" fill="#022D62"/>
<path d="M26.9441 36.9485H23.9176C23.552 36.9485 23.2676 37.243 23.2676 37.5985V38.868V44.4032V45.6524C23.2676 46.018 23.5621 46.3024 23.9176 46.3024H26.9441C27.3098 46.3024 27.5941 46.0079 27.5941 45.6524V44.4032V38.868V37.6188C27.5941 37.243 27.2996 36.9485 26.9441 36.9485Z" fill="#045BB2"/>
<path d="M33.0594 33.3228H30.0328C29.6672 33.3228 29.3828 33.6173 29.3828 33.9728V38.8579V40.7673V45.6423C29.3828 46.0079 29.6773 46.2923 30.0328 46.2923H33.0594C33.425 46.2923 33.7094 45.9978 33.7094 45.6423V40.7673V38.8579V33.9829C33.7195 33.6173 33.425 33.3228 33.0594 33.3228Z" fill="#045BB2"/>
<path d="M39.8429 35.2625V29.8696H41.9351C42.321 29.8696 42.5648 29.443 42.3515 29.118L38.0859 22.2727C37.8929 21.968 37.4359 21.968 37.2429 22.2727L32.9773 29.118C32.7741 29.443 33.0077 29.8696 33.3937 29.8696H35.4859V45.6524C35.4859 46.018 35.7804 46.3024 36.1359 46.3024H39.1726C39.5382 46.3024 39.8226 46.018 39.8226 45.6524C38.6038 44.261 37.8624 42.443 37.8624 40.4524C37.8827 38.4719 38.6241 36.654 39.8429 35.2625Z" fill="#045BB2"/>
<path d="M45.7953 34.2471C42.3625 34.2471 39.5898 37.0197 39.5898 40.4525C39.5898 43.8853 42.3625 46.658 45.7953 46.658C49.2281 46.658 52.0008 43.8853 52.0008 40.4525C52.0008 37.0197 49.2281 34.2471 45.7953 34.2471ZM47.5828 42.9104C47.3188 43.2354 46.9531 43.4588 46.5469 43.5705C46.3641 43.6213 46.293 43.7127 46.293 43.8955C46.3031 44.0783 46.293 44.2611 46.293 44.4439C46.293 44.6064 46.2117 44.6979 46.0492 44.6979C45.8461 44.6979 45.6531 44.6979 45.45 44.6979C45.2773 44.6979 45.1961 44.5963 45.1961 44.4338C45.1961 44.2916 45.1961 44.1697 45.1961 44.0275C45.1961 43.733 45.1859 43.7229 44.9016 43.6721C44.5359 43.6213 44.1805 43.5299 43.8453 43.3775C43.5813 43.2455 43.5609 43.1846 43.632 42.9104C43.6828 42.7072 43.7539 42.5041 43.8047 42.301C43.8758 42.0674 43.9469 42.0369 44.1602 42.1486C44.5359 42.3416 44.9117 42.4432 45.3281 42.5041C45.5922 42.5346 45.8461 42.5143 46.0898 42.4127C46.5469 42.2096 46.618 41.6814 46.232 41.3666C46.1 41.265 45.9578 41.1736 45.7953 41.1127C45.3891 40.9299 44.9727 40.808 44.607 40.5846C43.9875 40.2088 43.6117 39.7111 43.6523 38.9697C43.7031 38.1268 44.1805 37.5986 44.9523 37.3244C45.2672 37.2025 45.2672 37.2229 45.2672 36.8775C45.2672 36.7557 45.2672 36.6541 45.2672 36.5424C45.2773 36.2885 45.318 36.2478 45.5617 36.2478C45.6328 36.2478 45.7242 36.2478 45.7953 36.2478C46.3234 36.2478 46.3234 36.2479 46.3234 36.776C46.3234 37.1518 46.3234 37.1619 46.6992 37.2127C46.9836 37.2533 47.2578 37.3447 47.532 37.4564C47.6844 37.5174 47.7352 37.6291 47.6945 37.7713C47.6336 38.0049 47.5625 38.2283 47.4914 38.4619C47.4203 38.6752 47.3492 38.7057 47.1359 38.6143C46.7195 38.4111 46.2828 38.3299 45.8156 38.3604C45.6938 38.3705 45.582 38.3807 45.4602 38.4314C45.0641 38.6041 45.0031 39.051 45.3281 39.315C45.5008 39.4572 45.7039 39.5486 45.907 39.6299C46.2625 39.7822 46.6078 39.9143 46.9531 40.0971C48.0398 40.6557 48.3242 41.9963 47.5828 42.9104Z" fill="#022D62"/>
</g>
<defs>
<clipPath id="clip0_522_3735">
<rect width="52" height="52" fill="white"/>
</clipPath>
</defs>
</svg>
