<svg width="40" height="40" viewBox="0 0 40 40" fill="none" xmlns="http://www.w3.org/2000/svg">
<rect width="40" height="40" fill="white"/>
<path d="M12.7691 20.4076C15.5123 19.789 17.3778 17.5878 17.5648 15.305C17.5648 15.1851 17.5648 15.07 17.5648 14.9501C17.5871 14.1769 17.454 13.4071 17.1735 12.6862C16.893 11.9654 16.4707 11.3081 15.9317 10.7533C15.3927 10.1985 14.7478 9.75748 14.0353 9.45632C13.3228 9.15517 12.5571 9 11.7836 9C11.0101 9 10.2444 9.15517 9.53191 9.45632C8.81941 9.75748 8.17456 10.1985 7.63552 10.7533C7.09649 11.3081 6.6742 11.9654 6.39369 12.6862C6.11317 13.4071 5.98013 14.1769 6.0024 14.9501C6.0024 17.794 7.73364 20.8488 10.189 23.5824C12.5868 26.1948 15.4058 28.3865 18.5288 30.0662L19.9675 27.6683C16.9414 25.8604 13.5748 22.9733 12.7691 20.4076Z" fill="#8BBC3A"/>
<path d="M26.6768 20.4076C29.42 19.789 31.2855 17.5878 31.4725 15.305C31.4725 15.1851 31.4725 15.07 31.4725 14.9501C31.4948 14.1769 31.3617 13.4071 31.0812 12.6862C30.8007 11.9654 30.3785 11.3081 29.8394 10.7533C29.3004 10.1985 28.6555 9.75748 27.943 9.45632C27.2305 9.15517 26.4649 9 25.6913 9C24.9178 9 24.1521 9.15517 23.4396 9.45632C22.7271 9.75748 22.0823 10.1985 21.5432 10.7533C21.0042 11.3081 20.5819 11.9654 20.3014 12.6862C20.0209 13.4071 19.8878 14.1769 19.9101 14.9501C19.9101 17.794 21.6414 20.8488 24.0967 23.5824C26.4945 26.1948 29.3135 28.3865 32.4365 30.0662L33.8752 27.6683C30.8491 25.8604 27.4825 22.9733 26.6768 20.4076Z" fill="#8BBC3A"/>
</svg>
