<svg width="100" height="100" viewBox="0 0 100 100" fill="none" xmlns="http://www.w3.org/2000/svg">
<path d="M49.9784 0.028288C63.2784 0.558045 82.9836 -1.51221 91.517 8.07334C101.303 16.3283 99.9171 36.239 99.949 50.0058C99.9171 63.8453 101.303 68.9194 91.5227 78.7534C82.9892 87.2613 63.2829 100.515 49.9841 99.9845C36.3106 99.8518 29.1117 88.6316 19.4783 80.2145C10.7866 70.7923 -0.333927 64.1709 0.0076832 50.0058C-0.333927 36.5736 10.7855 18.1966 19.4726 9.53443C29.106 -0.137332 36.3049 -0.107838 49.9784 0.028288Z" fill="#192736"/>
<g clip-path="url(#clip0_524_3940)">
<path d="M73.8669 84.8779C74.5499 84.8776 75.2063 85.1427 75.6975 85.6172C78.9066 88.7159 83.5875 89.7477 87.7487 88.4563C85.0707 82.8771 84.6996 76.4854 86.7749 70.5672C89.3504 63.204 89.9959 55.8237 87.0647 48.4218C84.4895 41.9194 79.5201 36.5171 73.2309 33.4365C73.6191 35.5101 73.8139 37.6153 73.8128 39.725C73.813 48.7404 70.3462 57.2196 64.0518 63.6009C57.7566 69.983 49.3179 73.5716 40.2906 73.7058C38.6199 73.7315 36.9495 73.6346 35.293 73.4158C40.2543 82.1122 49.6112 87.7761 59.8933 87.9286C64.3912 87.9981 68.71 87.0557 72.732 85.1351C73.0863 84.9656 73.4741 84.8778 73.8669 84.8779Z" fill="white"/>
<path d="M40.3653 11.0057C24.351 10.6877 11.0387 23.6431 11.0001 39.6539C10.9906 43.5657 11.7542 47.3584 13.2698 50.9271C13.2918 50.979 13.3123 51.0315 13.3308 51.0848C15.4061 57.0029 15.0352 63.3945 12.357 68.9738C16.5186 70.2647 21.199 69.2335 24.4082 66.1345C24.7944 65.7615 25.2855 65.5155 25.8155 65.4294C26.3455 65.3432 26.8892 65.4211 27.3737 65.6526C31.3952 67.5733 35.7145 68.5186 40.2122 68.4464C56.1013 68.2104 68.5475 55.5943 68.5473 39.7246C68.5475 24.2012 55.9049 11.3181 40.3653 11.0057ZM24.4255 44.0146C22.1247 44.0146 20.2595 42.1524 20.2595 39.8555C20.2595 37.5585 22.1247 35.6964 24.4255 35.6964C26.7264 35.6964 28.5916 37.5585 28.5916 39.8555C28.5914 42.1524 26.7264 44.0146 24.4255 44.0146ZM39.7738 44.0146C37.473 44.0146 35.6077 42.1524 35.6077 39.8555C35.6077 37.5585 37.473 35.6964 39.7738 35.6964C42.0746 35.6964 43.9398 37.5585 43.9398 39.8555C43.9398 42.1524 42.0746 44.0146 39.7738 44.0146ZM55.1222 44.0146C52.8214 44.0146 50.9562 42.1524 50.9562 39.8555C50.9562 37.5585 52.8214 35.6964 55.1222 35.6964C57.423 35.6964 59.2883 37.5585 59.2883 39.8555C59.2883 42.1524 57.423 44.0146 55.1222 44.0146Z" fill="white"/>
</g>
<defs>
<clipPath id="clip0_524_3940">
<rect width="78" height="78" fill="white" transform="translate(11 11)"/>
</clipPath>
</defs>
</svg>
