<svg width="45" height="46" viewBox="0 0 45 46" fill="none" xmlns="http://www.w3.org/2000/svg">
<path d="M15.4688 19.1094C14.6777 19.1094 14.0625 18.4941 14.0625 17.7031V16.2969C14.0625 15.5938 14.6777 14.8906 15.4688 14.8906H29.5312C30.2344 14.8906 30.9375 15.5938 30.9375 16.2969V17.7031C30.9375 18.4941 30.2344 19.1094 29.5312 19.1094H15.4688ZM14.0625 26.1406V24.7344C14.0625 24.0312 14.6777 23.3281 15.4688 23.3281H29.5312C30.2344 23.3281 30.9375 24.0312 30.9375 24.7344V26.1406C30.9375 26.9316 30.2344 27.5469 29.5312 27.5469H15.4688C14.6777 27.5469 14.0625 26.9316 14.0625 26.1406ZM22.5 36.8633C23.9062 36.8633 25.3125 36.4238 26.543 35.457L45 22.1855V40.9062C45 43.2793 43.0664 45.125 40.7812 45.125H4.21875C1.8457 45.125 0 43.2793 0 40.9062V22.1855L18.3691 35.457C19.5996 36.4238 21.0059 36.8633 22.5 36.8633ZM43.3301 14.4512C44.3848 15.3301 45 16.4727 45 17.791V18.7578L36.5625 24.8223V8.5625H8.4375V24.8223L0 18.7578V17.791C0 16.4727 0.615234 15.2422 1.58203 14.4512C2.37305 13.9238 3.07617 13.3086 4.21875 12.5176V8.5625C4.21875 6.27734 6.06445 4.34375 8.4375 4.34375H15.2051C15.4688 4.16797 15.7324 3.99219 15.9961 3.81641C17.4902 2.76172 20.3906 0.125 22.5 0.125C24.5215 0.125 27.4219 2.76172 28.916 3.81641C29.1797 3.99219 29.4434 4.16797 29.707 4.34375H36.5625C38.8477 4.34375 40.7812 6.27734 40.7812 8.5625V12.5176C41.8359 13.3086 42.5391 13.9238 43.3301 14.4512Z" fill="#8BBC3A"/>
</svg>
