<svg width="548" height="556" viewBox="0 0 548 556" fill="none" xmlns="http://www.w3.org/2000/svg">
<path d="M28.1757 365.911C27.8629 362.434 27.7907 359.233 27.7546 356.394C27.7546 354.782 27.7546 353.326 27.7546 351.967C28.9578 350.944 33.9748 346.793 35.3584 343.99C36.7419 341.187 37.6804 337.373 36.2126 334.437C35.8965 333.737 35.4376 333.111 34.8652 332.599C34.2928 332.086 33.6197 331.699 32.889 331.463C32.1583 331.226 31.3861 331.144 30.6221 331.224C29.8581 331.303 29.119 331.541 28.4525 331.923C24.5664 334.329 24.2415 342.642 25.2883 346.649C25.3725 346.998 27.4057 352.243 27.4659 352.195L27.5501 352.135C27.49 353.446 27.4298 354.854 27.4057 356.382C27.4057 359.221 27.4057 362.398 27.6223 365.935C27.6223 366.512 27.7065 367.138 27.7546 367.728C28.1878 368.377 28.4284 368.798 28.4284 368.798C28.3803 367.824 28.26 366.837 28.1757 365.911Z" fill="url(#paint0_linear_194_15242)"/>
<path d="M15.6749 357.092C10.4533 357.946 9.77957 362.842 14.6522 365.971C18.7789 368.617 25.8292 368.798 27.8865 368.798C27.8865 368.437 27.8865 368.076 27.8023 367.727C25.8292 364.707 19.958 356.382 15.6749 357.092Z" fill="url(#paint1_linear_194_15242)"/>
<path d="M119.566 334.112C114.958 333.968 110.097 340.633 108.738 344.507C108.618 344.844 107.439 350.306 107.535 350.294H107.631C106.849 351.341 106.031 352.472 105.225 353.735C103.637 356.069 101.868 358.716 100.148 361.724L99.5461 362.771C99.4618 363.613 99.3897 364.118 99.3897 364.118L98.9806 363.781C97.5273 366.363 96.2062 369.018 95.0223 371.734C93.3134 375.575 91.9525 379.561 90.9558 383.645C90.9558 383.645 90.9558 383.741 90.9558 383.789C90.8595 382.442 90.4505 378.676 90.3903 378.399C89.488 374.357 85.3974 367.054 80.7654 366.561C80.0056 366.497 79.2409 366.595 78.5223 366.85C77.8036 367.105 77.1475 367.51 76.5977 368.038C76.0478 368.566 75.6168 369.205 75.3335 369.913C75.0501 370.621 74.9209 371.381 74.9543 372.143C74.9543 375.403 77.6252 378.471 80.0916 380.336C82.8829 382.454 90.2339 384.15 90.8114 384.282C89.9066 388.475 89.2796 392.724 88.9346 396.999C88.718 399.49 88.5857 402.004 88.4774 404.543C88.345 403.34 88.2367 402.329 88.2007 402.137C87.2983 398.106 83.2077 390.803 78.5757 390.31C77.8165 390.246 77.0523 390.345 76.3342 390.599C75.6161 390.854 74.9607 391.259 74.4118 391.788C73.8628 392.316 73.433 392.956 73.151 393.664C72.8691 394.372 72.7414 395.131 72.7767 395.893C72.7767 399.153 75.4476 402.209 77.914 404.086C80.3804 405.963 86.6607 407.563 88.321 407.948C88.321 408.922 88.2488 409.885 88.2247 410.859C88.0924 415.515 87.9721 420.159 87.7314 424.719C87.6472 426.319 87.5028 427.895 87.3585 429.472C87.2502 428.437 87.1539 427.571 87.1178 427.438C86.2275 423.408 82.1249 416.105 77.4929 415.612C76.7332 415.545 75.9682 415.643 75.2492 415.897C74.5302 416.151 73.874 416.556 73.3246 417.085C72.7753 417.614 72.3455 418.254 72.0642 418.963C71.7829 419.672 71.6566 420.432 71.6939 421.194C71.6939 424.455 74.3528 427.51 76.8192 429.387C79.2855 431.264 84.9643 432.696 86.9254 433.177C86.793 434.284 86.6607 435.391 86.5043 436.474C87.2021 436.678 87.9119 436.847 88.6458 436.991C88.9105 434.898 89.115 432.768 89.2835 430.615C90.9919 431.096 97.1037 432.72 100.112 432.275C103.119 431.83 106.873 430.422 108.401 427.559C108.778 426.891 109.012 426.151 109.087 425.388C109.163 424.625 109.078 423.854 108.84 423.125C108.601 422.396 108.213 421.725 107.7 421.154C107.187 420.584 106.562 420.126 105.862 419.811C101.579 418.006 94.6253 422.445 91.9784 425.561C91.822 425.754 90.1738 428.208 89.2955 429.568C89.4038 427.992 89.512 426.428 89.5602 424.84C89.7166 420.232 89.7286 415.564 89.7527 410.919C89.7527 409.488 89.7527 408.068 89.7527 406.648C90.3663 406.829 97.585 408.91 101.002 408.405C104.046 407.96 107.763 406.552 109.291 403.701C109.67 403.032 109.904 402.292 109.98 401.528C110.056 400.764 109.971 399.992 109.731 399.262C109.49 398.533 109.1 397.861 108.585 397.291C108.071 396.722 107.442 396.265 106.741 395.953C102.47 394.148 95.5156 398.575 92.8687 401.692C92.6763 401.932 90.3181 405.457 89.7647 406.384C89.7647 403.256 89.885 400.14 90.0775 397.072C90.3252 392.928 90.8396 388.805 91.6175 384.728C91.9063 384.812 99.4378 387.014 102.927 386.508C105.971 386.063 109.7 384.643 111.216 381.792C111.593 381.124 111.827 380.385 111.903 379.621C111.978 378.858 111.894 378.087 111.655 377.358C111.416 376.629 111.028 375.958 110.515 375.388C110.003 374.817 109.377 374.359 108.678 374.044C104.407 372.239 97.4406 376.679 94.7937 379.795C94.5892 380.035 92.0627 383.837 91.6416 384.607C91.6416 384.367 91.7138 384.114 91.7619 383.885C92.6597 379.83 93.92 375.864 95.5276 372.035C96.3819 369.905 97.3203 367.932 98.2828 366.019C99.6423 366.573 105.899 369.039 109.111 368.931C112.323 368.822 116.053 367.836 117.882 365.165C118.332 364.544 118.647 363.835 118.807 363.085C118.966 362.335 118.967 361.559 118.808 360.809C118.649 360.058 118.335 359.349 117.885 358.728C117.436 358.106 116.86 357.586 116.197 357.2C112.143 354.938 104.719 358.572 101.76 361.375C101.603 361.519 100.136 363.264 99.0768 364.539C99.522 363.685 99.9672 362.795 100.412 361.989C102.073 358.945 103.781 356.262 105.309 353.904C106.187 352.568 107.017 351.377 107.799 350.294C109.4 350.15 115.884 349.464 118.628 347.888C121.371 346.312 124.222 343.713 124.643 340.489C124.758 339.732 124.715 338.96 124.518 338.221C124.32 337.482 123.973 336.791 123.496 336.193C123.019 335.594 122.424 335.1 121.748 334.742C121.072 334.384 120.329 334.17 119.566 334.112Z" fill="url(#paint2_linear_194_15242)"/>
<path d="M56.3156 433.442C56.6284 434.055 56.9292 434.645 57.2299 435.294L59.2873 434.621C58.5052 433.069 57.6992 431.517 56.881 429.989C58.5534 429.447 64.4968 427.438 66.7586 425.381C69.0205 423.323 71.3185 420.075 71.0056 416.839C70.9542 416.071 70.7443 415.322 70.3892 414.64C70.0341 413.958 69.5415 413.356 68.9425 412.873C68.3434 412.391 67.6509 412.037 66.9085 411.836C66.1662 411.634 65.3901 411.588 64.6291 411.701C60.1054 412.543 56.8088 420.123 56.3517 424.202C56.3517 424.466 56.3517 427.438 56.3517 429.014C55.5576 427.643 54.7876 426.259 53.9454 424.887C51.5392 420.917 48.9645 416.983 46.4139 413.049L44.1039 409.439C44.7055 409.259 51.8159 407.033 54.3545 404.711C56.6164 402.666 58.9143 399.417 58.6015 396.181C58.5518 395.413 58.3431 394.663 57.9885 393.98C57.634 393.297 57.1414 392.694 56.5419 392.211C55.9424 391.728 55.2492 391.375 54.5061 391.174C53.7629 390.973 52.9862 390.929 52.225 391.044C47.7012 391.886 44.4047 399.466 43.9475 403.544C43.9475 403.857 43.9475 408.128 43.9475 409.223C42.2511 406.552 40.5908 403.881 39.0629 401.186C36.9827 397.557 35.1342 393.799 33.5285 389.937C33.8052 389.853 41.2405 387.531 43.8392 385.184C46.1011 383.139 48.3991 379.891 48.0862 376.642C48.035 375.875 47.8251 375.127 47.4698 374.445C47.1146 373.763 46.6218 373.162 46.0225 372.681C45.4232 372.199 44.7305 371.847 43.9881 371.647C43.2458 371.446 42.47 371.402 41.7097 371.517C37.186 372.359 33.8894 379.939 33.4323 384.017C33.4323 384.342 33.4323 388.938 33.4323 389.78C33.348 389.552 33.2277 389.323 33.1435 389.107C31.6485 385.204 30.4971 381.178 29.7026 377.075C29.2334 374.814 28.9206 372.624 28.6559 370.482C30.0876 370.206 36.6085 368.822 39.1952 366.969C41.7819 365.116 44.3084 362.157 44.3566 358.957C44.3888 358.187 44.2612 357.42 43.9819 356.703C43.7027 355.985 43.2778 355.334 42.734 354.789C42.1902 354.244 41.5394 353.818 40.8227 353.537C40.1059 353.256 39.3388 353.127 38.5696 353.157C33.9737 353.494 29.859 360.653 28.9446 364.659C28.9446 364.876 28.6318 367.15 28.4634 368.81H27.8739C28.1024 371.481 28.4273 374.296 28.9567 377.232C29.6586 381.418 30.7337 385.533 32.169 389.528C32.1817 389.575 32.202 389.62 32.2291 389.66C31.399 388.577 28.9928 385.63 28.7882 385.425C25.8165 382.526 18.4173 378.627 14.3508 380.745C13.6859 381.121 13.1081 381.633 12.6554 382.248C12.2026 382.864 11.8851 383.567 11.7238 384.314C11.5624 385.061 11.5608 385.833 11.7192 386.58C11.8775 387.327 12.1921 388.033 12.6424 388.649C14.4711 391.381 18.3331 392.511 21.4011 392.716C24.8661 392.969 31.8682 390.31 32.4216 390.129C33.9792 394.164 35.8039 398.091 37.8838 401.884C39.0869 404.11 40.3502 406.311 41.6616 408.501C40.9157 407.587 40.2419 406.768 40.1336 406.672C37.174 403.761 29.7628 399.863 25.6962 401.98C25.0295 402.356 24.4501 402.869 23.9962 403.485C23.5422 404.101 23.224 404.806 23.0626 405.554C22.9011 406.302 22.9001 407.076 23.0596 407.825C23.2191 408.573 23.5354 409.279 23.9878 409.897C25.8045 412.628 29.6785 413.747 32.7465 413.963C35.8144 414.18 41.8782 412.038 43.4783 411.437C43.9956 412.267 44.4889 413.109 45.0063 413.939C47.4125 417.933 49.939 421.916 52.225 425.886C53.0311 427.294 53.789 428.701 54.535 430.109C53.8732 429.291 53.3318 428.617 53.2236 428.521C50.2519 425.621 42.8406 421.723 38.7861 423.841C38.1203 424.216 37.5414 424.727 37.0874 425.342C36.6335 425.956 36.3147 426.66 36.1522 427.407C35.9897 428.153 35.9871 428.926 36.1445 429.674C36.302 430.422 36.6159 431.127 37.0657 431.745C38.8824 434.476 42.7564 435.607 45.8244 435.824C48.8923 436.04 54.4026 434.115 56.3156 433.442Z" fill="url(#paint3_linear_194_15242)"/>
<path d="M96.8132 346.937C92.2293 344.303 88.6079 347.683 90.4126 353.182C91.9526 357.886 97.4027 362.542 98.9427 363.769L99.5082 362.758C99.8932 359.101 100.555 349.079 96.8132 346.937Z" fill="url(#paint4_linear_194_15242)"/>
<path d="M374.312 537.836C369.235 537.969 364.314 545.656 363.099 550.036C363.039 550.264 362.642 552.659 362.377 554.475C364.783 554.692 367.189 554.86 369.596 554.981C371.239 554.586 372.818 553.962 374.288 553.128C377.115 551.287 380.183 548.147 380.4 544.55C380.482 543.7 380.386 542.843 380.117 542.033C379.849 541.223 379.414 540.478 378.841 539.846C378.267 539.214 377.569 538.709 376.789 538.363C376.009 538.017 375.165 537.837 374.312 537.836Z" fill="url(#paint5_linear_194_15242)"/>
<path d="M330.494 469.788C324.647 469.788 323.059 475.034 327.835 479.293C331.865 482.902 339.529 484.334 341.767 484.695L341.875 483.492C340.251 479.822 335.294 469.716 330.494 469.788Z" fill="url(#paint6_linear_194_15242)"/>
<path d="M424.651 536.97C425.18 536.307 425.565 535.54 425.781 534.72C425.998 533.899 426.04 533.043 425.907 532.205C425.773 531.367 425.466 530.566 425.005 529.854C424.545 529.141 423.941 528.533 423.231 528.067C418.888 525.36 410.514 528.981 407.097 531.917C406.833 532.133 403.657 535.586 402.887 536.501C403.476 533.084 404.09 529.703 404.86 526.383C405.844 521.892 407.122 517.471 408.686 513.148C408.986 513.293 416.807 517.01 420.717 517.07C424.11 517.07 428.417 516.216 430.57 513.377C431.1 512.714 431.485 511.947 431.701 511.127C431.917 510.306 431.96 509.45 431.826 508.612C431.692 507.774 431.385 506.973 430.925 506.261C430.464 505.548 429.86 504.94 429.151 504.474C424.807 501.767 416.434 505.388 413.017 508.324C412.74 508.552 409.323 512.258 408.746 512.98C408.842 512.727 408.902 512.462 408.998 512.21C410.686 507.944 412.752 503.837 415.17 499.938C416.47 497.772 417.841 495.775 419.225 493.922C420.609 494.765 427.009 498.542 430.522 498.976C434.035 499.409 438.282 498.976 440.737 496.401C441.335 495.801 441.802 495.083 442.106 494.292C442.411 493.501 442.546 492.655 442.504 491.809C442.462 490.962 442.244 490.134 441.863 489.377C441.482 488.62 440.946 487.951 440.292 487.414C436.261 484.237 427.538 486.92 423.809 489.447C423.604 489.591 421.703 491.227 420.332 492.431C420.957 491.576 421.607 490.686 422.221 489.88C424.567 486.848 426.889 484.225 428.97 481.915C430.173 480.616 431.268 479.509 432.315 478.39C434.095 478.51 441.29 478.895 444.527 477.68C447.763 476.465 451.36 474.071 452.335 470.642C452.59 469.832 452.675 468.977 452.582 468.132C452.49 467.287 452.224 466.471 451.8 465.735C451.375 464.998 450.803 464.358 450.118 463.855C449.434 463.351 448.652 462.995 447.823 462.81C442.83 461.835 436.369 468.272 434.24 472.266C434.059 472.615 431.834 478.354 431.906 478.366H432.014C430.991 479.365 429.897 480.46 428.73 481.675C426.6 483.949 424.206 486.487 421.788 489.519L420.957 490.554C420.717 491.456 420.56 491.985 420.56 491.985C420.56 491.985 420.404 491.829 420.163 491.552C418.25 493.959 416.301 496.629 414.461 499.529C411.927 503.424 409.749 507.54 407.952 511.825C407.952 511.825 407.952 511.933 407.952 511.981C408.084 510.489 408.301 506.315 408.277 505.966C408.012 501.406 404.812 492.731 399.855 491.384C399.037 491.184 398.186 491.16 397.358 491.314C396.53 491.469 395.745 491.797 395.054 492.279C394.363 492.76 393.783 493.383 393.351 494.107C392.92 494.83 392.647 495.636 392.552 496.473C392.022 500.082 394.356 503.824 396.727 506.303C399.398 509.094 407.122 512.222 407.735 512.475C406.008 516.889 404.581 521.415 403.464 526.022C402.802 528.693 402.261 531.424 401.647 534.155C401.72 532.867 401.768 531.748 401.756 531.556C401.479 526.996 398.291 518.322 393.334 516.974C392.517 516.77 391.665 516.743 390.837 516.895C390.008 517.047 389.222 517.374 388.53 517.855C387.838 518.336 387.257 518.959 386.826 519.683C386.395 520.407 386.124 521.214 386.031 522.051C385.502 525.661 387.836 529.414 390.206 531.881C392.576 534.347 399.145 537.199 400.877 537.896L400.264 541.049C399.446 545.368 398.64 549.675 397.749 553.922L399.915 553.621C400.661 549.567 401.347 545.476 402.02 541.385C402.273 539.833 402.55 538.293 402.826 536.741C403.452 537.042 410.972 540.567 414.785 540.627C418.19 540.7 422.497 539.809 424.651 536.97Z" fill="url(#paint7_linear_194_15242)"/>
<path d="M420.777 472.808C416.229 469.138 411.706 472.194 412.704 478.498C413.57 483.913 418.72 489.928 420.164 491.54L420.958 490.542C422.064 486.632 424.471 475.804 420.777 472.808Z" fill="url(#paint8_linear_194_15242)"/>
<path d="M342.659 481.53C342.924 477.692 343.405 474.179 343.862 471.087C344.127 469.331 344.404 467.742 344.68 466.275C346.22 465.384 352.368 461.715 354.365 458.9C356.363 456.084 358.047 452.09 356.964 448.637C356.74 447.819 356.349 447.056 355.814 446.398C355.279 445.74 354.612 445.201 353.857 444.815C353.102 444.429 352.275 444.204 351.428 444.156C350.581 444.108 349.733 444.237 348.939 444.534C344.271 446.495 342.479 455.495 342.924 460.043C342.924 460.44 344.259 466.515 344.343 466.479L344.44 466.419C344.139 467.839 343.838 469.367 343.549 471.039C343.02 474.131 342.467 477.632 342.118 481.494C342.057 482.132 341.997 482.806 341.949 483.467C342.298 484.261 342.503 484.755 342.503 484.755C342.479 483.672 342.527 482.565 342.659 481.53Z" fill="url(#paint9_linear_194_15242)"/>
<path d="M344.102 546.583C343.092 546.923 342.199 547.544 341.527 548.372C340.856 549.201 340.435 550.204 340.312 551.263C346.533 552.466 352.753 553.465 358.961 554.127C356.194 550.397 348.867 544.995 344.102 546.583Z" fill="url(#paint10_linear_194_15242)"/>
<path d="M387.8 544.381C386.982 544.177 386.131 544.15 385.302 544.302C384.474 544.454 383.687 544.781 382.996 545.262C382.304 545.743 381.723 546.366 381.292 547.09C380.861 547.814 380.59 548.621 380.497 549.458C380.295 551.434 380.715 553.424 381.7 555.149C386.248 555.053 390.763 554.752 395.247 554.247C393.911 550.012 391.301 545.356 387.8 544.381Z" fill="url(#paint11_linear_194_15242)"/>
<path d="M360.356 550.397C358.419 545.656 356.302 540.904 354.22 536.164C353.583 534.72 352.957 533.264 352.332 531.808C353.017 531.712 361.162 530.521 364.363 528.44C367.19 526.599 370.258 523.459 370.475 519.861C370.554 519.019 370.459 518.169 370.194 517.366C369.929 516.562 369.5 515.822 368.935 515.193C368.37 514.563 367.68 514.057 366.91 513.707C366.14 513.358 365.305 513.171 364.459 513.16C359.382 513.28 354.461 520.98 353.246 525.348C353.15 525.685 352.404 530.353 352.283 531.544C350.9 528.343 349.552 525.143 348.361 521.919C346.718 517.6 345.355 513.179 344.283 508.684C344.596 508.684 353.102 507.481 356.314 505.316C359.129 503.475 362.209 500.323 362.426 496.737C362.505 495.895 362.41 495.044 362.145 494.24C361.88 493.436 361.452 492.695 360.887 492.065C360.322 491.434 359.632 490.927 358.862 490.576C358.092 490.225 357.257 490.037 356.41 490.024C351.333 490.156 346.412 497.844 345.197 502.224C345.101 502.561 344.307 507.59 344.235 508.504C344.174 508.251 344.078 507.987 344.018 507.722C343.071 503.191 342.523 498.585 342.382 493.958C342.261 491.408 342.298 488.965 342.382 486.595C343.982 486.535 351.333 486.162 354.485 484.586C357.637 483.01 360.898 480.291 361.499 476.754C361.67 475.921 361.666 475.062 361.488 474.232C361.309 473.401 360.96 472.616 360.462 471.927C359.965 471.238 359.329 470.66 358.596 470.23C357.864 469.8 357.05 469.526 356.206 469.427C351.14 468.982 345.378 476.08 343.705 480.255C343.621 480.483 342.947 482.926 342.502 484.706L341.84 484.61C341.624 487.558 341.491 490.626 341.564 493.946C341.604 498.633 342.059 503.308 342.923 507.914V508.071C342.213 506.747 340.096 503.114 339.903 502.849C337.172 499.168 329.773 493.621 324.973 495.222C324.184 495.521 323.467 495.982 322.868 496.576C322.27 497.17 321.803 497.883 321.498 498.67C321.192 499.456 321.056 500.297 321.097 501.14C321.138 501.982 321.356 502.806 321.736 503.559C323.24 506.844 327.271 508.757 330.579 509.575C334.309 510.441 342.406 508.793 343.055 508.66C344.052 513.333 345.354 517.935 346.954 522.436C347.88 525.071 348.891 527.694 349.925 530.304C349.276 529.186 348.722 528.175 348.59 528.055C345.859 524.361 338.46 518.827 333.659 520.427C332.872 520.726 332.157 521.187 331.559 521.78C330.962 522.373 330.495 523.085 330.19 523.87C329.885 524.655 329.748 525.495 329.788 526.336C329.828 527.177 330.044 528 330.423 528.752C331.927 532.049 335.945 533.95 339.266 534.768C342.586 535.586 349.552 534.287 351.381 533.926C351.79 534.924 352.187 535.923 352.584 536.922C354.569 541.734 356.579 546.486 358.395 551.227C358.78 552.237 359.141 553.248 359.502 554.247L361.908 554.487C361.415 553.092 360.91 551.744 360.356 550.397Z" fill="url(#paint12_linear_194_15242)"/>
<path d="M357.267 172.161L358.061 176.913L363.355 177.383L364.943 172.883C366.679 172.727 368.389 172.355 370.032 171.776L373.377 175.169L377.973 172.51L376.71 167.938C378.04 166.806 379.224 165.513 380.235 164.088L384.903 164.954L387.153 160.142L383.483 157.122C383.919 155.432 384.141 153.694 384.145 151.949L388.5 149.976L387.574 144.742L382.761 144.369C382.151 142.759 381.342 141.232 380.355 139.821L382.834 135.634L379.08 131.881L374.869 134.383C372.442 132.744 369.701 131.626 366.82 131.099L365.617 126.286H360.299L359.096 131.099C357.436 131.405 355.82 131.915 354.284 132.615L350.494 129.33L346.138 132.374L347.931 137.066C346.761 138.258 345.739 139.587 344.887 141.024L339.882 140.507L338.066 145.5L342.204 148.303C342.01 149.468 341.914 150.647 341.916 151.828C341.916 152.334 341.916 152.827 341.916 153.32L337.572 155.726L338.944 160.852L343.865 160.792C344.596 162.324 345.505 163.766 346.572 165.087L344.442 169.514L348.509 172.919L352.527 170.212M374.592 145.404C376.016 147.937 376.567 150.869 376.159 153.746C375.751 156.624 374.407 159.287 372.335 161.325C370.263 163.362 367.577 164.661 364.694 165.021C361.81 165.381 358.888 164.781 356.378 163.315C353.869 161.848 351.912 159.597 350.81 156.908C349.708 154.219 349.521 151.242 350.28 148.436C351.038 145.63 352.698 143.152 355.005 141.385C357.312 139.617 360.136 138.657 363.042 138.654C363.679 138.653 364.314 138.701 364.943 138.799M369.431 140.29C370.449 140.853 371.387 141.549 372.222 142.36" stroke="#8BBC3A" stroke-miterlimit="10"/>
<path d="M369.802 443.151L370.596 447.904L375.89 448.373L377.478 443.873C379.214 443.717 380.924 443.345 382.567 442.766L385.912 446.159L390.508 443.5L389.305 438.928C390.635 437.796 391.819 436.503 392.83 435.078L397.498 435.945L399.748 431.132L396.138 428.112C396.574 426.422 396.796 424.684 396.8 422.939L401.155 420.966L400.229 415.732L395.417 415.359C394.811 413.747 394.002 412.219 393.01 410.811L395.489 406.625L391.735 402.871L387.524 405.373C385.097 403.735 382.356 402.616 379.475 402.089L378.272 397.276H372.954L371.751 402.089C370.091 402.396 368.475 402.905 366.939 403.605L363.113 400.356L358.758 403.4L360.55 408.092C359.38 409.284 358.358 410.614 357.506 412.051L352.501 411.533L350.685 416.526L354.823 419.33C354.629 420.494 354.533 421.674 354.535 422.855C354.535 423.36 354.535 423.853 354.535 424.347L350.191 426.753L351.563 431.878L356.484 431.818C357.215 433.35 358.124 434.792 359.191 436.113L357.097 440.565L361.164 443.969L365.11 441.154M387.175 416.346C388.599 418.879 389.15 421.811 388.742 424.688C388.334 427.566 386.99 430.229 384.918 432.267C382.846 434.304 380.16 435.603 377.277 435.963C374.393 436.323 371.471 435.723 368.961 434.257C366.452 432.791 364.495 430.539 363.393 427.85C362.291 425.161 362.104 422.184 362.863 419.378C363.621 416.573 365.281 414.094 367.588 412.327C369.895 410.559 372.719 409.599 375.625 409.596C376.262 409.595 376.897 409.643 377.526 409.741M382.014 411.233C383.032 411.796 383.971 412.491 384.805 413.302" stroke="#8BBC3A" stroke-miterlimit="10"/>
<path d="M395.599 115.157L396.297 116.986C395.948 117.335 395.611 117.708 395.286 118.081M393.518 120.487C393.421 120.631 393.337 120.776 393.253 120.92L388.248 120.415L386.431 125.396L390.57 128.199C390.372 129.364 390.272 130.543 390.269 131.724C390.269 132.229 390.269 132.723 390.269 133.216L385.914 135.622L387.298 140.747H392.218C392.942 142.288 393.851 143.734 394.925 145.055L392.796 149.47L396.862 152.887L400.809 150.06C402.301 150.92 403.893 151.594 405.549 152.069L406.343 156.821L411.625 157.278L413.225 152.779C414.96 152.627 416.67 152.259 418.314 151.684L421.647 155.065L426.243 152.418L425.039 147.846C426.367 146.711 427.551 145.418 428.565 143.996L433.233 144.85L435.483 140.038L431.813 137.006C432.242 135.319 432.465 133.585 432.475 131.844L436.83 129.859L435.904 124.638L431.091 124.265C430.478 122.652 429.67 121.121 428.685 119.705L431.163 115.53L427.41 111.776L423.199 114.279C420.777 112.63 418.034 111.511 415.15 110.994L413.947 106.182H408.641L407.438 110.994C405.779 111.307 404.164 111.816 402.625 112.51L398.823 109.226L394.48 112.27L395.034 113.713M424.33 134.455C424.15 135.327 423.88 136.178 423.524 136.994M422.525 138.859C420.815 141.545 418.194 143.525 415.142 144.435C412.091 145.345 408.814 145.124 405.911 143.813C403.009 142.502 400.677 140.189 399.343 137.298C398.009 134.406 397.762 131.131 398.648 128.072C399.534 125.013 401.493 122.376 404.165 120.645C406.838 118.914 410.045 118.204 413.199 118.647C416.352 119.089 419.241 120.654 421.334 123.054C423.427 125.454 424.585 128.528 424.594 131.712C424.594 132.033 424.594 132.358 424.594 132.687" stroke="#8BBC3A" stroke-miterlimit="10"/>
<path d="M78.2518 278.842L74.2695 287.107L81.8732 293.483L89.2363 288.202C92.0289 289.816 95.0114 291.077 98.1153 291.956L99.5831 300.835L109.473 301.701L112.444 293.279C115.691 292.989 118.888 292.294 121.961 291.21L128.193 297.55L136.783 292.593L134.377 284.051C136.867 281.925 139.085 279.501 140.982 276.832L149.705 278.432L153.904 269.445L147.058 263.791C147.856 260.644 148.26 257.411 148.261 254.166L156.394 250.46L154.674 240.691L145.699 239.993C144.551 236.987 143.045 234.131 141.211 231.487L145.831 223.667L138.817 216.652L130.936 221.332C126.41 218.253 121.286 216.163 115.897 215.197L113.623 206.197H103.698L101.412 215.245C98.3377 215.833 95.3448 216.786 92.4967 218.084L85.3983 211.948L77.2773 217.639L80.6219 226.41C78.44 228.639 76.5298 231.118 74.9312 233.797L65.5829 232.834L62.1902 242.158L69.9262 247.404C69.5586 249.583 69.3735 251.788 69.3728 253.997C69.3728 254.936 69.4089 255.862 69.4811 256.776L61.3359 261.324L63.9106 270.949L73.1145 270.841C74.1319 273.009 75.3398 275.082 76.7238 277.037M100.473 230.693C101.554 230.314 102.66 230.008 103.782 229.778M109.894 229.297C115.955 229.577 121.702 232.073 126.043 236.312C130.384 240.551 133.017 246.237 133.441 252.289C133.865 258.342 132.051 264.339 128.343 269.142C124.635 273.945 119.292 277.218 113.33 278.34C107.367 279.462 101.2 278.355 96.0001 275.228C90.8003 272.102 86.9303 267.174 85.1254 261.381C83.3205 255.588 83.7064 249.334 86.2099 243.808C88.7134 238.281 93.16 233.866 98.7048 231.403" stroke="#8BBC3A" stroke-miterlimit="10"/>
<path d="M205.357 252.132L195.527 245.779" stroke="#8BBC3A" stroke-width="3" stroke-linecap="round" stroke-linejoin="round"/>
<path d="M222.455 233.026L219.904 230.897" stroke="#8BBC3A" stroke-width="3" stroke-linecap="round" stroke-linejoin="round"/>
<path d="M193.724 289.043L173.355 283.942" stroke="#8BBC3A" stroke-width="3" stroke-linecap="round" stroke-linejoin="round"/>
<path d="M303.81 414.24C303.66 414.238 303.51 414.218 303.365 414.18C302.896 414.057 302.494 413.755 302.246 413.337C301.621 412.243 301.284 411.653 306.361 405.83C295.412 412.531 294.245 412.255 293.608 412.098C293.108 411.951 292.68 411.626 292.405 411.184C291.394 409.439 291.202 409.09 311.462 392.511C308.214 394.617 304.833 396.879 301.837 398.876C284.007 410.775 278.46 414.156 276.006 413.59C275.708 413.524 275.427 413.397 275.181 413.216C274.934 413.036 274.728 412.807 274.574 412.543C273.492 410.667 273.492 410.667 297.434 393.366L302.174 389.949C299.407 391.79 296.652 393.666 294.125 395.387C275.284 408.2 266.706 413.734 263.494 413.013C263.158 412.937 262.843 412.791 262.569 412.583C262.295 412.376 262.069 412.112 261.906 411.809C260.702 409.776 260.462 409.319 295.28 385.666L249.489 412.134C249.082 412.361 248.601 412.419 248.151 412.296C247.701 412.172 247.317 411.876 247.083 411.473C246.277 410.077 246.903 408.369 250.211 405.457C244.942 408.489 241.886 409.704 240.382 409.355C240.069 409.283 239.773 409.149 239.513 408.961C239.253 408.773 239.033 408.535 238.866 408.26C237.867 406.528 238.252 404.928 250.993 396.361C237.855 404.579 233.007 406.997 231.118 406.552C230.837 406.486 230.573 406.363 230.341 406.192C230.109 406.02 229.915 405.803 229.77 405.553C228.892 404.049 229.71 403.508 232.73 401.511L239.383 397.168L249.562 390.587C238.349 396.41 236.664 396.013 235.726 395.784C235.41 395.712 235.111 395.577 234.849 395.387C234.586 395.196 234.365 394.955 234.198 394.677C233.976 394.269 233.92 393.792 234.041 393.344C234.161 392.896 234.451 392.511 234.847 392.271C270.159 371.337 324.672 337.758 337.81 326.653C324.708 332.608 285.535 356.935 263.217 370.831C234.474 388.698 234.342 388.661 233.139 388.349C232.89 388.293 232.656 388.187 232.449 388.039C232.242 387.89 232.068 387.701 231.936 387.482C230.961 385.798 231.009 384.715 242.511 377.593C237.218 380.083 233.729 381.202 232.189 380.841C231.851 380.762 231.534 380.615 231.257 380.408C230.98 380.201 230.748 379.939 230.576 379.638C230.346 379.238 230.279 378.765 230.389 378.317C230.498 377.869 230.777 377.48 231.166 377.232C266.802 354.529 316.936 322.382 337.389 308.799C331.698 311.698 324.059 316.017 315.565 321.106C308.695 325.522 300.55 330.659 290.913 336.651C278.184 344.579 265.31 352.436 254.591 358.932C228.7 375.271 228.387 375.199 227.123 374.886C226.875 374.826 226.641 374.718 226.434 374.567C226.228 374.416 226.053 374.226 225.92 374.008C225.698 373.6 225.642 373.122 225.763 372.674C225.884 372.226 226.173 371.842 226.57 371.601C234.366 366.969 242.968 361.808 251.896 356.394L256.588 353.434C237.891 364.13 227.557 368.81 224.513 368.064C224.161 367.995 223.827 367.853 223.535 367.645C223.242 367.438 222.997 367.17 222.816 366.861C221.697 364.936 223.285 362.482 236.472 353.867C227.966 359.053 224.597 360.593 223.165 360.244C222.892 360.182 222.635 360.065 222.409 359.899C222.183 359.734 221.994 359.523 221.854 359.281C221.096 357.97 220.482 356.875 229.289 350.487C224.549 352.893 221.553 353.867 220.121 353.518C219.797 353.448 219.49 353.311 219.221 353.117C218.952 352.922 218.726 352.674 218.557 352.387C218.436 352.181 218.358 351.952 218.327 351.714C218.296 351.476 218.313 351.235 218.377 351.004C218.504 350.543 218.806 350.15 219.219 349.909C258.26 327.712 317.381 292.556 335.38 278.372C315.637 289.272 261.208 321.227 223.225 343.749C223.02 343.87 222.793 343.949 222.557 343.982C222.321 344.015 222.081 344.001 221.851 343.94C221.62 343.88 221.404 343.775 221.215 343.63C221.025 343.486 220.866 343.306 220.747 343.099C220.562 342.769 220.447 342.404 220.408 342.028C220.368 341.652 220.406 341.271 220.518 340.91C221.188 339.384 222.201 338.034 223.478 336.964C220.675 338.106 218.798 338.528 217.727 338.263C217.394 338.182 217.081 338.033 216.808 337.826C216.535 337.619 216.307 337.358 216.139 337.06C215.056 335.195 217.126 333.751 220.254 331.574C222.66 329.949 226.065 327.7 230.829 324.716C239.72 319.157 251.92 311.794 264.841 304.01C279.363 295.251 296.616 284.844 310.319 276.23C280.999 293.074 234.823 320.048 212.65 333.017C212.23 333.255 211.733 333.32 211.266 333.198C211.037 333.137 210.822 333.032 210.634 332.887C210.446 332.743 210.289 332.562 210.172 332.356C209.245 330.743 208.968 330.274 224.91 320.24C218.666 323.669 214.719 325.149 212.71 324.68C212.331 324.601 211.972 324.443 211.657 324.217C211.342 323.992 211.078 323.702 210.881 323.368C209.678 321.299 209.678 321.299 238.625 304.491C252.016 296.719 267.993 287.431 282.695 278.504C295.039 270.299 304.701 264.067 312.028 259.735C315.871 257.179 319.518 254.34 322.94 251.241C307.913 257.991 248.575 293.868 211.05 317.208C210.645 317.464 210.154 317.547 209.687 317.441C209.22 317.335 208.815 317.048 208.559 316.643C208.304 316.238 208.22 315.748 208.326 315.281C208.432 314.813 208.72 314.408 209.125 314.152L220.771 306.741C211.146 311.686 207.537 312.516 206.057 312.143C205.721 312.065 205.405 311.918 205.13 311.71C204.854 311.503 204.625 311.241 204.457 310.94C204.223 310.541 204.154 310.067 204.264 309.618C204.374 309.169 204.655 308.78 205.046 308.534L230.685 292.099C209.726 303.938 208.03 303.517 206.995 303.252C206.72 303.188 206.461 303.069 206.233 302.901C206.006 302.733 205.815 302.521 205.672 302.278C205.447 301.874 205.385 301.4 205.499 300.952C205.613 300.505 205.895 300.118 206.285 299.871C233.307 283.16 271.699 258.965 294.113 243.794C276.006 254.225 249.598 269.721 231.022 280.646L210.316 292.677C205.72 295.36 203.494 296.671 202.303 297.273L201.99 297.465C201.16 297.862 200.956 297.802 200.607 297.706C200.267 297.615 199.961 297.427 199.727 297.165C199.493 296.903 199.34 296.579 199.288 296.231C199.235 295.884 199.286 295.528 199.432 295.209C199.579 294.89 199.816 294.62 200.113 294.433C228.772 276.711 271.097 250.002 290.059 236.864C279.964 242.711 264.889 252.324 252.762 260.084C218.762 281.74 208.427 287.973 205.431 287.227C205.146 287.159 204.878 287.035 204.642 286.861C204.407 286.687 204.209 286.468 204.06 286.216C203.314 284.905 202.772 283.978 214.07 275.833C210.99 277.193 208.908 277.71 207.693 277.421C207.349 277.343 207.025 277.196 206.74 276.989C206.455 276.783 206.214 276.52 206.033 276.218C205.809 275.815 205.747 275.343 205.859 274.896C205.971 274.45 206.248 274.062 206.634 273.812C228.832 259.844 262.567 237.947 274.165 228.887C264.011 233.856 241.85 248.137 228.808 256.487C207.501 270.07 206.707 270.407 205.347 270.07C205.098 270.012 204.863 269.905 204.656 269.754C204.449 269.603 204.275 269.412 204.144 269.192C203.181 267.544 202.339 266.076 223.201 251.735C220.627 253.371 217.992 255.067 215.297 256.8C215.074 256.98 214.813 257.108 214.534 257.172C214.254 257.237 213.964 257.237 213.685 257.173C213.447 257.116 213.224 257.011 213.03 256.864C212.835 256.717 212.673 256.531 212.554 256.319C211.266 254.093 213.119 252.18 227.761 240.955C227.493 240.898 227.239 240.785 227.017 240.623C226.795 240.461 226.61 240.255 226.474 240.016C226.251 239.601 226.197 239.116 226.325 238.662C226.453 238.209 226.752 237.823 227.16 237.586C227.497 237.401 227.883 237.321 228.266 237.357C230.17 236.252 232.013 235.048 233.789 233.748C239.66 229.621 241.32 228.635 242.752 228.936C243.031 228.997 243.295 229.115 243.527 229.282C243.759 229.45 243.954 229.664 244.099 229.91C245.134 231.715 244.328 232.798 234.474 240.425C237.218 238.729 240.045 236.972 242.896 235.24C270.712 218.228 272.866 218.733 274.177 219.046C274.466 219.108 274.738 219.23 274.977 219.404C275.215 219.578 275.414 219.8 275.561 220.057C275.787 220.458 275.851 220.932 275.739 221.379C275.627 221.827 275.348 222.215 274.959 222.463C261.388 230.885 247.288 240.004 235.461 247.885C262.916 230.355 276.114 222.619 279.832 223.558C280.155 223.629 280.459 223.767 280.726 223.962C280.993 224.156 281.217 224.404 281.384 224.689C282.527 226.674 283.357 228.117 245.375 253.118L239.913 256.728C247.564 251.915 255.312 246.862 261.569 242.771C285.932 226.962 289.878 224.64 291.719 225.074C291.971 225.14 292.208 225.256 292.414 225.415C292.621 225.574 292.794 225.773 292.922 226C293.152 226.4 293.22 226.873 293.11 227.321C293 227.769 292.722 228.158 292.332 228.406C268.775 243.421 234.366 265.835 217.354 277.878C226.498 272.488 239.455 264.223 250.741 257.028C286.509 234.169 298.18 227.251 301.476 228.045C301.771 228.116 302.048 228.245 302.292 228.424C302.536 228.604 302.741 228.831 302.896 229.092C303.774 230.62 304.412 231.703 283.49 245.671C312.81 228.659 313.375 228.827 314.301 229.044C314.537 229.104 314.758 229.211 314.952 229.358C315.146 229.504 315.31 229.688 315.432 229.898C316.635 231.979 317.49 233.507 262.17 268.855C258.152 271.43 254.121 273.992 250.139 276.495C272.036 263.549 298.131 247.62 317.899 235.276C318.106 235.15 318.335 235.066 318.575 235.029C318.814 234.991 319.059 235.002 319.294 235.059C319.768 235.18 320.174 235.483 320.425 235.902C321.279 237.393 320.016 238.308 318.681 239.222C317.863 239.788 316.66 240.606 315.071 241.628C312.16 243.565 307.853 246.441 302.294 250.05C292.934 256.15 279.856 264.608 263.422 275.195C247.588 285.386 231.635 295.648 220.699 302.639C235.148 294.999 263.253 278.492 317.393 243.902C325.19 238.933 325.19 238.933 325.984 239.09C326.222 239.148 326.446 239.254 326.642 239.401C326.838 239.548 327.003 239.732 327.127 239.944C327.572 240.714 327.824 241.147 326.381 242.435C324.456 244.119 319.667 247.247 308.743 254.345C324.215 245.863 325.659 246.212 326.597 246.453C326.87 246.514 327.128 246.632 327.353 246.797C327.579 246.963 327.768 247.173 327.909 247.415C328.558 248.546 328.715 249.906 326.309 252.601C327.258 252.305 328.262 252.231 329.244 252.384C329.637 252.466 330.008 252.629 330.333 252.864C330.658 253.098 330.931 253.398 331.133 253.744C332.336 255.813 332.938 256.872 297.193 279.418C335.043 257.498 335.416 257.594 336.318 257.834C336.55 257.893 336.767 257.998 336.958 258.143C337.148 258.288 337.307 258.469 337.425 258.677C338.628 260.674 336.463 262.683 331.289 266.461C327.957 268.867 323.253 272.043 316.936 276.086C337.967 262.96 343.236 260.241 345.113 260.698C345.379 260.762 345.629 260.88 345.848 261.043C346.067 261.207 346.251 261.412 346.389 261.648C346.509 261.853 346.587 262.08 346.618 262.316C346.649 262.551 346.633 262.791 346.569 263.02C346.509 263.251 346.402 263.468 346.256 263.656C346.109 263.844 345.925 264 345.715 264.115C333.443 271.081 320.967 278.275 308.911 285.374L296.423 293.266C271.867 308.811 253.953 319.988 241.38 327.302C237.398 330.034 233.993 332.464 231.262 334.521C242.451 327.904 261.509 316.655 280.59 305.526C340.746 270.323 341.66 270.575 342.803 270.876C343.039 270.937 343.26 271.044 343.454 271.19C343.648 271.337 343.811 271.52 343.934 271.73C344.108 272.038 344.218 272.378 344.257 272.73C344.297 273.081 344.265 273.437 344.163 273.776C343.808 274.941 343.128 275.98 342.202 276.772C346.328 274.714 348.915 273.872 350.19 274.173C350.501 274.244 350.793 274.378 351.049 274.566C351.306 274.754 351.521 274.993 351.682 275.268C352.645 276.928 351.297 277.83 348.326 279.803C346.533 281.006 343.886 282.679 340.217 284.965L339.507 285.41C345.113 282.727 349.047 281.464 351.021 281.945C351.424 282.028 351.805 282.194 352.14 282.432C352.476 282.67 352.758 282.976 352.97 283.329C354.63 286.204 352.97 288.033 294.269 322.755C269.618 337.445 237.049 356.695 228.17 363.913C233.067 362.193 245.266 356.298 275.585 337.95C300.297 322.995 327.512 305.538 340.553 297.152C349.613 291.341 349.601 291.353 350.407 291.546C350.886 291.668 351.297 291.975 351.55 292.4C352.284 293.675 353.03 294.963 343.128 302.338C344.526 301.706 346.063 301.441 347.592 301.568C347.928 301.647 348.245 301.795 348.523 302.002C348.8 302.209 349.032 302.471 349.204 302.771C350.263 304.612 350.263 304.612 330.796 317.365C321.171 323.645 307.817 332.319 290.973 343.148C274.731 353.591 258.356 364.07 247.143 371.228C269.858 359.053 312.424 332.055 331.362 320.048C348.205 309.4 348.205 309.4 349.12 309.629C349.355 309.689 349.576 309.796 349.771 309.943C349.965 310.089 350.128 310.273 350.251 310.483C351.538 312.721 349.493 315.897 341.576 321.78C341.808 321.747 342.042 321.747 342.274 321.78C342.569 321.851 342.846 321.98 343.09 322.159C343.334 322.339 343.539 322.566 343.694 322.827C344.957 325.017 346.389 327.495 292.994 360.93C308.346 351.473 324.275 341.415 337.137 333.077C337.342 332.943 337.573 332.853 337.815 332.811C338.057 332.769 338.305 332.777 338.544 332.835C338.783 332.892 339.007 332.998 339.204 333.145C339.401 333.292 339.565 333.478 339.687 333.691C340.565 335.231 339.35 336.097 337.281 337.541C336.078 338.395 334.261 339.646 331.879 341.235C329.497 342.823 326.537 344.844 322.964 347.154C327.945 344.627 331.025 343.605 332.589 343.99C332.928 344.066 333.248 344.213 333.528 344.42C333.807 344.627 334.041 344.89 334.213 345.193C335.224 346.937 334.995 347.599 322.819 355.467C325.382 354.373 327.199 353.976 328.366 354.264C328.728 354.342 329.071 354.495 329.371 354.712C329.671 354.93 329.923 355.207 330.11 355.528C331.53 357.934 330.459 359.065 297.855 378.808C288.519 384.463 276.764 391.573 267.247 397.709L331.265 360.761C331.47 360.64 331.697 360.561 331.933 360.53C332.168 360.499 332.408 360.516 332.637 360.581C333.096 360.703 333.49 361.002 333.732 361.411C334.622 362.963 333.359 363.889 331.265 365.429C330.002 366.356 328.149 367.667 325.599 369.424C320.846 372.72 314.241 377.184 307.251 381.924C299.106 387.434 288.855 394.376 280.458 400.211C284.32 397.661 288.338 394.93 291.911 392.499C310.524 379.843 318.38 374.778 321.448 375.451C321.769 375.522 322.073 375.657 322.34 375.85C322.607 376.042 322.831 376.287 323 376.57C324.047 378.399 324.095 378.483 302.751 393.943C318.236 383.644 323.301 380.709 325.611 381.226C325.908 381.294 326.188 381.422 326.435 381.602C326.681 381.782 326.888 382.01 327.042 382.273C327.885 383.741 327.885 383.741 317.117 392.536C313.868 395.182 309.357 398.864 305.29 402.269C308.587 400.236 312.22 397.926 315.673 395.688C315.879 395.554 316.11 395.463 316.352 395.421C316.594 395.379 316.842 395.388 317.08 395.445C317.319 395.502 317.544 395.608 317.74 395.755C317.937 395.902 318.101 396.088 318.224 396.301C318.897 397.504 318.645 397.745 316.178 400.392C314.169 402.546 312.449 404.434 310.993 406.047C321.917 399.538 322.314 399.646 323.084 399.838C323.318 399.899 323.538 400.006 323.73 400.153C323.922 400.299 324.083 400.483 324.203 400.693C324.323 400.898 324.402 401.124 324.433 401.36C324.465 401.595 324.45 401.835 324.388 402.064C324.327 402.294 324.22 402.509 324.075 402.697C323.929 402.885 323.748 403.042 323.541 403.159C323.367 403.264 323.176 403.337 322.976 403.376C321.376 404.097 312.485 409.331 304.652 414.071C304.388 414.192 304.1 414.249 303.81 414.24ZM321.171 402.413C321.362 402.736 321.648 402.992 321.989 403.147C321.651 402.988 321.366 402.733 321.171 402.413ZM276.752 384.042C266.357 390.526 256.131 397.023 249.465 401.655C256.72 397.336 267.259 390.382 276.752 384.042ZM321.496 352.002C309.693 358.547 290.6 370.843 276.09 380.216C281.432 376.883 287.52 373.117 294.438 368.858C303.967 362.999 314.229 356.695 321.496 352.002ZM320.726 360.424C314.313 363.841 304.58 370.049 295.088 376.245L296.086 375.644C304.953 370.254 314.578 364.419 320.726 360.4V360.424ZM261.569 333.402C253.628 338.371 246.409 343.051 240.394 347.07C246.626 343.087 254.013 338.311 261.569 333.402ZM347.219 286.084C343.73 287.287 336.33 290.656 320.678 300.052C305.025 309.448 286.112 321.804 269.269 332.753C261.918 337.565 255.734 341.535 250.512 344.88C260.642 338.648 274.25 330.503 292.429 319.747C314.554 306.621 339.29 291.991 347.219 286.084ZM335.921 321.383L333.371 323.007C324.949 328.357 316.972 333.39 309.441 338.106C319.487 332.067 328.967 326.159 335.921 321.383ZM256.131 313.382C245.098 320.048 234.378 326.617 227.256 331.104C230.865 329.264 235.208 326.797 240.117 323.886C244.942 320.601 250.344 317.052 256.131 313.382ZM284.38 281.596C279.76 284.676 275.212 287.732 270.953 290.583C262.531 296.262 255.048 301.219 248.563 305.478L255.192 301.387C279.555 286.372 314.735 264.668 325.081 256.8C321.255 258.51 317.545 260.472 313.977 262.671C309.862 265.546 304.628 268.999 297.999 273.186C293.68 275.893 289.096 278.709 284.38 281.572V281.596Z" fill="#8BBC3A"/>
<g opacity="0.4">
<path d="M303.81 414.24C303.66 414.239 303.51 414.218 303.365 414.18C302.896 414.058 302.494 413.755 302.246 413.338C301.621 412.243 301.284 411.653 306.361 405.83C295.412 412.532 294.245 412.255 293.608 412.098C293.108 411.951 292.68 411.626 292.405 411.184C291.394 409.44 291.202 409.091 311.462 392.512C308.214 394.617 304.833 396.879 301.837 398.876C284.007 410.775 278.46 414.156 276.006 413.59C275.708 413.524 275.427 413.397 275.181 413.217C274.934 413.036 274.728 412.807 274.574 412.544C273.492 410.667 273.492 410.667 297.434 393.366L302.174 389.949C299.407 391.79 296.652 393.667 294.125 395.387C275.284 408.2 266.706 413.735 263.494 413.013C263.158 412.937 262.843 412.791 262.569 412.583C262.295 412.376 262.069 412.112 261.906 411.81C260.702 409.776 260.462 409.319 295.28 385.666L249.489 412.135C249.082 412.362 248.601 412.42 248.151 412.296C247.701 412.172 247.317 411.877 247.083 411.473C246.277 410.077 246.903 408.369 250.211 405.457C244.942 408.489 241.886 409.704 240.382 409.355C240.069 409.283 239.773 409.149 239.513 408.961C239.253 408.773 239.033 408.535 238.866 408.261C237.867 406.528 238.252 404.928 250.993 396.362C237.855 404.579 233.007 406.997 231.118 406.552C230.837 406.486 230.573 406.364 230.341 406.192C230.109 406.02 229.915 405.803 229.77 405.554C228.892 404.05 229.71 403.508 232.73 401.511L239.383 397.168L249.562 390.587C238.349 396.41 236.664 396.013 235.726 395.784C235.41 395.712 235.111 395.577 234.849 395.387C234.586 395.197 234.365 394.955 234.198 394.677C233.976 394.27 233.92 393.792 234.041 393.344C234.161 392.896 234.451 392.512 234.847 392.271C270.159 371.337 324.672 337.758 337.81 326.653C324.708 332.608 285.535 356.936 263.217 370.832C234.474 388.698 234.342 388.662 233.139 388.349C232.89 388.293 232.656 388.188 232.449 388.039C232.242 387.89 232.068 387.701 231.936 387.483C230.961 385.798 231.009 384.716 242.511 377.593C237.218 380.084 233.729 381.202 232.189 380.841C231.851 380.763 231.534 380.615 231.257 380.408C230.98 380.201 230.748 379.939 230.576 379.638C230.346 379.239 230.279 378.765 230.389 378.317C230.498 377.869 230.777 377.48 231.166 377.232C266.802 354.529 316.936 322.382 337.389 308.799C331.698 311.698 324.059 316.017 315.565 321.107C308.695 325.522 300.55 330.659 290.913 336.651C278.184 344.579 265.31 352.436 254.591 358.933C228.7 375.271 228.387 375.199 227.123 374.886C226.875 374.826 226.641 374.718 226.434 374.567C226.228 374.416 226.053 374.226 225.92 374.008C225.698 373.6 225.642 373.123 225.763 372.674C225.884 372.226 226.173 371.842 226.57 371.602C234.366 366.97 242.968 361.808 251.896 356.394L256.588 353.434C237.891 364.13 227.557 368.81 224.513 368.064C224.161 367.996 223.827 367.853 223.535 367.645C223.242 367.438 222.997 367.171 222.816 366.861C221.697 364.936 223.285 362.482 236.472 353.868C227.966 359.053 224.597 360.593 223.165 360.244C222.892 360.183 222.635 360.065 222.409 359.9C222.183 359.734 221.994 359.524 221.854 359.282C221.096 357.97 220.482 356.875 229.289 350.487C224.549 352.893 221.553 353.868 220.121 353.519C219.797 353.448 219.49 353.312 219.221 353.117C218.952 352.922 218.726 352.674 218.557 352.388C218.436 352.181 218.358 351.952 218.327 351.714C218.296 351.477 218.313 351.235 218.377 351.004C218.504 350.543 218.806 350.15 219.219 349.909C258.26 327.712 317.381 292.557 335.38 278.372C315.637 289.272 261.208 321.227 223.225 343.749C223.02 343.87 222.793 343.95 222.557 343.982C222.321 344.015 222.081 344.001 221.851 343.941C221.62 343.88 221.404 343.775 221.215 343.631C221.025 343.486 220.866 343.306 220.747 343.1C220.562 342.769 220.447 342.405 220.408 342.028C220.368 341.652 220.406 341.271 220.518 340.91C221.188 339.384 222.201 338.034 223.478 336.964C220.675 338.107 218.798 338.528 217.727 338.263C217.394 338.182 217.081 338.033 216.808 337.826C216.535 337.619 216.307 337.359 216.139 337.06C215.056 335.195 217.126 333.751 220.254 331.574C222.66 329.95 226.065 327.7 230.829 324.716C239.72 319.158 251.92 311.795 264.841 304.01C279.363 295.252 296.616 284.845 310.319 276.23C280.999 293.074 234.823 320.048 212.65 333.018C212.23 333.256 211.733 333.32 211.266 333.198C211.037 333.138 210.822 333.032 210.634 332.887C210.446 332.743 210.289 332.562 210.172 332.356C209.245 330.744 208.968 330.274 224.91 320.24C218.666 323.669 214.719 325.149 212.71 324.68C212.331 324.601 211.972 324.443 211.657 324.218C211.342 323.992 211.078 323.703 210.881 323.368C209.678 321.299 209.678 321.299 238.625 304.492C252.016 296.719 267.993 287.431 282.695 278.504C295.039 270.299 304.701 264.067 312.028 259.736C315.871 257.179 319.518 254.34 322.94 251.242C307.913 257.991 248.575 293.868 211.05 317.209C210.645 317.464 210.154 317.548 209.687 317.442C209.22 317.336 208.815 317.048 208.559 316.643C208.304 316.238 208.22 315.748 208.326 315.281C208.432 314.814 208.72 314.408 209.125 314.153L220.771 306.741C211.146 311.686 207.537 312.516 206.057 312.143C205.721 312.065 205.405 311.918 205.13 311.711C204.854 311.503 204.625 311.241 204.457 310.94C204.223 310.541 204.154 310.067 204.264 309.618C204.374 309.169 204.655 308.78 205.046 308.534L230.685 292.099C209.726 303.938 208.03 303.517 206.995 303.252C206.72 303.188 206.461 303.069 206.233 302.901C206.006 302.734 205.815 302.522 205.672 302.278C205.447 301.874 205.385 301.4 205.499 300.952C205.613 300.505 205.895 300.118 206.285 299.872C233.307 283.16 271.699 258.966 294.113 243.794C276.006 254.225 249.598 269.721 231.022 280.646L210.316 292.677C205.72 295.36 203.494 296.671 202.303 297.273L201.99 297.465C201.16 297.862 200.956 297.802 200.607 297.706C200.267 297.615 199.961 297.427 199.727 297.166C199.493 296.904 199.34 296.579 199.288 296.231C199.235 295.884 199.286 295.529 199.432 295.209C199.579 294.89 199.816 294.62 200.113 294.434C228.772 276.712 271.097 250.002 290.059 236.864C279.964 242.711 264.889 252.324 252.762 260.084C218.762 281.741 208.427 287.973 205.431 287.227C205.146 287.159 204.878 287.035 204.642 286.861C204.407 286.688 204.209 286.468 204.06 286.216C203.314 284.905 202.772 283.978 214.07 275.833C210.99 277.193 208.908 277.71 207.693 277.421C207.349 277.343 207.025 277.196 206.74 276.99C206.455 276.783 206.214 276.521 206.033 276.218C205.809 275.816 205.747 275.343 205.859 274.897C205.971 274.45 206.248 274.062 206.634 273.812C228.832 259.844 262.567 237.947 274.165 228.888C264.011 233.857 241.85 248.138 228.808 256.487C207.501 270.07 206.707 270.407 205.347 270.07C205.098 270.013 204.863 269.905 204.656 269.754C204.449 269.603 204.275 269.412 204.144 269.192C203.181 267.544 202.339 266.076 223.201 251.735C220.627 253.371 217.992 255.067 215.297 256.8C215.074 256.98 214.813 257.108 214.534 257.172C214.254 257.237 213.964 257.237 213.685 257.173C213.447 257.116 213.224 257.011 213.03 256.864C212.835 256.717 212.673 256.531 212.554 256.319C211.266 254.093 213.119 252.18 227.761 240.955C227.493 240.898 227.239 240.785 227.017 240.623C226.795 240.462 226.61 240.255 226.474 240.016C226.251 239.602 226.197 239.116 226.325 238.663C226.453 238.209 226.752 237.823 227.16 237.586C227.497 237.401 227.883 237.321 228.266 237.358C230.17 236.253 232.013 235.048 233.789 233.748C239.66 229.622 241.32 228.635 242.752 228.936C243.031 228.997 243.295 229.115 243.527 229.283C243.759 229.45 243.954 229.664 244.099 229.91C245.134 231.715 244.328 232.798 234.474 240.426C237.218 238.729 240.045 236.973 242.896 235.24C270.712 218.228 272.866 218.733 274.177 219.046C274.466 219.108 274.738 219.23 274.977 219.404C275.215 219.578 275.414 219.801 275.561 220.057C275.787 220.459 275.851 220.932 275.739 221.38C275.627 221.827 275.348 222.215 274.959 222.463C261.388 230.885 247.288 240.004 235.461 247.885C262.916 230.355 276.114 222.619 279.832 223.558C280.155 223.63 280.459 223.767 280.726 223.962C280.993 224.156 281.217 224.404 281.384 224.689C282.527 226.674 283.357 228.118 245.375 253.118L239.913 256.728C247.564 251.915 255.312 246.862 261.569 242.772C285.932 226.963 289.878 224.641 291.719 225.074C291.971 225.14 292.208 225.256 292.414 225.415C292.621 225.574 292.794 225.773 292.922 226C293.152 226.4 293.22 226.873 293.11 227.321C293 227.77 292.722 228.158 292.332 228.406C268.775 243.421 234.366 265.835 217.354 277.879C226.498 272.489 239.455 264.223 250.741 257.029C286.509 234.169 298.18 227.251 301.476 228.045C301.771 228.116 302.048 228.245 302.292 228.425C302.536 228.605 302.741 228.832 302.896 229.092C303.774 230.62 304.412 231.703 283.49 245.671C312.81 228.659 313.375 228.827 314.301 229.044C314.537 229.105 314.758 229.211 314.952 229.358C315.146 229.505 315.31 229.688 315.432 229.898C316.635 231.98 317.49 233.508 262.17 268.855C258.152 271.43 254.121 273.993 250.139 276.495C272.036 263.549 298.131 247.62 317.899 235.276C318.106 235.15 318.335 235.066 318.575 235.029C318.814 234.992 319.059 235.002 319.294 235.06C319.768 235.18 320.174 235.483 320.425 235.902C321.279 237.394 320.016 238.308 318.681 239.222C317.863 239.788 316.66 240.606 315.071 241.629C312.16 243.566 307.853 246.441 302.294 250.05C292.934 256.15 279.856 264.608 263.422 275.196C247.588 285.386 231.635 295.649 220.699 302.639C235.148 294.999 263.253 278.492 317.393 243.903C325.19 238.934 325.19 238.934 325.984 239.09C326.222 239.149 326.446 239.254 326.642 239.401C326.838 239.548 327.003 239.733 327.127 239.944C327.572 240.714 327.824 241.147 326.381 242.435C324.456 244.119 319.667 247.247 308.743 254.346C324.215 245.864 325.659 246.213 326.597 246.453C326.87 246.515 327.128 246.632 327.353 246.798C327.579 246.963 327.768 247.174 327.909 247.416C328.558 248.547 328.715 249.906 326.309 252.601C327.258 252.305 328.262 252.231 329.244 252.385C329.637 252.466 330.008 252.63 330.333 252.864C330.658 253.098 330.931 253.398 331.133 253.744C332.336 255.813 332.938 256.872 297.193 279.419C335.043 257.498 335.416 257.594 336.318 257.835C336.55 257.894 336.767 257.999 336.958 258.143C337.148 258.288 337.307 258.469 337.425 258.677C338.628 260.674 336.463 262.683 331.289 266.461C327.957 268.867 323.253 272.043 316.936 276.086C337.967 262.96 343.236 260.241 345.113 260.698C345.379 260.763 345.629 260.88 345.848 261.043C346.067 261.207 346.251 261.413 346.389 261.649C346.509 261.853 346.587 262.08 346.618 262.316C346.649 262.552 346.633 262.791 346.569 263.02C346.509 263.251 346.402 263.468 346.256 263.656C346.109 263.845 345.925 264.001 345.715 264.115C333.443 271.081 320.967 278.276 308.911 285.374L296.423 293.266C271.867 308.811 253.953 319.988 241.38 327.303C237.398 330.034 233.993 332.464 231.262 334.521C242.451 327.904 261.509 316.655 280.59 305.526C340.746 270.323 341.66 270.576 342.803 270.876C343.039 270.937 343.26 271.044 343.454 271.19C343.648 271.337 343.811 271.521 343.934 271.731C344.108 272.039 344.218 272.378 344.257 272.73C344.297 273.081 344.265 273.437 344.163 273.776C343.808 274.941 343.128 275.981 342.202 276.772C346.328 274.714 348.915 273.872 350.19 274.173C350.501 274.244 350.793 274.378 351.049 274.566C351.306 274.755 351.521 274.993 351.682 275.268C352.645 276.928 351.297 277.83 348.326 279.804C346.533 281.007 343.886 282.679 340.217 284.965L339.507 285.41C345.113 282.727 349.047 281.464 351.021 281.945C351.424 282.028 351.805 282.194 352.14 282.432C352.476 282.671 352.758 282.976 352.97 283.329C354.63 286.204 352.97 288.033 294.269 322.755C269.618 337.445 237.049 356.695 228.17 363.914C233.067 362.193 245.266 356.298 275.585 337.95C300.297 322.996 327.512 305.538 340.553 297.153C349.613 291.342 349.601 291.354 350.407 291.546C350.886 291.668 351.297 291.975 351.55 292.4C352.284 293.676 353.03 294.963 343.128 302.338C344.526 301.706 346.063 301.441 347.592 301.568C347.928 301.647 348.245 301.795 348.523 302.002C348.8 302.209 349.032 302.471 349.204 302.771C350.263 304.612 350.263 304.612 330.796 317.365C321.171 323.645 307.817 332.32 290.973 343.148C274.731 353.591 258.356 364.07 247.143 371.229C269.858 359.053 312.424 332.055 331.362 320.048C348.205 309.4 348.205 309.4 349.12 309.629C349.355 309.689 349.576 309.796 349.771 309.943C349.965 310.089 350.128 310.273 350.251 310.483C351.538 312.721 349.493 315.897 341.576 321.78C341.808 321.747 342.042 321.747 342.274 321.78C342.569 321.851 342.846 321.98 343.09 322.16C343.334 322.339 343.539 322.566 343.694 322.827C344.957 325.017 346.389 327.495 292.994 360.93C308.346 351.473 324.275 341.415 337.137 333.078C337.342 332.944 337.573 332.853 337.815 332.811C338.057 332.769 338.305 332.778 338.544 332.835C338.783 332.892 339.007 332.998 339.204 333.145C339.401 333.292 339.565 333.478 339.687 333.691C340.565 335.231 339.35 336.097 337.281 337.541C336.078 338.395 334.261 339.647 331.879 341.235C329.497 342.823 326.537 344.844 322.964 347.154C327.945 344.628 331.025 343.605 332.589 343.99C332.928 344.067 333.248 344.213 333.528 344.42C333.807 344.627 334.041 344.891 334.213 345.193C335.224 346.938 334.995 347.599 322.819 355.468C325.382 354.373 327.199 353.976 328.366 354.265C328.728 354.343 329.071 354.495 329.371 354.713C329.671 354.93 329.923 355.208 330.11 355.528C331.53 357.934 330.459 359.065 297.855 378.808C288.519 384.463 276.764 391.573 267.247 397.709L331.265 360.761C331.47 360.64 331.697 360.562 331.933 360.53C332.168 360.499 332.408 360.517 332.637 360.581C333.096 360.704 333.49 361.002 333.732 361.411C334.622 362.963 333.359 363.89 331.265 365.43C330.002 366.356 328.149 367.667 325.599 369.424C320.846 372.72 314.241 377.184 307.251 381.924C299.106 387.435 288.855 394.377 280.458 400.212C284.32 397.661 288.338 394.93 291.911 392.5C310.524 379.843 318.38 374.778 321.448 375.452C321.769 375.522 322.073 375.658 322.34 375.85C322.607 376.043 322.831 376.288 323 376.57C324.047 378.399 324.095 378.483 302.751 393.943C318.236 383.645 323.301 380.709 325.611 381.226C325.908 381.294 326.188 381.422 326.435 381.602C326.681 381.782 326.888 382.01 327.042 382.273C327.885 383.741 327.885 383.741 317.117 392.536C313.868 395.183 309.357 398.864 305.29 402.269C308.587 400.236 312.22 397.926 315.673 395.688C315.879 395.554 316.11 395.463 316.352 395.421C316.594 395.38 316.842 395.388 317.08 395.445C317.319 395.503 317.544 395.608 317.74 395.755C317.937 395.903 318.101 396.089 318.224 396.302C318.897 397.505 318.645 397.745 316.178 400.392C314.169 402.546 312.449 404.435 310.993 406.047C321.917 399.538 322.314 399.646 323.084 399.839C323.318 399.899 323.538 400.006 323.73 400.153C323.922 400.3 324.083 400.483 324.203 400.693C324.323 400.898 324.402 401.125 324.433 401.36C324.465 401.596 324.45 401.835 324.388 402.065C324.327 402.294 324.22 402.509 324.075 402.697C323.929 402.885 323.748 403.042 323.541 403.159C323.367 403.264 323.176 403.338 322.976 403.376C321.376 404.098 312.485 409.331 304.652 414.072C304.388 414.192 304.1 414.25 303.81 414.24ZM321.171 402.413C321.362 402.736 321.648 402.992 321.989 403.147C321.651 402.988 321.366 402.733 321.171 402.413ZM276.752 384.042C266.357 390.527 256.131 397.023 249.465 401.655C256.72 397.336 267.259 390.382 276.752 384.042ZM321.496 352.003C309.693 358.548 290.6 370.844 276.09 380.216C281.432 376.883 287.52 373.117 294.438 368.858C303.967 362.999 314.229 356.695 321.496 352.003ZM320.726 360.425C314.313 363.841 304.58 370.049 295.088 376.246L296.086 375.644C304.953 370.254 314.578 364.419 320.726 360.4V360.425ZM261.569 333.403C253.628 338.371 246.409 343.052 240.394 347.07C246.626 343.088 254.013 338.311 261.569 333.403ZM347.219 286.084C343.73 287.287 336.33 290.656 320.678 300.052C305.025 309.448 286.112 321.804 269.269 332.753C261.918 337.565 255.734 341.536 250.512 344.88C260.642 338.648 274.25 330.503 292.429 319.747C314.554 306.621 339.29 291.991 347.219 286.084ZM335.921 321.383L333.371 323.008C324.949 328.357 316.972 333.39 309.441 338.107C319.487 332.067 328.967 326.16 335.921 321.383ZM256.131 313.383C245.098 320.048 234.378 326.617 227.256 331.105C230.865 329.264 235.208 326.797 240.117 323.886C244.942 320.601 250.344 317.052 256.131 313.383ZM284.38 281.596C279.76 284.676 275.212 287.732 270.953 290.584C262.531 296.262 255.048 301.219 248.563 305.478L255.192 301.388C279.555 286.373 314.735 264.668 325.081 256.8C321.255 258.51 317.545 260.472 313.977 262.671C309.862 265.547 304.628 269 297.999 273.186C293.68 275.893 289.096 278.709 284.38 281.572V281.596Z" fill="white"/>
</g>
<path d="M278.254 221.404H277.448C233.823 222.21 200.941 255.585 200.941 296.647C200.922 308.91 203.913 320.989 209.652 331.826C212.058 337.541 217.881 351.533 223.644 369.628C228.986 386.327 231.777 403.135 231.777 405.722C231.777 405.962 231.777 406.215 231.777 406.492C231.753 407.247 231.881 407.999 232.153 408.704C232.425 409.409 232.836 410.051 233.361 410.595C233.886 411.138 234.515 411.57 235.21 411.865C235.905 412.161 236.653 412.314 237.408 412.315H315.539C316.294 412.314 317.041 412.161 317.737 411.865C318.432 411.57 319.061 411.138 319.586 410.595C320.111 410.051 320.522 409.409 320.794 408.704C321.066 407.999 321.193 407.247 321.169 406.492C321.169 406.215 321.169 405.962 321.169 405.722C321.169 403.183 323.96 386.376 329.29 369.628C335.065 351.581 340.828 337.541 343.282 331.826C349.283 320.474 352.279 307.776 351.986 294.939C351.693 282.102 348.121 269.553 341.61 258.487C335.099 247.42 325.865 238.203 314.786 231.712C303.707 225.221 291.151 221.673 278.314 221.404H278.254Z" stroke="#8BBC3A" stroke-width="2" stroke-linecap="round" stroke-linejoin="round"/>
<path d="M304.615 233.484C302.436 232.505 300.203 231.654 297.926 230.933" stroke="#8BBC3A" stroke-width="3" stroke-linecap="round" stroke-linejoin="round"/>
<path d="M329.689 252.589C329.689 252.589 323.553 242.844 310.066 236.215" stroke="#8BBC3A" stroke-width="3" stroke-linecap="round" stroke-linejoin="round"/>
<path d="M271.48 378.195V339.55C271.48 339.55 274.452 320.734 264.67 320.734C254.889 320.734 255.635 330.527 266.92 341.054C278.206 351.582 295.53 341.812 297.792 333.535C300.054 325.257 294.027 321.504 290.261 328.265C286.495 335.027 290.261 411.822 290.261 411.822" stroke="#8BBC3A" stroke-width="3" stroke-linecap="round" stroke-linejoin="round"/>
<path d="M250.559 201.854L254.733 214.955" stroke="#8BBC3A" stroke-width="3" stroke-linecap="round" stroke-linejoin="round"/>
<path d="M352.561 230.427L338.869 241.147" stroke="#8BBC3A" stroke-width="3" stroke-linecap="round" stroke-linejoin="round"/>
<path d="M301.751 192.289L296.59 214.956" stroke="#8BBC3A" stroke-width="3" stroke-linecap="round" stroke-linejoin="round"/>
<path d="M317.73 417.946H235.208C234.151 417.946 233.295 418.802 233.295 419.859V420.809C233.295 421.865 234.151 422.722 235.208 422.722H317.73C318.786 422.722 319.643 421.865 319.643 420.809V419.859C319.643 418.802 318.786 417.946 317.73 417.946Z" fill="#8BBC3A" stroke="#8BBC3A" stroke-linecap="round" stroke-linejoin="round"/>
<path d="M317.73 428.701H235.208C234.151 428.701 233.295 429.558 233.295 430.614V431.565C233.295 432.621 234.151 433.478 235.208 433.478H317.73C318.786 433.478 319.643 432.621 319.643 431.565V430.614C319.643 429.558 318.786 428.701 317.73 428.701Z" fill="#8BBC3A" stroke="#8BBC3A" stroke-linecap="round" stroke-linejoin="round"/>
<path d="M317.73 439.457H235.208C234.151 439.457 233.295 440.314 233.295 441.37V442.321C233.295 443.377 234.151 444.234 235.208 444.234H317.73C318.786 444.234 319.643 443.377 319.643 442.321V441.37C319.643 440.314 318.786 439.457 317.73 439.457Z" fill="#8BBC3A" stroke="#8BBC3A" stroke-linecap="round" stroke-linejoin="round"/>
<path d="M278.989 449.96H236.615L248.815 466.804C249.861 468.25 251.235 469.428 252.824 470.239C254.414 471.051 256.174 471.474 257.959 471.472H295.255C297.044 471.471 298.806 471.045 300.398 470.229C301.99 469.413 303.365 468.231 304.411 466.78L316.514 450.021L278.989 449.96Z" fill="#8BBC3A" stroke="#8BBC3A" stroke-linecap="round" stroke-linejoin="round"/>
<path d="M369.96 270.071C369.96 270.071 362.26 278.492 355.955 282.679C349.651 286.866 345.26 292.437 351.047 295.288C354.524 296.996 359.469 294.59 359.469 294.59C359.469 294.59 351.757 296.684 350.361 303.698C348.965 310.712 364.317 307.873 364.317 307.873C364.317 307.873 353.116 315.573 356.617 318.376C360.118 321.179 367.12 319.074 370.621 319.074C374.122 319.074 391.64 307.873 395.887 307.873C400.134 307.873 408.496 316.98 408.496 323.982C408.496 330.985 419.661 330.287 421.092 308.57C422.524 286.854 416.893 268.651 407.786 263.044C398.678 257.438 369.96 270.071 369.96 270.071Z" fill="white" stroke="#8BBC3A" stroke-miterlimit="10" stroke-linecap="round"/>
<path d="M365.76 293.856L393.708 283.413C393.708 283.413 405.98 280.754 414.787 295.264" stroke="#8BBC3A" stroke-miterlimit="10" stroke-linecap="round"/>
<path d="M370.658 302.266L395.924 298.067C395.924 298.067 407.137 297.37 414.139 310.676" stroke="#8BBC3A" stroke-miterlimit="10" stroke-linecap="round"/>
<path d="M401.481 319.074L382.568 323.285L393.769 368.101C393.769 368.101 403.586 387.711 406.377 396.121C409.169 404.531 437.899 432.492 437.899 432.492L471.514 400.272C471.514 400.272 456.114 382.069 455.416 377.858C454.719 373.647 451.903 324.632 451.903 317.63C451.903 310.628 437.899 293.808 437.899 293.808C437.899 293.808 432.148 285.567 429.345 271.562C426.542 257.558 413.704 251.795 406.678 252.493C399.652 253.191 380.462 255.296 372.762 260.915C365.062 266.533 358.048 273.524 365.062 275.629C376.696 279.118 395.73 263.598 404.909 274.33C409.12 279.226 414.089 300.798 414.787 303.65C414.787 303.65 411.286 316.956 401.481 319.05" fill="white"/>
<path d="M401.481 319.074L382.568 323.285L393.769 368.101C393.769 368.101 403.586 387.711 406.377 396.121C409.169 404.531 437.899 432.492 437.899 432.492L471.514 400.272C471.514 400.272 456.114 382.069 455.416 377.858C454.719 373.647 451.903 324.632 451.903 317.63C451.903 310.628 437.899 293.808 437.899 293.808C437.899 293.808 432.148 285.567 429.345 271.562C426.542 257.558 413.704 251.795 406.678 252.493C399.652 253.191 380.462 255.296 372.762 260.915C365.062 266.533 358.048 273.524 365.062 275.629C376.696 279.118 395.73 263.598 404.909 274.33C409.12 279.226 414.089 300.798 414.787 303.65C414.787 303.65 411.286 316.956 401.481 319.05" stroke="#8BBC3A" stroke-miterlimit="10" stroke-linecap="round"/>
<path d="M330.955 253.973C331.169 253.748 331.457 253.608 331.766 253.577C332.075 253.546 332.384 253.627 332.639 253.804L335.502 255.79C335.785 255.989 335.978 256.291 336.038 256.631C336.099 256.971 336.023 257.322 335.827 257.606C335.631 257.888 335.33 258.081 334.992 258.141C334.654 258.202 334.305 258.127 334.023 257.931L331.159 255.934C330.877 255.737 330.685 255.437 330.624 255.099C330.563 254.761 330.639 254.412 330.834 254.129C330.868 254.072 330.908 254.02 330.955 253.973Z" fill="#8BBC3A" stroke="#8BBC3A" stroke-miterlimit="10" stroke-linecap="round"/>
<path d="M334.238 256.283C334.724 255.763 335.381 255.437 336.089 255.364C336.796 255.291 337.507 255.476 338.088 255.886L347.063 260.506L435.18 318.472C435.931 318.994 436.572 319.659 437.066 320.429C437.561 321.199 437.898 322.059 438.06 322.959C438.222 323.86 438.205 324.783 438.011 325.677C437.816 326.571 437.447 327.418 436.924 328.169C436.402 328.92 435.737 329.561 434.967 330.056C434.197 330.55 433.338 330.888 432.437 331.05C431.537 331.212 430.613 331.195 429.719 331C428.825 330.805 427.978 330.436 427.227 329.913L341.71 266.822L334.719 260.806C334.399 260.584 334.125 260.3 333.913 259.972C333.702 259.643 333.558 259.276 333.489 258.892C333.419 258.507 333.426 258.113 333.51 257.731C333.593 257.35 333.75 256.988 333.974 256.668C334.049 256.531 334.138 256.402 334.238 256.283Z" fill="url(#paint13_linear_194_15242)" stroke="#8BBC3A" stroke-miterlimit="10" stroke-linecap="round"/>
<path d="M435.192 318.472L409.758 301.749C407.796 302.318 406.065 303.496 404.817 305.114C403.569 306.732 402.868 308.705 402.816 310.748C402.818 311.151 402.85 311.553 402.913 311.951L427.24 329.902C428.757 330.956 430.631 331.365 432.45 331.038C434.268 330.711 435.882 329.674 436.937 328.157C437.991 326.64 438.4 324.766 438.073 322.947C437.746 321.129 436.71 319.515 435.192 318.46V318.472Z" fill="#8BBC3A" stroke="#8BBC3A" stroke-miterlimit="10" stroke-linecap="round"/>
<path d="M406.426 396.121C398.726 384.92 388.92 356.202 384.77 350.595C380.619 344.989 369.297 332.549 365.099 319.988C360.9 307.427 358.145 297.369 358.145 286.854C358.145 276.339 367.18 274.534 374.182 285.747C381.184 296.96 389.582 314.177 389.582 314.177C389.582 314.177 395.189 321.179 406.426 319.074" fill="white"/>
<path d="M406.426 396.121C398.726 384.92 388.92 356.202 384.77 350.595C380.619 344.989 369.297 332.549 365.099 319.988C360.9 307.427 358.145 297.369 358.145 286.854C358.145 276.339 367.18 274.534 374.182 285.747C381.184 296.96 389.582 314.177 389.582 314.177C389.582 314.177 395.189 321.179 406.426 319.074" stroke="#8BBC3A" stroke-miterlimit="10" stroke-linecap="round"/>
<path d="M366.833 282.475L369.239 287.155C369.239 287.155 368.71 287.155 364.968 289.284C362.735 290.557 360.86 292.374 359.518 294.566C359.518 294.566 355.908 284.484 359.097 281.332C359.871 280.513 360.895 279.976 362.008 279.804C362.989 279.701 363.978 279.902 364.841 280.379C365.704 280.857 366.399 281.589 366.833 282.475Z" fill="white" stroke="#8BBC3A" stroke-miterlimit="10" stroke-linecap="round"/>
<path d="M464.176 386.003C464.176 386.003 445.636 391.489 436.011 401.114C429.637 407.61 423.67 414.493 418.145 421.724L435.325 441.647C435.325 441.647 449.762 425.152 459.387 417.585C465.943 412.55 472.828 407.96 479.997 403.845L464.176 386.003Z" fill="white" stroke="#8BBC3A" stroke-miterlimit="10" stroke-linecap="round"/>
<path d="M481.394 530.955L427.121 443.705C427.121 443.705 440.861 423.095 452.543 412.797C464.225 402.498 479.336 399.743 479.336 399.743L547.192 464.867" fill="url(#paint14_linear_194_15242)"/>
<path d="M376.828 307.957L378.031 307.837" stroke="#8BBC3A" stroke-miterlimit="10" stroke-linecap="round"/>
<path d="M366.35 313.78C366.35 313.78 366.987 309.942 374.699 308.33" stroke="#8BBC3A" stroke-miterlimit="10" stroke-linecap="round"/>
<path d="M374.723 311.073C374.723 311.073 374.181 312.697 368.779 314.863" stroke="#8BBC3A" stroke-miterlimit="10" stroke-linecap="round"/>
<path d="M374.507 305.936C371.804 306.36 369.235 307.401 367 308.979" stroke="#8BBC3A" stroke-miterlimit="10" stroke-linecap="round"/>
<path d="M205.217 186.273C205.217 186.273 216.574 187.2 223.769 189.594C230.964 191.988 238.038 192 236.726 185.72C235.944 181.93 231.012 179.512 231.012 179.512C231.012 179.512 237.4 184.324 243.789 181.112C250.177 177.9 238.507 167.481 238.507 167.481C238.507 167.481 251.477 171.595 251.537 167.108C251.597 162.62 245.642 158.385 243.488 155.618C241.334 152.851 221.748 145.909 219.161 142.6C216.574 139.292 218.608 127.056 224.142 122.749C229.676 118.442 222.241 110.056 204.302 122.255C186.364 134.455 175.428 150.084 176.522 160.755C177.617 171.427 205.217 186.273 205.217 186.273Z" fill="white" stroke="#8BBC3A" stroke-miterlimit="10" stroke-linecap="round"/>
<path d="M226.597 175.024L201.187 159.383C201.187 159.383 191.562 151.335 197.578 135.478" stroke="#8BBC3A" stroke-miterlimit="10" stroke-linecap="round"/>
<path d="M230.217 165.941L211.425 148.616C211.425 148.616 203.989 140.194 210.221 126.502" stroke="#8BBC3A" stroke-miterlimit="10" stroke-linecap="round"/>
<path d="M224.574 131.291L239.493 143.647L268.067 107.277C268.067 107.277 286.475 99.0114 291.323 91.6363C296.172 84.2611 300.299 44.3176 300.299 44.3176L254.111 37.8689C254.111 37.8689 249.407 61.2575 246.543 64.4217C243.68 67.5859 198.034 88.0389 192.511 92.3461C186.989 96.6533 182.309 118.021 182.309 118.021C179.846 126.708 176.626 135.162 172.684 143.286C162.157 164.605 164.033 162.969 168.882 168.07C173.731 173.172 185.533 183.542 194.689 186.189C203.845 188.836 215.226 198.293 212.676 186.731C210.053 174.88 184.354 169.887 187.181 156.075C188.469 149.747 202.485 132.554 204.266 130.28C204.266 130.28 216.911 124.878 224.598 131.327" fill="white"/>
<path d="M224.574 131.291L239.493 143.647L268.067 107.277C268.067 107.277 286.475 99.0114 291.323 91.6363C296.172 84.2611 300.299 44.3176 300.299 44.3176L254.111 37.8689C254.111 37.8689 249.407 61.2575 246.543 64.4217C243.68 67.5859 198.034 88.0389 192.511 92.3461C186.989 96.6533 182.309 118.021 182.309 118.021C179.846 126.708 176.626 135.162 172.684 143.286C162.157 164.605 164.033 162.969 168.882 168.07C173.731 173.172 185.533 183.542 194.689 186.189C203.845 188.836 215.226 198.293 212.676 186.731C210.053 174.88 184.354 169.887 187.181 156.075C188.469 149.747 202.485 132.554 204.266 130.28C204.266 130.28 216.911 124.878 224.598 131.327" stroke="#8BBC3A" stroke-miterlimit="10" stroke-linecap="round"/>
<path d="M216.477 226.939C216.166 226.916 215.872 226.782 215.651 226.561C215.43 226.34 215.297 226.047 215.274 225.736L215.094 222.247C215.07 222.069 215.083 221.888 215.132 221.716C215.181 221.544 215.265 221.383 215.38 221.245C215.494 221.107 215.635 220.994 215.795 220.913C215.955 220.832 216.13 220.785 216.309 220.775C216.488 220.765 216.667 220.792 216.835 220.855C217.003 220.917 217.156 221.014 217.285 221.139C217.414 221.263 217.515 221.413 217.583 221.579C217.651 221.745 217.684 221.923 217.68 222.102L217.873 225.591C217.893 225.932 217.778 226.267 217.553 226.524C217.327 226.78 217.01 226.938 216.67 226.963L216.477 226.939Z" fill="#8BBC3A" stroke="#8BBC3A" stroke-miterlimit="10" stroke-linecap="round"/>
<path d="M216.333 222.908C215.624 222.845 214.962 222.528 214.469 222.015C213.975 221.502 213.685 220.828 213.65 220.117L211.797 210.191L203.459 105.051C203.36 103.205 203.999 101.395 205.234 100.02C206.469 98.6448 208.2 97.8167 210.046 97.7178C211.892 97.6188 213.702 98.2573 215.077 99.4926C216.452 100.728 217.28 102.459 217.379 104.305L220.074 210.552L219.569 219.804C219.59 220.193 219.534 220.582 219.405 220.949C219.275 221.316 219.074 221.654 218.814 221.944C218.554 222.233 218.239 222.469 217.887 222.636C217.536 222.804 217.155 222.9 216.766 222.92C216.621 222.928 216.476 222.924 216.333 222.908Z" fill="url(#paint15_linear_194_15242)" stroke="#8BBC3A" stroke-miterlimit="10" stroke-linecap="round"/>
<path d="M203.399 105.051L205.805 135.393C207.454 136.601 209.445 137.252 211.49 137.252C213.534 137.252 215.525 136.601 217.174 135.393C217.494 135.143 217.796 134.869 218.077 134.575L217.319 104.353C217.22 102.507 216.392 100.776 215.016 99.5407C213.641 98.3054 211.832 97.6669 209.986 97.7659C208.14 97.8648 206.409 98.6929 205.173 100.068C203.938 101.443 203.3 103.253 203.399 105.099V105.051Z" fill="#8BBC3A" stroke="#8BBC3A" stroke-miterlimit="10" stroke-linecap="round"/>
<path d="M291.264 91.5879C287.318 104.594 269.897 122.472 266.865 128.776C260.066 143.06 252.2 156.811 243.332 169.911C240.336 174.399 237.1 175.036 235.127 176.648C232.239 179.055 230.759 181.521 225.827 185.347C217.537 191.796 210.559 185.792 215.107 173.388C219.655 160.984 228.004 143.743 228.004 143.743C228.004 143.743 230.098 135.02 221.567 127.465" fill="white"/>
<path d="M291.264 91.5879C287.318 104.594 269.897 122.472 266.865 128.776C260.066 143.06 252.2 156.811 243.332 169.911C240.336 174.399 237.1 175.036 235.127 176.648C232.239 179.055 230.759 181.521 225.827 185.347C217.537 191.796 210.559 185.792 215.107 173.388C219.655 160.984 228.004 143.743 228.004 143.743C228.004 143.743 230.098 135.02 221.567 127.465" stroke="#8BBC3A" stroke-miterlimit="10" stroke-linecap="round"/>
<path d="M216.935 181.112L219.197 176.396C219.197 176.396 219.521 176.817 223.504 178.453C225.877 179.434 228.46 179.798 231.011 179.512C231.011 179.512 225.272 188.559 220.785 187.994C219.666 187.888 218.615 187.409 217.801 186.634C217.1 185.919 216.639 185.002 216.484 184.012C216.329 183.022 216.486 182.008 216.935 181.112Z" fill="white" stroke="#8BBC3A" stroke-miterlimit="10" stroke-linecap="round"/>
<path d="M250.213 0.174942L240.648 62.2919C240.648 62.2919 252.186 72.4342 267.514 75.1653C282.842 77.8964 310.826 82.0351 310.826 82.0351L335.322 0.150879" fill="url(#paint16_linear_194_15242)"/>
<path d="M305.894 68.1514C305.894 69.0865 305.617 70.0007 305.097 70.7782C304.578 71.5558 303.839 72.1618 302.975 72.5197C302.111 72.8776 301.16 72.9712 300.243 72.7888C299.326 72.6063 298.484 72.156 297.822 71.4947C297.161 70.8335 296.711 69.991 296.528 69.0738C296.346 68.1566 296.44 67.2059 296.797 66.3419C297.155 65.478 297.761 64.7395 298.539 64.2199C299.316 63.7004 300.231 63.4231 301.166 63.4231C302.42 63.4231 303.622 63.9212 304.509 64.808C305.396 65.6947 305.894 66.8973 305.894 68.1514Z" fill="white" stroke="#8BBC3A" stroke-width="2" stroke-linecap="round" stroke-linejoin="round"/>
<path d="M227.414 165.772L226.607 164.954" stroke="#8BBC3A" stroke-miterlimit="10" stroke-linecap="round"/>
<path d="M238.434 170.476C238.434 170.476 235.017 172.329 229.014 167.24" stroke="#8BBC3A" stroke-miterlimit="10" stroke-linecap="round"/>
<path d="M231.156 165.52C231.156 165.52 232.768 164.954 237.797 167.926" stroke="#8BBC3A" stroke-miterlimit="10" stroke-linecap="round"/>
<path d="M227.246 168.864C229.24 170.73 231.636 172.113 234.248 172.907" stroke="#8BBC3A" stroke-miterlimit="10" stroke-linecap="round"/>
<path d="M230.699 371.337C230.699 371.337 231.794 382.682 234.308 389.841C236.823 396.999 236.967 404.074 230.627 402.859C226.825 402.125 224.334 397.24 224.334 397.24C224.334 397.24 229.231 403.556 226.127 409.981C223.023 416.406 212.411 404.904 212.411 404.904C212.411 404.904 216.719 417.801 212.243 417.934C207.767 418.066 203.424 412.171 200.633 410.065C197.842 407.96 190.599 388.409 187.242 385.931C183.886 383.452 171.698 385.606 167.487 391.2C163.276 396.795 154.734 389.492 166.693 371.313C178.652 353.134 194.088 341.957 204.724 342.967C215.359 343.978 230.699 371.337 230.699 371.337Z" fill="white" stroke="#8BBC3A" stroke-miterlimit="10" stroke-linecap="round"/>
<path d="M219.712 392.885L203.687 367.703C203.687 367.703 195.494 358.187 179.721 364.479" stroke="#8BBC3A" stroke-miterlimit="10" stroke-linecap="round"/>
<path d="M210.739 396.639L193.137 378.099C193.137 378.099 184.607 370.796 171.012 377.208" stroke="#8BBC3A" stroke-miterlimit="10" stroke-linecap="round"/>
<path d="M176.016 391.501L188.576 406.251L152.639 435.295C152.639 435.295 133.004 445.04 125.713 450.069C118.422 455.098 78.6111 460.163 78.6111 460.163L71.1758 414.204C71.1758 414.204 94.4441 408.946 97.5241 406.011C100.604 403.075 132.415 365.622 136.589 360.028C140.764 354.433 162.119 349.44 162.119 349.44C162.119 349.44 171.672 346.324 182.344 336.832C193.016 327.339 206.743 330.479 211.917 335.255C217.09 340.032 231.166 353.302 233.946 362.374C236.725 371.445 238.096 381.299 231.239 378.76C219.845 374.537 213.986 350.703 200.198 353.723C193.894 355.107 176.906 369.364 174.668 371.193C174.668 371.193 169.446 383.922 176.016 391.501Z" fill="white" stroke="#8BBC3A" stroke-miterlimit="10" stroke-linecap="round"/>
<path d="M271.521 381.96C271.499 381.649 271.365 381.355 271.144 381.134C270.923 380.914 270.63 380.78 270.318 380.757L266.829 380.625C266.658 380.619 266.488 380.646 266.328 380.705C266.168 380.765 266.021 380.855 265.896 380.971C265.771 381.088 265.67 381.227 265.599 381.383C265.528 381.538 265.488 381.705 265.481 381.876C265.475 382.047 265.502 382.217 265.562 382.377C265.621 382.537 265.712 382.684 265.828 382.809C265.944 382.934 266.084 383.035 266.239 383.106C266.394 383.177 266.562 383.217 266.733 383.224L270.222 383.356C270.558 383.366 270.885 383.247 271.136 383.023C271.386 382.8 271.542 382.488 271.569 382.153C271.56 382.087 271.544 382.023 271.521 381.96Z" fill="#8BBC3A" stroke="#8BBC3A" stroke-miterlimit="10" stroke-linecap="round"/>
<path d="M267.503 381.852C267.425 381.144 267.096 380.487 266.575 380.001C266.054 379.515 265.375 379.233 264.663 379.205L254.713 377.497L149.465 370.723C148.55 370.688 147.637 370.833 146.778 371.15C145.92 371.467 145.132 371.95 144.46 372.572C143.788 373.194 143.245 373.942 142.862 374.773C142.479 375.605 142.263 376.504 142.228 377.419C142.192 378.333 142.337 379.246 142.655 380.105C142.972 380.964 143.455 381.752 144.077 382.424C144.699 383.096 145.447 383.639 146.278 384.022C147.11 384.404 148.008 384.62 148.923 384.655L255.195 385.762L264.435 385.137C265.221 385.166 265.987 384.882 266.564 384.348C267.142 383.813 267.483 383.071 267.515 382.285C267.523 382.141 267.519 381.996 267.503 381.852Z" fill="url(#paint17_linear_194_15242)" stroke="#8BBC3A" stroke-miterlimit="10" stroke-linecap="round"/>
<path d="M149.464 370.723L179.83 372.684C181.057 374.32 181.731 376.303 181.755 378.347C181.779 380.392 181.151 382.39 179.963 384.054C179.71 384.372 179.441 384.677 179.157 384.968L148.958 384.655C148.044 384.62 147.145 384.404 146.313 384.022C145.482 383.639 144.734 383.096 144.112 382.424C143.49 381.752 143.007 380.964 142.69 380.105C142.372 379.246 142.228 378.333 142.263 377.419C142.299 376.504 142.514 375.605 142.897 374.773C143.28 373.942 143.823 373.194 144.495 372.572C145.167 371.95 145.955 371.467 146.813 371.15C147.672 370.833 148.585 370.688 149.5 370.723H149.464Z" fill="#8BBC3A" stroke="#8BBC3A" stroke-miterlimit="10" stroke-linecap="round"/>
<path d="M125.715 450.069C138.612 445.762 163.733 428.738 170.459 426.789C177.184 424.84 193.643 421.736 204.591 414.204C215.54 406.673 223.757 400.32 230.085 391.922C236.414 383.525 230.302 376.655 217.958 381.383C205.614 386.111 188.469 394.762 188.469 394.762C188.469 394.762 179.783 396.975 172.095 388.554" fill="white"/>
<path d="M125.715 450.069C138.612 445.762 163.733 428.738 170.459 426.789C177.184 424.84 193.643 421.736 204.591 414.204C215.54 406.673 223.757 400.32 230.085 391.922C236.414 383.525 230.302 376.655 217.958 381.383C205.614 386.111 188.469 394.762 188.469 394.762C188.469 394.762 179.783 396.975 172.095 388.554" stroke="#8BBC3A" stroke-miterlimit="10" stroke-linecap="round"/>
<path d="M225.716 383.164L221.023 385.486C221.023 385.486 221.457 385.81 223.153 389.757C224.182 392.117 224.596 394.7 224.356 397.264C224.356 397.264 233.319 391.393 232.682 386.905C232.558 385.787 232.068 384.742 231.286 383.934C230.555 383.237 229.625 382.788 228.625 382.65C227.625 382.512 226.608 382.692 225.716 383.164Z" fill="white" stroke="#8BBC3A" stroke-miterlimit="10" stroke-linecap="round"/>
<path d="M95.0347 404.302C95.0347 404.302 106.536 419.859 108.425 433.333C109.604 442.354 110.223 451.439 110.278 460.536L75.1591 468.958C75.1591 468.958 73.571 447.109 70.4429 435.27C68.2403 427.305 65.5071 419.495 62.2617 411.894L95.0347 404.302Z" fill="white" stroke="#8BBC3A" stroke-miterlimit="10" stroke-linecap="round"/>
<path d="M96.6345 431.445C93.5063 416.189 83.0994 404.892 83.0994 404.892L0 418.126V511.97L98.3188 471.413C98.3188 471.413 99.7505 446.7 96.6345 431.445Z" fill="url(#paint18_linear_194_15242)"/>
<path d="M74.3643 472.194C74.3786 472.928 74.173 473.65 73.7741 474.266C73.3751 474.883 72.8009 475.366 72.1253 475.653C71.4497 475.941 70.7036 476.02 69.9828 475.88C69.262 475.74 68.5994 475.388 68.0803 474.869C67.5611 474.35 67.209 473.687 67.0693 472.966C66.9295 472.246 67.0085 471.5 67.296 470.824C67.5836 470.148 68.0666 469.574 68.6829 469.175C69.2993 468.776 70.0209 468.571 70.755 468.585C71.7065 468.603 72.6138 468.99 73.2867 469.663C73.9597 470.335 74.3459 471.243 74.3643 472.194Z" fill="white"/>
<path d="M84.6873 467.815C84.6849 468.543 84.467 469.253 84.061 469.857C83.655 470.461 83.0792 470.931 82.4063 471.208C81.7334 471.485 80.9935 471.556 80.2802 471.412C79.5668 471.269 78.9119 470.917 78.3983 470.402C77.8846 469.887 77.5352 469.231 77.3941 468.517C77.253 467.803 77.3266 467.064 77.6056 466.391C77.8846 465.719 78.3565 465.145 78.9616 464.741C79.5668 464.337 80.2781 464.122 81.0057 464.122C81.4902 464.122 81.9699 464.217 82.4174 464.403C82.8648 464.589 83.2712 464.861 83.6132 465.204C83.9553 465.547 84.2262 465.955 84.4105 466.403C84.5948 466.851 84.6889 467.331 84.6873 467.815Z" fill="white"/>
<path d="M202.377 397.469L201.559 396.675" stroke="#8BBC3A" stroke-miterlimit="10" stroke-linecap="round"/>
<path d="M207.248 408.429C207.248 408.429 209.053 404.976 203.867 399.045" stroke="#8BBC3A" stroke-miterlimit="10" stroke-linecap="round"/>
<path d="M202.196 401.21C202.196 401.21 201.643 402.835 204.662 407.816" stroke="#8BBC3A" stroke-miterlimit="10" stroke-linecap="round"/>
<path d="M205.504 397.252C207.405 399.22 208.825 401.599 209.655 404.206" stroke="#8BBC3A" stroke-miterlimit="10" stroke-linecap="round"/>
<defs>
<linearGradient id="paint0_linear_194_15242" x1="27.3329" y1="332.15" x2="38.509" y2="335.647" gradientUnits="userSpaceOnUse">
<stop stop-color="#8BBC3A"/>
<stop offset="1" stop-color="#8BBC3A" stop-opacity="0"/>
</linearGradient>
<linearGradient id="paint1_linear_194_15242" x1="14.8239" y1="357.348" x2="20.6717" y2="365.299" gradientUnits="userSpaceOnUse">
<stop stop-color="#8BBC3A"/>
<stop offset="1" stop-color="#8BBC3A" stop-opacity="0"/>
</linearGradient>
<linearGradient id="paint2_linear_194_15242" x1="82.8214" y1="336.726" x2="125.628" y2="358.04" gradientUnits="userSpaceOnUse">
<stop stop-color="#8BBC3A"/>
<stop offset="1" stop-color="#8BBC3A" stop-opacity="0"/>
</linearGradient>
<linearGradient id="paint3_linear_194_15242" x1="24.0824" y1="355.255" x2="64.4812" y2="383.311" gradientUnits="userSpaceOnUse">
<stop stop-color="#8BBC3A"/>
<stop offset="1" stop-color="#8BBC3A" stop-opacity="0"/>
</linearGradient>
<linearGradient id="paint4_linear_194_15242" x1="92.013" y1="346.477" x2="99.7305" y2="350.627" gradientUnits="userSpaceOnUse">
<stop stop-color="#8BBC3A"/>
<stop offset="1" stop-color="#8BBC3A" stop-opacity="0"/>
</linearGradient>
<linearGradient id="paint5_linear_194_15242" x1="366.168" y1="538.272" x2="375.106" y2="547.364" gradientUnits="userSpaceOnUse">
<stop stop-color="#8BBC3A"/>
<stop offset="1" stop-color="#8BBC3A" stop-opacity="0"/>
</linearGradient>
<linearGradient id="paint6_linear_194_15242" x1="328.562" y1="470.167" x2="336.305" y2="478.623" gradientUnits="userSpaceOnUse">
<stop stop-color="#8BBC3A"/>
<stop offset="1" stop-color="#8BBC3A" stop-opacity="0"/>
</linearGradient>
<linearGradient id="paint7_linear_194_15242" x1="399.954" y1="465.03" x2="444.773" y2="496.678" gradientUnits="userSpaceOnUse">
<stop stop-color="#8BBC3A"/>
<stop offset="1" stop-color="#8BBC3A" stop-opacity="0"/>
</linearGradient>
<linearGradient id="paint8_linear_194_15242" x1="414.704" y1="471.743" x2="423.019" y2="475.773" gradientUnits="userSpaceOnUse">
<stop stop-color="#8BBC3A"/>
<stop offset="1" stop-color="#8BBC3A" stop-opacity="0"/>
</linearGradient>
<linearGradient id="paint9_linear_194_15242" x1="345.174" y1="445.179" x2="358.822" y2="450.165" gradientUnits="userSpaceOnUse">
<stop stop-color="#8BBC3A"/>
<stop offset="1" stop-color="#8BBC3A" stop-opacity="0"/>
</linearGradient>
<linearGradient id="paint10_linear_194_15242" x1="344.229" y1="546.497" x2="347.212" y2="553.364" gradientUnits="userSpaceOnUse">
<stop stop-color="#8BBC3A"/>
<stop offset="1" stop-color="#8BBC3A" stop-opacity="0"/>
</linearGradient>
<linearGradient id="paint11_linear_194_15242" x1="383.555" y1="544.483" x2="389.063" y2="551.68" gradientUnits="userSpaceOnUse">
<stop stop-color="#8BBC3A"/>
<stop offset="1" stop-color="#8BBC3A" stop-opacity="0"/>
</linearGradient>
<linearGradient id="paint12_linear_194_15242" x1="331.466" y1="471.57" x2="369.33" y2="492.816" gradientUnits="userSpaceOnUse">
<stop stop-color="#8BBC3A"/>
<stop offset="1" stop-color="#8BBC3A" stop-opacity="0"/>
</linearGradient>
<linearGradient id="paint13_linear_194_15242" x1="355.435" y1="257.276" x2="393.371" y2="307.911" gradientUnits="userSpaceOnUse">
<stop stop-color="#8BBC3A"/>
<stop offset="1" stop-color="#8BBC3A" stop-opacity="0"/>
</linearGradient>
<linearGradient id="paint14_linear_194_15242" x1="452.336" y1="403.079" x2="520.236" y2="463.112" gradientUnits="userSpaceOnUse">
<stop stop-color="#8BBC3A"/>
<stop offset="1" stop-color="#8BBC3A" stop-opacity="0"/>
</linearGradient>
<linearGradient id="paint15_linear_194_15242" x1="206.94" y1="100.891" x2="223.42" y2="103.005" gradientUnits="userSpaceOnUse">
<stop stop-color="#8BBC3A"/>
<stop offset="1" stop-color="#8BBC3A" stop-opacity="0"/>
</linearGradient>
<linearGradient id="paint16_linear_194_15242" x1="261.678" y1="71.1349" x2="274.878" y2="17.4872" gradientUnits="userSpaceOnUse">
<stop stop-color="#8BBC3A"/>
<stop offset="1" stop-color="#8BBC3A" stop-opacity="0"/>
</linearGradient>
<linearGradient id="paint17_linear_194_15242" x1="168.535" y1="371.1" x2="170.455" y2="386.55" gradientUnits="userSpaceOnUse">
<stop stop-color="#8BBC3A"/>
<stop offset="1" stop-color="#8BBC3A" stop-opacity="0"/>
</linearGradient>
<linearGradient id="paint18_linear_194_15242" x1="88.4292" y1="425.453" x2="21.9044" y2="454.513" gradientUnits="userSpaceOnUse">
<stop stop-color="#8BBC3A"/>
<stop offset="1" stop-color="#8BBC3A" stop-opacity="0"/>
</linearGradient>
</defs>
</svg>
