<svg width="100" height="100" viewBox="0 0 100 100" fill="none" xmlns="http://www.w3.org/2000/svg">
<path d="M49.9784 0.028288C63.2784 0.558045 82.9836 -1.51221 91.517 8.07334C101.303 16.3283 99.9171 36.239 99.949 50.0058C99.9171 63.8453 101.303 68.9194 91.5227 78.7534C82.9892 87.2613 63.2829 100.515 49.9841 99.9845C36.3106 99.8518 29.1117 88.6316 19.4783 80.2145C10.7866 70.7923 -0.333927 64.1709 0.0076832 50.0058C-0.333927 36.5736 10.7855 18.1966 19.4726 9.53443C29.106 -0.137332 36.3049 -0.107838 49.9784 0.028288Z" fill="#192736"/>
<g clip-path="url(#clip0_525_3969)">
<path d="M18.0117 52.2852H13.2891C12.026 52.2852 11.0039 53.3072 11.0039 54.5703V86.7148C11.0039 87.9779 12.026 89 13.2891 89H18.0117C21.792 89 24.8672 85.9248 24.8672 82.1445V59.1406C24.8672 55.3604 21.792 52.2852 18.0117 52.2852ZM50.0039 11C36.1435 11 24.8672 22.4287 24.8672 36.2891C24.8672 41.0158 26.1847 45.5606 28.6077 49.4784C31.6776 47.7651 35.0879 46.8177 38.6273 46.8177C43.4871 46.8177 48.3974 48.5182 52.5636 52.2852H63.8672C65.521 52.2852 67.0445 52.7762 68.3842 53.5472C72.6538 49.0399 75.293 42.973 75.293 36.2891C75.293 22.4287 63.8643 11 50.0039 11ZM50.0041 29.4336C53.7843 29.4336 56.8595 32.5088 56.8595 36.2891C56.8612 37.6367 56.4651 38.9549 55.7207 40.0784C54.9764 41.2019 53.9169 42.0806 52.6753 42.6045C52.549 42.6581 52.4172 42.679 52.2892 42.7244V45.4297C52.2892 46.6928 51.2671 47.7148 50.0041 47.7148C48.741 47.7148 47.7189 46.6928 47.7189 45.4297V42.7306C46.5331 42.3315 45.3833 41.6619 44.3515 40.663C43.4455 39.786 43.4231 38.3399 44.3024 37.4316C45.1795 36.5257 46.6299 36.5055 47.5338 37.3826C48.6429 38.456 49.868 38.8286 50.8924 38.3957C51.3067 38.2211 51.6604 37.928 51.9089 37.5532C52.1574 37.1785 52.2897 36.7387 52.2894 36.2891C52.2894 35.0283 51.265 34.0039 50.0042 34.0039C46.224 34.0039 43.1487 30.9287 43.1487 27.1484C43.1484 24.2763 44.9606 21.6877 47.6586 20.7058C47.6784 20.6985 47.6991 20.7019 47.7189 20.695V17.8555C47.7189 16.5924 48.741 15.5703 50.0041 15.5703C51.2671 15.5703 52.2892 16.5924 52.2892 17.8555V20.6685C53.796 21.1763 55.2349 22.1829 56.4691 23.6538C57.2814 24.6201 57.1564 26.0618 56.1878 26.8718C55.2238 27.6864 53.7778 27.5613 52.9699 26.5906C51.7604 25.1533 50.3968 24.5754 49.223 24.9995C48.3237 25.3275 47.7189 26.1911 47.7189 27.1484C47.7189 28.4092 48.7433 29.4336 50.0041 29.4336Z" fill="white"/>
<path d="M87.1302 53.1537C85.2562 51.7826 82.6512 52.0568 81.0974 53.7478L68.7576 69.104C67.8892 70.0181 66.2439 70.5665 65.3755 70.5665H50.0039C48.7241 70.5665 47.7188 69.5612 47.7188 68.2814C47.7188 67.0016 48.7241 65.9962 50.0039 65.9962H63.8672C66.3809 65.9962 68.4375 63.9396 68.4375 61.4259C68.4375 58.9123 66.3809 56.8556 63.8672 56.8556H51.7406C50.6017 56.8556 50.0338 56.1334 49.1355 55.3473C47.7645 54.1134 46.2105 53.1994 44.6109 52.5594C39.6584 50.537 33.9358 51.149 29.4375 54.2772V84.4297H63.8672C68.1633 84.4297 72.2767 82.2207 74.8361 78.793L88.0898 59.5976C89.5982 57.5867 89.1867 54.6619 87.1302 53.1537Z" fill="white"/>
</g>
<defs>
<clipPath id="clip0_525_3969">
<rect width="78" height="78" fill="white" transform="translate(11 11)"/>
</clipPath>
</defs>
</svg>
