<svg width="417" height="360" viewBox="0 0 417 360" fill="none" xmlns="http://www.w3.org/2000/svg">
<path d="M393.613 336.817V343.966H37.1484V27.8999H393.613V297.011" stroke="#294059" stroke-width="1.5" stroke-linecap="round" stroke-linejoin="round"/>
<path d="M92.6505 183.14H12.1019C9.78039 183.14 7.89844 185.019 7.89844 187.336V288.152C7.89844 290.47 9.78039 292.348 12.1019 292.348H92.6505C94.972 292.348 96.854 290.47 96.854 288.152V187.336C96.854 185.019 94.972 183.14 92.6505 183.14Z" fill="#0C1926" stroke="#294059" stroke-width="1.5" stroke-linecap="round" stroke-linejoin="round"/>
<path d="M85.756 189.1H5.20737C2.88586 189.1 1.00391 190.978 1.00391 193.295V294.112C1.00391 296.429 2.88586 298.308 5.20737 298.308H85.756C88.0775 298.308 89.9594 296.429 89.9594 294.112V193.295C89.9594 190.978 88.0775 189.1 85.756 189.1Z" fill="white" stroke="#213447" stroke-width="1.5" stroke-linecap="round" stroke-linejoin="round"/>
<path d="M28.5005 210.225H62.4629" stroke="#BCCAD9" stroke-width="1.5" stroke-linecap="round" stroke-linejoin="round"/>
<path d="M15.5688 226.714H75.3946" stroke="#BCCAD9" stroke-width="1.5" stroke-linecap="round" stroke-linejoin="round"/>
<path d="M15.5688 235.172H75.3946" stroke="#BCCAD9" stroke-width="1.5" stroke-linecap="round" stroke-linejoin="round"/>
<path d="M15.5688 243.644H75.3946" stroke="#BCCAD9" stroke-width="1.5" stroke-linecap="round" stroke-linejoin="round"/>
<path d="M15.5688 252.102H75.3946" stroke="#BCCAD9" stroke-width="1.5" stroke-linecap="round" stroke-linejoin="round"/>
<path d="M15.5688 260.573H75.3946" stroke="#BCCAD9" stroke-width="1.5" stroke-linecap="round" stroke-linejoin="round"/>
<path d="M15.5688 269.031H75.3946" stroke="#BCCAD9" stroke-width="1.5" stroke-linecap="round" stroke-linejoin="round"/>
<path d="M15.5688 277.503H75.3946" stroke="#BCCAD9" stroke-width="1.5" stroke-linecap="round" stroke-linejoin="round"/>
<path d="M104.698 111.226C104.698 111.226 100.522 114.499 99.8524 116.063C99.1831 117.626 98.4067 125.75 98.4067 125.75C98.4067 125.75 82.1149 178.864 80.6691 185.879C79.4027 193.805 80.0499 201.918 82.5567 209.543C84.2583 213.782 86.47 217.797 89.143 221.502C90.147 222.839 94.4977 222.451 98.072 221.502C101.646 220.554 173.252 199.575 173.252 199.575L184.283 153.316L176.077 139.219C176.077 139.219 162.918 151.138 158.125 156.149C146.305 162.83 123.882 173.412 123.882 173.412L130.401 135.023C130.401 135.023 133.159 129.679 133.413 127.501C133.668 125.323 131.901 119.403 131.901 119.403L104.698 111.226Z" fill="#8BBC3A" stroke="#192736" stroke-width="1.5" stroke-linecap="round" stroke-linejoin="round"/>
<path d="M123.869 173.413C123.869 173.413 122.249 182.258 121.071 187.042C119.273 193.378 115.94 199.174 111.365 203.918" stroke="#0F172A" stroke-width="1.5" stroke-linecap="round" stroke-linejoin="round"/>
<path d="M252.463 75.8696L251.392 142.012H210.066L214.31 75.8696H252.463Z" fill="#192736"/>
<path d="M211.405 121.1C215.402 120.532 219.309 119.445 223.025 117.867C238.754 111.386 248.366 98.7189 252.194 92.6793L252.462 75.8164H214.31L211.405 121.1Z" fill="#7B5B55"/>
<path d="M185.385 58.904C185.385 58.904 185.948 67.2353 185.881 74.5396C185.882 81.1602 188.136 87.6002 192.302 92.8839C196.042 97.839 200.346 103.154 201.163 103.693C201.981 104.232 210.145 107.21 225.293 101.831C240.441 96.4526 253.19 79.1866 253.19 79.1866C265.161 73.3971 276.394 40.6752 265.724 24.1025C254.41 6.55415 234.114 2.12534 213.335 6.65685C193.093 11.0728 187.865 25.5531 185.184 37.2734C182.986 46.683 184.326 52.0361 185.385 58.904Z" fill="#FFDECC" stroke="#FFDECC" stroke-width="1.5" stroke-linecap="round" stroke-linejoin="round"/>
<path d="M212.583 60.9311C213.922 57.5906 219.129 54.8647 224.082 59.5949" stroke="#192736" stroke-width="1.5" stroke-linecap="round" stroke-linejoin="round"/>
<path d="M206.974 52.5932C206.626 52.9005 208.393 54.9449 210.187 54.4773C211.981 54.0096 218.299 51.1635 222.048 50.4686C223.868 50.148 227.001 50.2014 226.612 49.854C224.487 48.7742 222.112 48.2806 219.732 48.4243C215.528 48.8652 209.41 50.3885 206.974 52.5932Z" fill="#192736"/>
<path d="M194.39 55.3455C194.184 54.4907 193.759 53.7036 193.159 53.0606C191.746 52.0215 190.146 51.2638 188.446 50.8291C187.93 50.8349 187.425 50.9779 186.983 51.2433C186.541 51.5087 186.177 51.8869 185.93 52.339C185.836 52.5662 187.268 52.1252 187.71 52.2188C188.995 52.9874 190.221 53.8493 191.378 54.7976C192.73 55.7731 194.618 56.4278 194.39 55.3455Z" fill="#192736"/>
<path d="M189.156 63.0019C188.232 62.6678 189.317 60.9308 190.227 60.6368C191.137 60.3429 192.904 61.198 193.467 61.4786C194.029 61.7592 194.002 62.2536 193.801 62.3472C192.297 62.808 190.729 63.029 189.156 63.0019Z" fill="#192736"/>
<path d="M221.177 61.0244C221.001 61.6331 220.649 62.1764 220.164 62.5861C219.68 62.9958 219.085 63.2537 218.455 63.3277C217.824 63.4016 217.186 63.2883 216.62 63.0018C216.053 62.7153 215.584 62.2684 215.271 61.7171C214.958 61.1657 214.815 60.5345 214.86 59.9024C214.905 59.2703 215.135 58.6655 215.523 58.1636C215.911 57.6617 216.438 57.2851 217.039 57.0809C217.64 56.8767 218.288 56.8541 218.902 57.0158C219.734 57.2498 220.439 57.8022 220.866 58.5528C221.292 59.3035 221.404 60.1918 221.177 61.0244Z" fill="#192736"/>
<path d="M198.125 64.8462C198.125 64.8462 197.523 70.966 195.247 74.3199C195.343 75.1468 195.66 75.9325 196.167 76.5936C196.674 77.2546 197.351 77.7664 198.125 78.0746" stroke="#192736" stroke-linecap="round" stroke-linejoin="round"/>
<path d="M201.298 77.0321C201.74 76.9463 202.194 76.9463 202.637 77.0321" stroke="#192736" stroke-linecap="round" stroke-linejoin="round"/>
<path d="M217.148 71.6873L218.313 70.0571" stroke="#192736" stroke-linecap="round" stroke-linejoin="round"/>
<path d="M219.986 71.2195L221.15 69.5894" stroke="#192736" stroke-linecap="round" stroke-linejoin="round"/>
<path d="M222.811 70.7518L223.975 69.1216" stroke="#192736" stroke-linecap="round" stroke-linejoin="round"/>
<path d="M188.527 73.7185L189.692 72.0884" stroke="#192736" stroke-linecap="round" stroke-linejoin="round"/>
<path d="M191.365 73.2508L192.529 71.6206" stroke="#192736" stroke-linecap="round" stroke-linejoin="round"/>
<path d="M200.749 91.2358C204.634 90.7641 208.299 89.1765 211.298 86.666" stroke="#192736" stroke-linecap="round" stroke-linejoin="round"/>
<path d="M247.817 56.2274C241.395 52.9434 235.628 48.5145 230.803 43.1594C232.958 47.2607 235.854 50.9298 239.343 53.9826C239.799 54.4903 238.728 54.9847 237.175 54.8244C235.622 54.6641 232.824 53.7688 228.353 49.3593C225.006 46.0456 221.084 40.1128 218.339 35.6098C220.294 47.3817 225.957 52.6197 225.742 52.9804C225.528 53.3412 224.029 53.1942 223.239 52.6464C222.449 52.0985 219.397 50.6822 214.859 41.4089C210.321 32.1357 210.267 20.6978 209.852 19.9629C209.437 19.2279 206.934 20.818 206.934 20.818C206.934 20.818 204.256 19.2012 202.717 20.4305C201.177 21.6598 190.669 29.5969 190.174 50.8425C189.514 50.5051 188.92 50.0526 188.42 49.5063C187.147 49.4422 185.899 49.1256 184.75 48.575C183.601 48.0244 182.573 47.2508 181.726 46.2994C177.951 42.4645 175.207 31.4275 181.392 20.631C188.929 7.49608 203.868 5.26462 203.868 5.26462C211.07 1.99092 232.422 -3.42072 253.4 7.18874C274.377 17.7982 278.835 38.0016 277.242 52.8736C275.648 67.7455 267.469 74.2528 267.469 74.2528L254.725 65.955C253.799 68.3113 252.605 70.5532 251.164 72.636C249.825 67.5852 247.817 56.2274 247.817 56.2274Z" fill="black"/>
<path d="M187.402 47.6221C187.467 47.8807 187.548 48.135 187.643 48.3838C188.176 49.4632 189.065 50.3266 190.16 50.829C190.629 29.5834 201.151 21.633 202.704 20.417C204.256 19.2011 206.92 20.8045 206.92 20.8045C206.92 20.8045 209.424 19.2144 209.839 19.9494C210.254 20.6843 210.28 32.1355 214.832 41.3954C219.384 50.6553 222.436 52.085 223.225 52.6329C224.015 53.1807 225.528 53.301 225.742 52.9669C225.956 52.6329 220.28 47.395 218.339 35.5963" stroke="#213447" stroke-width="1.5" stroke-linecap="round" stroke-linejoin="round"/>
<path d="M186.465 47.9428C186.465 47.9428 186.398 47.6755 186.304 47.1945C186.293 47.1342 186.28 47.0712 186.267 47.0055C186.177 46.547 186.062 45.9582 185.956 45.257C185.86 44.6165 185.79 43.8908 185.717 43.1479C185.699 42.9609 185.681 42.7727 185.662 42.5846C185.568 41.6492 185.541 40.5001 185.582 39.4311V37.8277C185.582 37.4992 185.624 37.1655 185.666 36.8398C185.69 36.6487 185.714 36.4605 185.729 36.2777L187.79 31.9217C187.79 32.0654 187.736 32.2394 187.676 32.4313C187.647 32.5249 187.616 32.6227 187.59 32.7234C187.499 33.0666 187.427 33.4145 187.375 33.7656C187.351 34.0413 187.311 34.3274 187.269 34.6265C187.196 35.154 187.116 35.7221 187.108 36.3445V37.8277V39.351C187.108 40.1079 187.195 40.8647 187.278 41.5897C187.308 41.8502 187.337 42.1066 187.362 42.3574C187.456 43.3061 187.616 44.2148 187.79 44.9497M186.465 47.9428C186.491 48.0792 186.544 48.2088 186.623 48.3234C186.701 48.438 186.803 48.5351 186.921 48.6085C187.039 48.6819 187.171 48.7301 187.309 48.7499M186.465 47.9428L186.95 47.8213L186.95 47.8214L186.95 47.8214L186.95 47.8215L186.954 47.8358L186.956 47.8504C186.969 47.9187 186.996 47.9836 187.035 48.0409C187.075 48.0984 187.126 48.1471 187.185 48.1839C187.244 48.2208 187.311 48.245 187.38 48.255L187.309 48.7499M186.465 47.9428L186.95 47.8213L186.95 47.8212L186.95 47.8196L186.948 47.8118L186.94 47.7779C186.932 47.7474 186.922 47.701 186.908 47.6397C186.88 47.517 186.841 47.3345 186.795 47.0989C186.783 47.0379 186.771 46.9744 186.758 46.9084C186.668 46.4499 186.554 45.8721 186.451 45.1827C186.357 44.5564 186.288 43.8478 186.216 43.1064C186.197 42.9177 186.179 42.7269 186.159 42.5347C186.068 41.6262 186.042 40.5004 186.081 39.4499L186.082 39.4405V39.4311V39.4279V39.4247V39.4215V39.4183V39.4151V39.4119V39.4087V39.4055V39.4023V39.3991V39.3958V39.3926V39.3894V39.3862V39.383V39.3798V39.3766V39.3734V39.3702V39.367V39.3638V39.3606V39.3574V39.3542V39.351V39.3478V39.3446V39.3414V39.3382V39.335V39.3318V39.3286V39.3254V39.3222V39.319V39.3158V39.3126V39.3094V39.3062V39.303V39.2998V39.2966V39.2934V39.2902V39.287V39.2838V39.2806V39.2774V39.2742V39.271V39.2678V39.2646V39.2614V39.2582V39.255V39.2519V39.2487V39.2455V39.2423V39.2391V39.2359V39.2327V39.2295V39.2263V39.2231V39.2199V39.2168V39.2136V39.2104V39.2072V39.204V39.2008V39.1976V39.1944V39.1912V39.1881V39.1849V39.1817V39.1785V39.1753V39.1721V39.1689V39.1658V39.1626V39.1594V39.1562V39.153V39.1498V39.1467V39.1435V39.1403V39.1371V39.1339V39.1307V39.1276V39.1244V39.1212V39.118V39.1148V39.1117V39.1085V39.1053V39.1021V39.099V39.0958V39.0926V39.0894V39.0862V39.0831V39.0799V39.0767V39.0735V39.0704V39.0672V39.064V39.0608V39.0577V39.0545V39.0513V39.0481V39.045V39.0418V39.0386V39.0354V39.0323V39.0291V39.0259V39.0228V39.0196V39.0164V39.0133V39.0101V39.0069V39.0037V39.0006V38.9974V38.9942V38.9911V38.9879V38.9847V38.9816V38.9784V38.9752V38.9721V38.9689V38.9657V38.9626V38.9594V38.9562V38.9531V38.9499V38.9467V38.9436V38.9404V38.9373V38.9341V38.9309V38.9278V38.9246V38.9215V38.9183V38.9151V38.912V38.9088V38.9056V38.9025V38.8993V38.8962V38.893V38.8899V38.8867V38.8835V38.8804V38.8772V38.8741V38.8709V38.8678V38.8646V38.8614V38.8583V38.8551V38.852V38.8488V38.8457V38.8425V38.8394V38.8362V38.8331V38.8299V38.8268V38.8236V38.8205V38.8173V38.8142V38.811V38.8078V38.8047V38.8016V38.7984V38.7953V38.7921V38.789V38.7858V38.7827V38.7795V38.7764V38.7732V38.7701V38.7669V38.7638V38.7606V38.7575V38.7543V38.7512V38.7481V38.7449V38.7418V38.7386V38.7355V38.7323V38.7292V38.7261V38.7229V38.7198V38.7166V38.7135V38.7103V38.7072V38.7041V38.7009V38.6978V38.6946V38.6915V38.6884V38.6852V38.6821V38.679V38.6758V38.6727V38.6695V38.6664V38.6633V38.6601V38.657V38.6539V38.6507V38.6476V38.6445V38.6413V38.6382V38.6351V38.6319V38.6288V38.6257V38.6225V38.6194V38.6163V38.6131V38.61V38.6069V38.6037V38.6006V38.5975V38.5944V38.5912V38.5881V38.585V38.5818V38.5787V38.5756V38.5725V38.5693V38.5662V38.5631V38.5599V38.5568V38.5537V38.5506V38.5474V38.5443V38.5412V38.5381V38.535V38.5318V38.5287V38.5256V38.5225V38.5193V38.5162V38.5131V38.51V38.5069V38.5037V38.5006V38.4975V38.4944V38.4913V38.4881V38.485V38.4819V38.4788V38.4757V38.4725V38.4694V38.4663V38.4632V38.4601V38.457V38.4538V38.4507V38.4476V38.4445V38.4414V38.4383V38.4352V38.432V38.4289V38.4258V38.4227V38.4196V38.4165V38.4134V38.4103V38.4071V38.404V38.4009V38.3978V38.3947V38.3916V38.3885V38.3854V38.3823V38.3792V38.3761V38.3729V38.3698V38.3667V38.3636V38.3605V38.3574V38.3543V38.3512V38.3481V38.345V38.3419V38.3388V38.3357V38.3326V38.3295V38.3264V38.3233V38.3202V38.3171V38.314V38.3109V38.3078V38.3047V38.3016V38.2985V38.2954V38.2923V38.2892V38.2861V38.283V38.2799V38.2768V38.2737V38.2706V38.2675V38.2644V38.2613V38.2582V38.2551V38.252V38.2489V38.2458V38.2427V38.2396V38.2365V38.2334V38.2303V38.2272V38.2241V38.221V38.2179V38.2149V38.2118V38.2087V38.2056V38.2025V38.1994V38.1963V38.1932V38.1901V38.187V38.184V38.1809V38.1778V38.1747V38.1716V38.1685V38.1654V38.1623V38.1593V38.1562V38.1531V38.15V38.1469V38.1438V38.1407V38.1377V38.1346V38.1315V38.1284V38.1253V38.1222V38.1192V38.1161V38.113V38.1099V38.1068V38.1037V38.1007V38.0976V38.0945V38.0914V38.0883V38.0853V38.0822V38.0791V38.076V38.073V38.0699V38.0668V38.0637V38.0606V38.0576V38.0545V38.0514V38.0483V38.0453V38.0422V38.0391V38.036V38.033V38.0299V38.0268V38.0237V38.0207V38.0176V38.0145V38.0115V38.0084V38.0053V38.0022V37.9992V37.9961V37.993V37.99V37.9869V37.9838V37.9808V37.9777V37.9746V37.9715V37.9685V37.9654V37.9623V37.9593V37.9562V37.9531V37.9501V37.947V37.9439V37.9409V37.9378V37.9348V37.9317V37.9286V37.9256V37.9225V37.9194V37.9164V37.9133V37.9103V37.9072V37.9041V37.9011V37.898V37.8949V37.8919V37.8888V37.8858V37.8827V37.8797V37.8766V37.8735V37.8705V37.8674V37.8644V37.8613V37.8582V37.8552V37.8521V37.8491V37.846V37.843V37.8399V37.8369V37.8338V37.8308V37.8277C186.082 37.5987 186.105 37.3596 186.136 37.1032C186.144 37.0415 186.152 36.9777 186.16 36.9127C186.185 36.7185 186.211 36.5134 186.227 36.3182L186.227 36.3176C186.265 35.8443 186.345 35.3779 186.432 34.9204C186.455 34.8 186.479 34.6787 186.503 34.5576C186.567 34.2355 186.63 33.9149 186.676 33.6174C186.751 33.2834 186.843 32.9534 186.952 32.6288L186.953 32.6289L186.957 32.6157L187.197 31.8284L186.719 31.6812M187.309 48.7499C187.446 48.7697 187.587 48.7607 187.721 48.7236C187.855 48.6864 187.979 48.6219 188.087 48.534C188.195 48.4462 188.283 48.337 188.346 48.2134C188.409 48.0897 188.446 47.9543 188.454 47.8157C188.462 47.6771 188.441 47.5384 188.393 47.4083L188.205 46.7402M187.309 48.7499L187.38 48.255C187.449 48.2649 187.52 48.2604 187.587 48.2417C187.654 48.2231 187.717 48.1906 187.771 48.1466C187.825 48.1025 187.869 48.0478 187.901 47.9858C187.933 47.9239 187.951 47.8561 187.955 47.7868C187.959 47.7174 187.949 47.6481 187.924 47.583L187.917 47.5634L187.911 47.5433L187.725 46.8794L188.205 46.7402M188.205 46.7402C188.035 46.1513 187.896 45.5536 187.79 44.9497M188.205 46.7402L187.724 46.8752L187.725 46.8773C187.55 46.2765 187.409 45.6667 187.3 45.0506M187.79 44.9497L187.298 45.0359C187.299 45.0408 187.3 45.0457 187.3 45.0506M187.79 44.9497L187.304 45.0649C187.303 45.0601 187.302 45.0553 187.3 45.0506M187.3 45.0506C187.123 44.2973 186.96 43.3722 186.864 42.4066C186.841 42.172 186.813 41.9259 186.784 41.6717C186.7 40.9392 186.608 40.1391 186.608 39.351V39.348V39.345V39.342V39.3391V39.3361V39.3331V39.3301V39.3272V39.3242V39.3212V39.3182V39.3153V39.3123V39.3093V39.3063V39.3034V39.3004V39.2974V39.2944V39.2915V39.2885V39.2855V39.2825V39.2796V39.2766V39.2736V39.2706V39.2677V39.2647V39.2617V39.2587V39.2558V39.2528V39.2498V39.2468V39.2439V39.2409V39.2379V39.2349V39.232V39.229V39.226V39.223V39.2201V39.2171V39.2141V39.2111V39.2082V39.2052V39.2022V39.1992V39.1963V39.1933V39.1903V39.1873V39.1844V39.1814V39.1784V39.1754V39.1725V39.1695V39.1665V39.1635V39.1606V39.1576V39.1546V39.1516V39.1487V39.1457V39.1427V39.1397V39.1368V39.1338V39.1308V39.1278V39.1249V39.1219V39.1189V39.1159V39.113V39.11V39.107V39.104V39.1011V39.0981V39.0951V39.0921V39.0892V39.0862V39.0832V39.0802V39.0773V39.0743V39.0713V39.0683V39.0654V39.0624V39.0594V39.0564V39.0535V39.0505V39.0475V39.0445V39.0416V39.0386V39.0356V39.0326V39.0297V39.0267V39.0237V39.0207V39.0178V39.0148V39.0118V39.0088V39.0059V39.0029V38.9999V38.9969V38.994V38.991V38.988V38.985V38.9821V38.9791V38.9761V38.9731V38.9702V38.9672V38.9642V38.9612V38.9583V38.9553V38.9523V38.9493V38.9464V38.9434V38.9404V38.9374V38.9345V38.9315V38.9285V38.9255V38.9225V38.9196V38.9166V38.9136V38.9106V38.9077V38.9047V38.9017V38.8987V38.8958V38.8928V38.8898V38.8868V38.8839V38.8809V38.8779V38.8749V38.872V38.869V38.866V38.863V38.8601V38.8571V38.8541V38.8511V38.8482V38.8452V38.8422V38.8392V38.8363V38.8333V38.8303V38.8273V38.8244V38.8214V38.8184V38.8154V38.8125V38.8095V38.8065V38.8035V38.8006V38.7976V38.7946V38.7916V38.7887V38.7857V38.7827V38.7797V38.7768V38.7738V38.7708V38.7678V38.7649V38.7619V38.7589V38.7559V38.753V38.75V38.747V38.744V38.7411V38.7381V38.7351V38.7321V38.7292V38.7262V38.7232V38.7202V38.7173V38.7143V38.7113V38.7083V38.7054V38.7024V38.6994V38.6964V38.6935V38.6905V38.6875V38.6845V38.6816V38.6786V38.6756V38.6726V38.6697V38.6667V38.6637V38.6607V38.6578V38.6548V38.6518V38.6488V38.6459V38.6429V38.6399V38.6369V38.634V38.631V38.628V38.625V38.6221V38.6191V38.6161V38.6131V38.6102V38.6072V38.6042V38.6012V38.5983V38.5953V38.5923V38.5893V38.5864V38.5834V38.5804V38.5774V38.5745V38.5715V38.5685V38.5655V38.5626V38.5596V38.5566V38.5536V38.5507V38.5477V38.5447V38.5417V38.5388V38.5358V38.5328V38.5298V38.5269V38.5239V38.5209V38.5179V38.515V38.512V38.509V38.506V38.5031V38.5001V38.4971V38.4941V38.4912V38.4882V38.4852V38.4822V38.4793V38.4763V38.4733V38.4703V38.4674V38.4644V38.4614V38.4584V38.4555V38.4525V38.4495V38.4465V38.4436V38.4406V38.4376V38.4346V38.4317V38.4287V38.4257V38.4227V38.4198V38.4168V38.4138V38.4108V38.4079V38.4049V38.4019V38.3989V38.3959V38.393V38.39V38.387V38.384V38.3811V38.3781V38.3751V38.3721V38.3692V38.3662V38.3632V38.3602V38.3573V38.3543V38.3513V38.3483V38.3454V38.3424V38.3394V38.3364V38.3335V38.3305V38.3275V38.3245V38.3216V38.3186V38.3156V38.3126V38.3097V38.3067V38.3037V38.3007V38.2978V38.2948V38.2918V38.2888V38.2859V38.2829V38.2799V38.2769V38.274V38.271V38.268V38.265V38.2621V38.2591V38.2561V38.2531V38.2502V38.2472V38.2442V38.2412V38.2383V38.2353V38.2323V38.2293V38.2264V38.2234V38.2204V38.2174V38.2145V38.2115V38.2085V38.2055V38.2026V38.1996V38.1966V38.1936V38.1907V38.1877V38.1847V38.1817V38.1788V38.1758V38.1728V38.1698V38.1669V38.1639V38.1609V38.1579V38.155V38.152V38.149V38.146V38.1431V38.1401V38.1371V38.1341V38.1312V38.1282V38.1252V38.1222V38.1193V38.1163V38.1133V38.1103V38.1074V38.1044V38.1014V38.0984V38.0955V38.0925V38.0895V38.0865V38.0836V38.0806V38.0776V38.0746V38.0717V38.0687V38.0657V38.0627V38.0598V38.0568V38.0538V38.0508V38.0479V38.0449V38.0419V38.0389V38.036V38.033V38.03V38.027V38.0241V38.0211V38.0181V38.0151V38.0122V38.0092V38.0062V38.0032V38.0003V37.9973V37.9943V37.9913V37.9884V37.9854V37.9824V37.9794V37.9765V37.9735V37.9705V37.9675V37.9646V37.9616V37.9586V37.9556V37.9527V37.9497V37.9467V37.9437V37.9408V37.9378V37.9348V37.9318V37.9289V37.9259V37.9229V37.9199V37.917V37.914V37.911V37.908V37.9051V37.9021V37.8991V37.8961V37.8932V37.8902V37.8872V37.8842V37.8813V37.8783V37.8753V37.8723V37.8693V37.8664V37.8634V37.8604V37.8574V37.8545V37.8515V37.8485V37.8455V37.8426V37.8396V37.8366V37.8336V37.8307V37.8277V37.8247V37.8217V37.8188V37.8158V37.8128V37.8099V37.8069V37.8039V37.8009V37.798V37.795V37.792V37.789V37.7861V37.7831V37.7801V37.7772V37.7742V37.7712V37.7683V37.7653V37.7623V37.7594V37.7564V37.7534V37.7504V37.7475V37.7445V37.7415V37.7386V37.7356V37.7327V37.7297V37.7267V37.7238V37.7208V37.7178V37.7149V37.7119V37.7089V37.706V37.703V37.7V37.6971V37.6941V37.6912V37.6882V37.6852V37.6823V37.6793V37.6764V37.6734V37.6704V37.6675V37.6645V37.6616V37.6586V37.6557V37.6527V37.6497V37.6468V37.6438V37.6409V37.6379V37.635V37.632V37.6291V37.6261V37.6231V37.6202V37.6172V37.6143V37.6113V37.6084V37.6054V37.6025V37.5995V37.5966V37.5936V37.5907V37.5877V37.5848V37.5818V37.5789V37.5759V37.573V37.57V37.5671V37.5641V37.5612V37.5582V37.5553V37.5523V37.5494V37.5464V37.5435V37.5405V37.5376V37.5347V37.5317V37.5288V37.5258V37.5229V37.5199V37.517V37.5141V37.5111V37.5082V37.5052V37.5023V37.4993V37.4964V37.4935V37.4905V37.4876V37.4846V37.4817V37.4788V37.4758V37.4729V37.4699V37.467V37.4641V37.4611V37.4582V37.4553V37.4523V37.4494V37.4464V37.4435V37.4406V37.4376V37.4347V37.4318V37.4288V37.4259V37.423V37.42V37.4171V37.4142V37.4112V37.4083V37.4054V37.4024V37.3995V37.3966V37.3937V37.3907V37.3878V37.3849V37.3819V37.379V37.3761V37.3732V37.3702V37.3673V37.3644V37.3614V37.3585V37.3556V37.3527V37.3497V37.3468V37.3439V37.341V37.338V37.3351V37.3322V37.3293V37.3263V37.3234V37.3205V37.3176V37.3147V37.3117V37.3088V37.3059V37.303V37.3V37.2971V37.2942V37.2913V37.2884V37.2854V37.2825V37.2796V37.2767V37.2738V37.2709V37.2679V37.265V37.2621V37.2592V37.2563V37.2534V37.2504V37.2475V37.2446V37.2417V37.2388V37.2359V37.233V37.23V37.2271V37.2242V37.2213V37.2184V37.2155V37.2126V37.2097V37.2068V37.2038V37.2009V37.198V37.1951V37.1922V37.1893V37.1864V37.1835V37.1806V37.1777V37.1748V37.1718V37.1689V37.166V37.1631V37.1602V37.1573V37.1544V37.1515V37.1486V37.1457V37.1428V37.1399V37.137V37.1341V37.1312V37.1283V37.1254V37.1225V37.1196V37.1167V37.1138V37.1109V37.108V37.1051V37.1022V37.0993V37.0964V37.0935V37.0906V37.0877V37.0848V37.0819V37.079V37.0761V37.0732V37.0703V37.0674V37.0645V37.0616V37.0587V37.0558V37.0529V37.05V37.0471V37.0442V37.0413V37.0385V37.0356V37.0327V37.0298V37.0269V37.024V37.0211V37.0182V37.0153V37.0124V37.0095V37.0066V37.0038V37.0009V36.998V36.9951V36.9922V36.9893V36.9864V36.9835V36.9807V36.9778V36.9749V36.972V36.9691V36.9662V36.9633V36.9605V36.9576V36.9547V36.9518V36.9489V36.946V36.9432V36.9403V36.9374V36.9345V36.9316V36.9287V36.9259V36.923V36.9201V36.9172V36.9143V36.9115V36.9086V36.9057V36.9028V36.8999V36.8971V36.8942V36.8913V36.8884V36.8856V36.8827V36.8798V36.8769V36.8741V36.8712V36.8683V36.8654V36.8626V36.8597V36.8568V36.8539V36.8511V36.8482V36.8453V36.8424V36.8396V36.8367V36.8338V36.831V36.8281V36.8252V36.8223V36.8195V36.8166V36.8137V36.8109V36.808V36.8051V36.8023V36.7994V36.7965V36.7937V36.7908V36.7879V36.7851V36.7822V36.7793V36.7765V36.7736V36.7707V36.7679V36.765V36.7621V36.7593V36.7564V36.7536V36.7507V36.7478V36.745V36.7421V36.7392V36.7364V36.7335V36.7307V36.7278V36.7249V36.7221V36.7192V36.7164V36.7135V36.7106V36.7078V36.7049V36.7021V36.6992V36.6964V36.6935V36.6907V36.6878V36.6849V36.6821V36.6792V36.6764V36.6735V36.6707V36.6678V36.665V36.6621V36.6593V36.6564V36.6536V36.6507V36.6478V36.645V36.6421V36.6393V36.6364V36.6336V36.6307V36.6279V36.625V36.6222V36.6193V36.6165V36.6137V36.6108V36.608V36.6051V36.6023V36.5994V36.5966V36.5937V36.5909V36.588V36.5852V36.5823V36.5795V36.5767V36.5738V36.571V36.5681V36.5653V36.5624V36.5596V36.5568V36.5539V36.5511V36.5482V36.5454V36.5426V36.5397V36.5369V36.534V36.5312V36.5284V36.5255V36.5227V36.5198V36.517V36.5142V36.5113V36.5085V36.5057V36.5028V36.5V36.4972V36.4943V36.4915V36.4887V36.4858V36.483V36.4802V36.4773V36.4745V36.4717V36.4688V36.466V36.4632V36.4603V36.4575V36.4547V36.4518V36.449V36.4462V36.4433V36.4405V36.4377V36.4349V36.432V36.4292V36.4264V36.4236V36.4207V36.4179V36.4151V36.4122V36.4094V36.4066V36.4038V36.4009V36.3981V36.3953V36.3925V36.3896V36.3868V36.384V36.3812V36.3784V36.3755V36.3727V36.3699V36.3671V36.3642V36.3614V36.3586V36.3558V36.353V36.3501V36.3473V36.3445V36.3376L186.608 36.3377C186.615 35.8206 186.668 35.3435 186.726 34.909C186.743 34.7824 186.76 34.6615 186.776 34.5448C186.817 34.2509 186.854 33.9839 186.877 33.7219L186.879 33.7072L186.881 33.6926C186.935 33.323 187.011 32.9567 187.106 32.5955L187.59 32.7234L187.106 32.597C187.135 32.4856 187.173 32.3634 187.204 32.2635C187.218 32.2186 187.231 32.1782 187.241 32.1452C187.281 32.0111 187.29 31.9491 187.29 31.9217V31.8611L187.305 31.8024L187.462 31.1627L187.45 31.1583C187.451 31.1532 187.45 31.1479 187.447 31.1434C187.444 31.1388 187.44 31.1352 187.434 31.1337C187.429 31.1321 187.422 31.1327 187.417 31.1354C187.413 31.1377 187.41 31.1412 187.408 31.1452M186.719 31.6812L187.198 31.8273L187.408 31.1452M186.719 31.6812L186.934 30.9863M186.719 31.6812L186.478 32.4695C186.362 32.816 186.264 33.1684 186.184 33.5251L186.934 30.9863M187.408 31.1452C187.407 31.1459 187.407 31.1467 187.407 31.1474L186.934 30.9863M187.408 31.1452L187.411 31.1336L186.934 30.9863" fill="#BCCAD9" stroke="#213447"/>
<path d="M183.047 29.3129L183.032 29.3116L183.027 29.3111L183.023 29.3108L183.023 29.3108L183.027 29.3111L183.032 29.3116L183.047 29.313L183.134 29.3208C183.134 29.3208 183.134 29.3207 183.134 29.3207L183.047 29.3129ZM183.047 29.3129L183.024 29.3013L183.047 29.3129ZM182.96 29.3051L182.95 29.3042L182.926 29.3021L182.926 29.302L182.95 29.3042L182.96 29.3051L182.96 29.3051ZM182.832 29.2936L182.636 29.276L182.832 29.2936C182.832 29.2936 182.832 29.2936 182.832 29.2936ZM182.891 34.7292C182.881 34.6504 182.874 34.57 182.87 34.4875C182.882 34.5577 182.895 34.6285 182.911 34.7C182.991 35.0718 183.048 35.4484 183.108 35.8517C183.125 35.963 183.142 36.0763 183.159 36.1921C183.241 36.7394 183.362 37.2801 183.523 37.8096C183.568 37.9668 183.614 38.1421 183.661 38.3252C183.749 38.6642 183.844 39.0299 183.959 39.3567L183.959 39.3567L183.96 39.3608L184.481 40.8002C184.57 41.0599 184.68 41.3002 184.782 41.5183C184.793 41.5408 184.803 41.563 184.813 41.585C184.906 41.7836 184.99 41.9628 185.061 42.1488L185.064 42.1571L185.068 42.1653C185.242 42.5762 185.442 42.9758 185.666 43.3618C185.971 43.9376 186.31 44.4949 186.681 45.0305L187.078 45.6253C187.078 45.6256 187.079 45.626 187.079 45.6264C187.116 45.683 187.129 45.7516 187.116 45.8177C187.104 45.8829 187.067 45.9409 187.013 45.98C186.988 45.9962 186.96 46.0075 186.93 46.0133C186.899 46.0194 186.867 46.0192 186.836 46.0128C186.805 46.0064 186.776 45.9939 186.75 45.976L186.471 46.3819L186.75 45.976C186.725 45.9588 186.704 45.9371 186.687 45.9121L186.289 45.2628L186.289 45.2628L186.283 45.2539C185.928 44.7012 185.613 44.1238 185.34 43.5262L185.332 43.5083L185.323 43.4912C185.116 43.1191 184.939 42.7317 184.793 42.3324L184.793 42.3323L184.79 42.3256C184.7 42.09 184.597 41.8564 184.501 41.6391L184.494 41.6245C184.395 41.3983 184.304 41.1908 184.229 40.9924C184.122 40.7079 184.017 40.3545 183.906 39.9814C183.858 39.8181 183.808 39.651 183.757 39.4843C183.661 39.1744 183.597 38.8761 183.528 38.557C183.482 38.3478 183.435 38.1296 183.376 37.8933L183.376 37.8933L183.375 37.8899C183.243 37.3783 183.149 36.8576 183.094 36.3322L183.094 36.3322L183.093 36.324C183.026 35.7753 182.958 35.2391 182.891 34.7292Z" fill="#BCCAD9" stroke="#213447"/>
<path d="M188.393 49.56C187.119 49.4981 185.871 49.1825 184.722 48.6318C183.572 48.081 182.545 47.3063 181.7 46.3531C177.924 42.5182 175.18 31.4812 181.365 20.6847C188.888 7.54978 203.841 5.31833 203.841 5.31833C211.03 2.04463 232.396 -3.367 253.373 7.24245C274.35 17.8519 278.808 38.0553 277.228 52.9273C275.648 67.7992 267.442 74.3065 267.442 74.3065L254.738 65.9552C253.807 68.3089 252.612 70.5501 251.177 72.6363C249.839 67.5453 247.817 56.1876 247.817 56.1876" stroke="#213447" stroke-width="1.5" stroke-linecap="round" stroke-linejoin="round"/>
<path d="M228.068 36.4874C228.28 37.2803 228.563 38.3318 228.848 39.3798L228.851 39.3876L228.852 39.3954C228.897 39.5831 228.961 39.7426 229.037 39.9338C229.057 39.9838 229.078 40.036 229.1 40.0915C229.134 40.1786 229.166 40.2639 229.198 40.3473C229.259 40.5063 229.317 40.6584 229.377 40.8039L229.381 40.8145L229.385 40.8253C229.573 41.3467 229.731 41.7812 229.875 42.1476C230.024 42.524 230.145 42.8399 230.229 43.062C230.232 43.0704 230.235 43.0786 230.239 43.0868H230.253L230.396 43.3431C230.458 43.4556 230.563 43.539 230.688 43.575L228.068 36.4874ZM228.068 36.4874L229.161 39.072L228.068 36.4874ZM227.598 35.1594L227.605 35.1688L227.598 35.1594ZM227.609 35.1747L227.615 35.1733L227.62 35.1718L227.65 35.164L227.663 35.1605L227.663 35.1605L227.65 35.164L227.62 35.1718L227.615 35.1733L227.609 35.1747L227.607 35.1754L227.602 35.1766L227.609 35.1747ZM227.71 35.1482L227.666 35.1598L227.666 35.1597L227.71 35.1482C227.71 35.1482 227.71 35.1482 227.71 35.1482Z" fill="#BCCAD9" stroke="#213447"/>
<path d="M218.339 35.623C221.084 40.1261 225.033 46.0588 228.366 49.3592C232.824 53.7687 235.622 54.704 237.175 54.8243C238.728 54.9445 239.852 54.4902 239.357 53.9825C235.857 50.9363 232.956 47.2659 230.802 43.1592" stroke="#213447" stroke-width="1.5" stroke-linecap="round" stroke-linejoin="round"/>
<path d="M216.526 31.4045C216.254 29.9606 216.057 28.5036 215.937 27.0394C216.22 28.4661 216.576 29.8772 217.005 31.2673L217.007 31.2765L217.011 31.2855C217.051 31.4015 217.092 31.5162 217.132 31.6297C217.278 32.0443 217.418 32.4421 217.542 32.8246L217.549 32.8446L217.557 32.864L218.119 34.2002L218.128 34.2217L218.139 34.2422L218.709 35.3075V35.3944L218.763 35.5005C218.822 35.6181 218.834 35.7537 218.796 35.8796C218.759 36.0031 218.677 36.1083 218.565 36.1744C218.452 36.2326 218.321 36.2448 218.199 36.2083C218.115 36.183 218.039 36.1358 217.98 36.0726L217.983 36.0529L217.931 35.927L217.352 34.5207L216.921 33.0738C216.79 32.5359 216.658 31.9718 216.526 31.4045Z" fill="#BCCAD9" stroke="#213447"/>
<path d="M255.898 56.2172C255.87 56.2083 255.842 56.1969 255.816 56.1831L255.778 56.0887L255.701 56.0144L255.701 56.0144L255.701 56.0144L255.701 56.0143L255.701 56.014L255.699 56.0125L255.693 56.0062L255.666 55.9806C255.643 55.9579 255.608 55.9239 255.562 55.8792C255.471 55.7898 255.337 55.6576 255.167 55.4876C254.827 55.1486 254.343 54.659 253.766 54.0569C253.641 53.9169 253.512 53.7745 253.38 53.629C252.91 53.1112 252.405 52.554 251.904 51.9216C251.253 51.0995 250.575 50.2102 249.922 49.3329C249.812 49.1776 249.696 49.0031 249.576 48.8244C249.382 48.5347 249.181 48.2339 248.99 47.9857C248.705 47.6146 248.426 47.1475 248.172 46.707C248.13 46.6326 248.089 46.5594 248.048 46.4871C248.086 46.5425 248.124 46.598 248.162 46.6536C248.358 46.9644 248.603 47.2767 248.832 47.5674C248.932 47.695 249.029 47.8185 249.118 47.9358L249.117 47.9359L249.125 47.9457L250.129 49.2151L250.138 49.2261L250.147 49.2367C250.346 49.4613 250.544 49.6956 250.744 49.933C251.233 50.5119 251.736 51.1091 252.316 51.6289C252.699 51.9724 253.025 52.2976 253.34 52.6165C253.386 52.6635 253.432 52.7105 253.478 52.7574C253.743 53.0268 254.008 53.2957 254.289 53.5592L254.289 53.5593L254.297 53.5663C254.897 54.1044 255.416 54.5518 255.785 54.8649C255.97 55.0215 256.117 55.1446 256.219 55.2287C256.27 55.2708 256.309 55.3032 256.336 55.3251L256.366 55.3501L256.374 55.3566L256.375 55.3573C256.424 55.3986 256.465 55.4492 256.495 55.5059C256.525 55.5632 256.543 55.6259 256.549 55.6904C256.554 55.7548 256.547 55.8197 256.527 55.8812C256.507 55.9428 256.475 55.9999 256.433 56.0492L256.433 56.0491L256.425 56.0585C256.385 56.1088 256.334 56.1506 256.276 56.1813C256.219 56.212 256.156 56.231 256.091 56.2371C256.026 56.2433 255.961 56.2365 255.898 56.2172Z" fill="#BCCAD9" stroke="#213447"/>
<path d="M230.802 43.1592C238.741 51.9781 248.393 57.0423 252.676 58.1647C254.885 58.7259 257.924 58.0712 257.255 56.8285C256.899 56.3679 256.49 55.9508 256.036 55.5859" stroke="#213447" stroke-width="1.5" stroke-linecap="round" stroke-linejoin="round"/>
<path d="M197.228 61.6923C197.228 67.5316 193.092 72.2751 188.299 72.2751C182.797 72.2751 179.37 65.4604 179.37 59.6212C179.37 53.782 183.386 52.1519 188.299 52.1519C194.404 52.1519 197.228 55.8531 197.228 61.6923Z" stroke="#606BD6" stroke-linecap="round" stroke-linejoin="round"/>
<path d="M206.278 61.6657C206.278 67.7855 212.275 72.7428 219.209 72.7428C227.175 72.7428 232.141 65.6209 232.141 59.5011C232.141 53.3812 226.358 51.6709 219.209 51.6709C210.374 51.6709 206.278 55.5459 206.278 61.6657Z" stroke="#606BD6" stroke-linecap="round" stroke-linejoin="round"/>
<path d="M197.228 61.6658C197.228 61.6658 200.602 58.499 206.278 61.6658" stroke="#606BD6" stroke-linecap="round" stroke-linejoin="round"/>
<path d="M230.401 53.9292C231.245 54.466 232.142 54.9138 233.078 55.2654C233.948 55.4926 235.046 55.5861 235.046 56.2141V58.1249C235.046 58.3387 234.859 58.793 234.189 59.0602C233.63 59.3642 233.139 59.7778 232.744 60.2762C232.136 58.1008 231.352 55.9782 230.401 53.9292Z" fill="#606BD6"/>
<path d="M233.814 56.8955L260.213 63.8304" stroke="#606BD6" stroke-linecap="round" stroke-linejoin="round"/>
<path d="M253.199 69.3491C253.55 68.3826 253.966 67.4407 254.444 66.5297C256.09 63.3763 259.343 58.7263 264.176 58.7664C271.485 58.7664 271.137 67.0108 268.058 73.1439C265.207 78.7827 261.204 82.6844 254.296 83.0586C254.015 83.0586 253.319 83.1655 253.025 83.1655C252.73 83.1655 249.423 79.4508 253.199 69.3491Z" fill="#FFDECC"/>
<path d="M251.164 72.6358C251.164 72.6358 252.904 69.5625 255.18 65.26C256.974 62.2669 259.986 58.6858 264.23 58.7259C271.539 58.7259 271.191 66.9703 268.112 73.1035C265.033 79.2367 260.99 83.2453 252.971 82.8578L252.422 83.5793" stroke="#213447" stroke-width="1.5" stroke-linecap="round" stroke-linejoin="round"/>
<path d="M172.248 322.84C171.04 323.8 170.179 325.128 169.799 326.622C169.571 328.626 166.787 343.992 166.787 343.992H300.655C300.655 343.992 296.251 325.486 296.077 324.484C295.903 323.482 292.502 321.718 292.502 321.718L172.248 322.84Z" fill="#0C1926" stroke="#BCCAD9" stroke-width="1.5" stroke-linecap="round" stroke-linejoin="round"/>
<path d="M288.152 310.093C269.196 315.331 197.911 321.237 172.249 311.215V322.84C198.875 333.236 272.837 327.116 292.502 321.691L288.152 310.093Z" fill="#DE7A68" stroke="#BCCAD9" stroke-width="1.5" stroke-linecap="round" stroke-linejoin="round"/>
<path d="M258.955 124.334C258.955 124.334 299.035 144.043 302.797 146.635C306.559 149.227 308.995 151.058 308.406 156.069C307.817 161.079 300.575 204.92 294.684 242.334C288.794 279.748 287.817 298.013 287.817 298.895C287.817 299.777 292.502 305.576 292.502 306.579C291.812 309.249 290.288 311.631 288.152 313.38C269.196 318.604 197.911 324.51 172.248 314.489C168.005 311.563 165.756 307.06 165.756 305.964C165.756 304.868 169.518 298.869 169.598 295.782C169.678 292.695 166.84 221.623 168.848 187.884C170.856 154.144 175.542 139.673 176.037 139.219C176.532 138.765 207.496 123.185 207.496 123.185L213.989 134.248H225.809L258.955 124.334Z" fill="#8BBC3A" stroke="#192736" stroke-width="1.5" stroke-linecap="round" stroke-linejoin="round"/>
<path d="M211.231 134.102C211.231 137.282 211.606 143.789 213.145 147.383H220.053C220.053 147.383 224.698 143.669 229.879 134.102H211.231Z" fill="#0C1926" stroke="#0C1926" stroke-width="1.5" stroke-linecap="round" stroke-linejoin="round"/>
<path d="M213.145 147.383C213.145 147.383 198.581 217.173 194.337 277.516C202.155 292.442 206.867 296.45 206.867 296.45L222.262 277.302C222.262 277.302 220.803 174.027 220.08 147.383H213.145Z" fill="#0C1926" stroke="#192736" stroke-width="1.5" stroke-linecap="round" stroke-linejoin="round"/>
<path d="M251.793 117.613C244.203 121.688 223.841 132.872 222.449 133.206C221.057 133.54 218.915 134.101 218.915 134.101C221.375 135.153 223.428 136.972 224.765 139.286C226.733 142.947 230.12 150.577 230.856 151.98C231.087 152.354 231.401 152.671 231.774 152.904C232.148 153.137 232.57 153.28 233.009 153.323C233.447 153.366 233.889 153.306 234.301 153.15C234.712 152.993 235.082 152.744 235.381 152.421C237.108 150.911 260.12 127.781 260.896 126.779C261.208 126.434 261.405 126.001 261.463 125.54C261.52 125.079 261.435 124.611 261.217 124.2C259.302 121.88 257.246 119.68 255.06 117.613C254.404 117.025 253.493 116.731 251.793 117.613Z" fill="#8BBC3A" stroke="#192736" stroke-width="1.5" stroke-linecap="round" stroke-linejoin="round"/>
<path d="M218.915 134.101C216.961 134.101 213.306 135.531 210.321 138.778C207.927 141.696 205.765 144.797 203.855 148.051C202.516 149.882 199.598 148.813 200.067 145.927C200.428 143.735 204.149 126.672 204.404 125.336C204.445 124.287 204.842 123.284 205.528 122.49C206.251 121.862 210.093 119.817 210.508 119.483C210.671 119.403 210.849 119.361 211.03 119.361C211.211 119.361 211.39 119.403 211.552 119.483C212.604 123.323 213.905 127.09 215.448 130.761C216.372 132.765 217.71 133.219 218.915 134.101Z" fill="#8BBC3A" stroke="#192736" stroke-width="1.5" stroke-linecap="round" stroke-linejoin="round"/>
<path d="M120.281 59.1938C120.281 59.1938 117.429 74.1326 116.894 77.4731C116.358 80.8136 117.094 86.0783 116.599 88.5903C116.104 91.1024 109.491 106.749 109.491 106.749L130.695 112.562L147.71 62.8951L120.281 59.1938Z" fill="#FFDECC"/>
<path d="M116.894 77.4731C116.412 80.4528 116.894 84.9291 116.72 87.6416L140.615 83.633L147.71 62.9352L120.281 59.2339C120.281 59.2339 117.429 74.1325 116.894 77.4731Z" fill="#FFDECC"/>
<path d="M120.281 59.1938C120.281 59.1938 117.429 74.1326 116.894 77.4731C116.358 80.8136 117.094 86.0783 116.599 88.5903C116.104 91.1024 109.491 106.749 109.491 106.749L130.695 112.562L147.71 62.8951L120.281 59.1938Z" stroke="#FFDECC" stroke-width="1.5" stroke-linecap="round" stroke-linejoin="round"/>
<path d="M177.509 71.006C178.219 70.9391 179.33 69.2422 179.37 67.1978C179.41 65.1534 178.366 63.4163 177.67 63.3228L154.35 60.7974L154.123 72.6361L177.509 71.006Z" fill="#0C1926" stroke="#BCCAD9" stroke-width="1.5" stroke-linecap="round" stroke-linejoin="round"/>
<path d="M169.196 74.9076C170.642 74.7606 171.873 71.2464 171.873 67.0507C171.873 62.855 170.91 59.2874 169.464 59.1003L121.512 53.9292L121.03 78.208L169.196 74.9076Z" fill="white" stroke="#BCCAD9" stroke-width="1.5" stroke-linecap="round" stroke-linejoin="round"/>
<path d="M145.689 56.6015C145.689 56.6015 146.198 53.8623 147.844 53.8623H150.83C151.428 53.8752 152.016 54.0252 152.548 54.301C153.079 54.5767 153.54 54.9706 153.895 55.4524C154.869 56.8747 155.924 58.2398 157.054 59.5412C157.911 60.5968 158.728 61.3183 158.58 61.8261C158.433 62.3338 155.689 63.5765 153.319 62.2937C150.95 61.011 147.536 56.6416 147.536 56.6416L145.689 56.6015Z" fill="#FFDECC" stroke="#FFDECC" stroke-width="1.5" stroke-linecap="round" stroke-linejoin="round"/>
<path d="M135.77 55.5593C136.594 54.5283 137.489 53.5551 138.447 52.6464C139.763 52.3393 141.112 52.2001 142.463 52.2322C143.976 52.152 145.14 52.0718 146.586 54.6106C148.002 57.1432 149.575 59.5843 151.298 61.9196C152.275 63.1222 151.887 63.9774 150.549 64.3649C149.5 64.5595 148.42 64.4969 147.401 64.1827C146.382 63.8685 145.454 63.312 144.699 62.561C143.079 60.7705 139.839 56.0003 139.839 56.0003L135.77 55.5593Z" fill="#FFDECC" stroke="#FFDECC" stroke-width="1.5" stroke-linecap="round" stroke-linejoin="round"/>
<path d="M128.192 54.7444C129.091 53.6728 130.071 52.6721 131.124 51.7513C132.458 51.5868 133.807 51.5868 135.14 51.7513C136.653 51.8315 137.818 51.8716 138.982 54.544C140.122 57.2153 141.437 59.8087 142.918 62.3073C143.761 63.6435 143.279 64.4185 141.914 64.659C140.849 64.7465 139.779 64.5731 138.797 64.1539C137.815 63.7348 136.95 63.0825 136.278 62.2539C134.846 60.3164 131.566 55.0918 131.566 55.0918L128.192 54.7444Z" fill="#FFDECC" stroke="#FFDECC" stroke-width="1.5" stroke-linecap="round" stroke-linejoin="round"/>
<path d="M121.539 52.9271C121.539 52.9271 122.449 50.2547 124.069 50.5353L127.028 50.9762C127.615 51.0838 128.171 51.3207 128.655 51.6697C129.139 52.0188 129.539 52.4711 129.826 52.9939C130.572 54.5491 131.412 56.0573 132.342 57.5103C133.038 58.6728 133.681 59.5146 133.52 59.9956C133.36 60.4766 130.388 61.3318 128.232 59.6883C126.077 58.0447 123.36 53.2478 123.36 53.2478L121.539 52.9271Z" fill="#FFDECC" stroke="#FFDECC" stroke-width="1.5" stroke-linecap="round" stroke-linejoin="round"/>
<path d="M121.553 79.9584C124.096 79.7713 126.211 73.5847 126.358 66.1421C126.506 58.6994 124.645 52.4326 122.101 52.1387L68.5541 45.9253L67.791 84.0472L121.553 79.9584Z" fill="white" stroke="#BCCAD9" stroke-width="1.5" stroke-linecap="round" stroke-linejoin="round"/>
<path d="M67.3223 87.6015C71.3383 87.6816 74.8858 77.62 75.1268 65.1265C75.3678 52.633 72.2888 42.4111 68.2192 42.4111L57.8845 42.1973L56.9341 87.401L67.3223 87.6015Z" fill="white" stroke="#BCCAD9" stroke-width="1.5" stroke-linecap="round" stroke-linejoin="round"/>
<path d="M64.7921 64.9126C64.5378 77.4195 61.0438 87.4811 56.9876 87.4009C52.9314 87.3208 49.8257 77.1255 50.08 64.6187C50.3344 52.1118 53.8283 42.0502 57.8845 42.1304C61.9407 42.2105 65.0465 52.4191 64.7921 64.9126Z" fill="white" stroke="#BCCAD9" stroke-width="1.5" stroke-linecap="round" stroke-linejoin="round"/>
<path d="M61.0842 64.8324C60.87 75.5221 58.2328 84.0737 55.194 84.0069C52.1552 83.9401 49.8393 75.2682 50.0802 64.6186C50.3212 53.9691 52.9182 45.3906 55.9704 45.4441C59.0226 45.4975 61.2984 54.1962 61.0842 64.8324Z" fill="white" stroke="#BCCAD9" stroke-width="1.5" stroke-linecap="round" stroke-linejoin="round"/>
<path d="M53.7882 64.6988C53.6142 73.0634 54.9931 80.1854 57.068 82.8979C59.2501 80.2255 60.9234 73.2104 61.0841 64.8324C61.2447 56.4544 59.8658 49.3458 57.8043 46.6333C55.5954 49.2523 53.9489 56.3208 53.7882 64.6988Z" fill="white" stroke="#BCCAD9" stroke-width="1.5" stroke-linecap="round" stroke-linejoin="round"/>
<path d="M131.753 110.05C131.753 110.05 135.381 98.131 136.559 95.9663C137.737 93.8017 143.025 91.1159 145.368 88.3366C147.71 85.5573 149.384 80.7202 150.83 78.2349C152.275 75.7496 153.949 72.8901 155.207 71.1931C156.465 69.4961 156.291 67.9729 153.279 68.1332C151.893 68.2964 150.553 68.7352 149.339 69.4237C148.125 70.1122 147.061 71.0364 146.211 72.1418C144.792 73.9457 144.243 76.6582 142.864 76.7517C141.486 76.8452 132.155 76.7517 127.563 87.9758C122.972 99.1999 120.281 107.097 120.281 107.097L131.753 110.05Z" fill="#FFDECC"/>
<path d="M131.753 110.05C131.753 110.05 135.381 98.131 136.559 95.9663C137.737 93.8017 143.025 91.1159 145.367 88.3366C147.71 85.5573 149.384 80.7202 150.829 78.2349C152.275 75.7496 153.948 72.8901 155.207 71.1931C156.465 69.4961 156.291 67.9729 153.279 68.1332C151.892 68.2964 150.553 68.7352 149.339 69.4237C148.125 70.1122 147.061 71.0364 146.211 72.1418C144.792 73.9457 144.243 76.6582 142.864 76.7517C141.485 76.8452 132.155 76.7517 127.563 87.9758" stroke="#FFDECC" stroke-width="1.5" stroke-linecap="round" stroke-linejoin="round"/>
<path d="M114.123 95.4318L134.578 101.03C135.052 101.264 135.445 101.632 135.71 102.089C135.974 102.545 136.098 103.07 136.064 103.596C135.917 105.373 131.901 119.403 131.901 119.403C122.744 119.403 109.759 116.343 104.672 111.226L111.098 96.18C111.459 95.3516 112.985 95.1244 114.123 95.4318Z" fill="#8BBC3A" stroke="#192736" stroke-width="1.5" stroke-linecap="round" stroke-linejoin="round"/>
<path d="M130.334 113.35C130.294 113.683 130.18 114.002 130.001 114.285C129.821 114.569 129.581 114.809 129.297 114.988C129.014 115.167 128.694 115.281 128.36 115.321C128.027 115.361 127.689 115.327 127.371 115.221C127.052 115.115 126.761 114.939 126.52 114.707C126.278 114.474 126.091 114.191 125.972 113.878C125.853 113.564 125.806 113.228 125.833 112.894C125.861 112.561 125.962 112.237 126.131 111.947C126.18 111.624 126.3 111.315 126.481 111.042C126.663 110.77 126.902 110.541 127.182 110.37C127.461 110.2 127.775 110.092 128.101 110.055C128.426 110.018 128.756 110.053 129.067 110.157C129.378 110.261 129.662 110.431 129.9 110.656C130.138 110.881 130.324 111.155 130.445 111.459C130.565 111.763 130.618 112.09 130.599 112.417C130.58 112.743 130.489 113.062 130.334 113.35Z" fill="#192736" stroke="#192736" stroke-width="1.5" stroke-linecap="round" stroke-linejoin="round"/>
<path d="M293.346 301.234C293.979 302.149 294.253 303.266 294.115 304.37C293.976 305.474 293.436 306.488 292.596 307.22L236.826 356.285C236.446 356.649 235.993 356.929 235.496 357.106C235 357.284 234.472 357.354 233.946 357.314C233.421 357.274 232.91 357.123 232.446 356.872C231.983 356.621 231.578 356.276 231.257 355.858L167.817 271.396C167.179 270.485 166.902 269.37 167.041 268.266C167.179 267.163 167.723 266.15 168.567 265.424L224.27 216.358C224.65 215.994 225.104 215.715 225.6 215.537C226.096 215.36 226.624 215.29 227.15 215.33C227.675 215.37 228.186 215.521 228.65 215.772C229.113 216.022 229.518 216.368 229.838 216.786L293.346 301.234Z" fill="#0C1926" stroke="#0C1926" stroke-width="1.5" stroke-linecap="round" stroke-linejoin="round"/>
<path d="M241.137 229.399L236.96 232.072L230.963 224.108C230.647 223.687 230.25 223.332 229.797 223.064C229.343 222.796 228.84 222.619 228.318 222.545C227.796 222.47 227.265 222.499 226.754 222.63C226.243 222.76 225.763 222.99 225.341 223.306L168.581 265.784C168.159 266.1 167.803 266.496 167.534 266.949C167.266 267.402 167.089 267.903 167.014 268.424C166.94 268.945 166.969 269.476 167.1 269.986C167.231 270.496 167.461 270.975 167.777 271.396L231.258 355.911C231.574 356.332 231.971 356.687 232.424 356.955C232.878 357.223 233.381 357.4 233.903 357.474C234.425 357.549 234.956 357.52 235.467 357.389C235.978 357.258 236.458 357.029 236.88 356.713L293.654 314.221C294.506 313.584 295.069 312.634 295.22 311.581C295.37 310.529 295.096 309.46 294.457 308.609L257.737 259.597L261.445 256.337C262.191 255.679 262.666 254.768 262.778 253.78C262.889 252.793 262.629 251.799 262.047 250.992L246.479 230.308C245.863 229.518 244.973 228.987 243.984 228.819C242.996 228.651 241.98 228.858 241.137 229.399Z" fill="#E2E8EE" stroke="#BCCAD9" stroke-width="1.5" stroke-linecap="round" stroke-linejoin="round"/>
<path d="M224.015 294.834C220.319 294.006 216.571 293.431 212.797 293.11C209.048 293.455 205.324 294.031 201.646 294.834C200.695 295.061 197.014 297.372 194.953 298.161C192.891 298.949 192.436 301.301 194.953 301.849C197.987 302.24 201.072 301.901 203.948 300.86C206.492 299.951 209.558 304.868 216.251 304.868C222.944 304.868 230.039 296.397 224.015 294.834Z" fill="#FFDECC" stroke="#FFDECC" stroke-width="1.5" stroke-linecap="round" stroke-linejoin="round"/>
<path d="M238.299 292.054L213.306 295.502C211.525 296.116 194.337 306.632 194.337 306.632C193.56 307.861 188.875 315.264 188.594 315.825C188.313 316.386 190.883 319.059 194.337 319.553C200.816 325.018 204.712 330.523 205.89 331.298C207.382 331.998 208.956 332.509 210.575 332.822C210.999 331.869 211.538 330.971 212.181 330.149C212.69 329.815 231.432 319.687 234.109 318.458C236.786 317.228 239.691 313.22 240.307 312.779C240.923 312.338 249.45 310.253 249.45 310.253C249.45 310.253 246.05 294.005 238.299 292.054Z" fill="#FFDECC"/>
<path d="M200.933 317.929L200.946 317.945L200.961 317.959C201.827 318.81 208.12 325.993 211.648 330.022C211.122 330.719 210.666 331.466 210.287 332.253C208.857 331.947 207.465 331.481 206.138 330.862C206.037 330.791 205.887 330.657 205.677 330.444C205.454 330.218 205.187 329.926 204.872 329.572C204.623 329.292 204.34 328.968 204.027 328.611C203.567 328.085 203.044 327.488 202.474 326.851C200.535 324.686 197.924 321.924 194.659 319.171L194.546 319.075L194.399 319.057C193.327 318.922 192.295 318.565 191.37 318.007C190.734 317.623 190.159 317.151 189.66 316.606H197.737H197.753L197.769 316.605C198.363 316.566 198.958 316.666 199.507 316.896C200.056 317.126 200.544 317.48 200.933 317.929Z" fill="#FFDECC" stroke="#FFDECC"/>
<path d="M238.299 292.054L213.306 295.502C211.525 296.116 194.337 306.632 194.337 306.632C193.56 307.861 188.875 315.264 188.594 315.825C188.313 316.386 190.883 319.059 194.337 319.553C200.816 325.018 204.712 330.523 205.89 331.298C207.382 331.998 208.956 332.509 210.575 332.822C210.999 331.869 211.538 330.971 212.181 330.149C212.69 329.815 231.432 319.687 234.109 318.458C236.786 317.228 239.691 313.22 240.307 312.779C240.923 312.338 249.45 310.253 249.45 310.253C249.45 310.253 246.05 294.005 238.299 292.054Z" stroke="#FFDECC" stroke-width="1.5" stroke-linecap="round" stroke-linejoin="round"/>
<path d="M305.929 148.96C310.259 154.784 313.684 161.225 316.09 168.068C319.878 179.092 322.114 185.933 322.114 185.933C322.114 185.933 351.003 248.24 353.345 252.917C355.688 257.594 349.999 266.827 345.541 272.96C341.083 279.093 331.485 282.313 325.688 285.427C319.892 288.54 281.833 303.693 280.494 304.24C279.156 304.788 275.916 309.265 274.136 310.093C272.355 310.921 265.876 307.701 265.876 307.701L254.497 284.425C254.497 284.425 256.947 277.971 259.745 276.407C262.543 274.844 267.884 274.844 271.672 272.96C275.461 271.076 308.526 250.913 308.526 250.913C308.526 250.913 291.98 227.863 286.96 219.512C281.94 211.16 280.481 191.171 284.176 175.083C289.276 152.702 302.757 145.78 305.929 148.96Z" fill="#8BBC3A" stroke="#192736" stroke-width="1.5" stroke-linecap="round" stroke-linejoin="round"/>
<path d="M254.684 283.89C254.684 283.89 239.075 290.571 238.741 290.718C238.406 290.865 238.299 292.054 238.299 292.054C240.439 294.934 242.198 298.078 243.533 301.407C244.826 304.58 245.673 307.917 246.05 311.322C246.226 311.693 246.515 312 246.875 312.199C247.235 312.398 247.649 312.479 248.058 312.431C249.504 312.257 265.849 307.701 265.849 307.701C265.849 307.701 264.309 289.849 254.684 283.89Z" fill="#8BBC3A" stroke="#192736" stroke-width="1.5" stroke-linecap="round" stroke-linejoin="round"/>
<path d="M308.5 250.912C317.188 247.425 327.977 247.679 337.522 249.349" stroke="#192736" stroke-width="1.5" stroke-linecap="round" stroke-linejoin="round"/>
<path d="M409.061 123.759H344.805C342.587 123.759 340.789 125.554 340.789 127.768V192.133C340.789 194.347 342.587 196.141 344.805 196.141H409.061C411.279 196.141 413.077 194.347 413.077 192.133V127.768C413.077 125.554 411.279 123.759 409.061 123.759Z" fill="#213447" stroke="#294059" stroke-width="1.5" stroke-linecap="round" stroke-linejoin="round"/>
<path d="M401.03 116.196H336.773C334.555 116.196 332.757 117.991 332.757 120.205V184.57C332.757 186.784 334.555 188.578 336.773 188.578H401.03C403.248 188.578 405.046 186.784 405.046 184.57V120.205C405.046 117.991 403.248 116.196 401.03 116.196Z" fill="white" stroke="#294059" stroke-width="1.5" stroke-linecap="round" stroke-linejoin="round"/>
<path d="M397.683 138.965H340.119V180.054H397.683V138.965Z" stroke="#0C1926" stroke-linecap="round" stroke-linejoin="round"/>
<path d="M340.119 149.241H397.683" stroke="#0C1926" stroke-linecap="round" stroke-linejoin="round"/>
<path d="M340.119 159.516H397.683" stroke="#0C1926" stroke-linecap="round" stroke-linejoin="round"/>
<path d="M340.119 169.792H397.683" stroke="#0C1926" stroke-linecap="round" stroke-linejoin="round"/>
<path d="M354.51 180.054V138.965" stroke="#0C1926" stroke-linecap="round" stroke-linejoin="round"/>
<path d="M368.901 180.054V138.965" stroke="#0C1926" stroke-linecap="round" stroke-linejoin="round"/>
<path d="M383.292 180.054V138.965" stroke="#0C1926" stroke-linecap="round" stroke-linejoin="round"/>
<path d="M346.25 119.978C344.912 119.978 343.359 118.027 343.359 115.234C343.359 112.442 344.885 110.491 346.25 110.491C347.616 110.491 349.155 112.442 349.155 115.234C349.149 115.556 349.122 115.878 349.075 116.196H354.43C354.43 115.876 354.43 115.555 354.43 115.234C354.43 109.582 350.802 105.146 346.17 105.146C341.538 105.146 337.924 109.582 337.924 115.234C337.924 120.886 341.552 125.323 346.17 125.323C346.88 125.323 347.561 125.041 348.063 124.54C348.565 124.039 348.847 123.359 348.847 122.65C348.847 121.941 348.565 121.262 348.063 120.761C347.561 120.259 346.88 119.978 346.17 119.978H346.25Z" fill="#8BBC3A" stroke="#BCCAD9" stroke-width="1.5" stroke-linecap="round" stroke-linejoin="round"/>
<path d="M360.642 119.978C359.303 119.978 357.75 118.027 357.75 115.234C357.75 112.442 359.276 110.491 360.642 110.491C362.007 110.491 363.546 112.442 363.546 115.234C363.54 115.556 363.513 115.878 363.466 116.196H368.821C368.821 115.876 368.821 115.555 368.821 115.234C368.821 109.582 365.193 105.146 360.561 105.146C355.929 105.146 352.315 109.582 352.315 115.234C352.315 120.886 355.943 125.323 360.561 125.323C361.271 125.323 361.952 125.041 362.454 124.54C362.957 124.039 363.239 123.359 363.239 122.65C363.239 121.941 362.957 121.262 362.454 120.761C361.952 120.259 361.271 119.978 360.561 119.978H360.642Z" fill="#8BBC3A" stroke="#BCCAD9" stroke-width="1.5" stroke-linecap="round" stroke-linejoin="round"/>
<path d="M375.032 119.978C373.693 119.978 372.141 118.027 372.141 115.234C372.141 112.442 373.667 110.491 375.032 110.491C376.398 110.491 377.937 112.442 377.937 115.234C377.93 115.556 377.903 115.878 377.857 116.196H383.211C383.211 115.876 383.211 115.555 383.211 115.234C383.211 109.582 379.584 105.146 374.952 105.146C370.32 105.146 366.706 109.582 366.706 115.234C366.706 120.886 370.333 125.323 374.952 125.323C375.662 125.323 376.343 125.041 376.845 124.54C377.347 124.039 377.629 123.359 377.629 122.65C377.629 121.941 377.347 121.262 376.845 120.761C376.343 120.259 375.662 119.978 374.952 119.978H375.032Z" fill="#8BBC3A" stroke="#BCCAD9" stroke-width="1.5" stroke-linecap="round" stroke-linejoin="round"/>
<path d="M389.423 119.978C388.085 119.978 386.532 118.027 386.532 115.234C386.532 112.442 388.058 110.491 389.423 110.491C390.789 110.491 392.328 112.442 392.328 115.234C392.321 115.556 392.295 115.878 392.248 116.196H397.603C397.603 115.876 397.603 115.555 397.603 115.234C397.603 109.582 393.975 105.146 389.343 105.146C384.711 105.146 381.097 109.582 381.097 115.234C381.097 120.886 384.724 125.323 389.343 125.323C390.053 125.323 390.734 125.041 391.236 124.54C391.738 124.039 392.02 123.359 392.02 122.65C392.02 121.941 391.738 121.262 391.236 120.761C390.734 120.259 390.053 119.978 389.343 119.978H389.423Z" fill="#8BBC3A" stroke="#BCCAD9" stroke-width="1.5" stroke-linecap="round" stroke-linejoin="round"/>
<path d="M301.847 64.4985H292.047V93.6144H301.847V64.4985Z" fill="white" stroke="#294059" stroke-width="1.5" stroke-linecap="round" stroke-linejoin="round"/>
<path d="M319.062 48.1299H309.263V93.6276H319.062V48.1299Z" fill="white" stroke="#294059" stroke-width="1.5" stroke-linecap="round" stroke-linejoin="round"/>
<path d="M336.291 63.0688H326.492V93.6278H336.291V63.0688Z" fill="white" stroke="#294059" stroke-width="1.5" stroke-linecap="round" stroke-linejoin="round"/>
<path d="M353.506 81.3481H343.707V93.6145H353.506V81.3481Z" fill="white" stroke="#294059" stroke-width="1.5" stroke-linecap="round" stroke-linejoin="round"/>
<path d="M54.1633 160.291C53.459 160.29 52.7618 160.15 52.1117 159.879C51.4617 159.609 50.8714 159.213 50.3749 158.714C49.3735 157.712 48.8111 156.355 48.8111 154.939C48.8111 153.524 49.3735 152.167 50.3749 151.165L53.2263 148.319H31.9412C30.521 148.319 29.159 147.755 28.1548 146.753C27.1506 145.751 26.5864 144.391 26.5864 142.974C26.5864 141.556 27.1506 140.197 28.1548 139.194C29.159 138.192 30.521 137.629 31.9412 137.629H66.1446C67.2042 137.628 68.2404 137.941 69.1217 138.528C70.0031 139.116 70.69 139.951 71.0957 140.928C71.5013 141.905 71.6073 142.98 71.4004 144.018C71.1934 145.055 70.6827 146.008 69.933 146.755L57.8849 158.714C57.3989 159.208 56.8201 159.602 56.1815 159.873C55.5429 160.143 54.857 160.285 54.1633 160.291Z" fill="#8BBC3A"/>
<path d="M60.9504 108.072C62.01 108.071 63.0461 108.384 63.9275 108.971C64.8089 109.559 65.4958 110.394 65.9015 111.371C66.3071 112.348 66.4131 113.423 66.2062 114.461C65.9992 115.498 65.4885 116.451 64.7388 117.198L61.8874 120.044H83.1591C84.5793 120.044 85.9413 120.607 86.9455 121.61C87.9497 122.612 88.5139 123.972 88.5139 125.389C88.5139 126.807 87.9497 128.166 86.9455 129.168C85.9413 130.171 84.5793 130.734 83.1591 130.734H48.9022C47.8437 130.732 46.8094 130.417 45.9301 129.829C45.0508 129.241 44.3659 128.406 43.9619 127.429C43.5579 126.452 43.453 125.378 43.6604 124.342C43.8678 123.306 44.3782 122.354 45.1271 121.608L57.1083 109.582C57.6167 109.089 58.2181 108.702 58.8777 108.442C59.5372 108.183 60.2417 108.057 60.9504 108.072Z" fill="#8BBC3A"/>
</svg>
