<svg width="133" height="140" viewBox="0 0 133 140" fill="none" xmlns="http://www.w3.org/2000/svg">
<path d="M66.0675 0.0375368C83.6491 0.740499 109.698 -2.00662 120.978 10.7129C133.915 21.6668 132.083 48.0873 132.125 66.3553C132.083 84.7196 133.915 91.4527 120.986 104.502C109.705 115.791 83.6551 133.379 66.075 132.675C47.9997 132.498 38.4834 117.61 25.7488 106.441C14.2591 93.9379 -0.441425 85.1516 0.0101566 66.3553C-0.441425 48.5314 14.2576 24.146 25.7413 12.6517C38.4759 -0.182233 47.9922 -0.143096 66.0675 0.0375368Z" fill="#F0F3F7"/>
<path d="M45.9062 76.625C51.0623 76.625 55.2422 72.4452 55.2422 67.2891C55.2422 62.133 51.0623 57.9531 45.9062 57.9531C40.7502 57.9531 36.5703 62.133 36.5703 67.2891C36.5703 72.4452 40.7502 76.625 45.9062 76.625Z" fill="#8BBC3A"/>
<path d="M97.7812 76.625C102.937 76.625 107.117 72.4452 107.117 67.2891C107.117 62.133 102.937 57.9531 97.7812 57.9531C92.6252 57.9531 88.4453 62.133 88.4453 67.2891C88.4453 72.4452 92.6252 76.625 97.7812 76.625Z" fill="#8BBC3A"/>
<path d="M91.7494 78.079C94.0831 81.7219 95.4375 86.0494 95.4375 90.6875V100.062H109.656C110.951 100.062 112 99.0131 112 97.7187V90.6875C112 80.2186 100.942 73.4928 91.7494 78.079ZM32 90.8669V97.7187C32 99.0131 33.0494 100.062 34.3438 100.062H48.5625V90.6875C48.5625 86.0439 49.9198 81.7115 52.2588 78.0661C42.9125 73.459 32 80.3661 32 90.8669ZM72 71.9375C61.6447 71.9375 53.25 80.3322 53.25 90.6875V100.062C53.25 101.357 54.2994 102.406 55.5938 102.406H88.4062C89.7006 102.406 90.75 101.357 90.75 100.062V90.6875C90.75 80.3322 82.3553 71.9375 72 71.9375ZM68.0772 42.9698C68.9923 43.8851 70.4764 43.8853 71.3917 42.9698L80.7667 33.5948C81.682 32.6795 81.682 31.1956 80.7667 30.2803C79.8516 29.365 78.3675 29.365 77.4522 30.2803L69.7344 37.998L66.5478 34.8115C65.6327 33.8962 64.1486 33.8962 63.2333 34.8115C62.318 35.7269 62.318 37.2108 63.2333 38.1261L68.0772 42.9698Z" fill="#8BBC3A"/>
<path d="M72 71.9375C78.4721 71.9375 83.7188 66.6908 83.7188 60.2188C83.7188 53.7467 78.4721 48.5 72 48.5C65.5279 48.5 60.2812 53.7467 60.2812 60.2188C60.2812 66.6908 65.5279 71.9375 72 71.9375Z" fill="#8BBC3A"/>
<rect x="85.9062" y="111.918" width="19.5641" height="1.50527" transform="rotate(40 85.9062 111.918)" fill="#8BBC3A"/>
<rect x="79.5098" y="124.231" width="22.5765" height="1.50527" transform="rotate(40 79.5098 124.231)" fill="#8BBC3A"/>
</svg>
