<svg width="100" height="100" viewBox="0 0 100 100" fill="none" xmlns="http://www.w3.org/2000/svg">
<path d="M49.9784 0.028288C63.2784 0.558045 82.9836 -1.51221 91.517 8.07334C101.303 16.3283 99.9171 36.239 99.949 50.0058C99.9171 63.8453 101.303 68.9194 91.5227 78.7534C82.9892 87.2613 63.2829 100.515 49.9841 99.9845C36.3106 99.8518 29.1117 88.6316 19.4783 80.2145C10.7866 70.7923 -0.333927 64.1709 0.0076832 50.0058C-0.333927 36.5736 10.7855 18.1966 19.4726 9.53443C29.106 -0.137332 36.3049 -0.107838 49.9784 0.028288Z" fill="#192736"/>
<path d="M55.4453 33.2656C60.2131 33.2656 64.0781 29.4006 64.0781 24.6328C64.0781 19.865 60.2131 16 55.4453 16C50.6775 16 46.8125 19.865 46.8125 24.6328C46.8125 29.4006 50.6775 33.2656 55.4453 33.2656Z" fill="white"/>
<path d="M42.164 46.8125H68.7264C69.8266 46.8125 70.7186 45.9205 70.7186 44.8203V44.5546C70.7186 39.8604 68.1414 35.7572 64.3279 33.5842C62.0461 35.8488 58.9063 37.25 55.4452 37.25C51.9841 37.25 48.8443 35.8488 46.5625 33.5842C42.749 35.7572 40.1718 39.8604 40.1718 44.5546V44.8203C40.1718 45.9205 41.0638 46.8125 42.164 46.8125ZM22.0955 57.9056C21.5454 56.9528 20.327 56.6262 19.3742 57.1764L16.9961 58.5493C16.6932 58.7242 16.4418 58.9757 16.2669 59.2785C16.0921 59.5813 16 59.9249 16 60.2746V82.0077C16 83.1079 16.892 83.9999 17.9922 83.9999H33.4744C33.8947 84.0061 34.2967 83.8544 34.6475 83.6308C35.6003 83.0807 35.9269 81.8622 35.3766 80.9094L22.0955 57.9056ZM76.529 54.083L69.3834 58.2088C69.4158 58.8713 69.3743 59.5354 69.2599 60.1888C68.8452 62.5482 67.5362 64.6045 65.5741 65.979C63.6124 67.3533 61.2328 67.8811 58.8739 67.4651C58.8737 67.4651 52.6332 66.3773 45.226 65.0847C44.1406 64.8954 43.4145 63.8609 43.6058 62.7758C43.7966 61.6935 44.8278 60.9701 45.9105 61.159L59.5654 63.5412C62.2753 64.0192 64.8593 62.209 65.3357 59.4989C65.8117 56.7909 64.0032 54.2094 61.2954 53.732L46.0806 51.0492C42.243 50.3725 38.2715 51.0728 34.8972 53.0212L26.6316 57.7934L37.8311 77.1919L41.3905 75.137L55.712 75.2012C58.4096 75.208 61.0776 74.5058 63.4171 73.1551L81.5097 62.7094C82.2669 62.2723 82.8956 61.6436 83.3327 60.8864C83.7698 60.1293 84 59.2705 84 58.3962C83.9998 54.562 79.8493 52.1658 76.529 54.083Z" fill="white"/>
</svg>
