<svg width="133" height="140" viewBox="0 0 133 140" fill="none" xmlns="http://www.w3.org/2000/svg">
<path d="M66.0675 0.0375368C83.6491 0.740499 109.698 -2.00662 120.978 10.7129C133.915 21.6668 132.083 48.0873 132.125 66.3553C132.083 84.7196 133.915 91.4527 120.986 104.502C109.705 115.791 83.6551 133.379 66.075 132.675C47.9997 132.498 38.4834 117.61 25.7488 106.441C14.2591 93.9379 -0.441425 85.1516 0.0101566 66.3553C-0.441425 48.5314 14.2576 24.146 25.7413 12.6517C38.4759 -0.182233 47.9922 -0.143096 66.0675 0.0375368Z" fill="#F0F3F7"/>
<g clip-path="url(#clip0_614_3071)">
<path d="M52.3497 47.6042L45.4188 48.1396C43.4903 48.2887 41.7726 49.2995 40.7061 50.9127L32.7128 63.002C31.9039 64.2254 31.7754 65.7565 32.3686 67.0978C32.9621 68.439 34.1816 69.3737 35.6308 69.5982L41.9768 70.581C43.4614 62.7029 47.0151 54.8443 52.3497 47.6042ZM67.4188 96.023L68.4018 102.369C68.6263 103.818 69.561 105.038 70.9021 105.631C71.4488 105.874 72.0402 105.999 72.6383 106C73.4778 105.999 74.2986 105.751 74.998 105.287L87.0876 97.2938C88.7008 96.2271 89.7116 94.5093 89.8604 92.581L90.3958 85.6501C83.1556 90.9849 75.297 94.5386 67.4188 96.023ZM65.0321 91.6244C65.2524 91.6244 65.474 91.6063 65.6951 91.5694C68.9957 91.0176 72.1769 90.0879 75.2116 88.871L49.129 62.7884C47.9121 65.8229 46.9824 69.0041 46.4306 72.3049C46.2131 73.606 46.6495 74.9314 47.5821 75.8643L62.1357 90.4179C62.9101 91.1921 63.9553 91.6244 65.0321 91.6244ZM105.621 61.4689C112.004 49.1293 112.24 36.0894 111.906 29.9738C111.792 27.8784 110.122 26.2078 108.026 26.0935C106.858 26.0306 105.689 25.9994 104.52 25.9999C97.6816 25.9999 86.8612 27.0357 76.5309 32.379C68.3213 36.6253 57.5562 45.9754 51.205 58.2631C51.28 58.3217 51.3533 58.3839 51.4224 58.453L79.5472 86.5778C79.6162 86.6468 79.6783 86.7199 79.7369 86.7949C92.0246 80.4436 101.375 69.6785 105.621 61.4689ZM78.515 42.9123C83.0839 38.3434 90.5183 38.343 95.0875 42.9123C97.3009 45.1256 98.5198 48.0685 98.5198 51.1987C98.5198 54.3288 97.3009 57.2717 95.0875 59.485C92.8033 61.7692 89.8018 62.9115 86.8013 62.9119C83.7999 62.912 80.7998 61.7698 78.515 59.485C76.3016 57.2717 75.0825 54.3288 75.0825 51.1987C75.0825 48.0685 76.3016 45.1256 78.515 42.9123Z" fill="#8BBC3A"/>
<path d="M81.8289 56.1704C84.5703 58.9118 89.0312 58.9119 91.7726 56.1704C93.1005 54.8423 93.8319 53.0766 93.8319 51.1985C93.8319 49.3204 93.1005 47.5548 91.7726 46.2269C90.402 44.8561 88.6014 44.1708 86.8007 44.1708C85.0003 44.1708 83.1997 44.8561 81.8291 46.2269C80.5011 47.5548 79.7695 49.3204 79.7695 51.1985C79.7695 53.0766 80.5009 54.8424 81.8289 56.1704ZM34.3908 91.9273C34.9907 91.9273 35.5905 91.6985 36.048 91.2407L43.7 83.5887C44.6153 82.6734 44.6153 81.1895 43.7 80.2742C42.7848 79.3589 41.3008 79.3589 40.3855 80.2742L32.7335 87.9262C31.8182 88.8415 31.8182 90.3254 32.7335 91.2407C32.9509 91.4587 33.2092 91.6316 33.4937 91.7494C33.7781 91.8672 34.083 91.9277 34.3908 91.9273ZM50.7126 87.2868C49.7974 86.3715 48.3134 86.3715 47.3981 87.2868L32.6865 101.998C31.7712 102.914 31.7712 104.398 32.6865 105.313C33.1441 105.771 33.744 105.999 34.3438 105.999C34.9436 105.999 35.5435 105.771 36.001 105.313L50.7124 90.6013C51.6279 89.686 51.6279 88.2022 50.7126 87.2868ZM54.4105 94.2994L46.7587 101.951C45.8434 102.867 45.8434 104.351 46.7587 105.266C47.2164 105.724 47.8162 105.952 48.4159 105.952C49.0156 105.952 49.6156 105.724 50.0731 105.266L57.725 97.614C58.6403 96.6986 58.6403 95.2148 57.725 94.2994C56.8099 93.3841 55.3258 93.3841 54.4105 94.2994Z" fill="#8BBC3A"/>
</g>
<rect x="85.9062" y="111.918" width="19.5641" height="1.50527" transform="rotate(40 85.9062 111.918)" fill="#8BBC3A"/>
<rect x="79.5098" y="124.231" width="22.5765" height="1.50527" transform="rotate(40 79.5098 124.231)" fill="#8BBC3A"/>
<defs>
<clipPath id="clip0_614_3071">
<rect width="80" height="80" fill="white" transform="translate(32 26)"/>
</clipPath>
</defs>
</svg>
