<svg width="25" height="20" viewBox="0 0 25 20" fill="none" xmlns="http://www.w3.org/2000/svg">
<path d="M10.897 1.89454C11.957 1.70182 13.043 1.70182 14.103 1.89454C18.8658 2.76051 22.0798 7.25273 21.3617 12.0401L21.3535 12.0946C19.9028 12.1708 18.75 13.3711 18.75 14.8408V16.8408C18.75 18.3596 19.9812 19.5908 21.5 19.5908C23.0188 19.5908 24.25 18.3596 24.25 16.8408V14.8408C24.25 13.7999 23.6721 12.8952 22.8203 12.4281L22.8451 12.2626C23.6834 6.67386 19.9314 1.42967 14.3713 0.418734C13.1339 0.193755 11.8661 0.193755 10.6287 0.418734C5.06859 1.42967 1.31657 6.67386 2.15488 12.2626L2.17971 12.4281C1.32785 12.8952 0.75 13.7999 0.75 14.8408V16.8408C0.75 18.3596 1.98122 19.5908 3.5 19.5908C5.01878 19.5908 6.25 18.3596 6.25 16.8408V14.8408C6.25 13.3711 5.09716 12.1708 3.64647 12.0946L3.63829 12.0401C2.92018 7.25273 6.13419 2.76051 10.897 1.89454Z" fill="white"/>
</svg>
