<svg width="182" height="182" viewBox="0 0 182 182" fill="none" xmlns="http://www.w3.org/2000/svg">
<g clip-path="url(#clip0_521_3624)">
<path d="M66.9824 74.1369C66.7322 68.0969 66.2516 59.1706 65.461 55.1041C64.2098 48.6546 58.3376 46.8261 58.3376 46.8261L41.5797 40.4733H25.4076L8.64971 46.8261C8.64971 46.8261 2.77748 48.6546 1.52626 55.1041C0.735709 59.1706 0.255125 68.0969 0.00487958 74.1369C-0.0273176 74.9247 0.100079 75.7109 0.379414 76.4482C0.65875 77.1855 1.08426 77.8587 1.63037 78.4274C2.17648 78.9961 2.83193 79.4485 3.55732 79.7575C4.28271 80.0664 5.06307 80.2255 5.85152 80.2253H61.1329C61.9217 80.2263 62.7026 80.0678 63.4285 79.7591C64.1544 79.4505 64.8104 78.9981 65.3569 78.4293C65.9034 77.8605 66.3291 77.187 66.6085 76.4493C66.8878 75.7116 67.015 74.9251 66.9824 74.1369Z" fill="#8BBC3A"/>
<path d="M25.4082 28.345H41.5803V47.2129H25.4082V28.345Z" fill="#F0F3F7"/>
<path d="M46.9232 51.6177C46.7434 48.2538 46.0837 44.9329 44.9639 41.7558L42.8397 40.951L41.5799 40.4733L33.4953 43.5388L25.4078 40.4733L21.3015 42.0288C21.3044 43.6099 21.2958 45.1881 21.0257 46.7521C20.747 48.3645 19.9593 49.8546 19.8797 51.5068C19.7915 53.2585 20.602 54.632 21.111 56.2444C22.294 59.9867 20.6589 60.8853 24.8306 65.2646C25.9396 66.4305 26.6022 67.531 27.0031 69.0922C27.3956 70.625 30.68 76.5342 31.5843 78.3086C32.7389 79.5712 33.4555 80.194 33.4924 80.2281H33.4981C33.5379 80.194 34.2659 79.5598 35.4404 78.2716C35.4909 78.165 35.5539 78.0648 35.6281 77.9731L35.8897 77.646C35.9177 77.404 36.0144 77.1751 36.1684 76.9863C36.7229 76.2868 37.3855 75.5815 37.7381 74.7483C37.8168 74.5536 37.9418 74.3811 38.1024 74.2458C38.263 74.1105 38.4542 74.0165 38.6594 73.972C42.3363 68.7567 42.8368 66.3338 44.3326 63.1745C45.4161 60.8881 45.6919 61.7811 45.2142 59.3071C44.4634 55.4339 47.1934 56.8899 46.9232 51.6177Z" fill="white"/>
<path d="M37.1362 76.3037C34.9949 78.9256 33.5532 80.1769 33.4991 80.2252H33.4934C33.4394 80.1769 31.9948 78.9228 29.8535 76.3009L32.1427 48.2223L30.7948 45.8791L32.1427 43.5387H34.847L36.1978 45.8791L34.847 48.2223L37.1362 76.3037Z" fill="#192736"/>
<path d="M41.5805 36.8191L33.4959 43.5387L25.4113 36.8191L23.7363 41.1074L28.8464 48.7882C28.9405 48.9299 29.0694 49.0451 29.2207 49.1228C29.3719 49.2005 29.5406 49.2382 29.7106 49.2322C29.8805 49.2262 30.0461 49.1768 30.1916 49.0886C30.337 49.0004 30.4574 48.8764 30.5413 48.7285L33.4959 43.5387L36.4533 48.7285C36.5372 48.8764 36.6576 49.0004 36.8031 49.0886C36.9485 49.1768 37.1141 49.2262 37.2841 49.2322C37.454 49.2382 37.6227 49.2005 37.774 49.1228C37.9252 49.0451 38.0541 48.9299 38.1482 48.7882L43.2583 41.1074L41.5805 36.8191Z" fill="#BCCAD9"/>
<path d="M46.7316 59.5203C47.4681 61.7753 39.4546 73.4601 37.1341 76.3038C34.9928 78.9257 33.5511 80.1769 33.4971 80.2252H33.4914C33.4373 80.1769 31.9927 78.9228 29.8514 76.3009C27.531 73.4572 19.5089 61.7696 20.2597 59.5203C20.6635 58.3003 21.3033 57.1714 20.4331 56.2984C19.5345 55.3998 18.1951 54.4386 18.3999 53.3239L20.4047 42.3728L24.1868 39.967C23.6835 50.0053 25.8276 67.8921 33.4971 80.2281C40.3959 69.1348 43.0888 53.4177 42.8414 40.9538C42.8301 40.314 42.813 39.967 42.813 39.967L46.5326 42.3529L48.5971 53.3267C48.6418 53.5722 48.6263 53.8249 48.5521 54.0631C48.4778 54.3013 48.3469 54.518 48.1705 54.6945C45.7164 57.1401 45.8046 56.7363 46.7316 59.5203Z" fill="#BCCAD9"/>
<path d="M47.3146 19.6688C46.7714 17.8602 44.5391 20.2831 44.5391 20.2831L44.4566 20.8177L43.8993 19.9617C43.8993 19.9617 44.7666 14.6497 44.9287 14.4393C45.0908 14.2317 43.086 9.64764 42.9779 9.49123C42.8699 9.33483 39.7247 8.45044 39.7247 8.45044C32.2515 9.13861 34.916 9.15283 27.2694 8.45044C27.2694 8.45044 24.1242 9.33483 24.0162 9.49123C23.9081 9.64764 21.9033 14.2317 22.0654 14.4393C22.2246 14.6468 23.092 19.9617 23.092 19.9617L22.5346 20.8177L22.4521 20.2802C22.4521 20.2802 20.2198 17.8574 19.6767 19.666C19.1335 21.4774 19.9639 24.8785 21.0644 26.1979C21.2878 26.4856 21.5695 26.7227 21.891 26.8937C22.2125 27.0648 22.5665 27.1659 22.9299 27.1904C23.7631 32.6162 23.1005 31.1261 28.2931 37.5528C30.8951 40.7719 36.1189 40.7434 38.6982 37.5528L42.3239 33.0655C43.0007 32.2266 43.4414 31.2341 43.6035 30.1848L44.0614 27.1904C46.8112 27.0368 48.0027 21.958 47.3146 19.6688Z" fill="#BCCAD9"/>
<path d="M24.2661 4.93855C24.2661 4.93855 23.2339 6.37177 23.6917 9.00788C23.6917 9.00788 20.666 10.7738 20.666 14.3853C20.666 17.9968 21.1722 19.5551 21.63 22.0178L22.0367 23.8747C22.0563 23.9692 22.1088 24.0536 22.1849 24.1129C22.261 24.1722 22.3557 24.2025 22.4521 24.1984C22.5485 24.1943 22.6403 24.1561 22.7111 24.0905C22.7819 24.025 22.8271 23.9364 22.8386 23.8406C24.2235 12.8014 25.2046 10.6288 28.5658 11.2999C30.5706 11.7009 37.9102 10.0401 40.3728 13.9929C42.1245 16.8024 43.0317 20.2462 43.2876 23.4851C43.3559 24.3525 44.5559 24.4662 44.7976 23.6586C44.917 23.2605 45.0478 22.8453 45.1872 22.4187C51.5428 3.35746 29.9052 -2.64558 24.2661 4.93855Z" fill="#192736"/>
<path d="M178.196 73.9465C177.951 67.9889 177.474 59.1849 176.697 55.1752C175.463 48.8167 169.673 47.011 169.673 47.011L153.149 40.7463H137.201L120.677 47.011C120.677 47.011 114.887 48.8139 113.653 55.1752C112.873 59.1849 112.399 67.9889 112.151 73.9465C112.12 74.7232 112.246 75.4983 112.521 76.2253C112.797 76.9522 113.216 77.616 113.754 78.1769C114.293 78.7378 114.939 79.1841 115.654 79.4892C116.369 79.7943 117.138 79.9518 117.915 79.9524H172.435C175.711 79.9524 178.332 77.2224 178.196 73.9465Z" fill="#8BBC3A"/>
<path d="M137.199 28.7856H153.147V47.3919H137.199V28.7856Z" fill="#F0F3F7"/>
<path d="M158.415 51.7371C158.333 50.1133 157.625 44.3804 156.655 42.7965C156.504 42.5646 156.443 42.2853 156.484 42.0116L154.388 41.2182L153.146 40.749L145.172 43.7719L137.198 40.749L135.964 41.2182L133.152 42.2846C133.174 52.5788 130.2 47.5625 132.964 56.304C133.465 57.8851 133.419 59.5743 133.877 61.1611C134.858 64.565 137.747 64.9659 138.774 68.9727C139.16 70.4827 142.402 76.3123 143.292 78.0611C144.433 79.3067 145.138 79.9181 145.175 79.9522H145.181C145.218 79.9181 145.937 79.2925 147.097 78.0242C147.197 77.8166 147.373 77.6147 147.538 77.4042C147.592 76.935 149.042 75.2999 149.361 74.5463C149.439 74.3543 149.563 74.1842 149.721 74.0504C149.88 73.9167 150.068 73.8234 150.271 73.7785C153.896 68.6343 154.391 66.2484 155.864 63.1317C156.934 60.8767 157.207 61.7582 156.734 59.3183C156.459 57.8908 156.68 56.8187 157.602 55.6955C158.543 54.5409 158.489 53.1817 158.415 51.7371Z" fill="white"/>
<path d="M148.764 76.0849C146.654 78.6698 145.23 79.9068 145.178 79.9523H145.173C145.119 79.9068 143.697 78.667 141.584 76.082L143.842 48.3901L142.511 46.0811L143.842 43.772H146.509L147.843 46.0811L146.509 48.3901L148.764 76.0849Z" fill="#192736"/>
<path d="M153.146 37.1433L145.173 43.7691L137.199 37.1433L135.547 41.3719L140.586 48.9475C140.679 49.0869 140.806 49.2002 140.955 49.2767C141.104 49.3532 141.27 49.3904 141.438 49.3847C141.605 49.379 141.769 49.3306 141.912 49.2442C142.056 49.1577 142.175 49.036 142.258 48.8906L145.173 43.7691L148.088 48.8906C148.171 49.036 148.29 49.1577 148.434 49.2442C148.577 49.3306 148.74 49.379 148.908 49.3847C149.075 49.3904 149.241 49.3532 149.39 49.2767C149.54 49.2002 149.667 49.0869 149.76 48.9475L154.799 41.3719L153.146 37.1433Z" fill="#BCCAD9"/>
<path d="M158.058 56.3553C157.858 56.555 157.718 56.8063 157.653 57.081C157.589 57.3557 157.602 57.643 157.691 57.9108C157.986 58.8008 158.524 59.8814 158.171 60.6464C153.678 70.4315 148.147 77.3929 145.178 79.9551H145.173C138.661 74.3331 131.739 60.6862 132.123 59.5345C132.521 58.3316 133.152 57.2169 132.294 56.3553C129.45 53.5116 129.877 55.6728 132.265 42.6202L132.268 42.6174L135.993 40.2457C135.993 40.2457 135.976 40.587 135.965 41.2154C135.717 53.5542 138.373 69.0097 145.176 79.9494C151.981 69.0097 154.637 53.5087 154.389 41.2183C154.378 40.587 154.361 40.2457 154.361 40.2457L158.029 42.5975C160.5 55.7353 160.901 53.5116 158.058 56.3553Z" fill="#BCCAD9"/>
<path d="M158.803 20.2319C158.268 18.4489 156.064 20.8376 156.064 20.8376L155.985 21.3665L155.436 20.522C155.436 20.522 156.292 15.281 156.451 15.0763C156.61 14.8715 154.634 10.3501 154.526 10.1965C154.418 10.0429 151.318 9.16992 151.318 9.16992C143.947 9.84956 146.578 9.86378 139.033 9.16992C139.033 9.16992 135.931 10.0429 135.826 10.1965C135.718 10.3501 133.741 14.8715 133.901 15.0763C134.06 15.281 134.916 20.522 134.916 20.522L134.367 21.3637L134.287 20.8348C134.287 20.8348 132.083 18.4461 131.549 20.2291C131.014 22.012 131.833 25.3676 132.917 26.6672C133.137 26.9511 133.414 27.1851 133.732 27.3537C134.049 27.5223 134.398 27.6217 134.756 27.6454C135.578 32.9972 134.927 31.5271 140.046 37.8628C142.605 41.0307 147.761 41.0136 150.306 37.8628C155.294 31.6891 154.745 33.1906 155.595 27.6454C158.308 27.4975 159.48 22.4898 158.803 20.2319Z" fill="#BCCAD9"/>
<path d="M157.782 11.0779C157.782 11.0779 157.699 6.80952 153.869 6.08722C153.744 6.06462 153.632 5.9968 153.553 5.8967C153.007 5.17155 150.55 2.18567 146.825 1.76765C142.599 1.29275 132.254 2.85394 132.26 14.57C132.26 18.8042 133.275 23.3513 133.872 25.3419C133.904 25.4462 133.968 25.5375 134.056 25.6021C134.143 25.6667 134.25 25.7011 134.358 25.7002H134.395C134.463 25.7006 134.531 25.6873 134.593 25.6612C134.656 25.635 134.713 25.5965 134.76 25.548C134.808 25.4994 134.845 25.4418 134.87 25.3785C134.895 25.3153 134.906 25.2477 134.904 25.1798C134.873 23.7068 134.95 20.9569 135.755 18.1473C135.772 18.0876 135.777 18.0279 135.772 17.9653C135.715 17.3227 135.425 13.3671 136.815 10.5149C136.865 10.4139 136.948 10.3329 137.049 10.2848C137.151 10.2368 137.266 10.2247 137.376 10.2504C140.566 10.93 145.125 14.4306 152.328 10.3727C152.383 10.3397 152.444 10.318 152.508 10.309C152.572 10.3 152.637 10.3038 152.699 10.3203C152.761 10.3367 152.82 10.3654 152.871 10.4047C152.922 10.4439 152.964 10.493 152.996 10.549C153.562 11.4846 154.768 13.9358 154.46 17.4108C154.456 17.4642 154.46 17.5179 154.472 17.5701C154.625 18.1672 155.601 22.1484 155.385 25.14C155.336 25.8026 156.286 25.9021 156.394 25.2765C156.725 23.3702 157.319 21.5192 158.16 19.7768L158.211 19.5294L157.782 11.0779Z" fill="#192736"/>
<path d="M124.971 132.672L133.18 124.462L148.9 140.187L140.693 148.394L124.971 132.672Z" fill="#0C1926"/>
<path d="M44.3956 43.826C20.2725 67.9491 20.2441 107.036 44.3671 131.159C68.4902 155.282 107.605 155.282 131.728 131.159C155.823 107.064 155.823 67.9491 131.7 43.826C107.577 19.703 68.4902 19.7314 44.3956 43.826ZM123.922 123.353C104.11 143.165 71.9851 143.162 52.1731 123.353C32.3611 103.544 32.3895 71.444 52.2015 51.632C71.9851 31.8484 104.082 31.8199 123.894 51.632C143.706 71.4411 143.706 103.569 123.922 123.353Z" fill="#8EA6BF"/>
<path d="M144.961 128.432L128.974 144.419C128.717 144.676 128.514 144.98 128.375 145.316C128.236 145.651 128.164 146.011 128.164 146.374C128.164 146.737 128.236 147.097 128.375 147.432C128.514 147.767 128.717 148.072 128.974 148.329L157.417 176.772C162.803 182.158 171.667 182.954 177.328 177.855C178.751 176.578 179.898 175.024 180.7 173.289C181.503 171.554 181.943 169.674 181.994 167.763C182.046 165.852 181.707 163.95 180.999 162.175C180.291 160.399 179.229 158.786 177.877 157.434L148.872 128.429C148.352 127.911 147.649 127.621 146.916 127.621C146.183 127.622 145.48 127.913 144.961 128.432Z" fill="#8EA6BF"/>
<path d="M132.332 97.4895C132.005 89.5755 131.373 77.8822 130.338 72.5559C128.7 64.1073 121.008 61.7101 121.008 61.7101L99.0549 53.3866H77.8694L55.916 61.7101C55.916 61.7101 48.2238 64.1073 46.5859 72.5559C45.5536 77.8822 44.9195 89.5755 44.5924 97.4895C44.5499 98.5215 44.7165 99.5515 45.0822 100.518C45.4479 101.484 46.0052 102.366 46.7206 103.111C47.4359 103.856 48.2946 104.449 49.2449 104.853C50.1952 105.258 51.2176 105.467 52.2505 105.466H124.671C125.704 105.467 126.727 105.259 127.677 104.854C128.628 104.45 129.487 103.857 130.203 103.112C130.918 102.367 131.476 101.484 131.842 100.518C132.208 99.552 132.374 98.5217 132.332 97.4895Z" fill="#8BBC3A"/>
<path d="M77.8691 37.5017H99.0547V62.2163H77.8691V37.5017Z" fill="#F0F3F7"/>
<path d="M106.054 67.9888C105.943 65.8304 105.002 58.2179 103.717 56.1135C103.515 55.8054 103.434 55.4339 103.489 55.0699L100.705 54.0149L99.0532 53.3893L88.4632 57.4046L77.8705 53.3893L76.2297 54.0121L72.4931 55.4282C72.4987 57.5013 72.4874 59.5686 72.1319 61.6161C71.7679 63.729 70.7357 65.6797 70.6276 67.8438C70.5138 70.1386 71.5745 71.9359 72.2428 74.0487C73.7926 78.9513 71.6485 80.1314 77.1141 85.8671C78.5672 87.3942 79.4345 88.8359 79.9606 90.8806C80.5521 93.1811 81.9028 95.2314 83.0176 97.3158C84.0157 99.187 84.9996 101.064 85.9636 102.955C87.4765 104.61 88.4149 105.423 88.4632 105.469C88.5173 105.423 89.4756 104.593 91.014 102.907C91.1477 102.631 91.378 102.363 91.5998 102.085C91.6383 101.768 91.7644 101.469 91.9638 101.22C92.689 100.305 93.5591 99.3775 94.017 98.2855C94.1208 98.0306 94.2851 97.8047 94.4956 97.6273C94.7061 97.45 94.9567 97.3265 95.2255 97.2675C100.043 90.4341 100.697 87.2634 102.659 83.1258C104.078 80.1285 104.442 81.303 103.814 78.0612C102.832 72.988 106.41 74.899 106.054 67.9888Z" fill="white"/>
<path d="M93.2359 100.33C90.432 103.765 88.541 105.406 88.4699 105.469H88.4642C88.3931 105.406 86.502 103.763 83.6953 100.327L83.9797 96.8211L86.6926 63.5413L84.9238 60.473L86.6926 57.4075H90.233L92.0046 60.473L90.233 63.5413L93.2359 100.33Z" fill="#192736"/>
<path d="M99.0566 48.6034L88.4639 57.4046L77.8711 48.6034L75.6758 54.2225L82.3698 64.2835C82.9073 65.094 84.1102 65.0513 84.5908 64.2067L88.4639 57.4046L92.337 64.2067C92.4473 64.4003 92.6052 64.5624 92.7958 64.6776C92.9865 64.7929 93.2034 64.8574 93.426 64.8651C93.6486 64.8728 93.8695 64.8234 94.0676 64.7216C94.2658 64.6198 94.4345 64.469 94.5579 64.2835L101.252 54.2225L99.0566 48.6034Z" fill="#BCCAD9"/>
<path d="M105.577 74.1199C103.697 76.0024 106.66 77.7911 105.725 79.8186C99.7585 92.8172 92.4104 102.062 88.4662 105.466H88.4605C88.3894 105.403 86.4984 103.76 83.6917 100.325C80.6745 96.6277 70.1756 81.1864 71.1254 78.3399L71.842 76.1844C72.3823 74.5521 70.5595 73.3265 69.2457 72.0127C68.0798 70.8468 68.6798 70.2809 71.3159 55.8747L71.3187 55.8719L76.2696 52.7211C76.2696 52.7211 76.2469 53.1732 76.2298 54.0093C76.1274 59.1791 76.2952 78.9997 83.9789 96.8182C85.2572 99.8076 86.7572 102.7 88.4662 105.466C97.5035 90.9318 101.033 70.3406 100.705 54.015C100.688 53.1761 100.666 52.7239 100.666 52.7239L105.537 55.8491C108.836 73.3606 109.296 70.4032 105.577 74.1199Z" fill="#BCCAD9"/>
<path d="M106.571 26.1353C105.86 23.7665 102.934 26.9373 102.934 26.9373L102.826 27.6397L102.095 26.5192C102.095 26.5192 103.233 19.5579 103.443 19.2849C103.653 19.0119 101.029 13.006 100.887 12.8013C100.744 12.5965 96.6238 11.4363 96.6238 11.4363L88.4653 12.187L80.3096 11.4363C80.3096 11.4363 76.1891 12.5965 76.0469 12.8013C75.9047 13.006 73.28 19.0119 73.4904 19.2849C73.7008 19.5579 74.8383 26.5192 74.8383 26.5192L74.1075 27.6397L73.9994 26.9373C73.9994 26.9373 71.0733 23.7637 70.3623 26.1353C69.6514 28.5041 70.7377 32.963 72.1794 34.6892C73.0269 35.7044 73.9795 35.9546 74.6222 35.9887C75.7113 43.098 74.844 41.1415 81.649 49.5617C85.0557 53.7789 91.9033 53.7391 95.2788 49.5617L100.028 43.6838C100.915 42.5861 101.492 41.2837 101.703 39.9102L102.306 35.9887C102.948 35.9518 103.901 35.7015 104.748 34.6892C106.196 32.963 107.282 28.5041 106.571 26.1353Z" fill="#BCCAD9"/>
<path d="M101.32 8.75756C101.32 8.75756 101.505 1.82178 94.4469 0.522216C72.3912 -3.54142 69.8035 17.1607 73.6396 26.2861C73.6396 26.2861 74.3363 30.5772 74.4842 32.5223C74.5013 32.7441 74.6833 32.9147 74.9051 32.9147C74.9637 32.915 75.0218 32.903 75.0755 32.8794C75.1292 32.8558 75.1774 32.8211 75.2168 32.7776C75.2563 32.7342 75.2861 32.6829 75.3044 32.6272C75.3227 32.5714 75.3291 32.5124 75.3231 32.4541C75.1837 31.0351 74.8852 26.6415 76.1165 23.5618C76.1165 23.5618 73.2045 15.8839 78.2834 15.3265C83.3622 14.7691 89.1207 19.6006 98.1636 14.1492C98.1636 14.1492 101.383 15.7587 101.076 21.5201C101.076 21.5201 102.677 28.8454 102.637 32.491C102.637 32.5484 102.648 32.6051 102.671 32.6578C102.694 32.7105 102.727 32.758 102.769 32.7974C102.81 32.8368 102.86 32.8672 102.913 32.8869C102.967 32.9066 103.025 32.915 103.082 32.9117C103.139 32.9084 103.195 32.8934 103.246 32.8677C103.298 32.842 103.343 32.8061 103.38 32.7622C103.417 32.7182 103.444 32.6672 103.461 32.6123C103.477 32.5574 103.482 32.4996 103.476 32.4427C103.339 31.3848 103.183 28.6464 104.482 25.2339C106.149 20.8347 108.193 11.9169 101.32 8.75756Z" fill="#192736"/>
</g>
<defs>
<clipPath id="clip0_521_3624">
<rect width="182" height="182" fill="white"/>
</clipPath>
</defs>
</svg>
