<svg width="133" height="140" viewBox="0 0 133 140" fill="none" xmlns="http://www.w3.org/2000/svg">
<path d="M66.0675 0.0375368C83.6491 0.740499 109.698 -2.00662 120.978 10.7129C133.915 21.6668 132.083 48.0873 132.125 66.3553C132.083 84.7196 133.915 91.4527 120.986 104.502C109.705 115.791 83.6551 133.379 66.075 132.675C47.9997 132.498 38.4834 117.61 25.7488 106.441C14.2591 93.9379 -0.441425 85.1516 0.0101566 66.3553C-0.441425 48.5314 14.2576 24.146 25.7413 12.6517C38.4759 -0.182233 47.9922 -0.143096 66.0675 0.0375368Z" fill="#F0F3F7"/>
<g clip-path="url(#clip0_614_3067)">
<path fill-rule="evenodd" clip-rule="evenodd" d="M63.9094 59.1047C62.5884 59.1059 61.2967 58.7152 60.1977 57.9822C59.0987 57.2491 58.2418 56.2066 57.7354 54.9864C57.2291 53.7663 57.096 52.4234 57.3529 51.1276C57.6099 49.8318 58.2455 48.6413 59.1792 47.7068C60.1129 46.7722 61.3028 46.1356 62.5984 45.8775C63.894 45.6193 65.237 45.7512 66.4576 46.2565C67.6782 46.7618 68.7215 47.6178 69.4555 48.7161C70.1895 49.8144 70.5813 51.1058 70.5813 52.4269C70.5796 54.1964 69.8763 55.893 68.6256 57.1448C67.3749 58.3966 65.6789 59.1014 63.9094 59.1047ZM108.655 102.458C107.578 103.526 106.124 104.125 104.608 104.125C103.092 104.125 101.637 103.526 100.561 102.458L90.8822 92.7801L98.976 84.6876L108.655 94.3658C109.722 95.442 110.321 96.8963 110.321 98.412C110.321 99.9277 109.722 101.382 108.655 102.458H108.655ZM86.3263 80.1312C85.5744 80.8831 84.7932 81.592 83.9825 82.258L87.5872 85.8561L92.0544 81.3873L88.4497 77.788C87.782 78.6045 87.0735 79.3867 86.3268 80.1317L86.3263 80.1312ZM42.8121 78.8067C45.5825 81.5768 48.8714 83.774 52.491 85.2731C56.1105 86.7721 59.9899 87.5435 63.9077 87.5433C67.8254 87.543 71.7047 86.7711 75.3241 85.2717C78.9435 83.7722 82.2321 81.5745 85.0022 78.8041C87.7722 76.0337 89.9695 72.7448 91.4685 69.1252C92.9675 65.5057 93.739 61.6263 93.7387 57.7085C93.7385 53.7908 92.9666 49.9115 91.4671 46.2921C89.9677 42.6727 87.77 39.3841 84.9996 36.614C82.2292 33.844 78.9403 31.6467 75.3207 30.1477C71.7011 28.6487 67.8217 27.8772 63.904 27.8775C59.9863 27.8777 56.107 28.6496 52.4876 30.1491C48.8682 31.6485 45.5796 33.8462 42.8095 36.6166C40.0394 39.387 37.8422 42.6759 36.3431 46.2955C34.8441 49.9151 34.0727 53.7945 34.0729 57.7122C34.0732 61.6299 34.8451 65.5092 36.3445 69.1286C37.844 72.748 40.0417 76.0366 42.8121 78.8067ZM97.3468 80.4076C96.8347 79.8968 96.1577 79.5847 95.4367 79.5269C94.7157 79.4691 93.9976 79.6694 93.4107 80.0922L89.6069 76.2908C94.2786 69.8293 96.3447 61.8452 95.3938 53.9287C94.4429 46.0122 90.5446 38.7445 84.4757 33.5732C78.4067 28.402 70.6124 25.7067 62.6453 26.0243C54.6783 26.342 47.1233 29.6492 41.4852 35.2872C38.5406 38.2316 36.2048 41.7272 34.6111 45.5743C33.0175 49.4215 32.1973 53.5449 32.1973 57.709C32.1973 61.8732 33.0175 65.9966 34.6111 69.8438C36.2048 73.6909 38.5406 77.1865 41.4852 80.1309C46.8148 85.4605 53.8683 88.7176 61.3814 89.3186C68.8946 89.9196 76.3762 87.8251 82.4852 83.4106L86.289 87.2122C85.8653 87.7986 85.6638 88.5166 85.7205 89.2378C85.7772 89.9591 86.0885 90.6367 86.5986 91.1497L99.2333 103.782C100.658 105.206 102.59 106.005 104.603 106.004C106.617 106.004 108.548 105.203 109.972 103.779C111.396 102.355 112.196 100.424 112.196 98.4102C112.197 96.3964 111.397 94.465 109.974 93.0405L97.3463 80.407L97.3468 80.4076ZM55.3511 52.4269C55.3502 50.9334 55.7402 49.4657 56.4824 48.1697C57.2246 46.8738 58.2932 45.7947 59.5818 45.0398C60.8704 44.2849 62.3343 43.8806 63.8277 43.8669C65.3211 43.8533 66.792 44.2308 68.0942 44.962C69.3964 45.6932 70.4845 46.7526 71.2503 48.0348C72.0161 49.317 72.4329 50.7773 72.4592 52.2705C72.4855 53.7637 72.1204 55.2378 71.4003 56.5462C70.6802 57.8546 69.6301 58.9516 68.3544 59.7283C71.0882 60.5141 73.5651 62.01 75.5332 64.0636C77.5013 66.1173 78.8904 68.6556 79.5593 71.4203C82.893 67.6311 84.7303 62.7561 84.7266 57.7092C84.7266 46.2281 75.3869 36.8876 63.9094 36.8876C52.4251 36.8876 43.0847 46.2281 43.0847 57.7092C43.0785 62.7553 44.9132 67.6304 48.2449 71.4203C48.9141 68.6545 50.3043 66.1155 52.2739 64.0616C54.2435 62.0078 56.7222 60.5126 59.4576 59.7283C58.2042 58.9658 57.1682 57.8936 56.4491 56.6149C55.73 55.3362 55.352 53.8939 55.3516 52.4269H55.3511ZM49.8371 73.0501C50.3529 69.6897 52.0549 66.6251 54.6349 64.411C57.2148 62.1968 60.5022 60.9796 63.902 60.9796C67.3018 60.9796 70.5892 62.1968 73.1691 64.411C75.7491 66.6251 77.4511 69.6897 77.9669 73.0501C74.1312 76.5754 69.1116 78.5317 63.902 78.5317C58.6924 78.5317 53.6728 76.5754 49.8371 73.0501Z" fill="#8BBC3A"/>
</g>
<rect x="85.9062" y="111.918" width="19.5641" height="1.50527" transform="rotate(40 85.9062 111.918)" fill="#8BBC3A"/>
<rect x="79.5098" y="124.231" width="22.5765" height="1.50527" transform="rotate(40 79.5098 124.231)" fill="#8BBC3A"/>
<defs>
<clipPath id="clip0_614_3067">
<rect width="80" height="80" fill="white" transform="translate(32.1914 26)"/>
</clipPath>
</defs>
</svg>
