<svg width="46" height="52" viewBox="0 0 46 52" fill="none" xmlns="http://www.w3.org/2000/svg">
<path d="M32.7497 0C29.9774 0.19175 26.7372 1.96625 24.8489 4.277C23.1264 6.37325 21.7094 9.48675 22.2619 12.5125C25.2909 12.6067 28.4207 10.79 30.2342 8.44025C31.9307 6.253 33.2144 3.159 32.7497 0Z" fill="black"/>
<path d="M43.7045 17.4459C41.0428 14.1081 37.302 12.1711 33.7693 12.1711C29.1056 12.1711 27.1328 14.4039 23.8926 14.4039C20.5516 14.4039 18.0134 12.1776 13.9802 12.1776C10.0184 12.1776 5.79997 14.5989 3.12524 18.7394C-0.634991 24.5698 0.00850469 35.532 6.10222 44.8692C8.28296 48.2102 11.1949 51.9672 15.0039 51.9997C18.3936 52.0322 19.3491 49.8254 23.9414 49.8027C28.5336 49.7767 29.4046 52.0289 32.7878 51.9932C36.6 51.9639 39.6713 47.8007 41.852 44.4597C43.4152 42.0645 43.997 40.8587 45.2092 38.1547C36.392 34.7975 34.9783 22.2591 43.7045 17.4459Z" fill="black"/>
</svg>
