<svg width="30" height="30" viewBox="0 0 30 30" fill="none" xmlns="http://www.w3.org/2000/svg">
<path fill-rule="evenodd" clip-rule="evenodd" d="M-6.55671e-07 15C-1.01779e-06 6.71573 6.71573 1.01779e-06 15 6.55671e-07C23.2843 2.93554e-07 30 6.71573 30 15C30 23.2843 23.2843 30 15 30C6.71573 30 -2.93554e-07 23.2843 -6.55671e-07 15ZM17.2081 6.70096C17.6494 6.26359 18.3617 6.26677 18.799 6.70806C19.2364 7.14936 19.2332 7.86166 18.7919 8.29904L16.1475 10.92C15.0742 11.9837 14.338 12.7158 13.8399 13.3361C13.356 13.9386 13.19 14.3256 13.1458 14.6722C13.1181 14.8899 13.1181 15.1101 13.1458 15.3278C13.19 15.6744 13.356 16.0614 13.8399 16.6639C14.338 17.2842 15.0742 18.0163 16.1475 19.08L18.7919 21.701C19.2332 22.1383 19.2364 22.8506 18.799 23.2919C18.3617 23.7332 17.6494 23.7364 17.2081 23.299L14.516 20.6308C13.502 19.6259 12.6733 18.8046 12.0856 18.0728C11.4744 17.3118 11.032 16.5394 10.9139 15.6122C10.862 15.2057 10.862 14.7943 10.9139 14.3878C11.032 13.4606 11.4744 12.6882 12.0856 11.9272C12.6733 11.1954 13.502 10.3741 14.516 9.36916L17.2081 6.70096Z" fill="white"/>
</svg>
