<svg width="17" height="21" viewBox="0 0 17 21" fill="none" xmlns="http://www.w3.org/2000/svg">
<path fill-rule="evenodd" clip-rule="evenodd" d="M11.2808 18.7005C13.5905 15.7551 16.5 11.4759 16.5 8.6087C16.5 3.85424 12.9183 0 8.5 0C4.08172 0 0.5 3.85424 0.5 8.6087C0.5 11.4759 3.40945 15.7551 5.71921 18.7005C6.92425 20.2371 7.52677 21.0055 8.5 21.0055C9.47323 21.0055 10.0758 20.2371 11.2808 18.7005ZM8.5 12C6.84315 12 5.5 10.6569 5.5 9C5.5 7.34315 6.84315 6 8.5 6C10.1569 6 11.5 7.34315 11.5 9C11.5 10.6569 10.1569 12 8.5 12Z" fill="white"/>
</svg>
