<svg width="52" height="52" viewBox="0 0 52 52" fill="none" xmlns="http://www.w3.org/2000/svg">
<g clip-path="url(#clip0_522_3694)">
<path d="M24.6987 28.088V21.3281L18.8444 17.9482L12.9902 21.3281V28.088L18.8444 31.4679L24.6987 28.088Z" fill="#3B8739"/>
<path d="M47.7542 27.0623L51.5692 29.2654L47.7542 31.4685L41.9004 28.0885V21.3285L47.7542 17.9485L51.3018 19.9977C51.662 21.5197 51.8833 23.0712 51.963 24.6331L49.7938 25.8854V23.5306L47.7542 22.3537L45.7145 23.5306V25.8854L47.7542 27.0623Z" fill="#333333"/>
<path d="M48.892 25.3643V24.0521L47.7556 23.396L46.6191 24.0521V25.3643L47.7556 26.0205L48.892 25.3643Z" fill="#66A060"/>
<path d="M10.2259 21.3286V30.2428L6.32166 28.0154V23.4458L4.37227 22.3197L2.42277 23.4457V28.0153L0.205868 29.2803C0.0685236 28.1923 -0.000234636 27.0967 6.01546e-07 26.0001C6.01546e-07 23.9646 0.233493 21.9834 0.676001 20.0826L4.37227 17.9485L10.2259 21.3286Z" fill="#333333"/>
<path d="M18.8457 17.9478L24.6998 28.0874L18.8457 31.4672L12.9916 21.3276L18.8457 17.9478Z" fill="#6DA75D"/>
<path d="M12.9902 28.088L15.0004 24.81L12.9902 21.3281V28.088Z" fill="#55A344"/>
<path d="M22.7483 24.7078L24.7 21.3281L18.8457 17.9482L22.7483 24.7078Z" fill="#639D57"/>
<path d="M35.1959 10.1135V19.0819L33.2337 17.9485L27.3789 21.3285V28.0885L33.2337 31.4685L39.0874 28.0885V12.1967L35.1959 10.1135ZM35.1852 25.8345L33.2336 26.9615L31.282 25.8345V23.5815L33.2336 22.4545L35.1852 23.5815V25.8345Z" fill="#333333"/>
<path d="M28.6561 36.4322C28.6561 36.4322 28.5412 35.4441 27.4842 35.4441C26.4271 35.4441 25.7034 35.5819 25.7034 36.168C25.7034 36.754 27.76 36.754 28.5414 36.9837C29.3227 37.2135 30.012 37.8109 29.6673 38.868C29.3226 39.9251 28.2655 40.0399 26.634 40.0399C25.0025 40.0399 24.6348 38.6841 24.6348 38.1556H25.5539C25.5539 38.1556 25.4389 38.9829 26.519 39.1207C27.599 39.2585 28.6317 39.3361 28.7709 38.5003C28.9547 37.3973 25.2781 37.9489 24.9563 36.8688C24.6845 35.9563 24.8413 34.7548 26.6797 34.5709C28.5181 34.387 29.5292 35.1987 29.5292 36.4093L28.6561 36.4322Z" fill="#66A060"/>
<path d="M19.7774 40.74L21.8095 41.9131C22.8305 42.5026 24.1068 41.7657 24.1068 40.5868V34.7475H23.2785V40.3565C23.2785 41.0003 22.5816 41.4028 22.0239 41.0807L20.6056 40.2619V34.2758L25.7896 31.2831L30.9737 34.2758V40.2619L25.7896 43.2547L24.2963 42.3925L23.3211 42.7857L25.7895 44.211L31.8018 40.7397V33.7978L25.7896 30.3267L19.7773 33.798V40.74H19.7774Z" fill="#66A060"/>
</g>
<defs>
<clipPath id="clip0_522_3694">
<rect width="52" height="52" fill="white"/>
</clipPath>
</defs>
</svg>
