<svg width="100" height="100" viewBox="0 0 100 100" fill="none" xmlns="http://www.w3.org/2000/svg">
<path d="M49.9784 0.028288C63.2784 0.558045 82.9836 -1.51221 91.517 8.07334C101.303 16.3283 99.9171 36.239 99.949 50.0058C99.9171 63.8453 101.303 68.9194 91.5227 78.7534C82.9892 87.2613 63.2829 100.515 49.9841 99.9845C36.3106 99.8518 29.1117 88.6316 19.4783 80.2145C10.7866 70.7923 -0.333927 64.1709 0.0076832 50.0058C-0.333927 36.5736 10.7855 18.1966 19.4726 9.53443C29.106 -0.137332 36.3049 -0.107838 49.9784 0.028288Z" fill="#192736"/>
<path d="M33.1689 67.698C32.0621 67.698 30.9802 68.0262 30.0599 68.6411C29.1397 69.256 28.4224 70.13 27.9989 71.1525C27.5753 72.1751 27.4645 73.3003 27.6804 74.3858C27.8963 75.4713 28.4293 76.4684 29.2119 77.2511C29.9946 78.0337 30.9917 78.5667 32.0772 78.7826C33.1627 78.9985 34.2879 78.8877 35.3104 78.4641C36.333 78.0406 37.207 77.3233 37.8219 76.4031C38.4368 75.4828 38.765 74.4009 38.765 73.2941C38.7633 71.8104 38.1732 70.388 37.1241 69.3389C36.075 68.2898 34.6526 67.6997 33.1689 67.698ZM73.4555 46.5433C73.1906 46.2617 72.87 46.0385 72.5141 45.8878C72.1581 45.7371 71.7747 45.6623 71.3882 45.6682H60.4453V55.4182H81.6315L73.4555 46.5433ZM38.2246 45.6572C40.4543 45.6572 42.6339 44.9961 44.4878 43.7573C46.3417 42.5186 47.7866 40.7579 48.6399 38.698C49.4932 36.638 49.7164 34.3713 49.2814 32.1845C48.8464 29.9976 47.7728 27.9889 46.1961 26.4123C44.6195 24.8357 42.6108 23.762 40.4239 23.327C38.2371 22.892 35.9704 23.1152 33.9105 23.9685C31.8505 24.8218 30.0898 26.2667 28.8511 28.1206C27.6123 29.9745 26.9512 32.1541 26.9512 34.3838C26.9546 37.3727 28.1434 40.2381 30.2568 42.3516C32.3703 44.465 35.2357 45.6538 38.2246 45.6572ZM37.2891 26.4807C37.2891 26.2382 37.3854 26.0057 37.5568 25.8343C37.7282 25.6629 37.9607 25.5666 38.2031 25.5666C38.4456 25.5666 38.6781 25.6629 38.8495 25.8343C39.0209 26.0057 39.1172 26.2382 39.1172 26.4807V33.9875L42.9063 37.5251C42.9939 37.6065 43.0646 37.7044 43.1144 37.8132C43.1642 37.922 43.1921 38.0395 43.1965 38.159C43.2009 38.2785 43.1817 38.3978 43.14 38.5099C43.0983 38.622 43.0349 38.7248 42.9535 38.8124C42.8721 38.9001 42.7742 38.9708 42.6654 39.0206C42.5567 39.0704 42.4392 39.0983 42.3196 39.1026C42.2001 39.107 42.0809 39.0878 41.9688 39.0461C41.8566 39.0044 41.7538 38.9411 41.6662 38.8597L37.5884 35.0511C37.4957 34.9661 37.4214 34.863 37.3699 34.7483C37.3185 34.6336 37.2909 34.5095 37.2891 34.3838V26.4807Z" fill="white"/>
<path d="M55.7709 35.7656H51.259C50.5931 42.3164 45.0016 47.5432 38.2243 47.5432C31.447 47.5432 25.8557 42.3164 25.1898 35.7656H22.009C20.4616 35.7656 19.1602 36.9664 19.1602 38.5136V69.5738C19.1602 71.121 20.4616 72.3281 22.009 72.3281H25.8023C26.025 70.5315 26.8967 68.8782 28.2533 67.6794C29.6098 66.4806 31.3578 65.8189 33.1682 65.8189C34.9785 65.8189 36.7265 66.4806 38.0831 67.6794C39.4396 68.8782 40.3113 70.5315 40.534 72.3281H58.6172V38.5136C58.6172 36.9664 57.3181 35.7656 55.7709 35.7656ZM60.4453 72.3281H63.1858C63.4082 70.5313 64.2798 68.8777 65.6364 67.6787C66.993 66.4797 68.7411 65.8178 70.5516 65.8178C72.3622 65.8178 74.1103 66.4797 75.4669 67.6787C76.8235 68.8777 77.695 70.5313 77.9175 72.3281H79.991C81.5382 72.3281 82.8398 71.121 82.8398 69.5738V57.2461H60.4453V72.3281Z" fill="white"/>
<path d="M70.5511 78.8903C73.6417 78.8903 76.1472 76.3849 76.1472 73.2943C76.1472 70.2037 73.6417 67.6982 70.5511 67.6982C67.4605 67.6982 64.9551 70.2037 64.9551 73.2943C64.9551 76.3849 67.4605 78.8903 70.5511 78.8903Z" fill="white"/>
</svg>
