<svg width="21" height="20" viewBox="0 0 21 20" fill="none" xmlns="http://www.w3.org/2000/svg">
<path d="M6.61183 0.97505C5.55974 0.00831676 3.94259 0.00831676 2.8905 0.97505C2.84741 1.01464 2.80142 1.06065 2.74169 1.12039L1.84419 2.01788C0.941081 2.921 0.561962 4.22292 0.839024 5.4697C2.41099 12.5436 7.93553 18.0681 15.0094 19.6401C16.2562 19.9171 17.5581 19.538 18.4612 18.6349L19.3586 17.7375C19.4184 17.6777 19.4644 17.6317 19.504 17.5886C20.4708 16.5365 20.4708 14.9193 19.504 13.8673C19.4644 13.8241 19.4184 13.7781 19.3586 13.7184L17.8894 12.2491C16.8693 11.229 15.3287 10.9372 14.0063 11.5137C13.2492 11.8437 12.3672 11.6767 11.7832 11.0927L9.38639 8.69589C8.80239 8.11188 8.63536 7.22994 8.96538 6.47283C9.54184 5.15037 9.25009 3.60984 8.22999 2.58974L6.76066 1.12041C6.70093 1.06066 6.65492 1.01464 6.61183 0.97505Z" fill="white"/>
</svg>
