<svg width="52" height="52" viewBox="0 0 52 52" fill="none" xmlns="http://www.w3.org/2000/svg">
<path d="M25.9896 21.6665C23.5965 21.6665 21.6562 23.6068 21.6562 25.9998C21.6562 28.3929 23.5965 30.3332 25.9896 30.3332C28.3831 30.3332 30.3229 28.3929 30.3229 25.9998C30.3204 23.6076 28.3818 21.6694 25.9896 21.6665ZM25.9896 28.5998C24.5537 28.5998 23.3896 27.4357 23.3896 25.9998C23.3896 24.564 24.5537 23.3998 25.9896 23.3998C27.4259 23.3998 28.5896 24.564 28.5896 25.9998C28.5896 27.4357 27.4259 28.5998 25.9896 28.5998Z" fill="#62DAFB"/>
<path d="M41.0691 26C42.3716 24.8988 43.6095 23.7234 44.7766 22.4796C48.4832 18.4704 49.7739 15.1916 48.5087 13C46.6885 9.85151 40.5749 10.4355 33.5324 12.9387C32.176 5.58848 29.6239 0 25.9888 0C22.3542 0 19.8019 5.58848 18.449 12.9394C11.4066 10.4364 5.2904 9.85238 3.47279 13C2.20745 15.1916 3.49824 18.4704 7.20487 22.4796C8.37092 23.7231 9.60757 24.8986 10.9087 26C9.6062 27.1012 8.36835 28.2766 7.20129 29.5204C3.49738 33.5296 2.20669 36.8084 3.47192 39C4.33859 40.5027 6.18578 41.1553 8.64527 41.1553C12.0049 40.9907 15.3157 40.283 18.449 39.0597C19.802 46.4115 22.3541 52 25.9888 52C29.6239 52 32.176 46.4115 33.529 39.0606C36.6622 40.2832 39.9726 40.9906 43.3319 41.1553C45.7905 41.1553 47.6373 40.5018 48.5052 39C49.7706 36.8084 48.4798 33.5296 44.7731 29.5204C43.6071 28.2769 42.3704 27.1014 41.0693 26H41.0691ZM47.0076 13.8667C47.8188 15.2725 46.5091 18.0527 43.5046 21.3027C42.3147 22.5688 41.05 23.7623 39.7171 24.8769C38.117 23.5899 36.3744 22.3142 34.504 21.078C34.3682 18.8838 34.14 16.7222 33.8243 14.6648C40.8089 12.1575 45.9013 11.9598 47.0046 13.8667H47.0076ZM29.4555 32.0045C28.2803 32.6816 27.125 33.3116 25.9888 33.8952C24.8542 33.3129 23.6986 32.6824 22.5221 32.0045C21.3619 31.3341 20.242 30.6401 19.1511 29.9364C19.0876 28.666 19.0555 27.3537 19.0555 26C19.0555 24.6463 19.0876 23.3339 19.1511 22.0636C20.242 21.3599 21.3618 20.6659 22.5221 19.9955C23.6965 19.318 24.8522 18.6879 25.9888 18.1056C27.1593 18.7078 28.3152 19.3379 29.4555 19.9955C30.6162 20.6659 31.7359 21.3599 32.8269 22.0636C32.8904 23.334 32.9222 24.6463 32.9222 26C32.9222 27.3537 32.8904 28.6661 32.8269 29.9364C31.736 30.6401 30.6161 31.3341 29.4555 32.0045ZM32.691 32.0814C32.5645 33.7116 32.3893 35.2587 32.171 36.7119C30.8033 36.172 29.375 35.5498 27.899 34.8436C28.7137 34.4102 29.5232 33.9654 30.3196 33.5063C31.118 33.0447 31.9086 32.5697 32.691 32.0815V32.0814ZM24.0764 34.8402C22.603 35.5456 21.1722 36.1685 19.8045 36.7085C19.5887 35.2553 19.4134 33.7081 19.2845 32.078C20.0668 32.5649 20.8564 33.0399 21.653 33.5029C22.4524 33.9655 23.2614 34.4069 24.0764 34.8402ZM17.3716 28.7497C16.0526 27.8468 14.8072 26.9302 13.6346 26C14.8042 25.0716 16.0496 24.1537 17.3716 23.2468C17.3403 24.1651 17.3221 25.0847 17.3221 26C17.3221 26.9153 17.3403 27.8349 17.3716 28.7532V28.7497ZM19.287 19.9151C19.4135 18.2859 19.5887 16.7397 19.807 15.2872C21.173 15.8264 22.5996 16.4493 24.0735 17.1538C23.2609 17.5855 22.4557 18.0311 21.6584 18.4903C20.8598 18.9528 20.0692 19.4289 19.287 19.9185V19.9151ZM27.9037 17.1598C29.3768 16.4544 30.8067 15.8324 32.1735 15.2923C32.3893 16.7455 32.5646 18.2926 32.6935 19.9227C31.911 19.4332 31.1205 18.9568 30.3221 18.4937C29.5265 18.0346 28.7182 17.5931 27.9037 17.1598ZM34.6064 23.251C35.9254 24.1532 37.1708 25.07 38.3434 26C37.1738 26.928 35.9284 27.846 34.6064 28.7532C34.6373 27.8349 34.6555 26.9153 34.6555 26C34.6555 25.0847 34.6373 24.1651 34.6064 23.2468V23.251ZM25.9888 1.73333C28.1948 1.73333 30.5685 6.24607 31.8867 13.5501C29.9472 14.3051 27.9599 15.1891 25.9934 16.1696C24.0228 15.1891 22.0342 14.3051 20.0999 13.5501C21.4096 6.24693 23.7831 1.73333 25.9888 1.73333ZM8.47649 21.3027C5.47154 18.0527 4.16222 15.2725 4.97342 13.8667C5.46309 13.0191 6.73676 12.5866 8.6132 12.5866C11.8858 12.7589 15.1088 13.4613 18.1563 14.6665C17.8405 16.7205 17.6129 18.8813 17.4766 21.0746C15.6061 22.3107 13.8635 23.588 12.2635 24.8736C10.9308 23.7601 9.66625 22.5677 8.47649 21.3027ZM4.97342 38.1333C4.16222 36.7275 5.47154 33.9473 8.47649 30.6973C9.66608 29.4311 10.9307 28.2376 12.2635 27.1231C13.8636 28.4101 15.6061 29.6858 17.4765 30.922C17.6129 33.1161 17.8405 35.2778 18.1562 37.3352C11.1691 39.8425 6.07658 40.0402 4.97342 38.1333ZM25.9888 50.2667C23.7831 50.2667 21.4104 45.7539 20.0957 38.4507C22.0342 37.6957 24.0228 36.8117 25.9934 35.8317C27.9642 36.8118 29.9523 37.6958 31.8909 38.4507C30.5676 45.7539 28.1947 50.2667 25.9888 50.2667ZM47.0046 38.1333C45.9023 40.0402 40.8063 39.8425 33.8218 37.3327C34.1375 35.2777 34.3651 33.1161 34.5014 30.919C36.3719 29.6833 38.1145 28.4058 39.7145 27.1206C41.0474 28.2349 42.312 29.4285 43.5015 30.6947C46.5066 33.9472 47.8159 36.7275 47.0046 38.1333Z" fill="#62DAFB"/>
</svg>
