<svg width="182" height="182" viewBox="0 0 182 182" fill="none" xmlns="http://www.w3.org/2000/svg">
<g clip-path="url(#clip0_519_3438)">
<path d="M121.278 152.033H43.2914C31.9046 152.033 22.6738 142.802 22.6738 131.416V38.4667C22.6738 27.08 31.9046 17.8492 43.2914 17.8492H121.278C132.665 17.8492 141.896 27.08 141.896 38.4667V131.416C141.896 142.802 132.665 152.033 121.278 152.033Z" fill="#F9F6F9"/>
<path d="M53.097 152.034H43.2939C31.9032 152.034 22.6738 142.805 22.6738 131.414V38.4667C22.6738 27.08 31.9032 17.8506 43.2939 17.8506H53.097C41.7102 17.8506 32.4809 27.08 32.4809 38.4667V131.414C32.4809 142.805 41.7102 152.034 53.097 152.034Z" fill="#8BBC3A"/>
<path d="M99.807 13.7282C97.0404 6.75821 90.241 1.82715 82.286 1.82715C74.3306 1.82715 67.5312 6.75821 64.7645 13.7282H58.1251C51.0015 13.7282 45.2266 19.5032 45.2266 26.6268C45.2266 33.7504 51.0015 39.5253 58.1251 39.5253H106.446C113.57 39.5253 119.345 33.7504 119.345 26.6268C119.345 19.5032 113.57 13.7282 106.446 13.7282H99.807Z" fill="#8BBC3A"/>
<path d="M88.4313 2.85551C83.2329 4.64316 79.0722 8.64325 77.0524 13.7275H70.4122C63.2886 13.7275 57.513 19.5032 57.513 26.6268C57.513 30.1864 58.959 33.4123 61.2927 35.7463C63.6267 38.0842 66.8483 39.526 70.4122 39.526H58.1258C54.5661 39.526 51.3403 38.0839 49.0063 35.7463C46.6683 33.4123 45.2266 30.1864 45.2266 26.6268C45.2266 19.5032 51.0026 13.7275 58.1258 13.7275H64.7621C67.5322 6.75713 74.3295 1.82607 82.286 1.82607C84.3776 1.82315 86.4548 2.17112 88.4313 2.85551Z" fill="#BCCAD9"/>
<path d="M82.2845 28.3881C86.5439 28.3881 89.9968 24.9352 89.9968 20.6759C89.9968 16.4165 86.5439 12.9636 82.2845 12.9636C78.0252 12.9636 74.5723 16.4165 74.5723 20.6759C74.5723 24.9352 78.0252 28.3881 82.2845 28.3881Z" fill="#407093"/>
<path d="M22.6743 91.0434C35.1969 91.0434 45.3486 80.8918 45.3486 68.3691C45.3486 55.8464 35.1969 45.6948 22.6743 45.6948C10.1516 45.6948 0 55.8464 0 68.3691C0 80.8918 10.1516 91.0434 22.6743 91.0434Z" fill="#8BBC3A"/>
<path d="M28.569 90.2685C26.6471 90.7852 24.6655 91.0461 22.6754 91.0444C10.1522 91.0444 0 80.8926 0 68.3691C0 55.8459 10.1518 45.6937 22.6754 45.6937C24.6655 45.6919 26.6472 45.9528 28.569 46.4697C18.9017 49.0597 11.7838 57.8821 11.7838 68.3691C11.7838 78.8561 18.9017 87.6785 28.569 90.2685Z" fill="#8BBC3A"/>
<path d="M23.3771 82.9949C23.0218 82.9949 22.6699 82.925 22.3417 82.789C22.0134 82.6531 21.7151 82.4538 21.4639 82.2026C21.2127 81.9513 21.0134 81.653 20.8774 81.3248C20.7415 80.9965 20.6715 80.6447 20.6716 80.2894V59.3843H18.3305C17.6129 59.3843 16.9248 59.0992 16.4174 58.5919C15.91 58.0845 15.625 57.3963 15.625 56.6788C15.625 55.9613 15.91 55.2731 16.4174 54.7657C16.9248 54.2584 17.6129 53.9733 18.3305 53.9733H23.3771C23.7324 53.9733 24.0842 54.0432 24.4125 54.1792C24.7407 54.3151 25.039 54.5144 25.2902 54.7656C25.5415 55.0169 25.7407 55.3151 25.8767 55.6434C26.0126 55.9717 26.0826 56.3235 26.0825 56.6788V80.2897C26.0824 81.0072 25.7974 81.6953 25.29 82.2026C24.7826 82.7099 24.0945 82.9949 23.3771 82.9949Z" fill="white"/>
<path d="M67.4165 135.608C79.9391 135.608 90.0908 125.457 90.0908 112.934C90.0908 100.411 79.9391 90.2596 67.4165 90.2596C54.8938 90.2596 44.7422 100.411 44.7422 112.934C44.7422 125.457 54.8938 135.608 67.4165 135.608Z" fill="#8BBC3A"/>
<path d="M73.3112 134.834C71.3893 135.35 69.4077 135.611 67.4175 135.61C54.8944 135.61 44.7422 125.457 44.7422 112.934C44.7422 100.411 54.894 90.2589 67.4175 90.2589C69.4077 90.257 71.3894 90.5179 73.3112 91.0348C63.6439 93.6248 56.526 102.447 56.526 112.934C56.5263 123.421 63.6439 132.244 73.3112 134.834Z" fill="#8BBC3A"/>
<path d="M66.309 127.682C61.7207 127.682 61.3741 127.566 61.0133 127.446C60.1218 127.148 59.4549 126.473 59.184 125.592C58.7233 124.094 59.4012 123.206 60.8864 121.261C62.0854 119.692 64.3166 116.77 68.0562 111.427C69.1308 109.891 69.8243 108.524 70.1182 107.362L70.1911 106.792C70.1136 105.02 68.6487 103.603 66.8582 103.603C65.2675 103.603 63.8908 104.733 63.5851 106.29C63.4465 106.994 63.0341 107.614 62.4384 108.014C61.8428 108.414 61.1127 108.561 60.4086 108.423C60.06 108.355 59.7282 108.218 59.4323 108.021C59.1364 107.825 58.8821 107.572 58.684 107.277C58.4859 106.982 58.3479 106.651 58.2778 106.302C58.2077 105.954 58.2069 105.595 58.2755 105.247C59.0785 101.159 62.6882 98.1919 66.8586 98.1919C72.1953 98.1354 76.532 103.201 75.4197 108.463C74.9871 110.33 74.0014 112.37 72.4903 114.53C70.04 118.031 68.224 120.513 66.9148 122.264C68.9978 122.26 71.5046 122.24 73.8674 122.211C75.3646 122.189 76.5881 123.388 76.607 124.882C76.6258 126.376 75.4297 127.603 73.9356 127.621C70.5669 127.664 68.1109 127.682 66.309 127.682Z" fill="white"/>
<path d="M112.157 180.173C124.679 180.173 134.831 170.022 134.831 157.499C134.831 144.976 124.679 134.825 112.157 134.825C99.6341 134.825 89.4824 144.976 89.4824 157.499C89.4824 170.022 99.6341 180.173 112.157 180.173Z" fill="#8BBC3A"/>
<path d="M118.051 179.398C116.13 179.915 114.148 180.176 112.158 180.174C99.6346 180.174 89.4824 170.022 89.4824 157.499C89.4824 144.976 99.6343 134.824 112.158 134.824C114.148 134.822 116.13 135.083 118.051 135.6C108.384 138.19 101.266 147.012 101.266 157.499C101.266 167.986 108.384 176.808 118.051 179.398Z" fill="#8BBC3A"/>
<path d="M112.294 172.631C107.955 172.631 104.231 169.394 103.631 165.101C103.575 164.698 103.547 164.291 103.547 163.884C103.543 163.526 103.61 163.171 103.744 162.839C103.878 162.507 104.077 162.205 104.328 161.951C104.58 161.696 104.88 161.494 105.21 161.356C105.54 161.218 105.895 161.147 106.253 161.147C106.611 161.147 106.965 161.218 107.295 161.356C107.626 161.494 107.925 161.696 108.177 161.951C108.429 162.205 108.627 162.507 108.761 162.839C108.896 163.171 108.962 163.526 108.958 163.884C108.958 164.041 108.969 164.199 108.991 164.353C109.219 165.987 110.639 167.22 112.294 167.22C114.133 167.22 115.63 165.723 115.63 163.884C115.63 162.044 114.134 160.547 112.294 160.547C111.936 160.552 111.581 160.485 111.249 160.351C110.917 160.216 110.615 160.018 110.361 159.766C110.106 159.514 109.904 159.215 109.766 158.884C109.628 158.554 109.557 158.2 109.557 157.842C109.557 157.484 109.628 157.13 109.766 156.799C109.904 156.469 110.106 156.169 110.361 155.918C110.615 155.666 110.917 155.467 111.249 155.333C111.581 155.199 111.936 155.132 112.294 155.136C114.133 155.136 115.63 153.64 115.63 151.8C115.63 149.961 114.134 148.464 112.294 148.464C110.703 148.464 109.327 149.594 109.021 151.15C108.871 151.843 108.456 152.45 107.864 152.84C107.271 153.23 106.55 153.372 105.854 153.235C105.158 153.099 104.544 152.694 104.143 152.109C103.742 151.524 103.587 150.806 103.711 150.107C104.514 146.019 108.123 143.053 112.294 143.053C117.117 143.053 121.041 146.977 121.041 151.8C121.041 154.141 120.117 156.27 118.614 157.842C120.117 159.413 121.041 161.542 121.041 163.883C121.042 168.708 117.118 172.631 112.294 172.631Z" fill="white"/>
<path d="M102.983 64.2364H60.9304C60.2129 64.2364 59.5248 63.9514 59.0174 63.444C58.51 62.9367 58.225 62.2485 58.225 61.531C58.225 60.8134 58.51 60.1253 59.0174 59.6179C59.5248 59.1105 60.2129 58.8255 60.9304 58.8255H102.983C103.7 58.8255 104.388 59.1105 104.896 59.6179C105.403 60.1253 105.688 60.8134 105.688 61.531C105.688 62.2485 105.403 62.9367 104.896 63.444C104.388 63.9514 103.7 64.2364 102.983 64.2364ZM88.9911 77.9131H60.9301C60.2125 77.9131 59.5244 77.6281 59.017 77.1207C58.5097 76.6133 58.2246 75.9252 58.2246 75.2076C58.2246 74.4901 58.5097 73.8019 59.017 73.2946C59.5244 72.7872 60.2125 72.5022 60.9301 72.5022H88.9911C89.3464 72.5021 89.6983 72.5721 90.0265 72.708C90.3548 72.844 90.6531 73.0432 90.9043 73.2945C91.1555 73.5457 91.3548 73.844 91.4908 74.1722C91.6267 74.5005 91.6967 74.8523 91.6966 75.2076C91.6967 75.5629 91.6267 75.9148 91.4908 76.243C91.3548 76.5713 91.1555 76.8696 90.9043 77.1208C90.6531 77.372 90.3548 77.5713 90.0265 77.7073C89.6983 77.8432 89.3464 77.9132 88.9911 77.9131Z" fill="#BCCAD9"/>
<path d="M132.043 108.801H98.2915C97.9336 108.805 97.5784 108.738 97.2466 108.604C96.9147 108.47 96.6128 108.271 96.3582 108.02C96.1037 107.768 95.9016 107.468 95.7636 107.138C95.6257 106.808 95.5547 106.453 95.5547 106.096C95.5547 105.738 95.6257 105.383 95.7636 105.053C95.9016 104.723 96.1037 104.423 96.3582 104.171C96.6128 103.92 96.9147 103.721 97.2466 103.587C97.5784 103.453 97.9336 103.386 98.2915 103.39H132.043C132.401 103.386 132.756 103.453 133.088 103.587C133.42 103.721 133.722 103.92 133.976 104.171C134.231 104.423 134.433 104.723 134.571 105.053C134.709 105.383 134.78 105.738 134.78 106.096C134.78 106.453 134.709 106.808 134.571 107.138C134.433 107.468 134.231 107.768 133.976 108.02C133.722 108.271 133.42 108.47 133.088 108.604C132.756 108.738 132.401 108.805 132.043 108.801ZM118.052 122.478H98.2915C97.9336 122.482 97.5784 122.415 97.2466 122.281C96.9147 122.147 96.6128 121.948 96.3582 121.697C96.1037 121.445 95.9016 121.145 95.7636 120.815C95.6257 120.485 95.5547 120.13 95.5547 119.773C95.5547 119.415 95.6257 119.06 95.7636 118.73C95.9016 118.4 96.1037 118.1 96.3582 117.848C96.6128 117.597 96.9147 117.398 97.2466 117.264C97.5784 117.13 97.9336 117.063 98.2915 117.067H118.052C118.41 117.063 118.765 117.13 119.097 117.264C119.429 117.398 119.73 117.597 119.985 117.848C120.24 118.1 120.442 118.4 120.58 118.73C120.718 119.06 120.789 119.415 120.789 119.773C120.789 120.13 120.718 120.485 120.58 120.815C120.442 121.145 120.24 121.445 119.985 121.697C119.73 121.948 119.429 122.147 119.097 122.281C118.765 122.415 118.41 122.482 118.052 122.478Z" fill="#BCCAD9"/>
<path d="M179.294 153.366H147.629C147.272 153.37 146.916 153.303 146.584 153.169C146.253 153.035 145.951 152.836 145.696 152.585C145.442 152.333 145.239 152.033 145.102 151.703C144.964 151.373 144.893 151.018 144.893 150.66C144.893 150.302 144.964 149.948 145.102 149.618C145.239 149.287 145.442 148.988 145.696 148.736C145.951 148.484 146.253 148.286 146.584 148.152C146.916 148.017 147.272 147.951 147.629 147.955H179.294C179.652 147.951 180.007 148.017 180.339 148.152C180.671 148.286 180.973 148.484 181.227 148.736C181.482 148.988 181.684 149.287 181.822 149.618C181.96 149.948 182.031 150.302 182.031 150.66C182.031 151.018 181.96 151.373 181.822 151.703C181.684 152.033 181.482 152.333 181.227 152.585C180.973 152.836 180.671 153.035 180.339 153.169C180.007 153.303 179.652 153.37 179.294 153.366ZM165.303 167.043H147.629C147.272 167.047 146.916 166.98 146.584 166.846C146.253 166.712 145.951 166.513 145.696 166.262C145.442 166.01 145.239 165.71 145.102 165.38C144.964 165.05 144.893 164.695 144.893 164.337C144.893 163.979 144.964 163.625 145.102 163.295C145.239 162.964 145.442 162.665 145.696 162.413C145.951 162.161 146.253 161.963 146.584 161.829C146.916 161.695 147.272 161.628 147.629 161.632H165.303C165.658 161.632 166.01 161.702 166.338 161.838C166.666 161.973 166.965 162.173 167.216 162.424C167.467 162.675 167.666 162.973 167.802 163.302C167.938 163.63 168.008 163.982 168.008 164.337C168.008 164.692 167.938 165.044 167.802 165.373C167.666 165.701 167.467 165.999 167.216 166.251C166.965 166.502 166.666 166.701 166.338 166.837C166.01 166.973 165.658 167.043 165.303 167.043Z" fill="#BCCAD9"/>
</g>
<defs>
<clipPath id="clip0_519_3438">
<rect width="182" height="182" fill="white"/>
</clipPath>
</defs>
</svg>
