<svg width="30" height="30" viewBox="0 0 30 30" fill="none" xmlns="http://www.w3.org/2000/svg">
<path fill-rule="evenodd" clip-rule="evenodd" d="M30 15C30 6.71573 23.2843 1.01779e-06 15 6.55671e-07C6.71573 2.93554e-07 1.01779e-06 6.71573 6.55671e-07 15C2.93554e-07 23.2843 6.71573 30 15 30C23.2843 30 30 23.2843 30 15ZM12.7919 6.70096C12.3506 6.26359 11.6383 6.26677 11.201 6.70806C10.7636 7.14936 10.7668 7.86166 11.2081 8.29904L13.8525 10.92C14.9258 11.9837 15.662 12.7158 16.1601 13.3361C16.644 13.9386 16.81 14.3256 16.8542 14.6722C16.8819 14.8899 16.8819 15.1101 16.8542 15.3278C16.81 15.6744 16.644 16.0614 16.1601 16.6639C15.662 17.2842 14.9258 18.0163 13.8525 19.08L11.2081 21.701C10.7668 22.1383 10.7636 22.8506 11.201 23.2919C11.6383 23.7332 12.3506 23.7364 12.7919 23.299L15.484 20.6308C16.498 19.6259 17.3267 18.8046 17.9144 18.0728C18.5256 17.3118 18.968 16.5394 19.0861 15.6122C19.138 15.2057 19.138 14.7943 19.0861 14.3878C18.968 13.4606 18.5256 12.6882 17.9144 11.9272C17.3267 11.1954 16.498 10.3741 15.484 9.36916L12.7919 6.70096Z" fill="white"/>
</svg>
