<svg width="100" height="100" viewBox="0 0 100 100" fill="none" xmlns="http://www.w3.org/2000/svg">
<path d="M49.9784 0.028288C63.2784 0.558045 82.9836 -1.51221 91.517 8.07334C101.303 16.3283 99.9171 36.239 99.949 50.0058C99.9171 63.8453 101.303 68.9194 91.5227 78.7534C82.9892 87.2613 63.2829 100.515 49.9841 99.9845C36.3106 99.8518 29.1117 88.6316 19.4783 80.2145C10.7866 70.7923 -0.333927 64.1709 0.0076832 50.0058C-0.333927 36.5736 10.7855 18.1966 19.4726 9.53443C29.106 -0.137332 36.3049 -0.107838 49.9784 0.028288Z" fill="#192736"/>
<path d="M77.8125 26.625C64.26 26.625 52.6331 17.5088 52.5113 17.4113C52.0809 17.0712 51.5485 16.8862 51 16.8862C50.4515 16.8862 49.9191 17.0712 49.4888 17.4113C49.3669 17.5088 37.7887 26.625 24.1875 26.625C23.541 26.625 22.921 26.8818 22.4639 27.3389C22.0068 27.7961 21.75 28.416 21.75 29.0625V51C21.75 67.3556 28.3556 75.375 50.0006 84.9056C50.3149 85.0469 50.6555 85.1199 51 85.1199C51.3445 85.1199 51.6851 85.0469 51.9994 84.9056C73.6444 75.375 80.25 67.3556 80.25 51V29.0625C80.25 28.416 79.9932 27.7961 79.5361 27.3389C79.079 26.8818 78.459 26.625 77.8125 26.625ZM51 70.5C47.1433 70.5 43.3731 69.3564 40.1664 67.2137C36.9596 65.071 34.4603 62.0255 32.9843 58.4623C31.5084 54.8992 31.1223 50.9784 31.8747 47.1958C32.6271 43.4131 34.4843 39.9386 37.2114 37.2114C39.9385 34.4843 43.4131 32.6271 47.1957 31.8747C50.9784 31.1223 54.8992 31.5085 58.4623 32.9844C62.0255 34.4603 65.071 36.9596 67.2137 40.1664C69.3563 43.3732 70.5 47.1433 70.5 51C70.5 56.1717 68.4455 61.1316 64.7886 64.7886C61.1316 68.4456 56.1717 70.5 51 70.5Z" fill="white"/>
<path d="M56.5821 44.3943L48.5627 52.4381L45.4183 49.2693C45.1911 49.0421 44.9213 48.8618 44.6243 48.7388C44.3274 48.6158 44.0091 48.5525 43.6877 48.5525C43.3663 48.5525 43.048 48.6158 42.7511 48.7388C42.4542 48.8618 42.1844 49.0421 41.9571 49.2693C41.7298 49.4966 41.5495 49.7664 41.4265 50.0634C41.3035 50.3603 41.2402 50.6786 41.2402 51C41.2402 51.3214 41.3035 51.6396 41.4265 51.9366C41.5495 52.2335 41.7298 52.5033 41.9571 52.7306L46.8321 57.6056C47.0587 57.834 47.3283 58.0154 47.6253 58.1391C47.9223 58.2629 48.2409 58.3266 48.5627 58.3266C48.8845 58.3266 49.2031 58.2629 49.5001 58.1391C49.7971 58.0154 50.0667 57.834 50.2933 57.6056L60.0433 47.8556C60.2706 47.6283 60.4509 47.3585 60.5739 47.0616C60.6969 46.7646 60.7602 46.4464 60.7602 46.125C60.7602 45.8036 60.6969 45.4853 60.5739 45.1884C60.4509 44.8914 60.2706 44.6216 60.0433 44.3943C59.8161 44.1671 59.5463 43.9868 59.2493 43.8638C58.9524 43.7408 58.6341 43.6775 58.3127 43.6775C57.9913 43.6775 57.673 43.7408 57.3761 43.8638C57.0792 43.9868 56.8094 44.1671 56.5821 44.3943Z" fill="white"/>
</svg>
