<svg width="47" height="52" viewBox="0 0 47 52" fill="none" xmlns="http://www.w3.org/2000/svg">
<g clip-path="url(#clip0_522_3793)">
<path d="M40.8004 10.1266C40.7826 10.0156 40.7273 9.91367 40.6434 9.83713C40.5596 9.7606 40.452 9.71389 40.3379 9.70448C40.1457 9.68887 36.074 9.39229 36.074 9.39229C36.074 9.39229 33.2462 6.63684 32.9357 6.33143C32.7686 6.22035 32.5772 6.14944 32.3769 6.12444C32.1767 6.09945 31.9733 6.12107 31.7831 6.18755L30.2005 6.66738C29.2554 3.99744 27.5884 1.54536 24.6575 1.54536C24.5766 1.54536 24.493 1.54536 24.41 1.5535C24.1038 1.10223 23.695 0.726975 23.2158 0.457372C22.7365 0.187769 22.2 0.0311924 21.6485 0C14.8168 0 11.5541 8.38377 10.5287 12.6439C7.87371 13.4515 5.98825 14.025 5.74695 14.0996C4.26527 14.5557 4.21825 14.6019 4.02397 15.9721C3.87739 17.0098 0 46.445 0 46.445L30.2143 52.0014L46.5847 48.5251C46.5847 48.5251 40.8364 10.3866 40.8004 10.1266ZM28.5294 7.173L25.9712 7.94941C25.9712 7.77295 25.9712 7.59853 25.9712 7.40647C25.9996 6.0319 25.7933 4.66236 25.3607 3.35473C26.8763 3.5434 27.8829 5.23061 28.5294 7.173ZM23.4891 3.68525C24.0017 5.13643 24.2361 6.66826 24.1805 8.20324C24.1805 8.30572 24.1805 8.39938 24.1805 8.49371L18.9009 10.0988C19.9173 6.24727 21.8235 4.38701 23.4891 3.68525ZM21.4605 1.79919C21.7759 1.80581 22.0816 1.90719 22.3365 2.08966C20.1475 3.1009 17.8002 5.64732 16.8094 10.7374L12.6361 12.0059C13.797 8.12383 16.5536 1.79919 21.4605 1.79919Z" fill="#95BF46"/>
<path d="M40.3388 9.70171C40.1466 9.6861 36.0749 9.38951 36.0749 9.38951C36.0749 9.38951 33.2471 6.63406 32.9367 6.32865C32.8162 6.21929 32.6634 6.15037 32.5004 6.13184L30.2188 51.9986L46.585 48.5224C46.585 48.5224 40.838 10.3845 40.8021 10.1232C40.7842 10.0121 40.7289 9.91021 40.6451 9.83368C40.5612 9.75715 40.4536 9.71044 40.3395 9.70103" fill="#5E8E3E"/>
<path d="M24.6563 18.5816L22.6381 24.4753C21.4114 23.8861 20.0674 23.5698 18.7019 23.5489C15.5215 23.5489 15.3638 25.5069 15.3638 26.0003C15.3638 28.692 22.5122 29.7236 22.5122 36.0285C22.5122 40.989 19.3069 44.1836 14.9849 44.1836C13.5255 44.2209 12.0743 43.9583 10.7244 43.4126C9.37454 42.8669 8.15581 42.0502 7.14648 41.0148L8.53482 36.5111C8.53482 36.5111 11.261 38.8084 13.5613 38.8084C13.8365 38.8199 14.1112 38.7763 14.3687 38.6802C14.6261 38.5841 14.8609 38.4376 15.0588 38.2495C15.2566 38.0614 15.4133 37.8357 15.5194 37.5861C15.6255 37.3366 15.6786 37.0685 15.6756 36.7981C15.6756 33.2866 9.81115 33.1333 9.81115 27.3604C9.81115 22.5044 13.3622 17.8045 20.5279 17.8045C21.947 17.7332 23.3626 17.9996 24.6542 18.5809" fill="white"/>
</g>
<defs>
<clipPath id="clip0_522_3793">
<rect width="46.5833" height="52" fill="white"/>
</clipPath>
</defs>
</svg>
