<svg width="133" height="140" viewBox="0 0 133 140" fill="none" xmlns="http://www.w3.org/2000/svg">
<path d="M66.0675 0.0375368C83.6491 0.740499 109.698 -2.00662 120.978 10.7129C133.915 21.6668 132.083 48.0873 132.125 66.3553C132.083 84.7196 133.915 91.4527 120.986 104.502C109.705 115.791 83.6551 133.379 66.075 132.675C47.9997 132.498 38.4834 117.61 25.7488 106.441C14.2591 93.9379 -0.441425 85.1516 0.0101566 66.3553C-0.441425 48.5314 14.2576 24.146 25.7413 12.6517C38.4759 -0.182233 47.9922 -0.143096 66.0675 0.0375368Z" fill="#F0F3F7"/>
<path d="M87.6459 105.063H39.9219C38.1959 105.063 36.7969 103.663 36.7969 101.938V41.1631C36.7969 39.4372 38.1959 38.0381 39.9219 38.0381H87.6459C89.3719 38.0381 90.7709 39.4372 90.7709 41.1631V101.938C90.7709 103.663 89.3719 105.063 87.6459 105.063Z" fill="#8BBC3A"/>
<path d="M41.6621 97.9959V45.105C41.6621 44.6077 41.8597 44.1308 42.2113 43.7792C42.5629 43.4275 43.0398 43.23 43.5371 43.23H84.0305C84.5278 43.23 85.0047 43.4275 85.3564 43.7792C85.708 44.1308 85.9055 44.6077 85.9055 45.105V97.9959C85.9055 98.4932 85.708 98.9701 85.3564 99.3217C85.0047 99.6734 84.5278 99.8709 84.0305 99.8709H43.5371C43.0398 99.8709 42.5629 99.6734 42.2113 99.3217C41.8597 98.9701 41.6621 98.4932 41.6621 97.9959Z" fill="#F0F3F7"/>
<path d="M53.0766 57.5015H48.5841C48.2267 57.5015 47.8839 57.3595 47.6311 57.1068C47.3783 56.854 47.2363 56.5112 47.2363 56.1537V51.6612C47.2363 51.3038 47.3783 50.9609 47.6311 50.7082C47.8839 50.4554 48.2267 50.3134 48.5841 50.3134H53.0766C53.2536 50.3134 53.4289 50.3483 53.5924 50.416C53.756 50.4837 53.9045 50.583 54.0297 50.7082C54.1548 50.8333 54.2541 50.9819 54.3219 51.1454C54.3896 51.309 54.4245 51.4842 54.4245 51.6612V56.1537C54.4245 56.3307 54.3897 56.506 54.3219 56.6696C54.2542 56.8331 54.1549 56.9817 54.0298 57.1069C53.9046 57.232 53.756 57.3313 53.5925 57.399C53.4289 57.4667 53.2536 57.5016 53.0766 57.5015ZM59.516 55.2553H78.9838C79.3413 55.2553 79.6841 55.1133 79.9369 54.8605C80.1896 54.6078 80.3316 54.2649 80.3316 53.9075C80.3316 53.55 80.1896 53.2072 79.9369 52.9544C79.6841 52.7017 79.3413 52.5597 78.9838 52.5597H59.516C59.1586 52.5597 58.8157 52.7017 58.563 52.9544C58.3102 53.2072 58.1682 53.55 58.1682 53.9075C58.1682 54.2649 58.3102 54.6078 58.563 54.8605C58.8157 55.1133 59.1586 55.2553 59.516 55.2553ZM53.0766 70.2365H48.5841C48.2267 70.2365 47.8839 70.0945 47.6311 69.8418C47.3783 69.589 47.2363 69.2462 47.2363 68.8887V64.3962C47.2363 64.0388 47.3783 63.6959 47.6311 63.4432C47.8839 63.1904 48.2267 63.0484 48.5841 63.0484H53.0766C53.2536 63.0484 53.4289 63.0833 53.5924 63.151C53.756 63.2187 53.9045 63.318 54.0297 63.4432C54.1548 63.5683 54.2541 63.7169 54.3219 63.8804C54.3896 64.044 54.4245 64.2192 54.4245 64.3962V68.8887C54.4245 69.0657 54.3896 69.241 54.3219 69.4045C54.2541 69.568 54.1548 69.7166 54.0297 69.8418C53.9045 69.9669 53.756 70.0662 53.5924 70.1339C53.4289 70.2017 53.2536 70.2365 53.0766 70.2365ZM59.516 67.9903H78.9838C79.3413 67.9903 79.6841 67.8483 79.9369 67.5955C80.1896 67.3428 80.3316 66.9999 80.3316 66.6425C80.3316 66.285 80.1896 65.9422 79.9369 65.6894C79.6841 65.4367 79.3413 65.2947 78.9838 65.2947H59.516C59.1586 65.2947 58.8157 65.4367 58.563 65.6894C58.3102 65.9422 58.1682 66.285 58.1682 66.6425C58.1682 66.9999 58.3102 67.3428 58.563 67.5955C58.8157 67.8483 59.1586 67.9903 59.516 67.9903ZM53.0766 82.9712H48.5841C48.2267 82.9712 47.8839 82.8292 47.6311 82.5765C47.3783 82.3237 47.2363 81.9809 47.2363 81.6234V77.1309C47.2363 76.7735 47.3783 76.4306 47.6311 76.1779C47.8839 75.9251 48.2267 75.7831 48.5841 75.7831H53.0766C53.2536 75.7831 53.4289 75.818 53.5924 75.8857C53.756 75.9534 53.9045 76.0527 54.0297 76.1779C54.1548 76.303 54.2541 76.4516 54.3219 76.6151C54.3896 76.7787 54.4245 76.9539 54.4245 77.1309V81.6234C54.4245 81.8004 54.3896 81.9757 54.3219 82.1392C54.2541 82.3027 54.1548 82.4513 54.0297 82.5765C53.9045 82.7016 53.756 82.8009 53.5924 82.8686C53.4289 82.9364 53.2536 82.9712 53.0766 82.9712ZM59.516 80.725H78.9838C79.3413 80.725 79.6841 80.583 79.9369 80.3302C80.1896 80.0774 80.3316 79.7346 80.3316 79.3772C80.3316 79.0197 80.1896 78.6769 79.9369 78.4241C79.6841 78.1714 79.3413 78.0294 78.9838 78.0294H59.516C59.1586 78.0294 58.8157 78.1714 58.563 78.4241C58.3102 78.6769 58.1682 79.0197 58.1682 79.3772C58.1682 79.7346 58.3102 80.0774 58.563 80.3302C58.8157 80.583 59.1586 80.725 59.516 80.725ZM53.0766 95.7059H48.5841C48.2267 95.7059 47.8839 95.5639 47.6311 95.3111C47.3783 95.0584 47.2363 94.7156 47.2363 94.3581V89.8656C47.2363 89.5081 47.3783 89.1653 47.6311 88.9126C47.8839 88.6598 48.2267 88.5178 48.5841 88.5178H53.0766C53.2536 88.5178 53.4289 88.5527 53.5924 88.6204C53.756 88.6881 53.9045 88.7874 54.0297 88.9126C54.1548 89.0377 54.2541 89.1863 54.3219 89.3498C54.3896 89.5133 54.4245 89.6886 54.4245 89.8656V94.3581C54.4245 94.5351 54.3896 94.7104 54.3219 94.8739C54.2541 95.0374 54.1548 95.186 54.0297 95.3111C53.9045 95.4363 53.756 95.5356 53.5924 95.6033C53.4289 95.6711 53.2536 95.7059 53.0766 95.7059ZM59.516 93.4597H78.9838C79.3413 93.4597 79.6841 93.3177 79.9369 93.0649C80.1896 92.8121 80.3316 92.4693 80.3316 92.1119C80.3316 91.7544 80.1896 91.4116 79.9369 91.1588C79.6841 90.906 79.3413 90.764 78.9838 90.764H59.516C59.1586 90.764 58.8157 90.906 58.563 91.1588C58.3102 91.4116 58.1682 91.7544 58.1682 92.1119C58.1682 92.4693 58.3102 92.8121 58.563 93.0649C58.8157 93.3177 59.1586 93.4597 59.516 93.4597Z" fill="#8BBC3A"/>
<path d="M87.6456 105.688H39.9219C37.8541 105.688 36.1719 104.005 36.1719 101.938V41.1631C36.1719 39.0953 37.8541 37.4131 39.9219 37.4131H87.6459C89.7138 37.4131 91.3959 39.0953 91.3959 41.1631V101.938C91.3956 104.005 89.7138 105.688 87.6456 105.688ZM39.9219 38.6631C38.5434 38.6631 37.4219 39.7847 37.4219 41.1631V101.938C37.4219 103.316 38.5434 104.438 39.9219 104.438H87.6459C89.0244 104.438 90.1459 103.316 90.1459 101.938V41.1631C90.1459 39.7847 89.0244 38.6631 87.6459 38.6631H39.9219Z" fill="#8BBC3A"/>
<path d="M84.0302 100.496H43.5371C42.1587 100.496 41.0371 99.3744 41.0371 97.9959V45.105C41.0371 43.7265 42.1587 42.605 43.5371 42.605H84.0302C85.4087 42.605 86.5302 43.7265 86.5302 45.105V97.9959C86.5302 99.3744 85.4087 100.496 84.0302 100.496ZM43.5371 43.855C42.8477 43.855 42.2871 44.4156 42.2871 45.105V97.9959C42.2871 98.6853 42.8477 99.2459 43.5371 99.2459H84.0302C84.7196 99.2459 85.2802 98.6853 85.2802 97.9959V45.105C85.2802 44.4156 84.7196 43.855 84.0302 43.855H43.5371Z" fill="#8BBC3A"/>
<path d="M77.9659 34.49H71.5962V31.9375C71.5962 29.1762 69.3578 26.9375 66.5963 26.9375H60.9712C58.2097 26.9375 55.9712 29.1762 55.9712 31.9375V34.49H49.6016C49.27 34.49 48.9521 34.6217 48.7177 34.8561C48.4833 35.0905 48.3516 35.4085 48.3516 35.74V44.3372C48.3516 44.6687 48.4833 44.9867 48.7177 45.2211C48.9521 45.4555 49.27 45.5872 49.6016 45.5872H77.9659C78.2975 45.5872 78.6154 45.4555 78.8498 45.2211C79.0842 44.9867 79.2159 44.6687 79.2159 44.3372V35.74C79.2159 35.4085 79.0842 35.0905 78.8498 34.8561C78.6154 34.6217 78.2975 34.49 77.9659 34.49Z" fill="#8BBC3A"/>
<path d="M77.9659 46.2122H49.6016C48.5675 46.2122 47.7266 45.3713 47.7266 44.3372V35.74C47.7266 34.7059 48.5675 33.865 49.6016 33.865H55.3462V31.9375C55.3462 28.8359 57.8697 26.3125 60.9712 26.3125H66.5963C69.6978 26.3125 72.2212 28.8359 72.2212 31.9375V33.865H77.9659C79 33.865 79.8409 34.7059 79.8409 35.74V44.3372C79.8409 45.3709 78.9997 46.2122 77.9659 46.2122ZM49.6016 35.115C49.2569 35.115 48.9766 35.3953 48.9766 35.74V44.3372C48.9766 44.6819 49.2569 44.9622 49.6016 44.9622H77.9659C78.3106 44.9622 78.5909 44.6819 78.5909 44.3372V35.74C78.5909 35.3953 78.3106 35.115 77.9659 35.115H71.5962C71.4305 35.115 71.2715 35.0492 71.1543 34.9319C71.0371 34.8147 70.9712 34.6558 70.9712 34.49V31.9375C70.9712 29.525 69.0087 27.5625 66.5963 27.5625H60.9712C58.5588 27.5625 56.5962 29.525 56.5962 31.9375V34.49C56.5962 34.6558 56.5304 34.8147 56.4132 34.9319C56.296 35.0492 56.137 35.115 55.9712 35.115H49.6016Z" fill="#8BBC3A"/>
<path d="M104.635 60.2822H86.3201C85.6383 60.2822 84.9845 60.553 84.5024 61.0351C84.0203 61.5172 83.7494 62.171 83.7494 62.8528V68.8819L78.9332 71.754C78.4363 72.0506 78.4363 72.77 78.9332 73.0665L83.7494 75.939V81.1675C83.7494 81.8492 84.0203 82.5031 84.5024 82.9852C84.9845 83.4673 85.6383 83.7381 86.3201 83.7381H104.635C105.317 83.7381 105.97 83.4673 106.452 82.9852C106.935 82.5031 107.205 81.8492 107.205 81.1675V62.8528C107.205 62.171 106.934 61.5172 106.452 61.0352C105.97 60.5531 105.317 60.2822 104.635 60.2822Z" fill="#F0F3F7"/>
<path d="M104.635 84.3631H86.3203C84.5581 84.3631 83.1246 82.9297 83.1246 81.1675V76.2937L78.6131 73.6034C78.4058 73.4811 78.2342 73.3067 78.1153 73.0975C77.9965 72.8882 77.9345 72.6515 77.9356 72.4109C77.9356 71.9168 78.1887 71.4706 78.6128 71.2178L83.1246 68.5272V62.8531C83.1246 61.0909 84.5581 59.6575 86.3203 59.6575H104.635C106.397 59.6575 107.831 61.0909 107.831 62.8531V81.1678C107.83 82.9297 106.397 84.3631 104.635 84.3631ZM86.3199 60.9072C85.8041 60.9077 85.3096 61.1129 84.9448 61.4777C84.5801 61.8424 84.3749 62.3369 84.3743 62.8528V68.8818C84.3743 68.9901 84.3462 69.0965 84.2927 69.1906C84.2393 69.2847 84.1623 69.3633 84.0693 69.4187L79.2531 72.2909C79.1971 72.324 79.1853 72.3747 79.1853 72.4106C79.1853 72.4465 79.1971 72.4965 79.2531 72.53L84.0693 75.4022C84.2584 75.515 84.3743 75.719 84.3743 75.939V81.1675C84.3749 81.6833 84.5801 82.1778 84.9448 82.5426C85.3096 82.9073 85.8041 83.1125 86.3199 83.1131H104.635C105.15 83.1125 105.645 82.9073 106.01 82.5426C106.375 82.1778 106.58 81.6833 106.58 81.1675V62.8528C106.58 62.3369 106.375 61.8424 106.01 61.4777C105.645 61.1129 105.15 60.9077 104.635 60.9072H86.3199Z" fill="#8BBC3A"/>
<path d="M95.4763 72.8369C97.8751 72.8369 99.8197 70.8923 99.8197 68.4935C99.8197 66.0946 97.8751 64.15 95.4763 64.15C93.0774 64.15 91.1328 66.0946 91.1328 68.4935C91.1328 70.8923 93.0774 72.8369 95.4763 72.8369Z" fill="#F0F3F7"/>
<path d="M100.931 79.8703H90.0215V78.2919C90.0215 75.2794 92.4637 72.8369 95.4765 72.8369C98.489 72.8369 100.931 75.279 100.931 78.2919V79.8703H100.931Z" fill="#F0F3F7"/>
<path d="M95.4763 73.4619C92.7366 73.4619 90.5078 71.2328 90.5078 68.4935C90.5078 65.7541 92.7369 63.5253 95.4763 63.5253C98.2156 63.5253 100.445 65.7541 100.445 68.4935C100.445 71.2328 98.2159 73.4619 95.4763 73.4619ZM95.4763 64.775C93.4256 64.775 91.7578 66.4431 91.7578 68.4931C91.7578 70.5438 93.4259 72.2116 95.4763 72.2116C97.5266 72.2116 99.1947 70.5435 99.1947 68.4931C99.1947 66.4431 97.5269 64.775 95.4763 64.775Z" fill="#8BBC3A"/>
<path d="M100.931 80.4953H90.0215C89.8557 80.4953 89.6968 80.4294 89.5795 80.3122C89.4623 80.195 89.3965 80.036 89.3965 79.8703V78.2919C89.3965 74.939 92.124 72.2119 95.4762 72.2119C98.829 72.2119 101.556 74.9394 101.556 78.2919V79.8703C101.556 80.036 101.49 80.195 101.373 80.3122C101.256 80.4294 101.097 80.4953 100.931 80.4953ZM90.6465 79.2453H100.306V78.2919C100.306 75.6287 98.1393 73.4619 95.4762 73.4619C92.8134 73.4619 90.6465 75.6287 90.6465 78.2919V79.2453Z" fill="#8BBC3A"/>
<rect x="85.9062" y="111.918" width="19.5641" height="1.50527" transform="rotate(40 85.9062 111.918)" fill="#8BBC3A"/>
<rect x="79.5098" y="124.231" width="22.5765" height="1.50527" transform="rotate(40 79.5098 124.231)" fill="#8BBC3A"/>
</svg>
