<svg width="182" height="182" viewBox="0 0 182 182" fill="none" xmlns="http://www.w3.org/2000/svg">
<path d="M101.44 35.1567H41.7846C39.7175 35.22 37.7562 36.0856 36.3164 37.5702C34.8765 39.0548 34.0713 41.0416 34.0713 43.1098C34.0713 45.1779 34.8765 47.1647 36.3164 48.6493C37.7562 50.1339 39.7175 50.9995 41.7846 51.0628H101.44C103.549 51.0628 105.572 50.2249 107.063 48.7334C108.555 47.2419 109.393 45.219 109.393 43.1098C109.393 41.0005 108.555 38.9776 107.063 37.4861C105.572 35.9946 103.549 35.1567 101.44 35.1567ZM109.393 72.9373C109.393 68.5438 105.837 64.9843 101.436 64.9843H41.7846C39.7047 65.0293 37.7251 65.8872 36.27 67.3741C34.8148 68.861 34 70.8587 34 72.9392C34 75.0196 34.8148 77.0173 36.27 78.5043C37.7251 79.9912 39.7047 80.8491 41.7846 80.8941H101.44C102.484 80.8941 103.519 80.6882 104.484 80.2883C105.449 79.8884 106.326 79.3023 107.065 78.5634C107.803 77.8245 108.389 76.9473 108.788 75.982C109.188 75.0166 109.393 73.982 109.393 72.9373ZM71.6159 110.722C73.7257 110.722 75.749 109.884 77.2409 108.392C78.7327 106.9 79.5708 104.877 79.5708 102.767C79.5708 100.657 78.7327 98.6336 77.2409 97.1418C75.749 95.65 73.7257 94.8119 71.6159 94.8119H41.7846C39.7047 94.8569 37.7251 95.7147 36.27 97.2017C34.8148 98.6886 34 100.686 34 102.767C34 104.847 34.8148 106.845 36.27 108.332C37.7251 109.819 39.7047 110.677 41.7846 110.722H71.6159Z" fill="#8BBC3A"/>
<path d="M131.658 137.779L123.314 143.286V163.087H19.9098V19.9098H123.314V51.3421L139.224 23.7857V11.953C139.224 7.5595 135.661 4 131.267 4H11.953C7.5595 4 4 7.56322 4 11.953V171.047C4 175.441 7.5595 179 11.953 179H131.267C132.312 179 133.347 178.795 134.312 178.396C135.278 177.996 136.155 177.411 136.894 176.672C137.634 175.934 138.22 175.057 138.62 174.092C139.021 173.126 139.227 172.092 139.227 171.047V127.205L135.426 133.78C134.496 135.387 133.207 136.756 131.658 137.779Z" fill="#8BBC3A"/>
<path d="M178.695 40.8386C178.531 40.1237 176.852 33.6973 166.732 27.8516C156.612 22.0097 150.208 23.7672 149.5 23.9868C148.551 24.2868 147.749 24.931 147.251 25.7926L97.5375 111.898C97.2281 112.435 97.0472 113.037 97.0088 113.656L95.1471 144.727C95.1033 145.464 95.2649 146.198 95.614 146.848C95.9631 147.498 96.4859 148.039 97.1242 148.409C98.4348 149.161 100.047 149.109 101.305 148.286L127.283 131.137C127.801 130.802 128.229 130.344 128.538 129.811L178.255 43.6907C178.754 42.8269 178.907 41.8141 178.695 40.8386ZM111.329 134.521C109.93 133.405 108.447 132.398 106.894 131.509C105.346 130.609 103.731 129.827 102.065 129.171L102.62 119.855C104.694 120.127 107.769 120.968 111.675 123.217C115.577 125.47 117.837 127.719 119.118 129.376L111.329 134.521ZM59.4553 147.475C59.7159 149.072 61.559 149.567 62.7914 150.081C63.9829 150.584 65.4052 149.63 66.3956 149.15C72.4646 146.198 80.6857 149.668 87.1866 149.668C91.0328 149.668 91.0328 143.703 87.1866 143.703C79.606 143.703 73.2986 141.785 65.785 143.025C65.785 142.59 65.6249 142.001 65.1557 141.201C63.752 138.799 61.9648 138.118 60.1739 138.408C60.0548 138.125 59.9393 137.842 59.7718 137.556C59.5719 137.218 59.3025 136.927 58.9816 136.701C58.6607 136.475 58.2955 136.319 57.9101 136.245C60.0064 132.581 61.3579 128.705 59.984 125.57C59.5633 124.617 58.3681 124.129 57.4075 124.092C53.4235 123.943 50.0055 128.125 47.4439 130.634C41.036 136.915 35.3915 144.045 29.9293 151.142C27.5836 154.192 32.7702 157.155 35.0787 154.158C39.919 147.873 45.046 141.771 50.564 136.063C49.2377 138.244 47.828 140.375 46.338 142.448C44.2157 145.728 49.2832 148.521 51.4874 145.46C51.995 144.713 52.6485 144.076 53.4086 143.588L52.9656 144.69L52.9879 144.697C52.8725 144.935 52.757 145.174 52.664 145.401C51.331 148.741 56.3091 150.271 58.1186 147.694C58.5766 147.046 59.0011 146.354 59.3846 145.628C59.3585 146.127 59.3473 146.797 59.4553 147.475Z" fill="#8BBC3A"/>
</svg>
