<svg width="182" height="182" viewBox="0 0 182 182" fill="none" xmlns="http://www.w3.org/2000/svg">
<g clip-path="url(#clip0_522_3667)">
<path d="M24.5678 116.622C24.0655 117.623 23.8912 118.758 24.0697 119.864C24.2481 120.97 24.7702 121.992 25.562 122.785L26.8659 124.089C30.6331 119.625 35.0239 114.78 40.3488 109.457C40.7249 109.08 41.1123 108.899 41.4899 108.551L33.1019 100.162C28.2252 108.982 25.3814 115.008 24.5678 116.622ZM70.5107 139.619C65.1733 144.956 60.3407 149.355 55.902 153.125L57.6679 154.891C58.4662 155.69 59.4977 156.215 60.6136 156.39C61.7294 156.564 62.8719 156.38 63.8762 155.863C66.6382 154.44 70.9813 152.396 80.2015 147.261L71.4178 138.478C71.0705 138.856 70.8882 139.242 70.5107 139.619ZM67.6684 112.306C63.8151 108.453 52.979 111.907 47.8887 116.997C30.8592 134.026 23.1683 146.099 19.7149 153.228C19.2319 154.224 19.0714 155.347 19.2555 156.439C19.4396 157.53 19.9592 158.538 20.7422 159.321C21.5264 160.105 22.5354 160.625 23.6289 160.809C24.7224 160.993 25.8461 160.832 26.8438 160.348C33.8128 156.964 45.7391 149.309 62.9708 132.079C68.568 126.479 71.33 115.969 67.6726 112.31L67.6684 112.306ZM14.6424 70.9907L-0.438394 86.0725C-1.26835 86.9024 -1.80125 87.983 -1.95441 89.1466C-2.10757 90.3103 -1.87243 91.4919 -1.28548 92.5083C-0.106742 94.5718 2.36199 95.6229 4.71128 94.9937C12.8622 92.8083 20.0341 91.8848 24.8635 93.1236C31.734 80.9083 39.1171 69.6641 46.936 59.4501C42.4134 56.5505 27.4684 58.1654 14.6424 70.9914V70.9907ZM88.2511 181.428C89.2521 181.934 90.3873 182.11 91.4947 181.932C92.6021 181.755 93.625 181.232 94.4174 180.438L109.5 165.357C121.176 153.678 123.231 138.609 120.582 133.831C109.19 142.417 97.65 149.666 86.8832 155.736C87.6261 159.93 87.132 164 85.3753 175.886C85.2096 176.995 85.3985 178.128 85.9149 179.123C86.4313 180.119 87.249 180.925 88.2511 181.428ZM103.858 53.4871C97.6223 59.7245 97.6223 69.8706 103.858 76.1077C110.096 82.3451 120.243 82.3451 126.48 76.1077C132.717 69.8703 132.718 59.7241 126.48 53.4871C120.243 47.25 110.096 47.2497 103.858 53.4871H103.858ZM179.685 5.20163C179.494 2.56476 177.394 0.480645 174.766 0.28336C161.67 -0.702711 148.626 0.908274 135.84 4.81843C136.803 13.6021 141.346 23.1084 149.103 30.8647C156.952 38.7127 166.716 43.2549 175.657 44.1045C179.101 32.0367 180.734 19.1122 179.685 5.20163Z" fill="#8BBC3A"/>
<path d="M141.564 38.406C132.691 29.5331 127.273 18.8915 125.534 8.52991C93.5158 21.6616 62.8651 50.3377 38.6445 90.6222L50.6775 102.656C58.8995 99.3177 68.88 98.4358 75.2105 104.765C81.5493 111.105 80.651 121.082 77.3142 129.292L89.7432 141.721C120.738 123.041 156.824 93.6106 172.169 54.4547C161.555 52.8512 150.581 47.4235 141.564 38.406ZM134.021 83.649C123.628 94.0425 106.714 94.0425 96.3193 83.649C85.9247 73.2544 85.9247 56.339 96.3193 45.9458C106.714 35.5526 123.628 35.5526 134.021 45.9458C144.416 56.3405 144.416 73.2544 134.021 83.649Z" fill="#8BBC3A"/>
</g>
<defs>
<clipPath id="clip0_522_3667">
<rect width="182" height="182" fill="white"/>
</clipPath>
</defs>
</svg>
