<svg width="182" height="182" viewBox="0 0 182 182" fill="none" xmlns="http://www.w3.org/2000/svg">
<g clip-path="url(#clip0_522_3674)">
<path d="M109.364 165.374C109.364 159.084 104.264 153.984 97.9736 153.984H84.0264C81.0056 153.984 78.1085 155.184 75.9725 157.32C73.8365 159.456 72.6365 162.353 72.6365 165.374C72.6365 171.665 77.736 176.764 84.0264 176.764H97.9736C104.264 176.764 109.364 171.665 109.364 165.374ZM23.9447 136.004C25.8472 136.15 28.1489 136.233 30.4608 136.098C31.91 143.446 35.8649 150.063 41.6503 154.819C47.4357 159.575 54.6928 162.175 62.1821 162.175H66.5281C66.142 164.29 66.1411 166.458 66.5253 168.573H62.1821C52.9782 168.573 44.075 165.296 37.0682 159.328C30.0614 153.359 25.409 145.091 23.9447 136.004ZM20.6901 129.196C14.9054 128.221 9.65339 125.228 5.8658 120.748C2.07821 116.268 2.88652e-05 110.592 0 104.726L0 89.6029C-6.75214e-10 83.0214 2.61448 76.7094 7.26831 72.0555C11.9221 67.4016 18.2341 64.787 24.8156 64.7869H26.4675C29.1079 31.4596 56.9916 5.2356 91 5.2356C125.008 5.2356 152.892 31.4596 155.533 64.7869H157.184C163.766 64.787 170.078 67.4016 174.732 72.0555C179.386 76.7094 182 83.0214 182 89.6029V104.726C182 111.307 179.386 117.619 174.732 122.273C170.078 126.927 163.766 129.541 157.184 129.542H149.861C146.824 129.542 144.362 127.079 144.362 124.042V69.9729C144.362 40.5017 120.471 16.6106 91 16.6106C61.5288 16.6106 37.6377 40.5017 37.6377 69.9729V124.042C37.6377 126.187 36.4103 128.045 34.6195 128.952C29.6898 130.662 22.0448 129.425 20.6901 129.196Z" fill="#8BBC3A"/>
</g>
<defs>
<clipPath id="clip0_522_3674">
<rect width="182" height="182" fill="white"/>
</clipPath>
</defs>
</svg>
