<svg width="133" height="140" viewBox="0 0 133 140" fill="none" xmlns="http://www.w3.org/2000/svg">
<path d="M66.0675 0.0375368C83.6491 0.740499 109.698 -2.00662 120.978 10.7129C133.915 21.6668 132.083 48.0873 132.125 66.3553C132.083 84.7196 133.915 91.4527 120.986 104.502C109.705 115.791 83.6551 133.379 66.075 132.675C47.9997 132.498 38.4834 117.61 25.7488 106.441C14.2591 93.9379 -0.441425 85.1516 0.0101566 66.3553C-0.441425 48.5314 14.2576 24.146 25.7413 12.6517C38.4759 -0.182233 47.9922 -0.143096 66.0675 0.0375368Z" fill="#F0F3F7"/>
<path fill-rule="evenodd" clip-rule="evenodd" d="M67.3515 49.3145L65.5178 56.1581L70.8137 50.8622C72.1148 51.2428 73.5054 51.4494 74.9511 51.4494C82.2183 51.4494 88.1095 46.2423 88.1095 39.8191C88.1095 33.3958 82.2183 28.1889 74.9511 28.1889C67.6839 28.1889 61.7926 33.3959 61.7926 39.8192C61.7926 43.7402 63.9879 47.2078 67.3514 49.3147L67.3515 49.3145ZM68.8786 34.1805H80.8429C81.133 34.1805 81.4112 34.2957 81.6163 34.5008C81.8215 34.7059 81.9367 34.9841 81.9367 35.2742C81.9367 35.5643 81.8215 35.8425 81.6163 36.0476C81.4112 36.2527 81.133 36.368 80.8429 36.368H68.8786C68.5885 36.368 68.3103 36.2527 68.1052 36.0476C67.9001 35.8425 67.7848 35.5643 67.7848 35.2742C67.7848 34.9841 67.9001 34.7059 68.1052 34.5008C68.3103 34.2957 68.5885 34.1805 68.8786 34.1805ZM68.8786 38.7255H80.8429C81.133 38.7255 81.4112 38.8407 81.6163 39.0458C81.8215 39.2509 81.9367 39.5291 81.9367 39.8192C81.9367 40.1093 81.8215 40.3875 81.6163 40.5926C81.4112 40.7977 81.133 40.913 80.8429 40.913H68.8786C68.5885 40.913 68.3103 40.7977 68.1052 40.5926C67.9001 40.3875 67.7848 40.1093 67.7848 39.8192C67.7848 39.5291 67.9001 39.2509 68.1052 39.0458C68.3103 38.8407 68.5885 38.7255 68.8786 38.7255ZM68.8786 43.2705H80.8429C81.133 43.2705 81.4112 43.3857 81.6163 43.5908C81.8215 43.7959 81.9367 44.0741 81.9367 44.3642C81.9367 44.6543 81.8215 44.9325 81.6163 45.1376C81.4112 45.3427 81.133 45.458 80.8429 45.458H68.8786C68.5885 45.458 68.3103 45.3427 68.1052 45.1376C67.9001 44.9325 67.7848 44.6543 67.7848 44.3642C67.7848 44.0741 67.9001 43.7959 68.1052 43.5908C68.3103 43.3857 68.5885 43.2705 68.8786 43.2705ZM89.205 34.6875C89.9239 36.3075 90.2968 38.0464 90.2968 39.8194C90.2968 41.5923 89.9237 43.3314 89.2048 44.9514C88.3337 46.9145 87.0333 48.5767 85.4542 49.9052C87.3845 50.8877 89.6234 51.4497 92.0107 51.4497C93.4562 51.4497 94.847 51.2431 96.1481 50.8625L101.444 56.1584L99.6103 49.3148C102.974 47.208 105.169 43.7405 105.169 39.8194C105.169 33.3961 99.2778 28.1891 92.0106 28.1891C89.6231 28.1891 87.3843 28.7511 85.454 29.7336C87.0333 31.0622 88.3336 32.7242 89.2047 34.6875H89.205ZM101.902 38.7256H102.322C102.612 38.7256 102.891 38.8409 103.096 39.046C103.301 39.2511 103.416 39.5293 103.416 39.8194C103.416 40.1095 103.301 40.3877 103.096 40.5928C102.891 40.7979 102.612 40.9131 102.322 40.9131H101.902C101.612 40.9131 101.334 40.7979 101.128 40.5928C100.923 40.3877 100.808 40.1095 100.808 39.8194C100.808 39.5293 100.923 39.2511 101.128 39.046C101.334 38.8409 101.612 38.7256 101.902 38.7256ZM97.2068 38.7256H97.6273C97.9174 38.7256 98.1956 38.8409 98.4007 39.046C98.6058 39.2511 98.7211 39.5293 98.7211 39.8194C98.7211 40.1095 98.6058 40.3877 98.4007 40.5928C98.1956 40.7979 97.9174 40.9131 97.6273 40.9131H97.2068C96.9168 40.9131 96.6386 40.7979 96.4334 40.5928C96.2283 40.3877 96.1131 40.1095 96.1131 39.8194C96.1131 39.5293 96.2283 39.2511 96.4334 39.046C96.6386 38.8409 96.9168 38.7256 97.2068 38.7256ZM92.5118 38.7256H92.9323C93.2224 38.7256 93.5006 38.8409 93.7057 39.046C93.9108 39.2511 94.0261 39.5293 94.0261 39.8194C94.0261 40.1095 93.9108 40.3877 93.7057 40.5928C93.5006 40.7979 93.2224 40.9131 92.9323 40.9131H92.5118C92.2218 40.9131 91.9436 40.7979 91.7384 40.5928C91.5333 40.3877 91.4181 40.1095 91.4181 39.8194C91.4181 39.5293 91.5333 39.2511 91.7384 39.046C91.9436 38.8409 92.2218 38.7256 92.5118 38.7256ZM109.733 103.811H68.7767C69.7209 93.3301 78.5279 85.1162 89.255 85.1162C99.982 85.1162 108.789 93.3301 109.733 103.811H109.733ZM89.255 65.4631C94.649 65.4631 99.0484 69.8625 99.0484 75.2566C99.0484 80.6506 94.649 85.05 89.255 85.05C83.8609 85.05 79.4615 80.6506 79.4615 75.2566C79.4615 69.8625 83.8609 65.4631 89.255 65.4631ZM41.4787 62.8206C40.044 60.6523 39.2706 57.8537 39.3579 55.1409C39.4204 53.2069 40.1834 46.8942 47.3576 46.8942C54.5318 46.8942 55.2942 53.207 55.3575 55.1409C55.4456 57.8537 54.6722 60.6523 53.2359 62.8206C52.177 64.4225 50.2987 66.3694 47.3576 66.5878C44.4175 66.3694 42.5392 64.4226 41.4787 62.8206ZM47.5197 68.7691C48.5445 68.693 49.5018 68.4536 50.3873 68.0781C50.5976 68.8616 51.027 69.5606 51.6739 70.1723C49.7187 71.0595 47.6845 71.0942 46.5158 71.0128C45.0984 70.9127 43.8828 70.5895 43.0017 70.21C43.6706 69.5887 44.1136 68.8773 44.3286 68.0783C45.214 68.4536 46.1714 68.693 47.1958 68.7691L47.3578 68.7811L47.5197 68.7691ZM43.0001 90.9851L34.8739 80.1333C34.4082 79.1641 34.2049 78.0897 34.2844 77.0174C34.3638 75.9451 34.7232 74.9123 35.3265 74.0223C35.909 73.1661 36.6985 72.4712 37.6217 72.0021C38.5449 71.5331 39.5717 71.3052 40.6067 71.3397C41.9676 72.3812 44.5659 73.2391 47.4112 73.2391C49.6345 73.2391 52.0045 72.7127 54.05 71.3442C54.1691 71.3375 54.2885 71.336 54.4078 71.3397L51.5828 81.8828L46.844 84.9239L43.7531 78.9064C43.4767 78.3694 42.817 78.1586 42.2815 78.435C42.1537 78.5004 42.04 78.5903 41.947 78.6997C41.8539 78.8091 41.7834 78.9358 41.7394 79.0725C41.6954 79.2092 41.6788 79.3532 41.6905 79.4963C41.7022 79.6395 41.7421 79.7789 41.8078 79.9066L45.4484 86.9942C45.5182 87.1297 45.6156 87.2492 45.7342 87.3449C45.8529 87.4406 45.9902 87.5105 46.1375 87.55C46.2847 87.5901 46.4387 87.5988 46.5895 87.5755C46.7403 87.5521 46.8844 87.4973 47.0126 87.4145L53.4812 83.2625C54.0987 82.8678 54.8406 82.8694 55.4687 83.2708C55.9733 83.5937 56.4704 84.2506 56.3484 85.1287C56.2761 85.6484 56.0359 86.0536 55.6111 86.3631L48.2093 91.7661C46.5608 92.9689 44.2231 92.6186 43 90.985L43.0001 90.9851ZM52.0061 91.7022H58.9454V102.717H36.9312L36.044 85.3442L41.2497 92.2956C42.4095 93.8456 44.2018 94.6656 46.0139 94.6656C47.2279 94.6656 48.4517 94.2973 49.4986 93.5314L52.0058 91.702L52.0061 91.7022ZM70.4939 69.057L65.0126 89.5144H55.0034L56.9012 88.1301C57.805 87.4711 58.3623 86.535 58.5151 85.4272C58.7358 83.8381 58.0189 82.3055 56.6467 81.4273C55.8748 80.9348 54.9981 80.7239 54.1387 80.7962L57.2845 69.0572H70.4937L70.4939 69.057Z" fill="#8BBC3A"/>
<rect x="85.9062" y="111.918" width="19.5641" height="1.50527" transform="rotate(40 85.9062 111.918)" fill="#8BBC3A"/>
<rect x="79.5098" y="124.231" width="22.5765" height="1.50527" transform="rotate(40 79.5098 124.231)" fill="#8BBC3A"/>
</svg>
