<svg width="978" height="531" viewBox="0 0 978 531" fill="none" xmlns="http://www.w3.org/2000/svg">
<g clip-path="url(#clip0_445_3103)">
<path d="M743.5 0C743.5 67.4976 716.687 132.231 668.959 179.959C621.231 227.687 556.498 254.5 489 254.5C421.502 254.5 356.769 227.687 309.041 179.959C261.313 132.231 234.5 67.4976 234.5 3.84284e-05" stroke="url(#paint0_linear_445_3103)" stroke-dasharray="4 4"/>
<path d="M867.5 0C867.5 100.384 827.622 196.657 756.64 267.64C685.657 338.622 589.384 378.5 489 378.5C388.616 378.5 292.343 338.622 221.36 267.64C150.378 196.657 110.5 100.384 110.5 5.71519e-05" stroke="url(#paint1_linear_445_3103)" stroke-dasharray="4 4"/>
<path d="M977.5 0C977.5 129.558 926.033 253.81 834.422 345.422C742.81 437.033 618.558 488.5 489 488.5C359.442 488.5 235.19 437.033 143.578 345.422C51.9668 253.81 0.50002 129.558 0.5 7.37614e-05" stroke="url(#paint2_linear_445_3103)" stroke-dasharray="4 4"/>
<g filter="url(#filter0_d_445_3103)">
<circle cx="489" cy="232" r="80" fill="#F9FAFB"/>
</g>
<path d="M489.264 239.584C493.452 239.584 496.847 236.188 496.847 232C496.847 227.811 493.452 224.416 489.264 224.416C485.075 224.416 481.68 227.811 481.68 232C481.68 236.188 485.075 239.584 489.264 239.584Z" fill="#61DAFB"/>
<path d="M489.263 247.538C511.738 247.538 529.957 240.581 529.957 232C529.957 223.419 511.738 216.462 489.263 216.462C466.789 216.462 448.569 223.419 448.569 232C448.569 240.581 466.789 247.538 489.263 247.538Z" stroke="#61DAFB" stroke-width="5"/>
<path d="M475.807 239.769C487.044 259.232 502.178 271.533 509.61 267.242C517.041 262.951 513.956 243.695 502.719 224.231C491.482 204.768 476.348 192.467 468.916 196.758C461.485 201.049 464.57 220.305 475.807 239.769Z" stroke="#61DAFB" stroke-width="5"/>
<path d="M475.807 224.231C464.57 243.695 461.485 262.951 468.917 267.242C476.348 271.532 491.482 259.232 502.719 239.769C513.957 220.305 517.042 201.049 509.61 196.758C502.179 192.467 487.045 204.768 475.807 224.231Z" stroke="#61DAFB" stroke-width="5"/>
<g filter="url(#filter1_d_445_3103)">
<circle cx="848" cy="100" r="63" fill="white"/>
</g>
<path d="M835.992 123.347C835.992 123.347 832.615 125.311 838.395 125.976C845.399 126.775 848.978 126.66 856.695 125.199C856.695 125.199 858.725 126.472 861.558 127.574C844.257 134.988 822.403 127.144 835.992 123.347ZM833.878 113.671C833.878 113.671 830.09 116.475 835.875 117.074C843.356 117.845 849.264 117.909 859.487 115.94C859.487 115.94 860.901 117.373 863.124 118.158C842.206 124.274 818.908 118.64 833.878 113.671Z" fill="#5382A1"/>
<path d="M851.7 97.2577C855.963 102.166 850.58 106.582 850.58 106.582C850.58 106.582 861.404 100.994 856.433 93.997C851.79 87.4719 848.23 84.2293 867.505 73.0508C867.505 73.0508 837.25 80.607 851.7 97.2574" fill="#E76F00"/>
<path d="M874.582 130.504C874.582 130.504 877.081 132.564 871.829 134.157C861.843 137.182 830.266 138.096 821.493 134.277C818.34 132.906 824.254 131.002 826.114 130.602C828.053 130.182 829.162 130.26 829.162 130.26C825.655 127.79 806.495 135.111 819.43 137.207C854.704 142.928 883.732 134.632 874.582 130.504ZM837.616 103.646C837.616 103.646 821.554 107.462 831.928 108.847C836.308 109.433 845.04 109.301 853.174 108.619C859.821 108.059 866.496 106.866 866.496 106.866C866.496 106.866 864.152 107.87 862.457 109.028C846.145 113.318 814.635 111.322 823.707 106.934C831.378 103.226 837.616 103.646 837.616 103.646H837.616ZM866.43 119.752C883.011 111.136 875.345 102.856 869.994 103.972C868.682 104.245 868.097 104.481 868.097 104.481C868.097 104.481 868.584 103.718 869.514 103.388C880.1 99.6665 888.241 114.365 866.097 120.186C866.097 120.187 866.353 119.957 866.43 119.752Z" fill="#5382A1"/>
<path d="M856.434 55.0003C856.434 55.0003 865.617 64.1865 847.725 78.3115C833.377 89.6426 844.453 96.1031 847.719 103.485C839.344 95.9284 833.197 89.2764 837.321 83.0856C843.373 73.9973 860.139 69.5913 856.434 55" fill="#E76F00"/>
<path d="M839.246 143.1C855.161 144.118 879.602 142.534 880.18 135.003C880.18 135.003 879.068 137.859 867.027 140.126C853.443 142.682 836.688 142.384 826.751 140.745C826.751 140.745 828.785 142.429 839.246 143.1" fill="#5382A1"/>
<g filter="url(#filter2_d_445_3103)">
<circle cx="115" cy="68" r="63" fill="white"/>
</g>
<path d="M88.8214 96.8245L83 32H147L141.179 96.7895L114.947 104" fill="#E44D26"/>
<path d="M115 98.4876V37.3208H141.161L136.169 92.6246" fill="#F16529"/>
<path d="M94.8896 45.2485H115V53.1941H103.675L104.416 61.3322H115V69.2602H97.0771L94.8896 45.2485ZM97.4299 73.2505H105.474L106.038 79.6034L115 81.9836V90.2792L98.5589 85.7289" fill="#EBEBEB"/>
<path d="M135.039 45.2485H114.964V53.1941H134.298L135.039 45.2485ZM133.575 61.3322H114.964V69.2777H124.843L123.908 79.6034L114.964 81.9836V90.2442L131.37 85.7289" fill="white"/>
<g filter="url(#filter3_d_445_3103)">
<circle cx="221" cy="270" r="63" fill="white"/>
</g>
<path d="M234.888 284.189C237.545 283.911 239.561 281.599 239.469 278.824C239.378 276.05 237.087 273.83 234.339 273.83H234.155C231.315 273.922 229.116 276.327 229.208 279.194C229.299 280.582 229.849 281.784 230.674 282.616C227.558 288.814 222.794 293.346 215.648 297.138C210.791 299.728 205.752 300.653 200.713 300.005C196.59 299.45 193.383 297.601 191.367 294.548C188.435 290.016 188.161 285.114 190.635 280.212C192.375 276.697 195.124 274.107 196.865 272.812C196.498 271.61 195.948 269.575 195.674 268.095C182.388 277.807 183.763 290.941 187.794 297.138C190.818 301.763 196.956 304.63 203.737 304.63C205.569 304.63 207.401 304.445 209.234 303.983C220.962 301.67 229.849 294.641 234.888 284.189ZM251.014 272.72C244.051 264.488 233.789 259.956 222.061 259.956H220.595C219.771 258.291 218.03 257.181 216.106 257.181H215.922C213.082 257.273 210.883 259.678 210.975 262.546C211.067 265.32 213.357 267.54 216.106 267.54H216.289C218.304 267.448 220.045 266.153 220.778 264.395H222.428C229.391 264.395 235.988 266.43 241.944 270.407C246.525 273.46 249.823 277.437 251.655 282.247C253.213 286.131 253.121 289.923 251.472 293.161C248.907 298.063 244.601 300.745 238.92 300.745C235.255 300.745 231.773 299.635 229.941 298.803C228.933 299.728 227.1 301.208 225.818 302.133C229.758 303.982 233.789 305 237.637 305C246.433 305 252.938 300.098 255.412 295.196C258.069 289.831 257.886 280.582 251.014 272.72ZM204.47 285.761C204.561 288.536 206.852 290.756 209.6 290.756H209.784C212.624 290.663 214.823 288.258 214.731 285.391C214.64 282.616 212.349 280.397 209.6 280.397H209.417C209.234 280.397 208.959 280.397 208.776 280.489C205.019 274.199 203.462 267.355 204.012 259.956C204.378 254.406 206.21 249.596 209.417 245.619C212.074 242.197 217.205 240.532 220.687 240.44C230.399 240.254 234.522 252.463 234.797 257.366C235.988 257.643 238.004 258.291 239.378 258.753C238.278 243.77 229.116 236 220.32 236C212.074 236 204.47 242.012 201.446 250.891C197.231 262.73 199.98 274.107 205.111 283.079C204.653 283.726 204.378 284.744 204.47 285.761V285.761Z" fill="#764ABC"/>
<g filter="url(#filter4_d_445_3103)">
<circle cx="677" cy="319" r="63" fill="white"/>
</g>
<path fill-rule="evenodd" clip-rule="evenodd" d="M641 287H667.729L641 351V287ZM685.937 287H713V350.178L685.937 287ZM677.139 311.472L691.896 349.85H682.764L676.471 337.697H666.448L677.139 311.472Z" fill="#CC2229"/>
<g filter="url(#filter5_d_445_3103)">
<circle cx="280" cy="131" r="46" fill="white"/>
</g>
<path d="M301 110.895H259.895V152H301V110.895Z" fill="#F7DF1E"/>
<path d="M287.507 143.008C288.335 144.36 289.412 145.354 291.317 145.354C292.918 145.354 293.94 144.554 293.94 143.449C293.94 142.124 292.89 141.655 291.128 140.884L290.163 140.47C287.375 139.283 285.524 137.795 285.524 134.65C285.524 131.753 287.731 129.548 291.18 129.548C293.636 129.548 295.402 130.403 296.674 132.641L293.666 134.572C293.004 133.384 292.29 132.917 291.18 132.917C290.049 132.917 289.332 133.634 289.332 134.572C289.332 135.731 290.05 136.2 291.707 136.917L292.673 137.331C295.955 138.739 297.808 140.173 297.808 143.399C297.808 146.877 295.076 148.782 291.407 148.782C287.82 148.782 285.502 147.072 284.368 144.832L287.507 143.008ZM273.862 143.343C274.469 144.42 275.021 145.33 276.348 145.33C277.617 145.33 278.418 144.833 278.418 142.903V129.768H282.28V142.955C282.28 146.954 279.935 148.775 276.512 148.775C273.42 148.775 271.629 147.174 270.718 145.247L273.862 143.343Z" fill="black"/>
<g filter="url(#filter6_d_445_3103)">
<circle cx="677" cy="153" r="46" fill="white"/>
</g>
<path d="M665.346 160.67L658.079 153.404L681.673 129.812H696.204L665.346 160.67ZM696.204 151.582H681.673L676.23 157.026L683.497 164.292" fill="#42A5F5" fill-opacity="0.8"/>
<path d="M676.229 171.557L681.673 177H696.204L683.496 164.292" fill="#0D47A1"/>
<path d="M668.981 164.296L676.237 157.039L683.492 164.294L676.237 171.551L668.981 164.296Z" fill="#42A5F5"/>
<path d="M676.235 171.551L683.49 164.296L684.503 165.309L677.248 172.564L676.235 171.551Z" fill="url(#paint3_linear_445_3103)"/>
<path d="M676.229 171.557L687.011 167.832L683.496 164.29" fill="url(#paint4_linear_445_3103)"/>
<g filter="url(#filter7_d_445_3103)">
<circle cx="427" cy="371" r="37" fill="white"/>
</g>
<path d="M425.615 353.378C426.493 352.875 427.636 352.873 428.513 353.378C432.926 355.871 437.341 358.361 441.753 360.856C442.582 361.323 443.138 362.247 443.129 363.203V378.205C443.135 379.201 442.525 380.146 441.65 380.603C437.251 383.083 432.855 385.565 428.458 388.045C427.562 388.558 426.395 388.518 425.527 387.964C424.209 387.199 422.888 386.439 421.569 385.675C421.3 385.514 420.996 385.387 420.806 385.125C420.974 384.899 421.275 384.87 421.519 384.771C422.069 384.596 422.575 384.315 423.081 384.043C423.208 383.955 423.364 383.989 423.487 384.067C424.615 384.714 425.732 385.379 426.864 386.019C427.105 386.159 427.349 385.974 427.556 385.859C431.872 383.419 436.193 380.989 440.509 378.549C440.668 378.472 440.757 378.302 440.744 378.127C440.747 373.178 440.745 368.229 440.745 363.28C440.764 363.081 440.649 362.898 440.469 362.817C436.086 360.349 431.705 357.877 427.323 355.408C427.247 355.355 427.157 355.327 427.065 355.327C426.973 355.327 426.883 355.355 426.806 355.407C422.424 357.877 418.044 360.351 413.662 362.819C413.483 362.901 413.363 363.08 413.384 363.28C413.385 368.229 413.384 373.178 413.384 378.128C413.376 378.213 413.395 378.299 413.438 378.373C413.48 378.448 413.545 378.508 413.622 378.544C414.792 379.207 415.963 379.866 417.133 380.527C417.792 380.882 418.601 381.092 419.328 380.821C419.969 380.591 420.418 379.937 420.406 379.256C420.412 374.336 420.403 369.416 420.41 364.496C420.394 364.278 420.602 364.098 420.814 364.118C421.376 364.114 421.938 364.111 422.5 364.12C422.735 364.114 422.896 364.35 422.867 364.57C422.865 369.521 422.873 374.472 422.863 379.423C422.865 380.742 422.323 382.178 421.102 382.824C419.599 383.603 417.74 383.437 416.255 382.691C414.969 382.049 413.742 381.291 412.479 380.604C411.601 380.149 410.994 379.2 411 378.205V363.203C410.991 362.227 411.568 361.287 412.424 360.826C416.821 358.344 421.218 355.861 425.615 353.378Z" fill="#8CC84B"/>
<path d="M429.452 363.77C431.37 363.646 433.423 363.696 435.149 364.641C436.485 365.365 437.226 366.885 437.25 368.37C437.212 368.57 437.003 368.68 436.812 368.667C436.255 368.666 435.699 368.674 435.142 368.663C434.906 368.672 434.769 368.454 434.739 368.245C434.579 367.535 434.192 366.832 433.523 366.489C432.497 365.975 431.307 366.001 430.188 366.012C429.371 366.055 428.492 366.126 427.8 366.606C427.269 366.97 427.107 367.705 427.297 368.297C427.476 368.721 427.966 368.858 428.368 368.985C430.679 369.589 433.128 369.529 435.396 370.325C436.334 370.649 437.253 371.28 437.574 372.262C437.994 373.58 437.81 375.154 436.873 376.212C436.113 377.082 435.006 377.555 433.902 377.813C432.433 378.14 430.909 378.148 429.418 378.003C428.015 377.843 426.556 377.475 425.473 376.519C424.547 375.715 424.095 374.463 424.14 373.254C424.15 373.05 424.354 372.907 424.549 372.924C425.11 372.919 425.67 372.918 426.23 372.925C426.454 372.909 426.62 373.102 426.632 373.313C426.735 373.99 426.989 374.7 427.58 375.101C428.719 375.836 430.148 375.786 431.452 375.806C432.532 375.759 433.745 375.744 434.627 375.03C435.092 374.623 435.23 373.941 435.104 373.355C434.968 372.86 434.45 372.629 434.005 372.479C431.724 371.757 429.247 372.019 426.987 371.202C426.07 370.878 425.183 370.265 424.83 369.323C424.338 367.989 424.564 366.339 425.599 365.317C426.609 364.301 428.066 363.91 429.452 363.769V363.77Z" fill="#8CC84B"/>
<g filter="url(#filter8_d_445_3103)">
<circle cx="57" cy="223" r="48" fill="white"/>
</g>
<path d="M79 198L74.9915 242.995L56.9731 248L39.0043 243.002L35 198H79Z" fill="#264DE4"/>
<path d="M71.5598 240.13L74.9853 201.68H57V244.174L71.5598 240.13Z" fill="#2965F1"/>
<path d="M44.1797 218.37L44.6734 223.889H57V218.37H44.1797Z" fill="#EBEBEB"/>
<path d="M56.9998 207.199H56.9808H43.1875L43.6882 212.718H56.9998V207.199Z" fill="#EBEBEB"/>
<path d="M57.0004 238.447V232.704L56.9763 232.711L50.8416 231.051L50.4494 226.649H47.4685H44.9199L45.6916 235.315L56.9751 238.454L57.0004 238.447Z" fill="#EBEBEB"/>
<path d="M63.7644 223.889L63.125 231.047L56.9814 232.709V238.451L68.2738 235.315L68.3567 234.382L69.6511 219.852L69.7855 218.37L70.7799 207.199H56.9814V212.718H64.7433L64.242 218.37H56.9814V223.889H63.7644Z" fill="white"/>
<g filter="url(#filter9_d_445_3103)">
<circle cx="877" cy="286" r="48" fill="white"/>
</g>
<path fill-rule="evenodd" clip-rule="evenodd" d="M882.192 265.009C888.55 265.007 894.908 264.987 901.265 265.014C905.045 265.03 906.111 266.292 905.296 270.025C902.91 280.956 900.47 291.877 897.998 302.789C897.216 306.238 895.42 307.651 891.791 307.662C879.076 307.7 866.36 307.704 853.645 307.66C849.489 307.646 848.396 306.238 849.291 302.299C851.721 291.603 854.163 280.909 856.626 270.22C857.564 266.146 858.973 265.028 863.119 265.016C869.477 264.998 875.835 265.011 882.192 265.009Z" fill="#E0EAF5"/>
<path fill-rule="evenodd" clip-rule="evenodd" d="M872.585 306.391C866.227 306.389 859.868 306.418 853.51 306.376C850.286 306.355 849.699 305.595 850.425 302.441C852.886 291.746 855.426 281.069 857.832 270.362C858.477 267.49 859.868 266.221 862.945 266.249C875.661 266.367 888.379 266.287 901.095 266.3C904.284 266.303 904.82 266.986 904.104 270.22C901.779 280.721 899.44 291.218 897.06 301.707C896.17 305.632 895.143 306.381 891.014 306.39C884.871 306.403 878.728 306.393 872.585 306.391Z" fill="#2671BE"/>
<path fill-rule="evenodd" clip-rule="evenodd" d="M877.995 285.431C877.569 284.931 877.101 284.356 876.605 283.805C873.794 280.683 871.009 277.538 868.148 274.463C866.839 273.055 866.422 271.688 867.994 270.299C869.547 268.926 871.074 269.048 872.499 270.627C876.468 275.026 880.432 279.429 884.466 283.766C885.973 285.387 885.622 286.488 883.963 287.689C877.595 292.298 871.263 296.957 864.937 301.625C863.516 302.675 862.16 302.938 861.012 301.387C859.745 299.677 860.917 298.66 862.231 297.703C866.932 294.279 871.623 290.843 876.294 287.379C876.945 286.897 877.879 286.616 877.995 285.431Z" fill="#FDFDFE"/>
<path fill-rule="evenodd" clip-rule="evenodd" d="M880.009 301.972C878.297 301.972 876.583 302.031 874.875 301.953C873.512 301.892 872.692 301.13 872.709 299.695C872.726 298.338 873.41 297.318 874.771 297.281C878.513 297.181 882.26 297.202 886.002 297.275C887.192 297.299 888.07 298.074 888.063 299.313C888.054 300.735 887.306 301.836 885.783 301.928C883.865 302.044 881.934 301.957 880.009 301.957C880.009 301.961 880.009 301.967 880.009 301.972Z" fill="#FCFDFD"/>
<g filter="url(#filter10_d_445_3103)">
<circle cx="280" cy="441" r="48" fill="white"/>
</g>
<path d="M279.817 465.406L289.693 435.013H269.941L279.817 465.406H279.817Z" fill="#E24329"/>
<path d="M279.817 465.406L269.942 435.012H256.102L279.817 465.406Z" fill="#FC6D26"/>
<path d="M256.101 435.012L253.1 444.249C252.967 444.659 252.967 445.102 253.1 445.512C253.233 445.923 253.493 446.281 253.843 446.535L279.817 465.406L256.101 435.012L256.101 435.012Z" fill="#FCA326"/>
<path d="M256.102 435.012H269.942L263.994 416.706C263.688 415.764 262.355 415.765 262.049 416.706L256.102 435.012Z" fill="#E24329"/>
<path d="M279.817 465.406L289.692 435.012H303.532L279.816 465.406H279.817Z" fill="#FC6D26"/>
<path d="M303.532 435.012L306.533 444.249C306.667 444.659 306.667 445.102 306.533 445.512C306.4 445.923 306.14 446.281 305.79 446.535L279.816 465.406L303.532 435.012V435.012Z" fill="#FCA326"/>
<path d="M303.533 435.012H289.692L295.64 416.706C295.946 415.764 297.279 415.765 297.585 416.706L303.533 435.012Z" fill="#E24329"/>
<g filter="url(#filter11_d_445_3103)">
<circle cx="566" cy="483" r="48" fill="white"/>
</g>
<path d="M566.44 454.957C550.669 454.957 537.88 467.744 537.88 483.517C537.88 496.136 546.063 506.842 557.411 510.618C558.838 510.882 559.363 509.999 559.363 509.244C559.363 508.563 559.336 506.313 559.324 503.927C551.378 505.654 549.702 500.557 549.702 500.557C548.402 497.256 546.53 496.378 546.53 496.378C543.939 494.606 546.726 494.642 546.726 494.642C549.594 494.843 551.104 497.585 551.104 497.585C553.651 501.951 557.785 500.689 559.415 499.959C559.671 498.113 560.412 496.854 561.228 496.14C554.885 495.418 548.216 492.969 548.216 482.026C548.216 478.908 549.332 476.36 551.159 474.36C550.862 473.64 549.885 470.736 551.435 466.802C551.435 466.802 553.834 466.034 559.292 469.729C561.57 469.096 564.013 468.779 566.44 468.768C568.867 468.779 571.312 469.096 573.595 469.729C579.046 466.034 581.441 466.802 581.441 466.802C582.996 470.736 582.018 473.64 581.721 474.36C583.552 476.36 584.66 478.907 584.66 482.026C584.66 492.995 577.979 495.411 571.619 496.117C572.644 497.004 573.557 498.742 573.557 501.406C573.557 505.228 573.523 508.303 573.523 509.244C573.523 510.004 574.037 510.895 575.485 510.614C586.827 506.834 595 496.132 595 483.517C595 467.744 582.213 454.957 566.44 454.957Z" fill="#161614"/>
<path d="M548.576 495.642C548.514 495.784 548.29 495.826 548.087 495.729C547.88 495.636 547.763 495.442 547.831 495.3C547.892 495.154 548.116 495.113 548.322 495.211C548.53 495.304 548.648 495.5 548.576 495.642ZM549.981 496.895C549.845 497.022 549.579 496.963 549.398 496.764C549.211 496.564 549.176 496.298 549.315 496.17C549.455 496.044 549.713 496.103 549.9 496.302C550.087 496.503 550.124 496.768 549.981 496.896L549.981 496.895ZM550.945 498.499C550.77 498.621 550.484 498.507 550.307 498.253C550.132 497.999 550.132 497.694 550.311 497.572C550.488 497.45 550.77 497.56 550.949 497.812C551.124 498.07 551.124 498.375 550.945 498.499L550.945 498.499ZM552.575 500.357C552.418 500.529 552.085 500.483 551.841 500.248C551.591 500.017 551.522 499.69 551.679 499.518C551.837 499.345 552.172 499.393 552.418 499.627C552.666 499.857 552.742 500.186 552.575 500.357H552.575ZM554.681 500.984C554.613 501.208 554.291 501.309 553.968 501.214C553.645 501.116 553.434 500.854 553.499 500.628C553.566 500.403 553.888 500.297 554.214 500.399C554.537 500.496 554.749 500.756 554.682 500.984H554.681ZM557.079 501.25C557.087 501.486 556.813 501.681 556.473 501.685C556.132 501.693 555.855 501.502 555.852 501.27C555.852 501.032 556.12 500.839 556.461 500.833C556.801 500.827 557.079 501.016 557.079 501.25ZM559.434 501.16C559.475 501.389 559.239 501.626 558.902 501.688C558.57 501.749 558.263 501.607 558.221 501.379C558.18 501.144 558.42 500.908 558.751 500.846C559.089 500.788 559.391 500.926 559.434 501.16Z" fill="#161614"/>
</g>
<defs>
<filter id="filter0_d_445_3103" x="405" y="152" width="168" height="168" filterUnits="userSpaceOnUse" color-interpolation-filters="sRGB">
<feFlood flood-opacity="0" result="BackgroundImageFix"/>
<feColorMatrix in="SourceAlpha" type="matrix" values="0 0 0 0 0 0 0 0 0 0 0 0 0 0 0 0 0 0 127 0" result="hardAlpha"/>
<feOffset dy="4"/>
<feGaussianBlur stdDeviation="2"/>
<feComposite in2="hardAlpha" operator="out"/>
<feColorMatrix type="matrix" values="0 0 0 0 0.211765 0 0 0 0 0.337255 0 0 0 0 0.466667 0 0 0 0.2 0"/>
<feBlend mode="normal" in2="BackgroundImageFix" result="effect1_dropShadow_445_3103"/>
<feBlend mode="normal" in="SourceGraphic" in2="effect1_dropShadow_445_3103" result="shape"/>
</filter>
<filter id="filter1_d_445_3103" x="781" y="37" width="134" height="134" filterUnits="userSpaceOnUse" color-interpolation-filters="sRGB">
<feFlood flood-opacity="0" result="BackgroundImageFix"/>
<feColorMatrix in="SourceAlpha" type="matrix" values="0 0 0 0 0 0 0 0 0 0 0 0 0 0 0 0 0 0 127 0" result="hardAlpha"/>
<feOffset dy="4"/>
<feGaussianBlur stdDeviation="2"/>
<feComposite in2="hardAlpha" operator="out"/>
<feColorMatrix type="matrix" values="0 0 0 0 0.211765 0 0 0 0 0.337255 0 0 0 0 0.466667 0 0 0 0.2 0"/>
<feBlend mode="normal" in2="BackgroundImageFix" result="effect1_dropShadow_445_3103"/>
<feBlend mode="normal" in="SourceGraphic" in2="effect1_dropShadow_445_3103" result="shape"/>
</filter>
<filter id="filter2_d_445_3103" x="48" y="5" width="134" height="134" filterUnits="userSpaceOnUse" color-interpolation-filters="sRGB">
<feFlood flood-opacity="0" result="BackgroundImageFix"/>
<feColorMatrix in="SourceAlpha" type="matrix" values="0 0 0 0 0 0 0 0 0 0 0 0 0 0 0 0 0 0 127 0" result="hardAlpha"/>
<feOffset dy="4"/>
<feGaussianBlur stdDeviation="2"/>
<feComposite in2="hardAlpha" operator="out"/>
<feColorMatrix type="matrix" values="0 0 0 0 0.211765 0 0 0 0 0.337255 0 0 0 0 0.466667 0 0 0 0.2 0"/>
<feBlend mode="normal" in2="BackgroundImageFix" result="effect1_dropShadow_445_3103"/>
<feBlend mode="normal" in="SourceGraphic" in2="effect1_dropShadow_445_3103" result="shape"/>
</filter>
<filter id="filter3_d_445_3103" x="154" y="207" width="134" height="134" filterUnits="userSpaceOnUse" color-interpolation-filters="sRGB">
<feFlood flood-opacity="0" result="BackgroundImageFix"/>
<feColorMatrix in="SourceAlpha" type="matrix" values="0 0 0 0 0 0 0 0 0 0 0 0 0 0 0 0 0 0 127 0" result="hardAlpha"/>
<feOffset dy="4"/>
<feGaussianBlur stdDeviation="2"/>
<feComposite in2="hardAlpha" operator="out"/>
<feColorMatrix type="matrix" values="0 0 0 0 0.211765 0 0 0 0 0.337255 0 0 0 0 0.466667 0 0 0 0.2 0"/>
<feBlend mode="normal" in2="BackgroundImageFix" result="effect1_dropShadow_445_3103"/>
<feBlend mode="normal" in="SourceGraphic" in2="effect1_dropShadow_445_3103" result="shape"/>
</filter>
<filter id="filter4_d_445_3103" x="610" y="256" width="134" height="134" filterUnits="userSpaceOnUse" color-interpolation-filters="sRGB">
<feFlood flood-opacity="0" result="BackgroundImageFix"/>
<feColorMatrix in="SourceAlpha" type="matrix" values="0 0 0 0 0 0 0 0 0 0 0 0 0 0 0 0 0 0 127 0" result="hardAlpha"/>
<feOffset dy="4"/>
<feGaussianBlur stdDeviation="2"/>
<feComposite in2="hardAlpha" operator="out"/>
<feColorMatrix type="matrix" values="0 0 0 0 0.211765 0 0 0 0 0.337255 0 0 0 0 0.466667 0 0 0 0.2 0"/>
<feBlend mode="normal" in2="BackgroundImageFix" result="effect1_dropShadow_445_3103"/>
<feBlend mode="normal" in="SourceGraphic" in2="effect1_dropShadow_445_3103" result="shape"/>
</filter>
<filter id="filter5_d_445_3103" x="230" y="85" width="100" height="100" filterUnits="userSpaceOnUse" color-interpolation-filters="sRGB">
<feFlood flood-opacity="0" result="BackgroundImageFix"/>
<feColorMatrix in="SourceAlpha" type="matrix" values="0 0 0 0 0 0 0 0 0 0 0 0 0 0 0 0 0 0 127 0" result="hardAlpha"/>
<feOffset dy="4"/>
<feGaussianBlur stdDeviation="2"/>
<feComposite in2="hardAlpha" operator="out"/>
<feColorMatrix type="matrix" values="0 0 0 0 0.211765 0 0 0 0 0.337255 0 0 0 0 0.466667 0 0 0 0.2 0"/>
<feBlend mode="normal" in2="BackgroundImageFix" result="effect1_dropShadow_445_3103"/>
<feBlend mode="normal" in="SourceGraphic" in2="effect1_dropShadow_445_3103" result="shape"/>
</filter>
<filter id="filter6_d_445_3103" x="627" y="107" width="100" height="100" filterUnits="userSpaceOnUse" color-interpolation-filters="sRGB">
<feFlood flood-opacity="0" result="BackgroundImageFix"/>
<feColorMatrix in="SourceAlpha" type="matrix" values="0 0 0 0 0 0 0 0 0 0 0 0 0 0 0 0 0 0 127 0" result="hardAlpha"/>
<feOffset dy="4"/>
<feGaussianBlur stdDeviation="2"/>
<feComposite in2="hardAlpha" operator="out"/>
<feColorMatrix type="matrix" values="0 0 0 0 0.211765 0 0 0 0 0.337255 0 0 0 0 0.466667 0 0 0 0.2 0"/>
<feBlend mode="normal" in2="BackgroundImageFix" result="effect1_dropShadow_445_3103"/>
<feBlend mode="normal" in="SourceGraphic" in2="effect1_dropShadow_445_3103" result="shape"/>
</filter>
<filter id="filter7_d_445_3103" x="386" y="334" width="82" height="82" filterUnits="userSpaceOnUse" color-interpolation-filters="sRGB">
<feFlood flood-opacity="0" result="BackgroundImageFix"/>
<feColorMatrix in="SourceAlpha" type="matrix" values="0 0 0 0 0 0 0 0 0 0 0 0 0 0 0 0 0 0 127 0" result="hardAlpha"/>
<feOffset dy="4"/>
<feGaussianBlur stdDeviation="2"/>
<feComposite in2="hardAlpha" operator="out"/>
<feColorMatrix type="matrix" values="0 0 0 0 0.211765 0 0 0 0 0.337255 0 0 0 0 0.466667 0 0 0 0.2 0"/>
<feBlend mode="normal" in2="BackgroundImageFix" result="effect1_dropShadow_445_3103"/>
<feBlend mode="normal" in="SourceGraphic" in2="effect1_dropShadow_445_3103" result="shape"/>
</filter>
<filter id="filter8_d_445_3103" x="5" y="175" width="104" height="104" filterUnits="userSpaceOnUse" color-interpolation-filters="sRGB">
<feFlood flood-opacity="0" result="BackgroundImageFix"/>
<feColorMatrix in="SourceAlpha" type="matrix" values="0 0 0 0 0 0 0 0 0 0 0 0 0 0 0 0 0 0 127 0" result="hardAlpha"/>
<feOffset dy="4"/>
<feGaussianBlur stdDeviation="2"/>
<feComposite in2="hardAlpha" operator="out"/>
<feColorMatrix type="matrix" values="0 0 0 0 0.211765 0 0 0 0 0.337255 0 0 0 0 0.466667 0 0 0 0.2 0"/>
<feBlend mode="normal" in2="BackgroundImageFix" result="effect1_dropShadow_445_3103"/>
<feBlend mode="normal" in="SourceGraphic" in2="effect1_dropShadow_445_3103" result="shape"/>
</filter>
<filter id="filter9_d_445_3103" x="825" y="238" width="104" height="104" filterUnits="userSpaceOnUse" color-interpolation-filters="sRGB">
<feFlood flood-opacity="0" result="BackgroundImageFix"/>
<feColorMatrix in="SourceAlpha" type="matrix" values="0 0 0 0 0 0 0 0 0 0 0 0 0 0 0 0 0 0 127 0" result="hardAlpha"/>
<feOffset dy="4"/>
<feGaussianBlur stdDeviation="2"/>
<feComposite in2="hardAlpha" operator="out"/>
<feColorMatrix type="matrix" values="0 0 0 0 0.211765 0 0 0 0 0.337255 0 0 0 0 0.466667 0 0 0 0.2 0"/>
<feBlend mode="normal" in2="BackgroundImageFix" result="effect1_dropShadow_445_3103"/>
<feBlend mode="normal" in="SourceGraphic" in2="effect1_dropShadow_445_3103" result="shape"/>
</filter>
<filter id="filter10_d_445_3103" x="228" y="393" width="104" height="104" filterUnits="userSpaceOnUse" color-interpolation-filters="sRGB">
<feFlood flood-opacity="0" result="BackgroundImageFix"/>
<feColorMatrix in="SourceAlpha" type="matrix" values="0 0 0 0 0 0 0 0 0 0 0 0 0 0 0 0 0 0 127 0" result="hardAlpha"/>
<feOffset dy="4"/>
<feGaussianBlur stdDeviation="2"/>
<feComposite in2="hardAlpha" operator="out"/>
<feColorMatrix type="matrix" values="0 0 0 0 0.211765 0 0 0 0 0.337255 0 0 0 0 0.466667 0 0 0 0.2 0"/>
<feBlend mode="normal" in2="BackgroundImageFix" result="effect1_dropShadow_445_3103"/>
<feBlend mode="normal" in="SourceGraphic" in2="effect1_dropShadow_445_3103" result="shape"/>
</filter>
<filter id="filter11_d_445_3103" x="514" y="435" width="104" height="104" filterUnits="userSpaceOnUse" color-interpolation-filters="sRGB">
<feFlood flood-opacity="0" result="BackgroundImageFix"/>
<feColorMatrix in="SourceAlpha" type="matrix" values="0 0 0 0 0 0 0 0 0 0 0 0 0 0 0 0 0 0 127 0" result="hardAlpha"/>
<feOffset dy="4"/>
<feGaussianBlur stdDeviation="2"/>
<feComposite in2="hardAlpha" operator="out"/>
<feColorMatrix type="matrix" values="0 0 0 0 0.211765 0 0 0 0 0.337255 0 0 0 0 0.466667 0 0 0 0.2 0"/>
<feBlend mode="normal" in2="BackgroundImageFix" result="effect1_dropShadow_445_3103"/>
<feBlend mode="normal" in="SourceGraphic" in2="effect1_dropShadow_445_3103" result="shape"/>
</filter>
<linearGradient id="paint0_linear_445_3103" x1="453.5" y1="229.5" x2="451.5" y2="2.06601e-05" gradientUnits="userSpaceOnUse">
<stop stop-color="#BCCAD9"/>
<stop offset="1" stop-color="#BCCAD9" stop-opacity="0"/>
</linearGradient>
<linearGradient id="paint1_linear_445_3103" x1="436.237" y1="341.1" x2="433.265" y2="3.07066e-05" gradientUnits="userSpaceOnUse">
<stop stop-color="#BCCAD9"/>
<stop offset="1" stop-color="#BCCAD9" stop-opacity="0"/>
</linearGradient>
<linearGradient id="paint2_linear_445_3103" x1="420.924" y1="440.1" x2="417.088" y2="3.96188e-05" gradientUnits="userSpaceOnUse">
<stop stop-color="#BCCAD9"/>
<stop offset="1" stop-color="#BCCAD9" stop-opacity="0"/>
</linearGradient>
<linearGradient id="paint3_linear_445_3103" x1="679.864" y1="167.922" x2="680.877" y2="168.935" gradientUnits="userSpaceOnUse">
<stop offset="0.2" stop-opacity="0.15"/>
<stop offset="0.85" stop-color="#616161" stop-opacity="0.01"/>
</linearGradient>
<linearGradient id="paint4_linear_445_3103" x1="676.232" y1="167.924" x2="687.013" y2="167.924" gradientUnits="userSpaceOnUse">
<stop offset="0.2" stop-opacity="0.55"/>
<stop offset="0.85" stop-color="#616161" stop-opacity="0.01"/>
</linearGradient>
<clipPath id="clip0_445_3103">
<rect width="978" height="531" fill="white"/>
</clipPath>
</defs>
</svg>
