<svg width="140" height="43" viewBox="0 0 140 43" fill="none" xmlns="http://www.w3.org/2000/svg">
<path d="M1.12268 26.5054C1.56888 26.4054 2.01508 26.3354 2.46127 26.2954C2.83549 26.2954 3.18094 26.2954 3.55516 26.2954C3.6991 25.5157 3.12338 25.5657 3.10179 25.2957C3.00104 24.1961 2.4325 24.456 1.9575 24.416L0 24.1961C0.0365143 24.0544 0.0956116 23.9259 0.172867 23.8203C0.250122 23.7147 0.343567 23.6347 0.446198 23.5863C0.761292 23.4456 1.08368 23.3387 1.41055 23.2664C1.59128 23.2463 1.75986 23.1321 1.88261 22.9468C2.00537 22.7614 2.07321 22.5186 2.07263 22.2667L1.18025 21.6369L2.78513 20.4373C1.86395 20.2874 1.34578 19.2677 0.56134 19.5576C0.855865 19.2924 1.13283 18.9913 1.38896 18.6579C1.54008 18.398 1.59047 18.0081 1.87833 18.0981C2.08885 18.2143 2.28731 18.369 2.46848 18.5579C2.89308 18.368 2.98663 17.8981 2.98663 17.3383C2.44688 17.1684 1.83514 17.8582 1.39615 17.0384C1.44652 15.5789 2.11583 15.139 3.00102 15.0391C3.88622 14.9391 4.77863 14.7592 5.66382 14.6392C5.90622 14.5748 6.15697 14.6131 6.3835 14.7492C6.53462 14.9091 6.50583 15.379 6.56342 15.7488L7.21831 15.6289L6.98802 14.5392C7.70769 14.2193 7.70769 14.2193 8.06752 14.5392L8.82317 14.6192C8.82317 13.8894 8.88795 13.3396 8.92393 12.6698C8.15388 12.8098 7.36223 12.9397 6.57059 13.1097C5.77895 13.2796 5.0377 13.4996 4.26765 13.6595C3.79266 13.7595 3.31049 13.7695 3.073 12.9997L4.92973 12.11C5.50667 11.7846 6.09802 11.5108 6.70015 11.2903C7.33156 11.1068 7.97792 11.0429 8.62166 11.1003C8.97226 11.096 9.31995 11.0116 9.65079 10.8504C9.99451 10.6229 10.3571 10.4551 10.7303 10.3506C11.6155 10.3506 11.6155 10.4006 12.4072 9.35091L5.9301 10.9204C5.83653 10.4806 5.77896 10.1806 5.707 9.84076C5.91757 9.71981 6.134 9.61959 6.35471 9.54085C8.22585 9.00103 10.1042 8.54117 11.9753 7.96136C14.4438 7.25159 16.9051 6.52182 19.3736 5.83205C22.0508 5.07229 24.7136 4.22257 27.4051 3.63276C31.2266 2.79303 35.0624 2.03329 38.9199 1.45347C42.1944 0.97363 45.4977 0.733706 48.7938 0.513777C52.4425 0.263858 56.0985 0.113901 59.7472 0.0239299C62.2949 -0.0360507 64.8353 0.023936 67.3829 0.123904C69.542 0.183884 71.7514 0.303843 73.932 0.433801C76.2997 0.563759 78.6674 0.86366 81.0351 0.853663C83.5828 0.853663 86.0729 1.50345 88.6277 1.58342C90.7291 1.6534 92.8162 2.06328 94.9104 2.34319C95.443 2.42316 95.9683 2.63309 96.5009 2.71306C97.0335 2.79304 97.5732 2.71306 98.113 2.85302C99.7394 3.11293 101.373 3.42283 103 3.69274C105.267 4.07262 107.533 4.39251 109.793 4.83237C112.247 5.30222 114.694 5.89203 117.163 6.2919C118.235 6.47185 119.322 6.65179 120.365 6.87172C121.574 7.12164 122.783 7.44154 123.964 7.70145C125.95 8.12132 127.951 8.42122 129.915 8.95105C131.175 9.30093 132.362 10.0807 133.614 10.4805C134.586 10.7904 134.931 11.8901 135.37 12.8198C135.522 13.1497 135.63 13.5695 135.889 13.6795C136.443 13.9094 136.342 15.099 137.018 15.0791V15.179L136.731 15.6589C136.865 15.8128 137.023 15.9218 137.193 15.9773C137.363 16.0327 137.539 16.0332 137.709 15.9788C138.11 15.8941 138.52 15.9555 138.898 16.1571C139.277 16.3586 139.611 16.6933 139.868 17.1284C139.823 17.4282 139.696 17.6918 139.513 17.8635C139.33 18.0351 139.107 18.1013 138.89 18.0481C138.123 18.0786 137.358 18.1788 136.601 18.348C136.601 18.348 136.601 18.4879 136.508 18.8278C137.724 18.7179 138.962 18.418 139.998 19.6976C140.041 20.9372 139.401 21.6969 138.818 22.5166C138.573 22.8565 138.3 23.1664 138.033 23.5163C137.767 23.8662 137.731 23.9862 137.551 24.0562C136.867 24.3161 136.558 24.8659 136.716 25.6856C135.831 26.1555 135.018 26.5553 134.226 27.0152C133.739 27.4109 133.209 27.6945 132.657 27.8549C132.534 27.8484 132.411 27.8799 132.298 27.9471C132.184 28.0143 132.083 28.1156 132.001 28.2437C131.919 28.3718 131.859 28.5235 131.824 28.6879C131.79 28.8523 131.782 29.0253 131.801 29.1945C132.305 29.1945 132.852 29.3045 133.111 28.6647C133.37 28.0249 134.017 28.0848 134.384 27.615C134.752 27.1452 135.205 27.2951 135.665 27.615C135.462 27.6669 135.267 27.7685 135.09 27.9149C134.521 28.7587 133.757 29.2967 132.931 29.4344C132.755 29.492 132.587 29.59 132.434 29.7243L131.189 30.4041C131.129 30.4555 131.074 30.5159 131.024 30.584V31.3538C130.966 31.4238 130.923 31.5037 130.872 31.5237C129.196 32.1335 127.519 32.7633 125.835 33.3231C124.705 33.693 123.553 33.9629 122.416 34.2728C121.956 34.4028 121.495 34.5328 121.027 34.6427C120.416 34.7827 119.797 34.8926 119.185 35.0326C118.89 35.1026 118.609 35.2725 118.307 35.3025C116.983 35.4625 115.709 36.0523 114.37 36.1022C114.221 36.1319 114.079 36.207 113.953 36.3222C113.541 36.6693 113.048 36.7804 112.578 36.6321C112.45 36.5827 112.315 36.5723 112.184 36.6016C112.052 36.6309 111.926 36.6993 111.816 36.802C111.441 37.2163 110.97 37.426 110.491 37.3918C110.14 37.3551 109.786 37.3854 109.441 37.4818C107.843 38.3215 106.137 38.2216 104.496 38.6414C102.992 39.0313 101.481 39.3412 99.9625 39.6411C99.2258 39.7363 98.4854 39.7663 97.7459 39.7311C97.4581 39.7311 97.163 39.5011 97.0263 40.091C96.9831 40.2409 96.6448 40.3609 96.4865 40.2909C96.3282 40.2209 96.2058 39.6311 95.8532 40.051C95.7093 40.2309 95.443 40.2109 95.2703 40.3709C95.1883 40.4767 95.0905 40.5559 94.9838 40.6028C94.8771 40.6498 94.7643 40.6632 94.6534 40.6421C94.5426 40.6211 94.4365 40.5661 94.3428 40.4812C94.2491 40.3962 94.1701 40.2834 94.1116 40.1509C93.9821 40.3109 93.8957 40.5108 93.7733 40.5808C93.4711 40.7308 93.1616 40.8107 92.8522 40.9307C92.6363 40.031 92.2836 40.7807 91.9958 40.7307C91.4704 40.6408 91.1106 41.1406 90.614 41.1406C89.9447 41.1406 89.2754 41.3705 88.5989 41.4605C86.2959 41.7704 84.0002 42.0903 81.6972 42.3502C80.8048 42.4502 79.9053 42.3502 79.0129 42.4102C77.5735 42.4902 76.091 42.6401 74.6301 42.7201C73.5289 42.7201 72.4207 42.7201 71.3124 42.7201C68.9806 42.8001 66.6489 42.99 64.3099 43C60.8051 43 57.2931 42.93 53.7883 42.8601C51.032 42.8101 48.2684 42.7401 45.5121 42.6501C42.5423 42.5502 39.5724 42.4302 36.6025 42.2902C33.7239 42.1403 30.7876 41.9603 27.8801 41.7904L25.4188 41.6105C25.6347 41.1106 25.6131 40.8007 25.2893 40.7208C24.7147 40.5422 24.129 40.4418 23.5405 40.4208C22.3132 40.3258 21.0831 40.3258 19.8558 40.4208C19.7982 40.4208 19.7406 40.3709 19.683 40.3709C19.0641 40.2709 18.4524 40.1609 17.8335 40.1009C17.4593 40.1009 17.1138 40.1009 16.7036 40.1009C16.4949 40.1009 16.2862 40.021 16.0775 40.011C15.4226 40.011 14.7677 40.011 14.1128 40.011C13.9204 39.9706 13.7237 39.9969 13.5404 40.0876C13.3571 40.1783 13.1928 40.3306 13.0621 40.5308L14.8756 40.9607V41.0906L9.56444 40.5608V40.3809L10.6368 40.1009C10.2841 39.851 10.1402 39.6511 9.99625 39.6511C8.85196 39.6511 7.83722 38.5914 6.62097 39.1213C6.53773 39.1669 6.44513 39.1669 6.36191 39.1213C6.21651 38.9509 6.07947 38.7672 5.95169 38.5714C6.09561 38.3915 6.24675 38.0516 6.3835 38.0716C6.86824 38.1494 7.34897 38.2696 7.82283 38.4315C8.32661 38.3715 8.88075 38.2915 9.44211 38.2615C10.0034 38.2316 10.061 38.1416 9.96027 37.2119C9.49968 37.0419 8.9959 36.6221 8.60007 36.762C7.86597 36.9267 7.1176 36.9267 6.3835 36.762C5.44072 36.6921 4.50514 36.5521 3.56956 36.4421C4.49075 36.3222 5.35435 36.1922 5.95169 35.0826C5.99486 34.3528 5.28239 34.7827 5.23201 34.3328L6.11722 32.9533C5.75018 31.9536 5.07368 32.0336 4.55551 31.8236L3.91499 30.574C3.12335 31.0939 2.69876 30.4641 2.30293 29.7243C2.63399 29.3744 3.18095 29.6643 3.41844 28.7846C3.0802 28.7846 2.79951 28.7846 2.52603 28.6947C2.25256 28.6047 2.02946 28.6047 1.98628 28.4447C1.82796 27.8849 1.51851 27.9149 1.18745 27.8349C1.09413 27.8126 1.0056 27.7615 0.928375 27.6854C0.851166 27.6093 0.787231 27.5101 0.741257 27.3951C0.647705 26.8053 0.870804 26.5653 1.12268 26.5054ZM2.13742 16.4286L2.36771 16.8385C2.40369 16.6685 2.44688 16.4986 2.49007 16.3387L2.13742 16.4286ZM135.493 14.4293L135.298 14.5892C135.356 14.7092 135.414 14.8391 135.478 14.9491C135.543 15.0591 135.615 14.8691 135.615 14.8591C135.581 14.7125 135.54 14.569 135.493 14.4293ZM135.435 15.339C135.644 15.9088 135.831 15.9288 136.241 15.4789L135.435 15.339ZM135.997 25.1458L135.234 25.5357C135.666 25.6356 135.666 25.6356 135.997 25.1258V25.1458ZM133.838 26.4654L134.773 25.9555C134.349 25.7656 133.953 25.6556 133.737 26.2154L133.838 26.4654ZM133.247 14.3293C133.479 14.3548 133.711 14.2697 133.903 14.0879C134.095 13.9061 134.237 13.6386 134.305 13.3296C134.118 13.2696 133.931 13.1197 133.794 13.1797C133.49 13.2945 133.209 13.5068 132.974 13.7995C132.83 14.0194 132.988 14.2993 133.262 14.3093L133.247 14.3293ZM131.362 29.3244C131.424 29.2977 131.48 29.2499 131.525 29.1853C131.571 29.1207 131.603 29.0414 131.621 28.9546C131.621 28.8246 131.455 28.5247 131.419 28.5447C131.259 28.6588 131.109 28.7998 130.973 28.9646C131.168 29.0945 131.283 29.2945 131.376 29.2745L131.362 29.3244ZM121.661 12.3299C122.172 12.18 122.891 12.6998 123.05 11.3303C122.316 10.9104 122.049 11.7102 121.682 12.23L121.661 12.3299ZM126.072 29.3944C126.792 29.9842 127.404 29.3045 128.015 29.0345L126.072 29.3944ZM130.887 31.0939L130.829 30.844C130.592 30.9139 130.29 30.764 130.203 31.3038L130.887 31.0939ZM111.736 35.6924C114.495 35.1259 117.249 34.5494 119.998 33.9629C122.006 33.5231 124.021 33.1232 126.015 32.5734C126.869 32.3096 127.738 32.1457 128.613 32.0836C129.146 31.9417 129.66 31.6889 130.138 31.3338C129.616 31.1191 129.065 31.0679 128.526 31.1838C128 31.4406 127.458 31.6281 126.907 31.7437C125.209 32.2035 123.503 32.5834 121.805 33.0033C120.106 33.4231 118.58 33.803 116.968 34.2129C116.911 34.2129 116.853 34.2828 116.796 34.2728C115.551 33.9529 114.414 34.6827 113.197 34.9526C112.348 35.1426 111.449 34.9526 110.556 35.8223C111.067 35.6724 111.413 35.6624 111.751 35.5924L111.736 35.6924ZM109.657 35.9823C108.326 36.0039 106.998 36.1609 105.684 36.4521C104.288 36.6221 102.892 36.862 101.503 37.0919C100.114 37.3218 98.8039 37.5918 97.4509 37.8217C96.0979 38.0516 94.6801 38.2815 93.2912 38.5115L89.225 39.1913C96.1339 39.0313 102.87 37.042 109.671 35.8823L109.657 35.9823ZM53.3133 42.0203L51.1543 41.7904C51.8236 42.5701 52.5937 42.1003 53.3133 42.0203ZM50.1036 2.74305H49.1896V2.83302H50.0532L50.1036 2.74305ZM49.4847 42.2703V41.9204H48.9377V42.1803L49.4847 42.2703ZM48.5419 41.7704H47.3976C47.7935 42.2103 47.7934 42.2103 48.5419 41.7704ZM47.5128 3.06295V2.95299H46.6276V3.06295H47.5128ZM44.0296 42.0503L44.483 42.0003V41.7504L44.044 41.8404L44.0296 42.0503ZM41.5755 41.9603C41.6546 41.9603 41.7698 41.9604 41.8777 41.9104V41.7404L41.374 41.4705L41.302 41.6205C41.3956 41.6904 41.4675 41.8504 41.5755 41.9104V41.9603ZM39.5892 41.6405C38.9055 41.4305 38.2218 40.9707 37.5237 41.6904C37.8483 41.9064 38.2056 42.0101 38.5653 41.9927C38.9249 41.9753 39.2762 41.8373 39.5892 41.5905V41.6405ZM36.2283 41.7004V41.5005C36.0988 41.3605 35.8973 41.0606 35.8469 41.1006C35.4007 41.4705 34.7746 40.8607 34.314 41.7004H36.2283ZM32.8818 41.6405V41.3705L32.2557 41.2406C32.2557 41.3406 32.2557 41.4505 32.2557 41.5505L32.8818 41.6405ZM30.6221 5.19225L32.9682 4.82238V4.55246L30.6293 5.03232L30.6221 5.19225ZM29.4706 41.3106H29.9744C29.9744 41.1906 29.9744 40.9807 29.9744 40.9807C29.8162 40.9657 29.6575 40.9657 29.4994 40.9807L29.4706 41.3106ZM28.6934 41.3106C28.3814 40.953 27.9895 40.7575 27.585 40.7575C27.1806 40.7575 26.7887 40.953 26.4767 41.3106H28.6934ZM26.9445 6.39188C26.7646 5.67211 26.7646 5.67211 26.1385 6.012L26.9445 6.39188ZM25.6059 39.2712L25.6779 39.0413L25.2389 38.7714L25.1741 38.9713L25.6059 39.2712ZM23.4109 6.61179L24.5408 6.41186V6.19193L23.4037 6.27191L23.4109 6.61179ZM22.9 9.61082V9.37091L22.2667 9.45088V9.66081L22.9 9.61082ZM18.805 8.16129C19.4815 7.85139 20.1652 7.56149 20.8489 7.33156C20.9857 7.33156 21.1728 7.50151 21.3095 7.58148L22.2954 6.81174C20.8437 6.83536 19.4064 7.21437 18.0494 7.93137C18.1407 8.06183 18.2576 8.1522 18.3855 8.1913C18.5134 8.23039 18.6468 8.21649 18.7691 8.1513L18.805 8.16129ZM15.3722 9.091C15.5812 8.89559 15.816 8.75963 16.0631 8.691C16.3101 8.62236 16.5645 8.62241 16.8115 8.69112C17.2074 8.78109 17.2074 8.69113 17.4305 7.95137L13.7817 9.01102C14.0125 9.23861 14.2865 9.36664 14.5694 9.37908C14.8523 9.39153 15.1315 9.28784 15.3722 9.08099V9.091ZM12.4144 40.081C12.1786 39.8419 11.8997 39.6985 11.6087 39.6668C11.3177 39.635 11.026 39.7161 10.7663 39.901C11.3636 40.5908 11.8314 40.2009 12.4144 40.081ZM9.76595 38.4715C10.1906 39.1513 10.6224 38.7314 11.0614 38.4115C10.6393 38.2063 10.1772 38.2277 9.76595 38.4715ZM8.1035 14.4793L7.90919 15.309C8.27623 15.189 8.27621 15.189 8.1035 14.5192V14.4793ZM8.23303 31.8036H7.76526C7.89479 32.4234 8.03152 32.2235 8.23303 31.8436V31.8036ZM5.97327 34.8027L7.21831 34.9226C6.78651 34.6127 6.70015 34.6027 5.97327 34.8826V34.8027ZM18.2077 40.8007L21.3671 41.0606C20.31 41.1997 19.2441 41.1324 18.2005 40.8607L18.2077 40.8007ZM23.6844 41.0606V41.3206L22.3314 41.1306V40.9507L23.6844 41.0606ZM138.422 24.476C138.268 24.6311 138.107 24.7714 137.94 24.8959C137.94 24.8959 137.817 24.7859 137.666 24.636L138.3 24.2161L138.422 24.476ZM0.964355 16.5386C0.654892 16.5386 0.575729 16.3187 0.662079 15.7688L1.15866 16.1887C1.0795 16.3087 1.02191 16.5386 0.949951 16.5386H0.964355ZM137.76 15.319L137.817 14.9891L138.537 15.319L138.494 15.5489L137.76 15.319ZM5.33995 38.1616L5.08807 38.4715L4.82179 37.9417L4.92256 37.8317L5.33995 38.1616ZM16.7828 40.8807L16.0199 40.9507V40.7307L16.7828 40.8807Z" fill="#0B2D61" fill-opacity="0.15"/>
</svg>
