<svg width="299" height="43" viewBox="0 0 299 43" fill="none" xmlns="http://www.w3.org/2000/svg">
<g clip-path="url(#clip0_159_4623)">
<path d="M2.39624 26.5632C3.34851 26.4631 4.30078 26.3929 5.25305 26.3529C6.05173 26.3529 6.78897 26.3529 7.58765 26.3529C7.89484 25.5716 6.66614 25.6217 6.62006 25.3512C6.40503 24.2494 5.19165 24.5099 4.17792 24.4698L0.000183105 24.2495C0.078125 24.1074 0.204224 23.9787 0.369141 23.8729C0.534027 23.7671 0.733429 23.687 0.952454 23.6385C1.62494 23.4975 2.31302 23.3903 3.01059 23.3179C3.3963 23.2977 3.7561 23.1834 4.0181 22.9977C4.28006 22.812 4.42487 22.5686 4.42365 22.3163L2.5191 21.6853L5.94424 20.4833C3.97824 20.3331 2.87238 19.3114 1.19821 19.6019C1.82678 19.3361 2.41788 19.0344 2.96454 18.7004C3.28708 18.44 3.39459 18.0494 4.00894 18.1395C4.45825 18.256 4.88177 18.4109 5.26843 18.6003C6.17462 18.4099 6.3743 17.9392 6.3743 17.3783C5.22235 17.208 3.91678 17.8991 2.97986 17.0778C3.08737 15.6154 4.51581 15.1747 6.405 15.0745C8.29419 14.9744 10.1988 14.7941 12.088 14.6739C12.6053 14.6093 13.1404 14.6477 13.6239 14.784C13.9464 14.9443 13.885 15.4151 14.0079 15.7857L15.4056 15.6655L14.9141 14.5737C16.45 14.2532 16.45 14.2532 17.218 14.5737L18.8307 14.6538C18.8307 13.9226 18.969 13.3717 19.0457 12.7007C17.4023 12.8409 15.7127 12.9711 14.0232 13.1414C12.3337 13.3116 10.7517 13.532 9.10825 13.6923C8.09454 13.7924 7.06546 13.8025 6.55859 13.0312L10.5213 12.1397C11.7526 11.8136 13.0147 11.5393 14.2997 11.3184C15.6473 11.1346 17.0267 11.0705 18.4006 11.1281C19.1489 11.1238 19.8909 11.0392 20.597 10.8777C21.3306 10.6498 22.1043 10.4816 22.9009 10.3769C24.7901 10.3769 24.7901 10.4269 26.4796 9.37523L12.6562 10.9478C12.4566 10.5071 12.3337 10.2066 12.1801 9.86604C12.6295 9.74486 13.0914 9.64444 13.5625 9.56555C17.5559 9.02466 21.5647 8.56391 25.5581 7.98297C30.8263 7.27181 36.0792 6.54062 41.3475 5.84949C47.0611 5.08825 52.7441 4.23687 58.4885 3.64591C66.6443 2.80454 74.8308 2.0433 83.0634 1.46236C90.0519 0.981576 97.1018 0.741182 104.136 0.520824C111.924 0.270416 119.726 0.120166 127.513 0.0300191C132.95 -0.0300787 138.372 0.0300253 143.81 0.130188C148.417 0.190286 153.133 0.310479 157.787 0.440691C162.84 0.570903 167.893 0.871391 172.946 0.861374C178.383 0.861374 183.698 1.51243 189.15 1.59256C193.635 1.66267 198.089 2.07335 202.559 2.35381C203.696 2.43394 204.817 2.64428 205.953 2.72441C207.09 2.80454 208.242 2.72441 209.394 2.86464C212.865 3.12506 216.352 3.43556 219.823 3.706C224.661 4.08662 229.499 4.40714 234.322 4.84786C239.56 5.31863 244.782 5.9096 250.05 6.31025C252.339 6.49054 254.658 6.67084 256.885 6.89119C259.465 7.1416 262.046 7.46213 264.565 7.72255C268.804 8.14323 273.074 8.44372 277.267 8.97459C279.955 9.32516 282.489 10.1064 285.161 10.5071C287.235 10.8176 287.972 11.9194 288.909 12.8509C289.232 13.1814 289.462 13.6021 290.015 13.7123C291.198 13.9427 290.983 15.1346 292.426 15.1146V15.2147L291.812 15.6955C292.099 15.8498 292.437 15.959 292.799 16.0145C293.161 16.0701 293.538 16.0706 293.901 16.016C294.756 15.9312 295.631 15.9928 296.438 16.1947C297.246 16.3966 297.96 16.732 298.509 17.1679C298.412 17.4683 298.14 17.7325 297.75 17.9045C297.36 18.0764 296.883 18.1428 296.42 18.0894C294.783 18.12 293.152 18.2204 291.536 18.3899C291.536 18.3899 291.536 18.5301 291.336 18.8707C293.932 18.7605 296.573 18.46 298.785 19.7421C298.877 20.9841 297.51 21.7454 296.266 22.5667C295.744 22.9073 295.16 23.2178 294.592 23.5683C294.024 23.9189 293.947 24.0391 293.563 24.1092C292.104 24.3696 291.443 24.9205 291.781 25.7419C289.892 26.2126 288.156 26.6133 286.467 27.074C285.428 27.4705 284.297 27.7547 283.119 27.9154C282.856 27.9089 282.594 27.9404 282.352 28.0078C282.11 28.0751 281.893 28.1766 281.719 28.3049C281.544 28.4333 281.415 28.5853 281.341 28.75C281.267 28.9147 281.25 29.0881 281.291 29.2576C282.366 29.2576 283.533 29.3678 284.086 28.7267C284.639 28.0857 286.022 28.1458 286.805 27.675C287.588 27.2043 288.556 27.3545 289.539 27.675C289.105 27.7271 288.689 27.8288 288.31 27.9755C287.097 28.8209 285.465 29.36 283.702 29.498C283.327 29.5557 282.969 29.6539 282.642 29.7885L279.985 30.4696C279.858 30.5211 279.739 30.5816 279.632 30.6499V31.4211C279.509 31.4912 279.417 31.5714 279.31 31.5914C275.731 32.2024 272.152 32.8334 268.558 33.3943C266.147 33.7649 263.689 34.0354 261.262 34.3459C260.279 34.4761 259.296 34.6063 258.298 34.7165C256.992 34.8567 255.672 34.9669 254.366 35.1071C253.736 35.1772 253.137 35.3475 252.492 35.3776C249.666 35.5378 246.947 36.1288 244.091 36.1789C243.772 36.2086 243.468 36.2839 243.2 36.3992C242.321 36.747 241.269 36.8584 240.266 36.7097C239.992 36.6602 239.705 36.6498 239.424 36.6792C239.143 36.7086 238.875 36.7771 238.638 36.88C237.838 37.2951 236.833 37.5053 235.812 37.471C235.062 37.4342 234.307 37.4645 233.569 37.5611C230.16 38.4025 226.52 38.3023 223.018 38.723C219.807 39.1136 216.582 39.4242 213.341 39.7246C211.769 39.82 210.189 39.8501 208.611 39.8148C207.996 39.8148 207.366 39.5844 207.075 40.1754C206.982 40.3256 206.261 40.4458 205.923 40.3757C205.585 40.3056 205.324 39.7146 204.571 40.1353C204.264 40.3156 203.696 40.2956 203.327 40.4558C203.152 40.5619 202.943 40.6413 202.716 40.6883C202.488 40.7353 202.247 40.7487 202.01 40.7276C201.774 40.7065 201.547 40.6515 201.347 40.5663C201.147 40.4812 200.979 40.3682 200.854 40.2355C200.578 40.3957 200.393 40.5961 200.132 40.6662C199.487 40.8164 198.827 40.8965 198.166 41.0167C197.705 40.1153 196.953 40.8665 196.338 40.8164C195.217 40.7263 194.449 41.2271 193.389 41.2271C191.961 41.2271 190.533 41.4575 189.089 41.5476C184.174 41.8581 179.274 42.1786 174.359 42.4391C172.455 42.5392 170.535 42.4391 168.63 42.4992C165.558 42.5793 162.394 42.7295 159.276 42.8097C156.926 42.8097 154.561 42.8097 152.196 42.8097C147.219 42.8898 142.243 43.0801 137.251 43.0901C129.771 43.0901 122.276 43.02 114.796 42.9499C108.913 42.8998 103.015 42.8297 97.1326 42.7396C90.7943 42.6394 84.456 42.5192 78.1177 42.379C71.974 42.2287 65.7074 42.0484 59.5022 41.8781L54.2493 41.6979C54.7101 41.197 54.664 40.8865 53.9728 40.8064C52.7466 40.6275 51.4966 40.5269 50.2405 40.5059C47.6212 40.4107 44.9959 40.4107 42.3766 40.5059C42.2537 40.5059 42.1308 40.4558 42.0079 40.4558C40.687 40.3557 39.3815 40.2455 38.0606 40.1854C37.2619 40.1854 36.5247 40.1854 35.6492 40.1854C35.2038 40.1854 34.7583 40.1053 34.3129 40.0952C32.9152 40.0952 31.5175 40.0952 30.1198 40.0952C29.7091 40.0548 29.2896 40.0812 28.8983 40.172C28.507 40.2629 28.1563 40.4154 27.8773 40.6161L31.7479 41.0468V41.177L20.4127 40.6461V40.4659L22.7013 40.1854C21.9487 39.935 21.6414 39.7347 21.3343 39.7347C18.8922 39.7347 16.7265 38.6729 14.1307 39.2038C13.9531 39.2495 13.7555 39.2495 13.5778 39.2038C13.2675 39.0331 12.975 38.849 12.7023 38.6529C13.0095 38.4726 13.3321 38.132 13.6239 38.1521C14.6584 38.2301 15.6844 38.3505 16.6958 38.5127C17.7709 38.4526 18.9536 38.3724 20.1516 38.3424C21.3496 38.3123 21.4725 38.2222 21.2575 37.2907C20.2745 37.1204 19.1993 36.6997 18.3546 36.8399C16.7878 37.0049 15.1906 37.0049 13.6239 36.8399C11.6118 36.7698 9.61511 36.6296 7.61841 36.5194C9.58438 36.3992 11.4275 36.269 12.7023 35.1572C12.7945 34.426 11.2739 34.8567 11.1664 34.406L13.0556 33.0237C12.2723 32.0221 10.8285 32.1022 9.72263 31.8919L8.35562 30.6398C6.66611 31.1607 5.75992 30.5297 4.91516 29.7885C5.62167 29.4379 6.789 29.7284 7.29587 28.8469C6.57397 28.8469 5.97495 28.8469 5.3913 28.7568C4.80762 28.6666 4.33148 28.6666 4.23932 28.5064C3.90143 27.9455 3.241 27.9755 2.53445 27.8954C2.33533 27.873 2.14636 27.8218 1.98157 27.7455C1.81674 27.6693 1.6803 27.5699 1.58218 27.4547C1.38254 26.8637 1.85867 26.6233 2.39624 26.5632ZM4.56192 16.4668L5.05338 16.8775C5.13016 16.7072 5.22235 16.5369 5.31451 16.3766L4.56192 16.4668ZM289.17 14.4635L288.755 14.6238C288.878 14.744 289.001 14.8742 289.139 14.9844C289.278 15.0946 289.431 14.9042 289.431 14.8942C289.358 14.7473 289.27 14.6035 289.17 14.4635ZM289.047 15.375C289.493 15.9459 289.892 15.966 290.768 15.5152L289.047 15.375ZM290.245 25.201L288.617 25.5916C289.539 25.6918 289.539 25.6918 290.245 25.181V25.201ZM285.638 26.5231L287.634 26.0123C286.728 25.822 285.883 25.7118 285.423 26.2727L285.638 26.5231ZM284.378 14.3633C284.873 14.3889 285.367 14.3036 285.777 14.1215C286.188 13.9394 286.491 13.6713 286.636 13.3617C286.237 13.3016 285.837 13.1514 285.545 13.2115C284.895 13.3266 284.296 13.5392 283.794 13.8325C283.487 14.0528 283.825 14.3333 284.409 14.3433L284.378 14.3633ZM280.354 29.3878C280.486 29.3611 280.606 29.3131 280.703 29.2484C280.799 29.1837 280.869 29.1042 280.907 29.0172C280.907 28.887 280.554 28.5865 280.477 28.6065C280.134 28.7209 279.814 28.8622 279.525 29.0272C279.939 29.1574 280.185 29.3578 280.385 29.3377L280.354 29.3878ZM259.65 12.3601C260.74 12.2098 262.276 12.7307 262.614 11.3585C261.047 10.9378 260.479 11.7391 259.696 12.2599L259.65 12.3601ZM269.065 29.4579C270.601 30.0489 271.906 29.3678 273.212 29.0973L269.065 29.4579ZM279.34 31.1607L279.217 30.9103C278.711 30.9804 278.065 30.8302 277.881 31.371L279.34 31.1607ZM238.469 35.7682C244.357 35.2006 250.234 34.623 256.102 34.0354C260.387 33.5947 264.687 33.194 268.942 32.6431C270.766 32.3788 272.621 32.2146 274.487 32.1523C275.624 32.0102 276.722 31.7569 277.743 31.4011C276.627 31.186 275.452 31.1347 274.302 31.2508C273.18 31.5081 272.023 31.6959 270.847 31.8118C267.222 32.2725 263.582 32.6531 259.957 33.0738C256.332 33.4945 253.076 33.8751 249.635 34.2858C249.512 34.2858 249.39 34.3559 249.267 34.3459C246.61 34.0254 244.183 34.7566 241.587 35.027C239.775 35.2173 237.855 35.027 235.95 35.8984C237.041 35.7482 237.778 35.7381 238.5 35.668L238.469 35.7682ZM234.03 36.0587C231.19 36.0803 228.357 36.2376 225.552 36.5294C222.572 36.6997 219.592 36.9401 216.628 37.1705C213.664 37.4009 210.868 37.6713 207.981 37.9017C205.093 38.132 202.067 38.3624 199.103 38.5928L190.425 39.2739C205.17 39.1137 219.546 37.1204 234.061 35.9585L234.03 36.0587ZM113.782 42.1085L109.174 41.8781C110.603 42.6594 112.246 42.1887 113.782 42.1085ZM106.932 2.75446H104.981V2.8446H106.824L106.932 2.75446ZM105.611 42.3589V42.0084H104.444V42.2688L105.611 42.3589ZM103.599 41.8581H101.157C102.001 42.2988 102.001 42.2988 103.599 41.8581ZM101.402 3.07498V2.9648H99.5132V3.07498H101.402ZM93.9685 42.1386L94.9362 42.0885V41.8381L93.9992 41.9282L93.9685 42.1386ZM88.731 42.0484C88.8999 42.0484 89.1457 42.0484 89.3761 41.9983V41.8281L88.3009 41.5576L88.1473 41.7079C88.347 41.778 88.5006 41.9383 88.731 41.9983V42.0484ZM84.4918 41.7279C83.0327 41.5176 81.5735 41.0568 80.0837 41.778C80.7764 41.9944 81.539 42.0983 82.3066 42.0808C83.0742 42.0634 83.8239 41.9251 84.4918 41.6778V41.7279ZM77.319 41.788V41.5877C77.0426 41.4474 76.6125 41.1469 76.505 41.187C75.5527 41.5576 74.2164 40.9466 73.2334 41.788H77.319ZM70.1769 41.7279V41.4575L68.8407 41.3273C68.8407 41.4274 68.8407 41.5376 68.8407 41.6378L70.1769 41.7279ZM65.3541 5.20845L70.3613 4.83785V4.5674L65.3695 5.0482L65.3541 5.20845ZM62.8966 41.3974H63.9718C63.9718 41.2772 63.9718 41.0668 63.9718 41.0668C63.6343 41.0518 63.2956 41.0518 62.9581 41.0668L62.8966 41.3974ZM61.2378 41.3974C60.572 41.0391 59.7357 40.8432 58.8725 40.8432C58.0093 40.8432 57.173 41.0391 56.5071 41.3974H61.2378ZM57.5055 6.41042C57.1215 5.68924 57.1215 5.68924 55.7852 6.02979L57.5055 6.41042ZM54.6487 39.354L54.8023 39.1237L53.8653 38.8532L53.7271 39.0536L54.6487 39.354ZM49.9641 6.63076L52.3755 6.43044V6.21008L49.9487 6.29021L49.9641 6.63076ZM48.8735 9.63565V9.39527L47.5219 9.4754V9.68574L48.8735 9.63565ZM40.1341 8.18329C41.5779 7.87279 43.037 7.58231 44.4962 7.35194C44.788 7.35194 45.1873 7.52221 45.4791 7.60234L47.5834 6.8311C44.485 6.85476 41.4174 7.23451 38.5214 7.95292C38.7162 8.08363 38.9656 8.17418 39.2386 8.21335C39.5117 8.25252 39.7963 8.23859 40.0573 8.17328L40.1341 8.18329ZM32.8077 9.11481C33.2538 8.91902 33.7549 8.7828 34.2822 8.71403C34.8094 8.64526 35.3523 8.64531 35.8795 8.71415C36.7243 8.8043 36.7243 8.71416 37.2005 7.97296L29.4133 9.03468C29.9058 9.26271 30.4905 9.39099 31.0943 9.40346C31.698 9.41593 32.294 9.31204 32.8077 9.10479V9.11481ZM26.495 40.1654C25.9919 39.9259 25.3966 39.7822 24.7755 39.7504C24.1545 39.7185 23.5321 39.7998 22.9777 39.9851C24.2526 40.6762 25.2509 40.2856 26.495 40.1654ZM20.8428 38.5527C21.749 39.2338 22.6706 38.8132 23.6075 38.4926C22.7067 38.287 21.7206 38.3084 20.8428 38.5527ZM17.2948 14.5136L16.8801 15.345C17.6634 15.2248 17.6634 15.2248 17.2948 14.5537V14.5136ZM17.5712 31.8719H16.5729C16.8493 32.4929 17.1411 32.2925 17.5712 31.9119V31.8719ZM12.7484 34.8768L15.4056 34.9969C14.484 34.6864 14.2997 34.6764 12.7484 34.9569V34.8768ZM38.8593 40.8865L45.602 41.147C43.346 41.2863 41.0712 41.2188 38.8439 40.9466L38.8593 40.8865ZM50.5477 41.147V41.4074L47.6602 41.2171V41.0368L50.5477 41.147ZM295.421 24.5299C295.094 24.6853 294.75 24.8258 294.392 24.9506C294.392 24.9506 294.131 24.8404 293.809 24.6902L295.16 24.2695L295.421 24.5299ZM2.05832 16.577C1.39789 16.577 1.22891 16.3566 1.41321 15.8057L2.47302 16.2264C2.30408 16.3466 2.18118 16.577 2.02759 16.577H2.05832ZM294.008 15.355L294.131 15.0244L295.667 15.355L295.575 15.5853L294.008 15.355ZM11.3968 38.2422L10.8592 38.5527L10.2909 38.0219L10.506 37.9117L11.3968 38.2422ZM35.8181 40.9667L34.19 41.0368V40.8164L35.8181 40.9667Z" fill="#0B2D61" fill-opacity="0.15"/>
</g>
<defs>
<clipPath id="clip0_159_4623">
<rect width="299" height="43" fill="white" transform="matrix(-1 0 0 1 299 0)"/>
</clipPath>
</defs>
</svg>
