<svg width="676" height="435" viewBox="0 0 676 435" fill="none" xmlns="http://www.w3.org/2000/svg">
<g opacity="0.5" filter="url(#filter0_b_514_3214)">
<path fill-rule="evenodd" clip-rule="evenodd" d="M402.54 350.31C498.267 259.639 601.193 107.957 670.012 -9.19471C674.996 -17.6788 672.039 -28.5484 663.507 -33.4495C654.997 -38.3375 644.159 -35.4373 639.187 -26.9762C570.922 89.2091 470.065 237.363 378.036 324.532C354.105 347.199 331.246 365.279 310.155 377.574C288.9 389.964 270.722 395.726 255.791 395.628C241.731 395.535 229.16 390.278 217.773 377.154C205.845 363.407 194.89 340.553 186.859 305.107C169.992 230.666 149.988 181.822 127.087 153.574C115.432 139.197 102.296 129.251 87.5857 124.763C72.6395 120.202 57.9521 121.853 44.5237 127.361C18.8513 137.892 -3.49065 162.973 -21.5138 189.999C-36.617 212.647 -49.965 238.628 -60.7409 263.578C-64.6429 272.613 -60.1179 282.974 -50.959 286.574C-41.8221 290.165 -31.5306 285.667 -27.6201 276.662C-17.577 253.536 -5.35653 229.901 8.12636 209.684C25.2704 183.976 42.6566 166.55 58.0407 160.24C65.1404 157.327 71.3134 156.975 77.1554 158.758C83.2334 160.612 90.8137 165.356 99.3989 175.946C116.979 197.63 135.551 239.825 152.124 312.97C160.813 351.316 173.562 380.515 190.848 400.437C208.674 420.982 230.828 431.01 255.532 431.174C279.363 431.331 303.986 422.322 328.098 408.267C352.373 394.116 377.446 374.079 402.54 350.31Z" fill="url(#paint0_radial_514_3214)"/>
<path d="M671.306 -8.43494C602.468 108.748 499.456 260.579 403.571 351.399C378.428 375.214 353.263 395.334 328.854 409.563C304.622 423.688 279.727 432.834 255.522 432.674C230.37 432.507 207.813 422.278 189.715 401.42C172.202 381.237 159.378 351.77 150.661 313.301C134.101 240.211 115.588 198.298 98.2337 176.89C89.7788 166.461 82.4329 161.936 76.7176 160.192C71.2572 158.526 65.4421 158.825 58.6099 161.627C43.659 167.76 26.4816 184.863 9.37433 210.516C-4.0465 230.64 -16.2264 254.192 -26.2442 277.26C-30.4637 286.976 -41.5893 291.869 -51.5077 287.97C-61.4266 284.071 -66.3685 272.825 -62.1179 262.983C-51.3166 237.974 -37.9276 211.908 -22.7618 189.167C-4.70101 162.084 17.8496 136.681 43.9544 125.974C57.6482 120.357 72.6937 118.65 88.0234 123.328C103.098 127.928 116.468 138.093 128.252 152.629C151.378 181.154 171.442 230.279 188.322 304.775C196.325 340.099 207.204 362.685 218.906 376.171C230.021 388.982 242.188 394.038 255.8 394.128C270.358 394.224 288.264 388.598 309.399 376.278C330.356 364.061 353.123 346.063 377.004 323.443C468.876 236.424 569.647 88.4183 637.894 -27.7361C643.28 -36.9029 655.027 -40.05 664.254 -34.7502C673.499 -29.4394 676.718 -17.6482 671.306 -8.43494Z" stroke="#365677" stroke-width="3"/>
</g>
<defs>
<filter id="filter0_b_514_3214" x="-130.15" y="-103.825" width="870.589" height="603.001" filterUnits="userSpaceOnUse" color-interpolation-filters="sRGB">
<feFlood flood-opacity="0" result="BackgroundImageFix"/>
<feGaussianBlur in="BackgroundImageFix" stdDeviation="32.5"/>
<feComposite in2="SourceAlpha" operator="in" result="effect1_backgroundBlur_514_3214"/>
<feBlend mode="normal" in="SourceGraphic" in2="effect1_backgroundBlur_514_3214" result="shape"/>
</filter>
<radialGradient id="paint0_radial_514_3214" cx="0" cy="0" r="1" gradientUnits="userSpaceOnUse" gradientTransform="translate(743.943 347.484) rotate(-162.961) scale(883.734 496.088)">
<stop stop-color="white" stop-opacity="0.4"/>
<stop offset="1" stop-color="white" stop-opacity="0"/>
</radialGradient>
</defs>
</svg>
