<svg width="36" height="38" viewBox="0 0 36 38" fill="none" xmlns="http://www.w3.org/2000/svg">
<path d="M6.22485 5.08152C9.07629 2.61158 12.7079 1.16219 16.4146 0.802838C19.7885 0.477025 23.2796 0.922622 26.3747 2.37919C28.699 3.47402 30.7889 5.18933 32.1291 7.44126C33.3311 9.44645 33.8512 11.8661 33.5794 14.1995C33.3404 16.4682 32.2791 18.6506 30.5734 20.1336C27.75 22.6371 23.4319 23.0467 20.1282 21.3314C18.4038 20.4234 17.0074 18.8375 16.4029 16.9377C15.5758 14.4007 16.0139 11.4349 17.6376 9.32427C18.0617 8.81399 18.5795 8.1408 19.3105 8.23184C19.3925 8.77566 19.109 9.27875 19.102 9.81778C18.9872 11.0563 19.5847 12.3213 20.5945 13.0088C22.2252 14.1827 24.7065 13.924 25.9951 12.338C27.2018 10.9174 27.2557 8.67983 26.213 7.1466C25.1212 5.51274 23.2023 4.66467 21.3302 4.46104C18.6357 4.12564 15.8171 5.03361 13.8326 6.93578C10.7797 9.82736 9.74639 14.5684 10.9273 18.5979C11.5997 20.9026 13.0781 22.9317 14.9971 24.3068C17.2463 25.9479 20.0298 26.7121 22.7712 26.7169C25.3157 26.7073 27.8859 26.0317 30.0251 24.5967C32.1268 23.2048 33.7294 21.0799 34.5939 18.6842C34.7134 18.3656 34.7978 18.0278 34.9876 17.7427C35.1492 17.4983 35.5569 17.4552 35.7233 17.7163C35.9295 18.0254 35.9623 18.4135 35.9904 18.7776C36.1497 23.787 34.3268 28.9089 30.7795 32.4162C27.4806 35.7989 22.7758 37.5525 18.139 37.519C13.4882 37.5525 8.78341 35.8229 5.41417 32.4977C3.87013 30.9956 2.60491 29.1964 1.7052 27.2224C0.0486942 23.6073 -0.370704 19.4604 0.315797 15.5458C1.02573 11.4971 3.13209 7.71677 6.22485 5.08152Z" fill="#8BBC3A"/>
</svg>
