<svg width="14" height="13" viewBox="0 0 14 13" fill="none" xmlns="http://www.w3.org/2000/svg">
<path d="M3.60938 12.5H1.06641V4.32422H3.60938V12.5ZM2.32422 3.23047C1.53125 3.23047 0.875 2.54688 0.875 1.72656C0.875 0.93359 1.53125 0.277344 2.32422 0.277344C3.14453 0.277344 3.80078 0.93359 3.80078 1.72656C3.80078 2.54688 3.14453 3.23047 2.32422 3.23047ZM13.0977 12.5H10.582V8.53516C10.582 7.57812 10.5547 6.375 9.24219 6.375C7.92969 6.375 7.73828 7.38672 7.73828 8.45312V12.5H5.19531V4.32422H7.62891V5.44531H7.65625C8.01172 4.81641 8.83203 4.13281 10.0625 4.13281C12.6328 4.13281 13.125 5.82812 13.125 8.01562V12.5H13.0977Z" fill="white"/>
</svg>
