<svg width="14" height="13" viewBox="0 0 14 13" fill="none" xmlns="http://www.w3.org/2000/svg">
<path d="M7 3.10547C8.72266 3.10547 10.1445 4.52734 10.1445 6.25C10.1445 8 8.72266 9.39453 7 9.39453C5.25 9.39453 3.85547 8 3.85547 6.25C3.85547 4.52734 5.25 3.10547 7 3.10547ZM7 8.30078C8.12109 8.30078 9.02344 7.39844 9.02344 6.25C9.02344 5.12891 8.12109 4.22656 7 4.22656C5.85156 4.22656 4.94922 5.12891 4.94922 6.25C4.94922 7.39844 5.87891 8.30078 7 8.30078ZM10.9922 2.99609C10.9922 3.40625 10.6641 3.73438 10.2539 3.73438C9.84375 3.73438 9.51562 3.40625 9.51562 2.99609C9.51562 2.58594 9.84375 2.25781 10.2539 2.25781C10.6641 2.25781 10.9922 2.58594 10.9922 2.99609ZM13.0703 3.73438C13.125 4.74609 13.125 7.78125 13.0703 8.79297C13.0156 9.7773 12.7969 10.625 12.0859 11.3633C11.375 12.0742 10.5 12.293 9.51562 12.3477C8.50391 12.4023 5.46875 12.4023 4.45703 12.3477C3.47266 12.293 2.625 12.0742 1.88672 11.3633C1.17578 10.625 0.957031 9.7773 0.902344 8.79297C0.847656 7.78125 0.847656 4.74609 0.902344 3.73438C0.957031 2.75 1.17578 1.875 1.88672 1.16406C2.625 0.453125 3.47266 0.234375 4.45703 0.179688C5.46875 0.125 8.50391 0.125 9.51562 0.179688C10.5 0.234375 11.375 0.453125 12.0859 1.16406C12.7969 1.875 13.0156 2.75 13.0703 3.73438ZM11.7578 9.8594C12.0859 9.06641 12.0039 7.15234 12.0039 6.25C12.0039 5.375 12.0859 3.46094 11.7578 2.64062C11.5391 2.12109 11.1289 1.68359 10.6094 1.49219C9.78906 1.16406 7.875 1.24609 7 1.24609C6.09766 1.24609 4.18359 1.16406 3.39062 1.49219C2.84375 1.71094 2.43359 2.12109 2.21484 2.64062C1.88672 3.46094 1.96875 5.375 1.96875 6.25C1.96875 7.15234 1.88672 9.06641 2.21484 9.8594C2.43359 10.4062 2.84375 10.8164 3.39062 11.0352C4.18359 11.3633 6.09766 11.2812 7 11.2812C7.875 11.2812 9.78906 11.3633 10.6094 11.0352C11.1289 10.8164 11.5664 10.4062 11.7578 9.8594Z" fill="white"/>
</svg>
