<svg width="285" height="39" viewBox="0 0 285 39" fill="none" xmlns="http://www.w3.org/2000/svg">
<path d="M0.96959 37L19.9596 9.91H7.98959L16.8996 0.999999H37.0596L18.0696 28.09H31.6596L22.7496 37H0.96959Z" fill="white"/>
<path d="M52.4251 14.41H66.8251C66.0451 13 64.9501 11.875 63.5401 11.035C62.1601 10.165 60.6151 9.73 58.9051 9.73C57.6451 9.73 56.4601 9.97 55.3501 10.45C54.2401 10.93 53.2651 11.59 52.4251 12.43C51.5851 13.27 50.9251 14.245 50.4451 15.355C49.9651 16.465 49.7251 17.65 49.7251 18.91C49.7251 20.17 49.9651 21.355 50.4451 22.465C50.9251 23.575 51.5851 24.55 52.4251 25.39C53.2651 26.23 54.2401 26.89 55.3501 27.37C56.4601 27.85 57.6451 28.09 58.9051 28.09H72.8551L63.8551 37H58.9051C56.4151 37 54.0601 36.535 51.8401 35.605C49.6501 34.645 47.7301 33.355 46.0801 31.735C44.4601 30.085 43.1701 28.165 42.2101 25.975C41.2801 23.755 40.8151 21.4 40.8151 18.91C40.8151 16.42 41.2801 14.08 42.2101 11.89C43.1701 9.67 44.4601 7.75 46.0801 6.13C47.7301 4.48 49.6501 3.19 51.8401 2.26C54.0601 1.3 56.4151 0.819999 58.9051 0.819999C61.3951 0.819999 63.7351 1.3 65.9251 2.26C68.1451 3.19 70.0651 4.48 71.6851 6.13C73.3351 7.75 74.6251 9.67 75.5551 11.89C76.5151 14.08 76.9951 16.42 76.9951 18.91V23.32H61.4251L52.4251 14.41Z" fill="white"/>
<path d="M116.116 37H107.296V17.65C107.296 16.57 107.086 15.565 106.666 14.635C106.276 13.675 105.721 12.85 105.001 12.16C104.311 11.47 103.486 10.93 102.526 10.54C101.596 10.12 100.606 9.91 99.5555 9.91C98.4755 9.91 97.4555 10.12 96.4955 10.54C95.5655 10.93 94.7405 11.47 94.0205 12.16C93.3005 12.85 92.7305 13.675 92.3105 14.635C91.9205 15.565 91.7255 16.57 91.7255 17.65V37H82.9055V17.65C82.9055 15.37 83.3405 13.225 84.2105 11.215C85.0805 9.175 86.2655 7.405 87.7655 5.905C89.2955 4.375 91.0655 3.175 93.0755 2.305C95.0855 1.435 97.2455 0.999999 99.5555 0.999999C101.836 0.999999 103.981 1.435 105.991 2.305C108.031 3.175 109.786 4.375 111.256 5.905C112.756 7.405 113.941 9.175 114.811 11.215C115.681 13.225 116.116 15.37 116.116 17.65V37Z" fill="white"/>
<path d="M127.225 7.28247C130.076 4.86738 133.708 3.45018 137.415 3.09881C140.789 2.78024 144.28 3.21593 147.375 4.64016C149.699 5.71067 151.789 7.38788 153.129 9.5898C154.331 11.5504 154.851 13.9163 154.579 16.1979C154.34 18.4162 153.279 20.5502 151.573 22.0002C148.75 24.4481 144.432 24.8487 141.128 23.1715C139.404 22.2837 138.007 20.7329 137.403 18.8754C136.576 16.3947 137.014 13.4947 138.638 11.431C139.062 10.932 139.58 10.2738 140.311 10.3628C140.393 10.8946 140.109 11.3865 140.102 11.9135C139.987 13.1246 140.585 14.3614 141.594 15.0337C143.225 16.1815 145.706 15.9285 146.995 14.3778C148.202 12.9887 148.256 10.8009 147.213 9.30168C146.121 7.70411 144.202 6.87488 142.33 6.67577C139.636 6.34782 136.817 7.23562 134.833 9.09554C131.78 11.9229 130.746 16.5587 131.927 20.4987C132.6 22.7521 134.078 24.7362 135.997 26.0808C138.246 27.6854 141.03 28.4326 143.771 28.4373C146.316 28.428 148.886 27.7674 151.025 26.3642C153.127 25.0033 154.729 22.9255 155.594 20.583C155.713 20.2715 155.798 19.9412 155.988 19.6624C156.149 19.4235 156.557 19.3813 156.723 19.6367C156.929 19.9388 156.962 20.3183 156.99 20.6744C157.15 25.5725 155.327 30.5807 151.78 34.0101C148.481 37.3176 143.776 39.0323 139.139 38.9995C134.488 39.0323 129.783 37.3411 126.414 34.0897C124.87 32.621 123.605 30.8618 122.705 28.9316C121.049 25.3968 120.629 21.342 121.316 17.5144C122.026 13.5556 124.132 9.85918 127.225 7.28247Z" fill="#8BBC3A"/>
<path d="M193.206 0.999999L173.406 37L158.826 7.84L165.486 1.18L173.766 17.74L182.946 0.999999H193.206Z" fill="white"/>
<path d="M203.883 0.999999V37H194.973V9.82L203.883 0.999999Z" fill="white"/>
<path d="M219.815 37L210.905 28H229.265C229.895 28 230.435 27.79 230.885 27.37C231.365 26.92 231.605 26.38 231.605 25.75C231.605 25.12 231.365 24.595 230.885 24.175C230.435 23.725 229.895 23.5 229.265 23.5H221.165C219.635 23.5 218.195 23.215 216.845 22.645C215.495 22.045 214.31 21.235 213.29 20.215C212.27 19.195 211.46 18.01 210.86 16.66C210.29 15.28 210.005 13.81 210.005 12.25C210.005 10.72 210.29 9.28 210.86 7.93C211.46 6.55 212.27 5.35 213.29 4.33C214.31 3.31 215.495 2.5 216.845 1.9C218.195 1.3 219.635 0.999999 221.165 0.999999H230.615V10H221.165C220.535 10 219.995 10.225 219.545 10.675C219.125 11.095 218.915 11.62 218.915 12.25C218.915 12.88 219.125 13.435 219.545 13.915C219.995 14.365 220.535 14.59 221.165 14.59H229.265C230.825 14.59 232.28 14.89 233.63 15.49C235.01 16.06 236.21 16.855 237.23 17.875C238.25 18.895 239.045 20.08 239.615 21.43C240.215 22.78 240.515 24.22 240.515 25.75C240.515 27.31 240.215 28.78 239.615 30.16C239.045 31.51 238.25 32.695 237.23 33.715C236.21 34.735 235.01 35.545 233.63 36.145C232.28 36.715 230.825 37 229.265 37H219.815Z" fill="white"/>
<path d="M257.425 14.41H271.825C271.045 13 269.95 11.875 268.54 11.035C267.16 10.165 265.615 9.73 263.905 9.73C262.645 9.73 261.46 9.97 260.35 10.45C259.24 10.93 258.265 11.59 257.425 12.43C256.585 13.27 255.925 14.245 255.445 15.355C254.965 16.465 254.725 17.65 254.725 18.91C254.725 20.17 254.965 21.355 255.445 22.465C255.925 23.575 256.585 24.55 257.425 25.39C258.265 26.23 259.24 26.89 260.35 27.37C261.46 27.85 262.645 28.09 263.905 28.09H277.855L268.855 37H263.905C261.415 37 259.06 36.535 256.84 35.605C254.65 34.645 252.73 33.355 251.08 31.735C249.46 30.085 248.17 28.165 247.21 25.975C246.28 23.755 245.815 21.4 245.815 18.91C245.815 16.42 246.28 14.08 247.21 11.89C248.17 9.67 249.46 7.75 251.08 6.13C252.73 4.48 254.65 3.19 256.84 2.26C259.06 1.3 261.415 0.819999 263.905 0.819999C266.395 0.819999 268.735 1.3 270.925 2.26C273.145 3.19 275.065 4.48 276.685 6.13C278.335 7.75 279.625 9.67 280.555 11.89C281.515 14.08 281.995 16.42 281.995 18.91V23.32H266.425L257.425 14.41Z" fill="white"/>
</svg>
