<svg width="285" height="39" viewBox="0 0 285 39" fill="none" xmlns="http://www.w3.org/2000/svg">
<mask id="path-1-inside-1_1011_430" fill="white">
<path d="M0.96959 37L19.9596 9.91H7.98959L16.8996 0.999999H37.0596L18.0696 28.09H31.6596L22.7496 37H0.96959Z"/>
</mask>
<path d="M0.96959 37L19.9596 9.91H7.98959L16.8996 0.999999H37.0596L18.0696 28.09H31.6596L22.7496 37H0.96959Z" fill="#373B45"/>
<path d="M0.96959 37L0.150742 36.426L-0.952634 38H0.96959V37ZM19.9596 9.91L20.7784 10.484L21.8818 8.91H19.9596V9.91ZM7.98959 9.91L7.28248 9.20289L5.57538 10.91H7.98959V9.91ZM16.8996 1V-4.76837e-07H16.4854L16.1925 0.292893L16.8996 1ZM37.0596 1L37.8784 1.57401L38.9818 -4.76837e-07H37.0596V1ZM18.0696 28.09L17.2507 27.516L16.1474 29.09H18.0696V28.09ZM31.6596 28.09L32.3667 28.7971L34.0738 27.09H31.6596V28.09ZM22.7496 37V38H23.1638L23.4567 37.7071L22.7496 37ZM1.78844 37.574L20.7784 10.484L19.1407 9.33599L0.150742 36.426L1.78844 37.574ZM19.9596 8.91H7.98959V10.91H19.9596V8.91ZM8.6967 10.6171L17.6067 1.70711L16.1925 0.292893L7.28248 9.20289L8.6967 10.6171ZM16.8996 2H37.0596V-4.76837e-07H16.8996V2ZM36.2407 0.425989L17.2507 27.516L18.8884 28.664L37.8784 1.57401L36.2407 0.425989ZM18.0696 29.09H31.6596V27.09H18.0696V29.09ZM30.9525 27.3829L22.0425 36.2929L23.4567 37.7071L32.3667 28.7971L30.9525 27.3829ZM22.7496 36H0.96959V38H22.7496V36Z" fill="#373B45" fill-opacity="0.709804" mask="url(#path-1-inside-1_1011_430)"/>
<mask id="path-3-inside-2_1011_430" fill="white">
<path d="M52.4251 14.41H66.8251C66.0451 13 64.9501 11.875 63.5401 11.035C62.1601 10.165 60.6151 9.73 58.9051 9.73C57.6451 9.73 56.4601 9.97 55.3501 10.45C54.2401 10.93 53.2651 11.59 52.4251 12.43C51.5851 13.27 50.9251 14.245 50.4451 15.355C49.9651 16.465 49.7251 17.65 49.7251 18.91C49.7251 20.17 49.9651 21.355 50.4451 22.465C50.9251 23.575 51.5851 24.55 52.4251 25.39C53.2651 26.23 54.2401 26.89 55.3501 27.37C56.4601 27.85 57.6451 28.09 58.9051 28.09H72.8551L63.8551 37H58.9051C56.4151 37 54.0601 36.535 51.8401 35.605C49.6501 34.645 47.7301 33.355 46.0801 31.735C44.4601 30.085 43.1701 28.165 42.2101 25.975C41.2801 23.755 40.8151 21.4 40.8151 18.91C40.8151 16.42 41.2801 14.08 42.2101 11.89C43.1701 9.67 44.4601 7.75 46.0801 6.13C47.7301 4.48 49.6501 3.19 51.8401 2.26C54.0601 1.3 56.4151 0.819999 58.9051 0.819999C61.3951 0.819999 63.7351 1.3 65.9251 2.26C68.1451 3.19 70.0651 4.48 71.6851 6.13C73.3351 7.75 74.6251 9.67 75.5551 11.89C76.5151 14.08 76.9951 16.42 76.9951 18.91V23.32H61.4251L52.4251 14.41Z"/>
</mask>
<path d="M52.4251 14.41H66.8251C66.0451 13 64.9501 11.875 63.5401 11.035C62.1601 10.165 60.6151 9.73 58.9051 9.73C57.6451 9.73 56.4601 9.97 55.3501 10.45C54.2401 10.93 53.2651 11.59 52.4251 12.43C51.5851 13.27 50.9251 14.245 50.4451 15.355C49.9651 16.465 49.7251 17.65 49.7251 18.91C49.7251 20.17 49.9651 21.355 50.4451 22.465C50.9251 23.575 51.5851 24.55 52.4251 25.39C53.2651 26.23 54.2401 26.89 55.3501 27.37C56.4601 27.85 57.6451 28.09 58.9051 28.09H72.8551L63.8551 37H58.9051C56.4151 37 54.0601 36.535 51.8401 35.605C49.6501 34.645 47.7301 33.355 46.0801 31.735C44.4601 30.085 43.1701 28.165 42.2101 25.975C41.2801 23.755 40.8151 21.4 40.8151 18.91C40.8151 16.42 41.2801 14.08 42.2101 11.89C43.1701 9.67 44.4601 7.75 46.0801 6.13C47.7301 4.48 49.6501 3.19 51.8401 2.26C54.0601 1.3 56.4151 0.819999 58.9051 0.819999C61.3951 0.819999 63.7351 1.3 65.9251 2.26C68.1451 3.19 70.0651 4.48 71.6851 6.13C73.3351 7.75 74.6251 9.67 75.5551 11.89C76.5151 14.08 76.9951 16.42 76.9951 18.91V23.32H61.4251L52.4251 14.41Z" fill="#373B45"/>
<path d="M52.4251 14.41V13.41H49.9936L51.7215 15.1206L52.4251 14.41ZM66.8251 14.41V15.41H68.5211L67.7001 13.9259L66.8251 14.41ZM63.5401 11.035L63.0068 11.8809L63.0174 11.8876L63.0283 11.8941L63.5401 11.035ZM55.3501 10.45L54.9532 9.53214L54.9532 9.53214L55.3501 10.45ZM50.4451 15.355L51.3629 15.7519L50.4451 15.355ZM50.4451 22.465L51.3629 22.0681L50.4451 22.465ZM52.4251 25.39L53.1322 24.6829L52.4251 25.39ZM55.3501 27.37L55.747 26.4521L55.3501 27.37ZM72.8551 28.09L73.5586 28.8006L75.2866 27.09H72.8551V28.09ZM63.8551 37V38H64.2664L64.5586 37.7107L63.8551 37ZM51.8401 35.605L51.4386 36.5209L51.4461 36.5242L51.4537 36.5273L51.8401 35.605ZM46.0801 31.735L45.3665 32.4356L45.3729 32.4421L45.3795 32.4486L46.0801 31.735ZM42.2101 25.975L41.2877 26.3614L41.2909 26.369L41.2942 26.3765L42.2101 25.975ZM42.2101 11.89L41.2922 11.4931L41.2896 11.4991L42.2101 11.89ZM46.0801 6.13L45.373 5.42289L45.373 5.42289L46.0801 6.13ZM51.8401 2.26L52.231 3.18046L52.237 3.17786L51.8401 2.26ZM65.9251 2.26L65.5236 3.17587L65.5311 3.17916L65.5387 3.18234L65.9251 2.26ZM71.6851 6.13L70.9715 6.83059L70.9779 6.83713L70.9845 6.84356L71.6851 6.13ZM75.5551 11.89L74.6327 12.2764L74.6359 12.284L74.6392 12.2915L75.5551 11.89ZM76.9951 23.32V24.32H77.9951V23.32H76.9951ZM61.4251 23.32L60.7215 24.0307L61.0138 24.32H61.4251V23.32ZM52.4251 15.41H66.8251V13.41H52.4251V15.41ZM67.7001 13.9259C66.8327 12.358 65.6111 11.1048 64.0519 10.1759L63.0283 11.8941C64.2891 12.6452 65.2574 13.642 65.95 14.8941L67.7001 13.9259ZM64.0734 10.1891C62.5258 9.21344 60.7943 8.73 58.9051 8.73V10.73C60.4359 10.73 61.7943 11.1166 63.0068 11.8809L64.0734 10.1891ZM58.9051 8.73C57.5144 8.73 56.1937 8.99568 54.9532 9.53214L55.747 11.3679C56.7264 10.9443 57.7758 10.73 58.9051 10.73V8.73ZM54.9532 9.53214C53.7295 10.0613 52.6488 10.7921 51.718 11.7229L53.1322 13.1371C53.8814 12.3879 54.7506 11.7987 55.747 11.3679L54.9532 9.53214ZM51.718 11.7229C50.7872 12.6537 50.0564 13.7345 49.5272 14.9581L51.3629 15.7519C51.7938 14.7555 52.383 13.8863 53.1322 13.1371L51.718 11.7229ZM49.5272 14.9581C48.9908 16.1986 48.7251 17.5193 48.7251 18.91H50.7251C50.7251 17.7807 50.9394 16.7313 51.3629 15.7519L49.5272 14.9581ZM48.7251 18.91C48.7251 20.3007 48.9908 21.6213 49.5272 22.8619L51.3629 22.0681C50.9394 21.0886 50.7251 20.0393 50.7251 18.91H48.7251ZM49.5272 22.8619C50.0564 24.0855 50.7872 25.1663 51.718 26.0971L53.1322 24.6829C52.383 23.9337 51.7938 23.0645 51.3629 22.0681L49.5272 22.8619ZM51.718 26.0971C52.6488 27.0279 53.7295 27.7587 54.9532 28.2879L55.747 26.4521C54.7506 26.0213 53.8814 25.4321 53.1322 24.6829L51.718 26.0971ZM54.9532 28.2879C56.1937 28.8243 57.5144 29.09 58.9051 29.09V27.09C57.7758 27.09 56.7264 26.8757 55.747 26.4521L54.9532 28.2879ZM58.9051 29.09H72.8551V27.09H58.9051V29.09ZM72.1515 27.3793L63.1515 36.2893L64.5586 37.7107L73.5586 28.8006L72.1515 27.3793ZM63.8551 36H58.9051V38H63.8551V36ZM58.9051 36C56.5431 36 54.3199 35.5596 52.2265 34.6827L51.4537 36.5273C53.8003 37.5104 56.2871 38 58.9051 38V36ZM52.2416 34.6891C50.1589 33.7762 48.3411 32.5535 46.7807 31.0214L45.3795 32.4486C47.119 34.1565 49.1413 35.5138 51.4386 36.5209L52.2416 34.6891ZM46.7936 31.0344C45.2616 29.474 44.0389 27.6562 43.1259 25.5735L41.2942 26.3765C42.3012 28.6738 43.6586 30.696 45.3665 32.4356L46.7936 31.0344ZM43.1324 25.5886C42.2555 23.4952 41.8151 21.272 41.8151 18.91H39.8151C39.8151 21.528 40.3047 24.0148 41.2877 26.3614L43.1324 25.5886ZM41.8151 18.91C41.8151 16.5479 42.2555 14.3415 43.1305 12.2809L41.2896 11.4991C40.3047 13.8185 39.8151 16.2921 39.8151 18.91H41.8151ZM43.1279 12.2869C44.0407 10.1761 45.2613 8.36302 46.7872 6.8371L45.373 5.42289C43.6589 7.13697 42.2995 9.16386 41.2922 11.4931L43.1279 12.2869ZM46.7872 6.8371C48.3446 5.27966 50.1567 4.06129 52.231 3.18044L51.4492 1.33955C49.1435 2.31871 47.1155 3.68034 45.373 5.42289L46.7872 6.8371ZM52.237 3.17786C54.328 2.27366 56.5475 1.82 58.9051 1.82V-0.180001C56.2827 -0.180001 53.7922 0.326341 51.4432 1.34214L52.237 3.17786ZM58.9051 1.82C61.2627 1.82 63.4654 2.27365 65.5236 3.17587L66.3266 1.34413C64.0047 0.326348 61.5274 -0.180001 58.9051 -0.180001V1.82ZM65.5387 3.18234C67.6411 4.06307 69.4485 5.27942 70.9715 6.83059L72.3986 5.42941C70.6816 3.68058 68.6491 2.31693 66.3115 1.33766L65.5387 3.18234ZM70.9845 6.84356C72.5357 8.36653 73.752 10.174 74.6327 12.2764L76.4774 11.5036C75.4981 9.16601 74.1345 7.13347 72.3857 5.41643L70.9845 6.84356ZM74.6392 12.2915C75.5414 14.3497 75.9951 16.5524 75.9951 18.91H77.9951C77.9951 16.2876 77.4887 13.8103 76.4709 11.4885L74.6392 12.2915ZM75.9951 18.91V23.32H77.9951V18.91H75.9951ZM76.9951 22.32H61.4251V24.32H76.9951V22.32ZM62.1286 22.6093L53.1286 13.6993L51.7215 15.1206L60.7215 24.0307L62.1286 22.6093Z" fill="#373B45" fill-opacity="0.709804" mask="url(#path-3-inside-2_1011_430)"/>
<mask id="path-5-inside-3_1011_430" fill="white">
<path d="M116.116 37H107.296V17.65C107.296 16.57 107.086 15.565 106.666 14.635C106.276 13.675 105.721 12.85 105.001 12.16C104.311 11.47 103.486 10.93 102.526 10.54C101.596 10.12 100.606 9.91 99.5555 9.91C98.4755 9.91 97.4555 10.12 96.4955 10.54C95.5655 10.93 94.7405 11.47 94.0205 12.16C93.3005 12.85 92.7305 13.675 92.3105 14.635C91.9205 15.565 91.7255 16.57 91.7255 17.65V37H82.9055V17.65C82.9055 15.37 83.3405 13.225 84.2105 11.215C85.0805 9.175 86.2655 7.405 87.7655 5.905C89.2955 4.375 91.0655 3.175 93.0755 2.305C95.0855 1.435 97.2455 0.999999 99.5555 0.999999C101.836 0.999999 103.981 1.435 105.991 2.305C108.031 3.175 109.786 4.375 111.256 5.905C112.756 7.405 113.941 9.175 114.811 11.215C115.681 13.225 116.116 15.37 116.116 17.65V37Z"/>
</mask>
<path d="M116.116 37H107.296V17.65C107.296 16.57 107.086 15.565 106.666 14.635C106.276 13.675 105.721 12.85 105.001 12.16C104.311 11.47 103.486 10.93 102.526 10.54C101.596 10.12 100.606 9.91 99.5555 9.91C98.4755 9.91 97.4555 10.12 96.4955 10.54C95.5655 10.93 94.7405 11.47 94.0205 12.16C93.3005 12.85 92.7305 13.675 92.3105 14.635C91.9205 15.565 91.7255 16.57 91.7255 17.65V37H82.9055V17.65C82.9055 15.37 83.3405 13.225 84.2105 11.215C85.0805 9.175 86.2655 7.405 87.7655 5.905C89.2955 4.375 91.0655 3.175 93.0755 2.305C95.0855 1.435 97.2455 0.999999 99.5555 0.999999C101.836 0.999999 103.981 1.435 105.991 2.305C108.031 3.175 109.786 4.375 111.256 5.905C112.756 7.405 113.941 9.175 114.811 11.215C115.681 13.225 116.116 15.37 116.116 17.65V37Z" fill="#373B45"/>
<path d="M116.116 37V38H117.116V37H116.116ZM107.296 37H106.296V38H107.296V37ZM106.666 14.635L105.739 15.0114L105.746 15.0291L105.754 15.0466L106.666 14.635ZM105.001 12.16L104.293 12.8671L104.301 12.8746L104.309 12.882L105.001 12.16ZM102.526 10.54L102.114 11.4514L102.131 11.4593L102.149 11.4665L102.526 10.54ZM96.4955 10.54L96.8823 11.4622L96.8893 11.4592L96.8964 11.4562L96.4955 10.54ZM94.0205 12.16L94.7125 12.882V12.882L94.0205 12.16ZM92.3105 14.635L91.3944 14.2342L91.3913 14.2412L91.3884 14.2483L92.3105 14.635ZM91.7255 37V38H92.7255V37H91.7255ZM82.9055 37H81.9055V38H82.9055V37ZM84.2105 11.215L85.1283 11.6122L85.1304 11.6073L84.2105 11.215ZM87.7655 5.905L87.0584 5.19789L87.7655 5.905ZM105.991 2.305L105.593 3.22273L105.598 3.22484L105.991 2.305ZM111.256 5.905L110.534 6.59782L110.541 6.60503L110.548 6.6121L111.256 5.905ZM114.811 11.215L113.891 11.6073L113.893 11.6122L114.811 11.215ZM116.116 36H107.296V38H116.116V36ZM108.296 37V17.65H106.296V37H108.296ZM108.296 17.65C108.296 16.4365 108.059 15.2902 107.577 14.2234L105.754 15.0466C106.112 15.8398 106.296 16.7035 106.296 17.65H108.296ZM107.592 14.2586C107.151 13.1734 106.518 12.2292 105.692 11.438L104.309 12.882C104.923 13.4708 105.4 14.1766 105.739 15.0114L107.592 14.2586ZM105.708 11.4529C104.917 10.6627 103.978 10.0507 102.902 9.61353L102.149 11.4665C102.993 11.8093 103.704 12.2773 104.293 12.8671L105.708 11.4529ZM102.937 9.62863C101.874 9.1485 100.743 8.91 99.5555 8.91V10.91C100.468 10.91 101.317 11.0915 102.114 11.4514L102.937 9.62863ZM99.5555 8.91C98.3419 8.91 97.185 9.14683 96.0947 9.62384L96.8964 11.4562C97.7261 11.0932 98.6092 10.91 99.5555 10.91V8.91ZM96.1088 9.61781C95.067 10.0547 94.1382 10.6621 93.3286 11.438L94.7125 12.882C95.3429 12.2778 96.0641 11.8053 96.8823 11.4622L96.1088 9.61781ZM93.3286 11.438C92.5087 12.2238 91.8645 13.1596 91.3944 14.2342L93.2267 15.0358C93.5966 14.1904 94.0924 13.4762 94.7125 12.882L93.3286 11.438ZM91.3884 14.2483C90.9434 15.3092 90.7255 16.4467 90.7255 17.65H92.7255C92.7255 16.6933 92.8977 15.8208 93.2327 15.0217L91.3884 14.2483ZM90.7255 17.65V37H92.7255V17.65H90.7255ZM91.7255 36H82.9055V38H91.7255V36ZM83.9055 37V17.65H81.9055V37H83.9055ZM83.9055 17.65C83.9055 15.5009 84.3148 13.4917 85.1283 11.6122L83.2928 10.8178C82.3663 12.9583 81.9055 15.2391 81.9055 17.65H83.9055ZM85.1304 11.6073C85.9526 9.67942 87.0671 8.01764 88.4727 6.6121L87.0584 5.19789C85.464 6.79236 84.2085 8.67057 83.2907 10.8227L85.1304 11.6073ZM88.4727 6.6121C89.9124 5.17232 91.577 4.04329 93.4728 3.22272L92.6783 1.38728C90.5541 2.3067 88.6787 3.57768 87.0584 5.19789L88.4727 6.6121ZM93.4728 3.22272C95.3506 2.40994 97.3746 2 99.5555 2V-4.76837e-07C97.1165 -4.76837e-07 94.8205 0.460059 92.6783 1.38728L93.4728 3.22272ZM99.5555 2C101.705 2 103.714 2.40923 105.593 3.22272L106.388 1.38728C104.247 0.460773 101.966 -4.76837e-07 99.5555 -4.76837e-07V2ZM105.598 3.22484C107.52 4.0445 109.162 5.16922 110.534 6.59782L111.977 5.21217C110.409 3.58077 108.541 2.3055 106.383 1.38516L105.598 3.22484ZM110.548 6.6121C111.954 8.01764 113.069 9.67942 113.891 11.6073L115.73 10.8227C114.813 8.67057 113.557 6.79236 111.963 5.19789L110.548 6.6121ZM113.893 11.6122C114.706 13.4917 115.116 15.5009 115.116 17.65H117.116C117.116 15.2391 116.655 12.9583 115.728 10.8178L113.893 11.6122ZM115.116 17.65V37H117.116V17.65H115.116Z" fill="#373B45" fill-opacity="0.709804" mask="url(#path-5-inside-3_1011_430)"/>
<path d="M127.225 7.28247C130.076 4.86738 133.708 3.45018 137.415 3.09881C140.789 2.78024 144.28 3.21593 147.375 4.64016C149.699 5.71067 151.789 7.38788 153.129 9.5898C154.331 11.5504 154.851 13.9163 154.579 16.1979C154.34 18.4162 153.279 20.5502 151.573 22.0002C148.75 24.4481 144.432 24.8487 141.128 23.1715C139.404 22.2837 138.007 20.7329 137.403 18.8754C136.576 16.3947 137.014 13.4947 138.638 11.431C139.062 10.932 139.58 10.2738 140.311 10.3628C140.393 10.8946 140.109 11.3865 140.102 11.9135C139.987 13.1246 140.585 14.3614 141.594 15.0337C143.225 16.1815 145.706 15.9285 146.995 14.3778C148.202 12.9887 148.256 10.8009 147.213 9.30168C146.121 7.70411 144.202 6.87488 142.33 6.67577C139.636 6.34782 136.817 7.23562 134.833 9.09554C131.78 11.9229 130.746 16.5587 131.927 20.4987C132.6 22.7521 134.078 24.7362 135.997 26.0808C138.246 27.6854 141.03 28.4326 143.771 28.4373C146.316 28.428 148.886 27.7674 151.025 26.3642C153.127 25.0033 154.729 22.9255 155.594 20.583C155.713 20.2715 155.798 19.9412 155.988 19.6624C156.149 19.4235 156.557 19.3813 156.723 19.6367C156.929 19.9388 156.962 20.3183 156.99 20.6744C157.15 25.5725 155.327 30.5807 151.78 34.0101C148.481 37.3176 143.776 39.0323 139.139 38.9995C134.488 39.0323 129.783 37.3411 126.414 34.0897C124.87 32.621 123.605 30.8618 122.705 28.9316C121.049 25.3968 120.629 21.342 121.316 17.5144C122.026 13.5556 124.132 9.85918 127.225 7.28247Z" fill="#8BBC3A"/>
<mask id="path-8-inside-4_1011_430" fill="white">
<path d="M193.206 0.999999L173.406 37L158.826 7.84L165.486 1.18L173.766 17.74L182.946 0.999999H193.206Z"/>
</mask>
<path d="M193.206 0.999999L173.406 37L158.826 7.84L165.486 1.18L173.766 17.74L182.946 0.999999H193.206Z" fill="#373B45"/>
<path d="M193.206 1L194.083 1.48192L194.898 -4.76837e-07H193.206V1ZM173.406 37L172.512 37.4472L173.364 39.1517L174.283 37.4819L173.406 37ZM158.826 7.84L158.119 7.13289L157.61 7.64255L157.932 8.28721L158.826 7.84ZM165.486 1.18L166.381 0.732784L165.76 -0.508168L164.779 0.472891L165.486 1.18ZM173.766 17.74L172.872 18.1872L173.726 19.8943L174.643 18.2208L173.766 17.74ZM182.946 1V-4.76837e-07H182.354L182.07 0.519167L182.946 1ZM192.33 0.518081L172.53 36.5181L174.283 37.4819L194.083 1.48192L192.33 0.518081ZM174.301 36.5528L159.721 7.39279L157.932 8.28721L172.512 37.4472L174.301 36.5528ZM159.534 8.54711L166.194 1.8871L164.779 0.472891L158.119 7.13289L159.534 8.54711ZM164.592 1.62721L172.872 18.1872L174.661 17.2928L166.381 0.732784L164.592 1.62721ZM174.643 18.2208L183.823 1.48083L182.07 0.519167L172.89 17.2592L174.643 18.2208ZM182.946 2H193.206V-4.76837e-07H182.946V2Z" fill="#373B45" fill-opacity="0.709804" mask="url(#path-8-inside-4_1011_430)"/>
<mask id="path-10-inside-5_1011_430" fill="white">
<path d="M203.883 0.999999V37H194.973V9.82L203.883 0.999999Z"/>
</mask>
<path d="M203.883 0.999999V37H194.973V9.82L203.883 0.999999Z" fill="#373B45"/>
<path d="M203.883 1H204.883V-1.39699L203.179 0.289312L203.883 1ZM203.883 37V38H204.883V37H203.883ZM194.973 37H193.973V38H194.973V37ZM194.973 9.82L194.269 9.10931L193.973 9.40281V9.82H194.973ZM202.883 1V37H204.883V1H202.883ZM203.883 36H194.973V38H203.883V36ZM195.973 37V9.82H193.973V37H195.973ZM195.676 10.5307L204.586 1.71069L203.179 0.289312L194.269 9.10931L195.676 10.5307Z" fill="#373B45" fill-opacity="0.709804" mask="url(#path-10-inside-5_1011_430)"/>
<mask id="path-12-inside-6_1011_430" fill="white">
<path d="M219.815 37L210.905 28H229.265C229.895 28 230.435 27.79 230.885 27.37C231.365 26.92 231.605 26.38 231.605 25.75C231.605 25.12 231.365 24.595 230.885 24.175C230.435 23.725 229.895 23.5 229.265 23.5H221.165C219.635 23.5 218.195 23.215 216.845 22.645C215.495 22.045 214.31 21.235 213.29 20.215C212.27 19.195 211.46 18.01 210.86 16.66C210.29 15.28 210.005 13.81 210.005 12.25C210.005 10.72 210.29 9.28 210.86 7.93C211.46 6.55 212.27 5.35 213.29 4.33C214.31 3.31 215.495 2.5 216.845 1.9C218.195 1.3 219.635 0.999999 221.165 0.999999H230.615V10H221.165C220.535 10 219.995 10.225 219.545 10.675C219.125 11.095 218.915 11.62 218.915 12.25C218.915 12.88 219.125 13.435 219.545 13.915C219.995 14.365 220.535 14.59 221.165 14.59H229.265C230.825 14.59 232.28 14.89 233.63 15.49C235.01 16.06 236.21 16.855 237.23 17.875C238.25 18.895 239.045 20.08 239.615 21.43C240.215 22.78 240.515 24.22 240.515 25.75C240.515 27.31 240.215 28.78 239.615 30.16C239.045 31.51 238.25 32.695 237.23 33.715C236.21 34.735 235.01 35.545 233.63 36.145C232.28 36.715 230.825 37 229.265 37H219.815Z"/>
</mask>
<path d="M219.815 37L210.905 28H229.265C229.895 28 230.435 27.79 230.885 27.37C231.365 26.92 231.605 26.38 231.605 25.75C231.605 25.12 231.365 24.595 230.885 24.175C230.435 23.725 229.895 23.5 229.265 23.5H221.165C219.635 23.5 218.195 23.215 216.845 22.645C215.495 22.045 214.31 21.235 213.29 20.215C212.27 19.195 211.46 18.01 210.86 16.66C210.29 15.28 210.005 13.81 210.005 12.25C210.005 10.72 210.29 9.28 210.86 7.93C211.46 6.55 212.27 5.35 213.29 4.33C214.31 3.31 215.495 2.5 216.845 1.9C218.195 1.3 219.635 0.999999 221.165 0.999999H230.615V10H221.165C220.535 10 219.995 10.225 219.545 10.675C219.125 11.095 218.915 11.62 218.915 12.25C218.915 12.88 219.125 13.435 219.545 13.915C219.995 14.365 220.535 14.59 221.165 14.59H229.265C230.825 14.59 232.28 14.89 233.63 15.49C235.01 16.06 236.21 16.855 237.23 17.875C238.25 18.895 239.045 20.08 239.615 21.43C240.215 22.78 240.515 24.22 240.515 25.75C240.515 27.31 240.215 28.78 239.615 30.16C239.045 31.51 238.25 32.695 237.23 33.715C236.21 34.735 235.01 35.545 233.63 36.145C232.28 36.715 230.825 37 229.265 37H219.815Z" fill="#373B45"/>
<path d="M219.815 37L219.105 37.7035L219.398 38H219.815V37ZM210.905 28V27H208.508L210.195 28.7035L210.905 28ZM230.885 27.37L231.568 28.1011L231.569 28.0995L230.885 27.37ZM230.885 24.175L230.178 24.8821L230.202 24.9056L230.227 24.9276L230.885 24.175ZM216.845 22.645L216.439 23.5588L216.448 23.5626L216.456 23.5662L216.845 22.645ZM213.29 20.215L213.997 19.5079H213.997L213.29 20.215ZM210.86 16.66L209.936 17.0418L209.941 17.054L209.947 17.0661L210.86 16.66ZM210.86 7.93L209.943 7.53125L209.939 7.54103L210.86 7.93ZM213.29 4.33L213.997 5.03711L213.997 5.03711L213.29 4.33ZM230.615 1H231.615V-4.76837e-07H230.615V1ZM230.615 10V11H231.615V10H230.615ZM219.545 10.675L218.838 9.96789L218.838 9.96789L219.545 10.675ZM219.545 13.915L218.793 14.5735L218.815 14.5986L218.838 14.6221L219.545 13.915ZM233.63 15.49L233.224 16.4038L233.236 16.4092L233.249 16.4143L233.63 15.49ZM237.23 17.875L237.937 17.1679L237.23 17.875ZM239.615 21.43L238.694 21.819L238.698 21.8276L238.702 21.8361L239.615 21.43ZM239.615 30.16L238.698 29.7612L238.694 29.771L239.615 30.16ZM237.23 33.715L237.937 34.4221V34.4221L237.23 33.715ZM233.63 36.145L234.019 37.0663L234.029 37.0621L233.63 36.145ZM220.526 36.2965L211.616 27.2965L210.195 28.7035L219.105 37.7035L220.526 36.2965ZM210.905 29H229.265V27H210.905V29ZM229.265 29C230.142 29 230.928 28.6983 231.568 28.1011L230.203 26.6389C229.943 26.8817 229.649 27 229.265 27V29ZM231.569 28.0995C232.241 27.4699 232.605 26.6699 232.605 25.75H230.605C230.605 26.0901 230.49 26.3701 230.201 26.6405L231.569 28.0995ZM232.605 25.75C232.605 24.8276 232.238 24.0296 231.544 23.4224L230.227 24.9276C230.493 25.1604 230.605 25.4124 230.605 25.75H232.605ZM231.592 23.4679C230.957 22.8325 230.164 22.5 229.265 22.5V24.5C229.627 24.5 229.914 24.6175 230.178 24.8821L231.592 23.4679ZM229.265 22.5H221.165V24.5H229.265V22.5ZM221.165 22.5C219.763 22.5 218.456 22.2395 217.234 21.7238L216.456 23.5662C217.935 24.1905 219.508 24.5 221.165 24.5V22.5ZM217.251 21.7312C216.011 21.1798 214.929 20.439 213.997 19.5079L212.583 20.9221C213.692 22.031 214.98 22.9102 216.439 23.5588L217.251 21.7312ZM213.997 19.5079C213.066 18.5768 212.326 17.4945 211.774 16.2539L209.947 17.0661C210.595 18.5255 211.474 19.8132 212.583 20.9221L213.997 19.5079ZM211.785 16.2782C211.267 15.0247 211.005 13.685 211.005 12.25H209.005C209.005 13.935 209.314 15.5353 209.936 17.0418L211.785 16.2782ZM211.005 12.25C211.005 10.8476 211.266 9.54046 211.782 8.31897L209.939 7.54103C209.315 9.01953 209.005 10.5924 209.005 12.25H211.005ZM211.777 8.32872C212.33 7.05873 213.07 5.96458 213.997 5.03711L212.583 3.62289C211.471 4.73542 210.591 6.04127 209.943 7.53127L211.777 8.32872ZM213.997 5.03711C214.929 4.106 216.011 3.36519 217.251 2.81381L216.439 0.986187C214.98 1.63481 213.692 2.51399 212.583 3.62289L213.997 5.03711ZM217.251 2.81381C218.469 2.27268 219.77 2 221.165 2V-4.76837e-07C219.501 -4.76837e-07 217.922 0.327322 216.439 0.986187L217.251 2.81381ZM221.165 2H230.615V-4.76837e-07H221.165V2ZM229.615 1V10H231.615V1H229.615ZM230.615 9H221.165V11H230.615V9ZM221.165 9C220.267 9 219.474 9.3325 218.838 9.96789L220.252 11.3821C220.517 11.1175 220.804 11 221.165 11V9ZM218.838 9.96789C218.218 10.5877 217.915 11.3726 217.915 12.25H219.915C219.915 11.8674 220.032 11.6023 220.252 11.3821L218.838 9.96789ZM217.915 12.25C217.915 13.1255 218.215 13.9137 218.793 14.5735L220.298 13.2565C220.035 12.9563 219.915 12.6345 219.915 12.25H217.915ZM218.838 14.6221C219.474 15.2575 220.267 15.59 221.165 15.59V13.59C220.804 13.59 220.517 13.4725 220.252 13.2079L218.838 14.6221ZM221.165 15.59H229.265V13.59H221.165V15.59ZM229.265 15.59C230.693 15.59 232.009 15.8638 233.224 16.4038L234.036 14.5762C232.552 13.9162 230.957 13.59 229.265 13.59V15.59ZM233.249 16.4143C234.511 16.9358 235.6 17.6585 236.523 18.5821L237.937 17.1679C236.821 16.0515 235.509 15.1842 234.012 14.5657L233.249 16.4143ZM236.523 18.5821C237.451 19.5094 238.173 20.5859 238.694 21.819L240.537 21.041C239.917 19.5741 239.05 18.2806 237.937 17.1679L236.523 18.5821ZM238.702 21.8361C239.243 23.0537 239.515 24.3548 239.515 25.75H241.515C241.515 24.0852 241.188 22.5063 240.529 21.0239L238.702 21.8361ZM239.515 25.75C239.515 27.178 239.242 28.5117 238.698 29.7613L240.532 30.5587C241.189 29.0483 241.515 27.442 241.515 25.75H239.515ZM238.694 29.771C238.173 31.0041 237.451 32.0806 236.523 33.0079L237.937 34.4221C239.05 33.3094 239.917 32.0159 240.537 30.549L238.694 29.771ZM236.523 33.0079C235.596 33.9354 234.502 34.6758 233.232 35.2279L234.029 37.0621C235.519 36.4142 236.825 35.5346 237.937 34.4221L236.523 33.0079ZM233.241 35.2238C232.022 35.7385 230.7 36 229.265 36V38C230.95 38 232.538 37.6915 234.019 37.0662L233.241 35.2238ZM229.265 36H219.815V38H229.265V36Z" fill="#373B45" fill-opacity="0.709804" mask="url(#path-12-inside-6_1011_430)"/>
<mask id="path-14-inside-7_1011_430" fill="white">
<path d="M257.425 14.41H271.825C271.045 13 269.95 11.875 268.54 11.035C267.16 10.165 265.615 9.73 263.905 9.73C262.645 9.73 261.46 9.97 260.35 10.45C259.24 10.93 258.265 11.59 257.425 12.43C256.585 13.27 255.925 14.245 255.445 15.355C254.965 16.465 254.725 17.65 254.725 18.91C254.725 20.17 254.965 21.355 255.445 22.465C255.925 23.575 256.585 24.55 257.425 25.39C258.265 26.23 259.24 26.89 260.35 27.37C261.46 27.85 262.645 28.09 263.905 28.09H277.855L268.855 37H263.905C261.415 37 259.06 36.535 256.84 35.605C254.65 34.645 252.73 33.355 251.08 31.735C249.46 30.085 248.17 28.165 247.21 25.975C246.28 23.755 245.815 21.4 245.815 18.91C245.815 16.42 246.28 14.08 247.21 11.89C248.17 9.67 249.46 7.75 251.08 6.13C252.73 4.48 254.65 3.19 256.84 2.26C259.06 1.3 261.415 0.819999 263.905 0.819999C266.395 0.819999 268.735 1.3 270.925 2.26C273.145 3.19 275.065 4.48 276.685 6.13C278.335 7.75 279.625 9.67 280.555 11.89C281.515 14.08 281.995 16.42 281.995 18.91V23.32H266.425L257.425 14.41Z"/>
</mask>
<path d="M257.425 14.41H271.825C271.045 13 269.95 11.875 268.54 11.035C267.16 10.165 265.615 9.73 263.905 9.73C262.645 9.73 261.46 9.97 260.35 10.45C259.24 10.93 258.265 11.59 257.425 12.43C256.585 13.27 255.925 14.245 255.445 15.355C254.965 16.465 254.725 17.65 254.725 18.91C254.725 20.17 254.965 21.355 255.445 22.465C255.925 23.575 256.585 24.55 257.425 25.39C258.265 26.23 259.24 26.89 260.35 27.37C261.46 27.85 262.645 28.09 263.905 28.09H277.855L268.855 37H263.905C261.415 37 259.06 36.535 256.84 35.605C254.65 34.645 252.73 33.355 251.08 31.735C249.46 30.085 248.17 28.165 247.21 25.975C246.28 23.755 245.815 21.4 245.815 18.91C245.815 16.42 246.28 14.08 247.21 11.89C248.17 9.67 249.46 7.75 251.08 6.13C252.73 4.48 254.65 3.19 256.84 2.26C259.06 1.3 261.415 0.819999 263.905 0.819999C266.395 0.819999 268.735 1.3 270.925 2.26C273.145 3.19 275.065 4.48 276.685 6.13C278.335 7.75 279.625 9.67 280.555 11.89C281.515 14.08 281.995 16.42 281.995 18.91V23.32H266.425L257.425 14.41Z" fill="#373B45"/>
<path d="M257.425 14.41V13.41H254.994L256.722 15.1206L257.425 14.41ZM271.825 14.41V15.41H273.521L272.7 13.9259L271.825 14.41ZM268.54 11.035L268.007 11.8809L268.017 11.8876L268.028 11.8941L268.54 11.035ZM260.35 10.45L259.953 9.53214L259.953 9.53214L260.35 10.45ZM255.445 15.355L256.363 15.7519L255.445 15.355ZM255.445 22.465L256.363 22.0681L255.445 22.465ZM257.425 25.39L258.132 24.6829L257.425 25.39ZM260.35 27.37L260.747 26.4521L260.35 27.37ZM277.855 28.09L278.559 28.8006L280.287 27.09H277.855V28.09ZM268.855 37V38H269.266L269.559 37.7107L268.855 37ZM256.84 35.605L256.439 36.5209L256.446 36.5242L256.454 36.5273L256.84 35.605ZM251.08 31.735L250.367 32.4356L250.373 32.4421L250.379 32.4486L251.08 31.735ZM247.21 25.975L246.288 26.3614L246.291 26.369L246.294 26.3765L247.21 25.975ZM247.21 11.89L246.292 11.4931L246.29 11.4991L247.21 11.89ZM251.08 6.13L250.373 5.42289L250.373 5.42289L251.08 6.13ZM256.84 2.26L257.231 3.18046L257.237 3.17786L256.84 2.26ZM270.925 2.26L270.524 3.17587L270.531 3.17916L270.539 3.18234L270.925 2.26ZM276.685 6.13L275.972 6.83059L275.978 6.83713L275.984 6.84356L276.685 6.13ZM280.555 11.89L279.633 12.2764L279.636 12.284L279.639 12.2915L280.555 11.89ZM281.995 23.32V24.32H282.995V23.32H281.995ZM266.425 23.32L265.722 24.0307L266.014 24.32H266.425V23.32ZM257.425 15.41H271.825V13.41H257.425V15.41ZM272.7 13.9259C271.833 12.358 270.611 11.1048 269.052 10.1759L268.028 11.8941C269.289 12.6452 270.257 13.642 270.95 14.8941L272.7 13.9259ZM269.073 10.1891C267.526 9.21344 265.794 8.73 263.905 8.73V10.73C265.436 10.73 266.794 11.1166 268.007 11.8809L269.073 10.1891ZM263.905 8.73C262.514 8.73 261.194 8.99568 259.953 9.53214L260.747 11.3679C261.726 10.9443 262.776 10.73 263.905 10.73V8.73ZM259.953 9.53214C258.73 10.0613 257.649 10.7921 256.718 11.7229L258.132 13.1371C258.881 12.3879 259.751 11.7987 260.747 11.3679L259.953 9.53214ZM256.718 11.7229C255.787 12.6537 255.056 13.7345 254.527 14.9581L256.363 15.7519C256.794 14.7555 257.383 13.8863 258.132 13.1371L256.718 11.7229ZM254.527 14.9581C253.991 16.1986 253.725 17.5193 253.725 18.91H255.725C255.725 17.7807 255.939 16.7313 256.363 15.7519L254.527 14.9581ZM253.725 18.91C253.725 20.3007 253.991 21.6213 254.527 22.8619L256.363 22.0681C255.939 21.0886 255.725 20.0393 255.725 18.91H253.725ZM254.527 22.8619C255.056 24.0855 255.787 25.1663 256.718 26.0971L258.132 24.6829C257.383 23.9337 256.794 23.0645 256.363 22.0681L254.527 22.8619ZM256.718 26.0971C257.649 27.0279 258.73 27.7587 259.953 28.2879L260.747 26.4521C259.751 26.0213 258.881 25.4321 258.132 24.6829L256.718 26.0971ZM259.953 28.2879C261.194 28.8243 262.514 29.09 263.905 29.09V27.09C262.776 27.09 261.726 26.8757 260.747 26.4521L259.953 28.2879ZM263.905 29.09H277.855V27.09H263.905V29.09ZM277.152 27.3793L268.152 36.2893L269.559 37.7107L278.559 28.8006L277.152 27.3793ZM268.855 36H263.905V38H268.855V36ZM263.905 36C261.543 36 259.32 35.5596 257.226 34.6827L256.454 36.5273C258.8 37.5104 261.287 38 263.905 38V36ZM257.242 34.6891C255.159 33.7762 253.341 32.5535 251.781 31.0214L250.379 32.4486C252.119 34.1565 254.141 35.5138 256.439 36.5209L257.242 34.6891ZM251.794 31.0344C250.262 29.474 249.039 27.6562 248.126 25.5735L246.294 26.3765C247.301 28.6738 248.659 30.696 250.367 32.4356L251.794 31.0344ZM248.132 25.5886C247.255 23.4952 246.815 21.272 246.815 18.91H244.815C244.815 21.528 245.305 24.0148 246.288 26.3614L248.132 25.5886ZM246.815 18.91C246.815 16.5479 247.255 14.3415 248.131 12.2809L246.29 11.4991C245.305 13.8185 244.815 16.2921 244.815 18.91H246.815ZM248.128 12.2869C249.041 10.1761 250.261 8.36302 251.787 6.8371L250.373 5.42289C248.659 7.13697 247.299 9.16386 246.292 11.4931L248.128 12.2869ZM251.787 6.8371C253.345 5.27966 255.157 4.06129 257.231 3.18044L256.449 1.33955C254.143 2.31871 252.116 3.68034 250.373 5.42289L251.787 6.8371ZM257.237 3.17786C259.328 2.27366 261.547 1.82 263.905 1.82V-0.180001C261.283 -0.180001 258.792 0.326341 256.443 1.34214L257.237 3.17786ZM263.905 1.82C266.263 1.82 268.465 2.27365 270.524 3.17587L271.327 1.34413C269.005 0.326348 266.527 -0.180001 263.905 -0.180001V1.82ZM270.539 3.18234C272.641 4.06307 274.449 5.27942 275.972 6.83059L277.399 5.42941C275.682 3.68058 273.649 2.31693 271.311 1.33766L270.539 3.18234ZM275.984 6.84356C277.536 8.36653 278.752 10.174 279.633 12.2764L281.477 11.5036C280.498 9.16601 279.134 7.13347 277.386 5.41643L275.984 6.84356ZM279.639 12.2915C280.541 14.3497 280.995 16.5524 280.995 18.91H282.995C282.995 16.2876 282.489 13.8103 281.471 11.4885L279.639 12.2915ZM280.995 18.91V23.32H282.995V18.91H280.995ZM281.995 22.32H266.425V24.32H281.995V22.32ZM267.129 22.6093L258.129 13.6993L256.722 15.1206L265.722 24.0307L267.129 22.6093Z" fill="#373B45" fill-opacity="0.709804" mask="url(#path-14-inside-7_1011_430)"/>
</svg>
