<svg width="14" height="13" viewBox="0 0 14 13" fill="none" xmlns="http://www.w3.org/2000/svg">
<path d="M3.60938 13H1.06641V4.82422H3.60938V13ZM2.32422 3.73047C1.53125 3.73047 0.875 3.04688 0.875 2.22656C0.875 1.43359 1.53125 0.777344 2.32422 0.777344C3.14453 0.777344 3.80078 1.43359 3.80078 2.22656C3.80078 3.04688 3.14453 3.73047 2.32422 3.73047ZM13.0977 13H10.582V9.03516C10.582 8.07812 10.5547 6.875 9.24219 6.875C7.92969 6.875 7.73828 7.88672 7.73828 8.95312V13H5.19531V4.82422H7.62891V5.94531H7.65625C8.01172 5.31641 8.83203 4.63281 10.0625 4.63281C12.6328 4.63281 13.125 6.32812 13.125 8.51562V13H13.0977Z" fill="#8BBC3A"/>
</svg>
